<?xml version="1.0" encoding="UTF-8" standalone="no"?>
<!-- Created with Inkscape (http://www.inkscape.org/) -->

<svg
   xmlns:dc="http://purl.org/dc/elements/1.1/"
   xmlns:cc="http://creativecommons.org/ns#"
   xmlns:rdf="http://www.w3.org/1999/02/22-rdf-syntax-ns#"
   xmlns:svg="http://www.w3.org/2000/svg"
   xmlns="http://www.w3.org/2000/svg"
   xmlns:xlink="http://www.w3.org/1999/xlink"
   xmlns:sodipodi="http://sodipodi.sourceforge.net/DTD/sodipodi-0.dtd"
   xmlns:inkscape="http://www.inkscape.org/namespaces/inkscape"
   width="48"
   height="48"
   viewBox="0 0 48.000001 48.000001"
   id="svg2"
   version="1.1"
   inkscape:version="0.91 r13725"
   sodipodi:docname="clock.svg">
  <defs
     id="defs4">
    <linearGradient
       inkscape:collect="always"
       id="linearGradient4374">
      <stop
         style="stop-color:#ffffff;stop-opacity:0.38947368"
         offset="0"
         id="stop4376" />
      <stop
         style="stop-color:#ffffff;stop-opacity:0.07843138"
         offset="1"
         id="stop4378" />
    </linearGradient>
    <linearGradient
       inkscape:collect="always"
       id="linearGradient4358">
      <stop
         style="stop-color:#ffffff;stop-opacity:0.22105263"
         offset="0"
         id="stop4360" />
      <stop
         style="stop-color:#ffffff;stop-opacity:0"
         offset="1"
         id="stop4362" />
    </linearGradient>
    <linearGradient
       inkscape:collect="always"
       id="linearGradient4340">
      <stop
         style="stop-color:#000000;stop-opacity:0"
         offset="0"
         id="stop4342" />
      <stop
         id="stop4354"
         offset="0.84630704"
         style="stop-color:#000000;stop-opacity:0" />
      <stop
         id="stop4352"
         offset="0.89812171"
         style="stop-color:#000000;stop-opacity:0" />
      <stop
         id="stop4350"
         offset="0.91539329"
         style="stop-color:#000000;stop-opacity:0.19473684" />
      <stop
         id="stop4348"
         offset="0.96720803"
         style="stop-color:#000000;stop-opacity:0.43137255" />
      <stop
         style="stop-color:#000000;stop-opacity:0.43137255"
         offset="1"
         id="stop4344" />
    </linearGradient>
    <linearGradient
       inkscape:collect="always"
       id="linearGradient4328">
      <stop
         style="stop-color:#000000;stop-opacity:1"
         offset="0"
         id="stop4330" />
      <stop
         style="stop-color:#808080;stop-opacity:1"
         offset="1"
         id="stop4332" />
    </linearGradient>
    <linearGradient
       inkscape:collect="always"
       id="linearGradient4156">
      <stop
         style="stop-color:#ffffff;stop-opacity:0.48947367"
         offset="0"
         id="stop4158" />
      <stop
         style="stop-color:#ffffff;stop-opacity:0.27450982"
         offset="1"
         id="stop4160" />
    </linearGradient>
    <linearGradient
       inkscape:collect="always"
       xlink:href="#linearGradient4156"
       id="linearGradient4162"
       x1="23.039999"
       y1="-0.63999897"
       x2="23.039999"
       y2="24.960001"
       gradientUnits="userSpaceOnUse" />
    <linearGradient
       inkscape:collect="always"
       xlink:href="#linearGradient4328"
       id="linearGradient4334"
       x1="23.039999"
       y1="10.880001"
       x2="23.039999"
       y2="44.16"
       gradientUnits="userSpaceOnUse" />
    <radialGradient
       inkscape:collect="always"
       xlink:href="#linearGradient4340"
       id="radialGradient4346"
       cx="23.039999"
       cy="1028.0422"
       fx="23.039999"
       fy="1028.0422"
       r="18.527555"
       gradientUnits="userSpaceOnUse"
       gradientTransform="translate(104,0)" />
    <radialGradient
       inkscape:collect="always"
       xlink:href="#linearGradient4358"
       id="radialGradient4364"
       cx="23.039999"
       cy="1037.0022"
       fx="23.039999"
       fy="1037.0022"
       r="18.527555"
       gradientUnits="userSpaceOnUse" />
    <linearGradient
       inkscape:collect="always"
       xlink:href="#linearGradient4374"
       id="linearGradient4380"
       x1="23.039999"
       y1="1.9200009"
       x2="23.039999"
       y2="23.68"
       gradientUnits="userSpaceOnUse" />
  </defs>
  <sodipodi:namedview
     id="base"
     pagecolor="#5a6161"
     bordercolor="#666666"
     borderopacity="1.0"
     inkscape:pageopacity="0"
     inkscape:pageshadow="2"
     inkscape:zoom="22.318146"
     inkscape:cx="-9.7971514"
     inkscape:cy="19.385346"
     inkscape:document-units="px"
     inkscape:current-layer="layer1"
     showgrid="true"
     units="px"
     inkscape:window-width="1366"
     inkscape:window-height="706"
     inkscape:window-x="-7"
     inkscape:window-y="0"
     inkscape:window-maximized="1"
     showguides="true"
     inkscape:guide-bbox="true"
     inkscape:object-paths="true"
     inkscape:snap-intersection-paths="true"
     inkscape:object-nodes="true"
     inkscape:snap-smooth-nodes="true"
     inkscape:snap-midpoints="true"
     inkscape:snap-global="true">
    <inkscape:grid
       type="xygrid"
       id="grid3336"
       spacingx="0.001"
       spacingy="0.001" />
    <sodipodi:guide
       position="23.04,24.32"
       orientation="0,1"
       id="guide4134" />
    <sodipodi:guide
       position="23.04,24.32"
       orientation="1,0"
       id="guide4136" />
    <sodipodi:guide
       position="-8.96,7.68"
       orientation="0,1"
       id="guide4961" />
    <sodipodi:guide
       position="-6.4,25.6"
       orientation="0,1"
       id="guide4963" />
  </sodipodi:namedview>
  <metadata
     id="metadata7">
    <rdf:RDF>
      <cc:Work
         rdf:about="">
        <dc:format>image/svg+xml</dc:format>
        <dc:type
           rdf:resource="http://purl.org/dc/dcmitype/StillImage" />
        <dc:title />
      </cc:Work>
    </rdf:RDF>
  </metadata>
  <g
     inkscape:label="Layer 1"
     inkscape:groupmode="layer"
     id="layer1"
     transform="translate(0,-1004.3622)">
    <g
       id="ClockFace"
       inkscape:label="#g6092">
      <g
         id="g6037">
        <g
           id="g5983">
          <g
             id="g5930">
            <g
               id="g5878">
              <g
                 id="g5827">
                <g
                   id="g5777">
                  <g
                     id="g5728">
                    <g
                       id="g5680">
                      <g
                         id="g5633">
                        <g
                           id="g5587">
                          <g
                             id="g5542">
                            <g
                               id="g5498">
                              <g
                                 id="g5455">
                                <g
                                   id="g5413">
                                <g
                                   id="g5372">
                                <g
                                   id="g5332">
                                <g
                                   id="g5293">
                                <g
                                   id="g5255">
                                <g
                                   id="g5218">
                                <g
                                   id="g5182">
                                <g
                                   id="g5147">
                                <g
                                   id="g5113">
                                <g
                                   id="g5080">
                                <g
                                   id="g5048">
                                <g
                                   id="g5017">
                                <g
                                   id="g4987">
                                <g
                                   id="g4958">
                                <g
                                   id="g4930">
                                <g
                                   id="g4903">
                                <g
                                   id="g4877">
                                <g
                                   id="g4852">
                                <g
                                   id="g4828">
                                <g
                                   id="g4805">
                                <g
                                   id="g4783">
                                <g
                                   id="g4762">
                                <g
                                   id="g4742">
                                <g
                                   id="g4723">
                                <g
                                   id="g4705">
                                <g
                                   id="g4688">
                                <g
                                   id="g4672">
                                <g
                                   id="g4657">
                                <g
                                   id="g4643">
                                <circle
                                   r="19.199999"
                                   cy="1028.0422"
                                   cx="23.039999"
                                   id="path4294"
                                   style="opacity:1;fill:#2b2200;fill-opacity:1;stroke:none;stroke-width:0.25;stroke-miterlimit:4;stroke-dasharray:none;stroke-opacity:1" />
                                <path
                                   id="path4164"
                                   transform="translate(0,1004.3622)"
                                   d="M 23.039062 5.4492188 A 18.231003 18.231003 0 0 0 4.8085938 23.679688 A 18.231003 18.231003 0 0 0 23.039062 41.910156 A 18.231003 18.231003 0 0 0 41.271484 23.679688 A 18.231003 18.231003 0 0 0 23.039062 5.4492188 z M 23.039062 7.328125 A 16.351042 16.351042 0 0 1 39.390625 23.679688 A 16.351042 16.351042 0 0 1 23.039062 40.03125 A 16.351042 16.351042 0 0 1 6.6894531 23.679688 A 16.351042 16.351042 0 0 1 23.039062 7.328125 z "
                                   style="opacity:1;fill:#ffffff;fill-opacity:0.30000001;stroke:#000000;stroke-width:0.05;stroke-miterlimit:4;stroke-dasharray:none;stroke-opacity:1" />
                                <g
                                   transform="matrix(0.87268562,0,0,0.87268562,2.9333284,130.88601)"
                                   id="g4318">
                                <path
                                   inkscape:connector-curvature="0"
                                   style="opacity:1;fill:#ffffff;fill-opacity:1;stroke:#008080;stroke-width:0.15000001;stroke-miterlimit:4;stroke-dasharray:none;stroke-opacity:1"
                                   d="m 23.039062,5.4394531 c -0.354559,0 -0.638671,0.286065 -0.638671,0.640625 l 0,0.640625 c 0,0.35456 0.284112,0.6386719 0.638671,0.6386719 0.35456,0 0.640626,-0.2841119 0.640626,-0.6386719 l 0,-0.640625 c 0,-0.35456 -0.286066,-0.640625 -0.640626,-0.640625 z M 14.15625,7.8046875 c -0.0825,0.010337 -0.165423,0.035758 -0.242188,0.080078 -0.307057,0.17728 -0.411654,0.5679421 -0.234374,0.875 L 14,9.3144531 c 0.17728,0.307058 0.567942,0.411655 0.875,0.234375 0.307058,-0.17728 0.411655,-0.567942 0.234375,-0.875 L 14.789062,8.1191406 C 14.656103,7.8888472 14.403765,7.7736754 14.15625,7.8046875 Z m 17.767578,0 c -0.247514,-0.031012 -0.499852,0.08416 -0.632812,0.3144531 l -0.320313,0.5546875 c -0.17728,0.307058 -0.07268,0.69772 0.234375,0.875 0.307058,0.17728 0.69772,0.072683 0.875,-0.234375 l 0.320313,-0.5546875 c 0.17728,-0.3070579 0.07268,-0.69772 -0.234375,-0.875 -0.07677,-0.04432 -0.159683,-0.069741 -0.242188,-0.080078 z M 7.8671875,14.25 c -0.2475146,-0.03101 -0.4998525,0.08611 -0.6328125,0.316406 -0.17728,0.307058 -0.072683,0.695767 0.234375,0.873047 l 0.5527344,0.320313 c 0.3070579,0.17728 0.69772,0.07268 0.875,-0.234375 0.17728,-0.307058 0.072683,-0.69772 -0.234375,-0.875 L 8.1074219,14.332031 C 8.0306574,14.287711 7.9496924,14.260337 7.8671875,14.25 Z m 30.3457035,0 c -0.0825,0.01034 -0.16347,0.03771 -0.240235,0.08203 l -0.554687,0.31836 c -0.307058,0.17728 -0.411655,0.567942 -0.234375,0.875 0.17728,0.307058 0.565989,0.411655 0.873047,0.234375 l 0.554687,-0.320313 c 0.307058,-0.17728 0.411655,-0.565989 0.234375,-0.873047 C 38.712743,14.336113 38.460405,14.218988 38.212891,14.25 Z M 5.4277344,23.050781 c -0.35456,0 -0.6386719,0.286065 -0.6386719,0.640625 0,0.35456 0.2841119,0.640625 0.6386719,0.640625 l 0.640625,0 c 0.35456,0 0.640625,-0.286065 0.640625,-0.640625 0,-0.35456 -0.286065,-0.640625 -0.640625,-0.640625 l -0.640625,0 z m 34.5839846,0 c -0.35456,0 -0.640625,0.286065 -0.640625,0.640625 0,0.35456 0.286065,0.640625 0.640625,0.640625 l 0.638672,0 c 0.35456,0 0.640625,-0.286065 0.640625,-0.640625 0,-0.35456 -0.286065,-0.640625 -0.640625,-0.640625 l -0.638672,0 z M 8.2636719,31.541016 c -0.082505,0.01034 -0.165423,0.03771 -0.2421875,0.08203 L 7.46875,31.943359 c -0.307058,0.17728 -0.411655,0.565989 -0.234375,0.873047 0.17728,0.307058 0.5659889,0.411655 0.8730469,0.234375 l 0.5546875,-0.320312 c 0.3070579,-0.17728 0.411655,-0.565989 0.234375,-0.873047 -0.13296,-0.230294 -0.3852979,-0.347419 -0.6328125,-0.316406 z m 29.5527341,0 c -0.247514,-0.03101 -0.499852,0.08611 -0.632812,0.316406 -0.17728,0.307058 -0.07268,0.695767 0.234375,0.873047 l 0.554687,0.320312 c 0.307058,0.17728 0.695767,0.07268 0.873047,-0.234375 0.17728,-0.307058 0.07268,-0.695767 -0.234375,-0.873047 l -0.554687,-0.320312 c -0.07677,-0.04432 -0.15773,-0.07169 -0.240235,-0.08203 z m -23.183594,6.21289 C 14.385298,37.722894 14.13296,37.838066 14,38.068359 l -0.320312,0.554688 c -0.17728,0.307058 -0.07268,0.69772 0.234374,0.875 0.307058,0.17728 0.697721,0.07268 0.875,-0.234375 l 0.320313,-0.554688 c 0.17728,-0.307058 0.07268,-0.69772 -0.234375,-0.875 -0.07676,-0.04432 -0.159683,-0.06974 -0.242188,-0.08008 z m 16.814454,0 c -0.0825,0.01034 -0.165423,0.03576 -0.242188,0.08008 -0.307058,0.17728 -0.411655,0.567942 -0.234375,0.875 l 0.320313,0.554688 c 0.17728,0.307058 0.567942,0.411655 0.875,0.234375 0.307058,-0.17728 0.411655,-0.567942 0.234375,-0.875 l -0.320313,-0.554688 c -0.13296,-0.230293 -0.385298,-0.345465 -0.632812,-0.314453 z m -8.408204,2.269532 c -0.354559,0 -0.638671,0.284111 -0.638671,0.638671 l 0,0.640625 c 0,0.35456 0.284112,0.640625 0.638671,0.640625 0.35456,0 0.640626,-0.286065 0.640626,-0.640625 l 0,-0.640625 c 0,-0.35456 -0.286066,-0.638671 -0.640626,-0.638671 z"
                                   transform="translate(0,1004.3622)"
                                   id="rect4168" />
                                <path
                                   inkscape:connector-curvature="0"
                                   style="opacity:1;fill:#d45500;fill-opacity:1;stroke:#d45500;stroke-width:0.15000001;stroke-miterlimit:4;stroke-dasharray:none;stroke-opacity:1"
                                   d="m 21.130859,5.5410156 c -0.08815,0.00927 -0.151843,0.087627 -0.142578,0.1757813 l 0.167969,1.5898437 c 0.0093,0.088154 0.08763,0.1518436 0.175781,0.1425782 0.08816,-0.00927 0.151844,-0.087627 0.142578,-0.1757813 L 21.306641,5.6816406 c -0.0093,-0.088154 -0.08763,-0.1498904 -0.175782,-0.140625 z m 3.81836,0 c -0.08816,-0.00927 -0.166516,0.052471 -0.175781,0.140625 l -0.167969,1.5917969 c -0.0093,0.088154 0.05442,0.1665158 0.142578,0.1757813 0.08815,0.00927 0.166516,-0.054424 0.175781,-0.1425782 l 0.167969,-1.5898437 c 0.0093,-0.088154 -0.05442,-0.1665159 -0.142578,-0.1757813 z m -5.707031,0.2988282 c -0.0867,0.018429 -0.141477,0.1027501 -0.123047,0.1894531 L 19.451172,7.59375 c 0.01843,0.086703 0.10275,0.1414762 0.189453,0.1230469 0.0867,-0.018429 0.141476,-0.1027501 0.123047,-0.1894531 L 19.431641,5.9628906 c -0.01843,-0.086703 -0.10275,-0.1414761 -0.189453,-0.1230468 z m 7.595703,0 c -0.0867,-0.018429 -0.171024,0.036344 -0.189453,0.1230468 l -0.332032,1.5644532 c -0.01843,0.086703 0.03634,0.1710238 0.123047,0.1894531 0.0867,0.018429 0.171024,-0.036344 0.189453,-0.1230469 l 0.332032,-1.5644531 c 0.01843,-0.086703 -0.03634,-0.1710239 -0.123047,-0.1894531 z m -9.44336,0.4941406 c -0.0843,0.027391 -0.128954,0.1168702 -0.101562,0.2011718 l 0.49414,1.5214844 c 0.02739,0.084302 0.116871,0.1309069 0.201172,0.1035156 0.0843,-0.027391 0.130907,-0.1168702 0.103516,-0.2011718 L 17.597656,6.4375 C 17.570265,6.3531984 17.478833,6.3065931 17.394531,6.3339844 Z m 11.291016,0 c -0.0843,-0.027391 -0.175734,0.019214 -0.203125,0.1035156 l -0.494141,1.5214844 c -0.02739,0.084302 0.01921,0.1737806 0.103516,0.2011718 0.0843,0.027391 0.17378,-0.019214 0.201172,-0.1035156 l 0.49414,-1.5214844 c 0.02739,-0.084302 -0.01726,-0.1737806 -0.101562,-0.2011718 z M 15.732422,7.015625 c -0.03818,-0.014657 -0.08256,-0.01412 -0.123047,0.00391 -0.08098,0.036053 -0.116131,0.1299609 -0.08008,0.2109376 l 0.650391,1.4609374 c 0.03605,0.080977 0.12996,0.1180844 0.210937,0.082031 0.08098,-0.036053 0.118084,-0.1299608 0.08203,-0.2109375 l -0.65039,-1.4628906 c -0.01803,-0.040488 -0.05166,-0.069327 -0.08984,-0.083984 z m 14.615234,0 c -0.03818,0.014657 -0.07182,0.043496 -0.08984,0.083984 L 29.607422,8.5625 c -0.03605,0.080977 0.0011,0.1748844 0.08203,0.2109375 0.08098,0.036053 0.174884,-0.00105 0.210938,-0.082031 l 0.65039,-1.4609374 c 0.03605,-0.080977 8.99e-4,-0.1748844 -0.08008,-0.2109376 -0.04049,-0.018027 -0.08486,-0.018563 -0.123047,-0.00391 z M 12.421875,8.9003906 c -0.0404,-0.0064 -0.08329,0.00325 -0.119141,0.029297 -0.07171,0.052101 -0.08726,0.150945 -0.03516,0.2226563 l 0.939453,1.2949222 c 0.0521,0.07171 0.152898,0.08726 0.22461,0.03516 0.07171,-0.0521 0.08726,-0.152898 0.03516,-0.22461 L 12.525391,8.9648438 c -0.02605,-0.035856 -0.06312,-0.058055 -0.103516,-0.064453 z m 21.236328,0 c -0.0404,0.0064 -0.07942,0.028598 -0.105469,0.064453 l -0.939453,1.2929682 c -0.0521,0.07171 -0.03655,0.172509 0.03516,0.22461 0.07171,0.0521 0.170554,0.03655 0.222656,-0.03516 L 33.8125,9.1523438 c 0.0521,-0.071711 0.03655,-0.170555 -0.03516,-0.2226563 -0.03586,-0.026051 -0.07874,-0.035695 -0.119141,-0.029297 z M 10.931641,10.091797 c -0.04084,-0.0021 -0.0823,0.01136 -0.115235,0.04101 -0.06587,0.05931 -0.07103,0.158738 -0.01172,0.22461 L 11.875,11.546875 c 0.05931,0.06587 0.16069,0.07103 0.226562,0.01172 0.06587,-0.05931 0.07103,-0.16069 0.01172,-0.226563 l -1.070312,-1.1875 c -0.02966,-0.03294 -0.07048,-0.05059 -0.111328,-0.05273 z m 24.216797,0 c -0.04084,0.0021 -0.08167,0.0198 -0.111329,0.05273 l -1.070312,1.1875 c -0.05931,0.06587 -0.05415,0.167251 0.01172,0.226563 0.06587,0.05931 0.16725,0.05415 0.226562,-0.01172 l 1.070313,-1.189453 c 0.05931,-0.06587 0.05415,-0.165298 -0.01172,-0.22461 -0.03294,-0.02965 -0.07439,-0.04316 -0.115234,-0.04101 z M 9.5761719,11.431641 c -0.040843,0.0021 -0.081672,0.0198 -0.1113281,0.05273 -0.059312,0.06587 -0.054154,0.167251 0.011719,0.226563 l 1.1894535,1.070312 c 0.06587,0.05931 0.16725,0.05415 0.226562,-0.01172 0.05931,-0.06587 0.0522,-0.167251 -0.01367,-0.226562 L 9.6914062,11.472656 C 9.6584701,11.443 9.6170149,11.4295 9.5761719,11.431641 Z m 26.9277341,0 c -0.04084,-0.0021 -0.0823,0.01136 -0.115234,0.04101 l -1.189453,1.070313 c -0.06587,0.05931 -0.07103,0.16069 -0.01172,0.226562 0.05931,0.06587 0.16069,0.07103 0.226562,0.01172 l 1.189454,-1.070312 c 0.06587,-0.05931 0.07103,-0.160691 0.01172,-0.226563 -0.02965,-0.03294 -0.07048,-0.05059 -0.111328,-0.05273 z M 8.3652344,12.90625 c -0.040396,0.0064 -0.077465,0.0286 -0.1035156,0.06445 -0.052101,0.07171 -0.036555,0.170555 0.035156,0.222656 l 1.2949219,0.941407 c 0.071711,0.0521 0.1705549,0.0346 0.2226562,-0.03711 0.052101,-0.07171 0.036555,-0.170555 -0.035156,-0.222656 L 8.484375,12.935547 c -0.035856,-0.02605 -0.078745,-0.0357 -0.1191406,-0.0293 z m 29.3496096,0 c -0.0404,-0.0064 -0.08328,0.0032 -0.119141,0.0293 L 36.300781,13.875 c -0.07171,0.0521 -0.08726,0.152898 -0.03516,0.224609 0.0521,0.07171 0.150945,0.08726 0.222656,0.03516 l 1.294922,-0.941407 c 0.07171,-0.0521 0.08726,-0.150945 0.03516,-0.222656 -0.02605,-0.03586 -0.06312,-0.05805 -0.103515,-0.06445 z M 6.4414062,16.193359 c -0.038183,0.01466 -0.071817,0.0435 -0.089844,0.08398 -0.036053,0.08098 0.00105,0.174884 0.082031,0.210937 l 1.4609374,0.650391 c 0.080977,0.03605 0.1748844,8.98e-4 0.2109376,-0.08008 0.036053,-0.08098 8.985e-4,-0.174885 -0.080078,-0.210938 L 6.5625,16.195312 c -0.040488,-0.01803 -0.082911,-0.01661 -0.1210938,-0.002 z m 33.1972658,0 c -0.03818,-0.01466 -0.08256,-0.01607 -0.123047,0.002 l -1.460937,0.652344 c -0.08098,0.03605 -0.116132,0.129961 -0.08008,0.210938 0.03605,0.08098 0.129961,0.116131 0.210938,0.08008 l 1.460937,-0.650391 c 0.08098,-0.03605 0.118085,-0.129961 0.08203,-0.210937 -0.01803,-0.04049 -0.05166,-0.06933 -0.08984,-0.08398 z M 5.8691406,17.958984 c -0.084302,-0.02739 -0.1757337,0.01921 -0.203125,0.103516 -0.027391,0.0843 0.019214,0.173781 0.1035156,0.201172 l 1.5214844,0.49414 c 0.084302,0.02739 0.1737806,-0.01726 0.2011719,-0.101562 0.027391,-0.0843 -0.017261,-0.175734 -0.1015625,-0.203125 L 5.8691406,17.958984 Z m 34.3417974,0 -1.521485,0.494141 c -0.0843,0.02739 -0.128954,0.118823 -0.101562,0.203125 0.02739,0.0843 0.11687,0.128954 0.201171,0.101562 l 1.521485,-0.49414 c 0.0843,-0.02739 0.128954,-0.11687 0.101562,-0.201172 -0.02739,-0.0843 -0.11687,-0.130907 -0.201171,-0.103516 z M 5.3613281,19.785156 c -0.086703,-0.01843 -0.1710238,0.0383 -0.1894531,0.125 -0.018429,0.0867 0.036344,0.171024 0.1230469,0.189453 l 1.5644531,0.332032 c 0.086703,0.01843 0.172977,-0.03634 0.1914062,-0.123047 0.018429,-0.0867 -0.036344,-0.171024 -0.1230468,-0.189453 L 5.3613281,19.785156 Z m 35.3574219,0 -1.566406,0.333985 c -0.0867,0.01843 -0.141476,0.10275 -0.123047,0.189453 0.01843,0.0867 0.10275,0.141476 0.189453,0.123047 l 1.566406,-0.332032 c 0.0867,-0.01843 0.141476,-0.10275 0.123047,-0.189453 -0.01843,-0.0867 -0.10275,-0.143429 -0.189453,-0.125 z M 5.0488281,21.65625 c -0.088154,-0.0093 -0.1665158,0.05247 -0.1757812,0.140625 -0.00927,0.08815 0.054424,0.166516 0.1425781,0.175781 l 1.5917969,0.167969 c 0.088154,0.0093 0.1665158,-0.05442 0.1757812,-0.142578 0.00927,-0.08816 -0.054424,-0.166516 -0.1425781,-0.175781 L 5.0488281,21.65625 Z m 35.9824219,0 -1.591797,0.166016 c -0.08815,0.0093 -0.151843,0.08763 -0.142578,0.175781 0.0093,0.08815 0.08763,0.151843 0.175781,0.142578 l 1.591797,-0.166016 c 0.08816,-0.0093 0.151844,-0.08958 0.142578,-0.177734 -0.0093,-0.08815 -0.08763,-0.14989 -0.175781,-0.140625 z M 6.6074219,25.273438 5.015625,25.441406 c -0.088154,0.0093 -0.1518435,0.08763 -0.1425781,0.175782 0.00927,0.08815 0.087627,0.151843 0.1757812,0.142578 L 6.640625,25.591797 c 0.088154,-0.0093 0.1518435,-0.08763 0.1425781,-0.175781 -0.00927,-0.08816 -0.087627,-0.151844 -0.1757812,-0.142578 z m 32.8652341,0 c -0.08815,-0.0093 -0.166516,0.05442 -0.175781,0.142578 -0.0093,0.08815 0.05442,0.166515 0.142578,0.175781 l 1.591797,0.167969 c 0.08815,0.0093 0.166516,-0.05442 0.175781,-0.142578 0.0093,-0.08816 -0.05442,-0.166516 -0.142578,-0.175782 L 39.472656,25.273438 Z M 6.859375,26.982422 5.2949219,27.314453 c -0.086703,0.01843 -0.1414762,0.104703 -0.1230469,0.191406 0.018429,0.0867 0.1027501,0.141477 0.1894531,0.123047 l 1.5664063,-0.333984 c 0.086703,-0.01843 0.1414761,-0.10275 0.1230468,-0.189453 C 7.032352,27.018766 6.946078,26.963993 6.859375,26.982422 Z m 32.359375,0 c -0.0867,-0.01843 -0.171024,0.03634 -0.189453,0.123047 -0.01843,0.0867 0.03634,0.171024 0.123047,0.189453 l 1.566406,0.333984 c 0.0867,0.01843 0.171024,-0.03634 0.189453,-0.123047 0.01843,-0.0867 -0.03634,-0.172977 -0.123047,-0.191406 L 39.21875,26.982422 Z M 7.2910156,28.65625 5.7695312,29.150391 c -0.084302,0.02739 -0.1309068,0.11687 -0.1035156,0.201171 0.027391,0.0843 0.1188234,0.130907 0.203125,0.103516 l 1.5214844,-0.49414 c 0.084302,-0.02739 0.1289538,-0.118824 0.1015625,-0.203126 -0.027391,-0.0843 -0.1168702,-0.128953 -0.2011719,-0.101562 z m 31.4980464,0 c -0.0843,-0.02739 -0.17378,0.01726 -0.201171,0.101562 -0.02739,0.0843 0.01726,0.175734 0.101562,0.203126 l 1.521485,0.49414 c 0.0843,0.02739 0.17378,-0.01921 0.201171,-0.103516 0.02739,-0.0843 -0.01726,-0.17378 -0.101562,-0.201171 L 38.789062,28.65625 Z M 8.0175781,30.271484 c -0.038182,-0.01466 -0.082558,-0.01412 -0.1230469,0.0039 l -1.4609374,0.65039 c -0.080977,0.03605 -0.1180844,0.129961 -0.082031,0.210938 0.036053,0.08098 0.1299608,0.118084 0.2109375,0.08203 l 1.4628906,-0.650391 c 0.080977,-0.03605 0.1161313,-0.131914 0.080078,-0.21289 -0.018027,-0.04049 -0.049708,-0.06933 -0.087891,-0.08398 z m 30.0449219,0 c -0.03818,0.01466 -0.06986,0.0435 -0.08789,0.08398 -0.03605,0.08098 -8.98e-4,0.176837 0.08008,0.21289 l 1.46289,0.650391 c 0.08098,0.03605 0.174884,-0.0011 0.210938,-0.08203 0.03605,-0.08098 -0.0011,-0.174885 -0.08203,-0.210938 l -1.460937,-0.65039 c -0.04049,-0.01803 -0.08486,-0.01856 -0.123047,-0.0039 z M 9.7109375,33.251953 c -0.040396,-0.0064 -0.083285,0.0032 -0.1191406,0.0293 L 8.296875,34.220703 c -0.071711,0.0521 -0.087257,0.152898 -0.035156,0.224609 0.052101,0.07171 0.1509449,0.08726 0.2226562,0.03516 l 1.2949219,-0.941407 c 0.071711,-0.0521 0.087257,-0.150944 0.035156,-0.222656 -0.026051,-0.03585 -0.06312,-0.05806 -0.1035156,-0.06445 z m 26.6582035,0 c -0.0404,0.0064 -0.07746,0.0286 -0.103516,0.06445 -0.0521,0.07171 -0.03655,0.170555 0.03516,0.222656 l 1.294922,0.941407 c 0.07171,0.0521 0.170555,0.03655 0.222656,-0.03516 0.0521,-0.07171 0.03655,-0.172508 -0.03516,-0.224609 L 36.488281,33.28125 c -0.03585,-0.02605 -0.07874,-0.03569 -0.11914,-0.0293 z M 10.78125,34.591797 c -0.04084,-0.0021 -0.0823,0.01136 -0.115234,0.04102 l -1.1894535,1.072266 c -0.065872,0.05931 -0.071031,0.158737 -0.011719,0.22461 0.059312,0.06587 0.1606901,0.07103 0.2265624,0.01172 l 1.1874998,-1.070312 c 0.06587,-0.05931 0.07298,-0.158737 0.01367,-0.22461 -0.02966,-0.03294 -0.07048,-0.05255 -0.111328,-0.05469 z m 24.517578,0 c -0.04084,0.0021 -0.08167,0.02175 -0.111328,0.05469 -0.05931,0.06587 -0.05415,0.165298 0.01172,0.22461 l 1.189453,1.070312 c 0.06587,0.05931 0.167251,0.05415 0.226562,-0.01172 0.05931,-0.06587 0.05415,-0.165298 -0.01172,-0.22461 l -1.189454,-1.072266 c -0.03294,-0.02965 -0.07439,-0.04316 -0.115234,-0.04102 z m -23.3125,1.222656 c -0.04084,0.0021 -0.08167,0.0198 -0.111328,0.05273 l -1.070312,1.189453 c -0.05931,0.06587 -0.05415,0.16725 0.01172,0.226562 0.06587,0.05931 0.167251,0.05415 0.226563,-0.01172 l 1.070312,-1.189453 c 0.05931,-0.06587 0.05415,-0.167251 -0.01172,-0.226562 -0.03294,-0.02966 -0.07439,-0.04316 -0.115234,-0.04102 z m 22.107422,0 c -0.04084,-0.0021 -0.0823,0.01136 -0.115234,0.04102 -0.06587,0.05931 -0.07103,0.16069 -0.01172,0.226562 l 1.070312,1.1875 c 0.05931,0.06587 0.160691,0.07298 0.226563,0.01367 0.06587,-0.05931 0.07103,-0.16069 0.01172,-0.226562 l -1.070313,-1.189453 c -0.02966,-0.03294 -0.07048,-0.05059 -0.111328,-0.05273 z M 13.3125,36.904297 c -0.0404,0.0064 -0.07942,0.02664 -0.105469,0.0625 l -0.939453,1.294922 c -0.0521,0.07171 -0.03655,0.172508 0.03516,0.224609 0.07171,0.0521 0.170555,0.03655 0.222657,-0.03516 l 0.941406,-1.294922 c 0.0521,-0.07171 0.03655,-0.172508 -0.03516,-0.224609 -0.03586,-0.02605 -0.07875,-0.03374 -0.119141,-0.02734 z m 19.455078,0 c -0.0404,-0.0064 -0.08329,0.0013 -0.11914,0.02734 -0.07171,0.0521 -0.08726,0.152898 -0.03516,0.224609 l 0.939453,1.294922 c 0.0521,0.07171 0.152898,0.08726 0.22461,0.03516 0.07171,-0.0521 0.08726,-0.152898 0.03516,-0.224609 l -0.941406,-1.294922 c -0.02605,-0.03586 -0.06312,-0.0561 -0.103516,-0.0625 z m -16.498047,1.734375 c -0.03818,0.01466 -0.07182,0.0435 -0.08984,0.08398 l -0.650391,1.460938 c -0.03605,0.08098 -8.99e-4,0.174884 0.08008,0.210937 0.08098,0.03605 0.176837,8.99e-4 0.212891,-0.08008 l 0.65039,-1.462891 c 0.03605,-0.08098 -0.0011,-0.174884 -0.08203,-0.210937 -0.04049,-0.01803 -0.08291,-0.01661 -0.121094,-0.002 z m 13.541016,0 c -0.03818,-0.01466 -0.08061,-0.01607 -0.121094,0.002 -0.08098,0.03605 -0.118084,0.129961 -0.08203,0.210937 l 0.65039,1.462891 c 0.03605,0.08098 0.131914,0.116131 0.212891,0.08008 0.08098,-0.03605 0.116131,-0.129961 0.08008,-0.210937 l -0.65039,-1.460938 c -0.01803,-0.04049 -0.05166,-0.06933 -0.08984,-0.08398 z m -11.822266,0.615234 c -0.0843,-0.02739 -0.17378,0.01921 -0.201172,0.103516 l -0.49414,1.521484 c -0.02739,0.0843 0.01726,0.173781 0.101562,0.201172 0.0843,0.02739 0.175734,-0.01726 0.203125,-0.101562 l 0.494141,-1.523438 c 0.02739,-0.0843 -0.01921,-0.17378 -0.103516,-0.201172 z m 10.103516,0 c -0.0843,0.02739 -0.130907,0.11687 -0.103516,0.201172 l 0.494141,1.521484 c 0.02739,0.0843 0.118823,0.130907 0.203125,0.103516 0.0843,-0.02739 0.128954,-0.11687 0.101562,-0.201172 l -0.49414,-1.521484 c -0.02739,-0.0843 -0.11687,-0.130907 -0.201172,-0.103516 z m -8.451172,0.44336 c -0.0867,-0.01843 -0.171024,0.03634 -0.189453,0.123046 l -0.332031,1.564454 c -0.01843,0.0867 0.03634,0.171023 0.123047,0.189453 0.0867,0.01843 0.171023,-0.03634 0.189453,-0.123047 l 0.332031,-1.564453 c 0.01843,-0.0867 -0.03634,-0.171024 -0.123047,-0.189453 z m 6.798828,0 c -0.0867,0.01843 -0.141476,0.10275 -0.123047,0.189453 l 0.332032,1.564453 c 0.01843,0.0867 0.10275,0.141476 0.189453,0.123047 0.0867,-0.01843 0.141476,-0.10275 0.123047,-0.189453 l -0.332032,-1.564454 c -0.01843,-0.0867 -0.10275,-0.141476 -0.189453,-0.123046 z m -5.107422,0.267578 c -0.08815,-0.0093 -0.166516,0.05442 -0.175781,0.142578 l -0.167969,1.591797 c -0.0093,0.08815 0.05442,0.166516 0.142578,0.175781 0.08816,0.0093 0.166516,-0.05442 0.175782,-0.142578 l 0.167968,-1.591797 c 0.0093,-0.08815 -0.05442,-0.166516 -0.142578,-0.175781 z m 3.416016,0 c -0.08816,0.0093 -0.151844,0.08763 -0.142578,0.175781 l 0.167969,1.591797 c 0.0093,0.08815 0.08763,0.151843 0.175781,0.142578 0.08815,-0.0093 0.151843,-0.08763 0.142578,-0.175781 l -0.167969,-1.591797 c -0.0093,-0.08816 -0.08763,-0.151844 -0.175781,-0.142578 z"
                                   transform="translate(0,1004.3622)"
                                   id="rect4194" />
                                </g>
                                <g
                                   inkscape:label="#g4311"
                                   id="g4311">
                                <g
                                   id="g4305">
                                <g
                                   id="g4300">
                                <g
                                   id="g4296">
                                <path
                                   id="path4138"
                                   transform="translate(0,1004.3622)"
                                   d="M 23.039062 2.1113281 A 21.568588 21.568588 0 0 0 1.4707031 23.679688 A 21.568588 21.568588 0 0 0 23.039062 45.248047 A 21.568588 21.568588 0 0 0 44.609375 23.679688 A 21.568588 21.568588 0 0 0 23.039062 2.1113281 z M 23.039062 4.4804688 A 19.199999 19.199999 0 0 1 42.240234 23.679688 A 19.199999 19.199999 0 0 1 23.039062 42.880859 A 19.199999 19.199999 0 0 1 3.8398438 23.679688 A 19.199999 19.199999 0 0 1 23.039062 4.4804688 z "
                                   style="opacity:1;fill:#000000;fill-opacity:1;stroke:none;stroke-width:0.25;stroke-miterlimit:4;stroke-dasharray:none;stroke-opacity:1" />
                                <path
                                   id="path4143"
                                   transform="translate(0,1004.3622)"
                                   d="M 23.039062 2.1113281 A 21.568588 21.568588 0 0 0 1.4707031 23.679688 L 3.8398438 23.679688 A 19.199999 19.199999 0 0 1 23.039062 4.4804688 A 19.199999 19.199999 0 0 1 42.240234 23.679688 L 44.609375 23.679688 A 21.568588 21.568588 0 0 0 23.039062 2.1113281 z "
                                   style="opacity:1;fill:url(#linearGradient4162);fill-opacity:1;stroke:none;stroke-width:0.25;stroke-miterlimit:4;stroke-dasharray:none;stroke-opacity:1" />
                                </g>
                                </g>
                                </g>
                                </g>
                                <path
                                   id="path4323"
                                   transform="translate(0,1004.3622)"
                                   d="M 23.039062 4.4804688 A 19.199999 19.199999 0 0 0 3.8398438 23.679688 A 19.199999 19.199999 0 0 0 23.039062 42.880859 A 19.199999 19.199999 0 0 0 42.240234 23.679688 A 19.199999 19.199999 0 0 0 23.039062 4.4804688 z M 23.039062 5.0507812 A 18.628815 18.628815 0 0 1 41.667969 23.679688 A 18.628815 18.628815 0 0 1 23.039062 42.308594 A 18.628815 18.628815 0 0 1 4.4121094 23.679688 A 18.628815 18.628815 0 0 1 23.039062 5.0507812 z "
                                   style="opacity:1;fill:url(#linearGradient4334);fill-opacity:1;stroke:none;stroke-width:0.15000001;stroke-miterlimit:4;stroke-dasharray:none;stroke-opacity:1" />
                                </g>
                                </g>
                                </g>
                                </g>
                                </g>
                                </g>
                                </g>
                                </g>
                                </g>
                                </g>
                                </g>
                                </g>
                                </g>
                                </g>
                                </g>
                                </g>
                                </g>
                                </g>
                                </g>
                                </g>
                                </g>
                                </g>
                                </g>
                                </g>
                                </g>
                                </g>
                                </g>
                                </g>
                                </g>
                              </g>
                            </g>
                          </g>
                        </g>
                      </g>
                    </g>
                  </g>
                </g>
              </g>
            </g>
          </g>
        </g>
      </g>
    </g>
    <g
       id="Glass"
       transform="translate(-54,0)"
       inkscape:label="#g4927">
      <g
         id="g4894">
        <g
           id="g4862">
          <g
             id="g4831">
            <g
               id="g4801">
              <g
                 id="g4772">
                <g
                   id="g4744">
                  <g
                     id="g4717">
                    <g
                       id="g4691">
                      <g
                         id="g4666">
                        <g
                           id="g4642">
                          <g
                             id="g4619">
                            <g
                               id="g4597">
                              <g
                                 id="g4576">
                                <g
                                   id="g4556">
                                <g
                                   id="g4537">
                                <g
                                   id="g4519">
                                <g
                                   id="g4502">
                                <g
                                   id="g4486">
                                <g
                                   id="g4471">
                                <g
                                   id="g4457">
                                <g
                                   id="g4444">
                                <g
                                   id="g4432">
                                <g
                                   id="g4421">
                                <g
                                   id="g4411">
                                <g
                                   id="g4402">
                                <g
                                   id="g4394">
                                <g
                                   id="g4387">
                                <circle
                                   style="opacity:1;fill:url(#radialGradient4346);fill-opacity:1;stroke:none;stroke-width:0.15000001;stroke-miterlimit:4;stroke-dasharray:none;stroke-opacity:1"
                                   id="path4338"
                                   cx="127.04"
                                   cy="1028.0422"
                                   r="18.527555" />
                                <g
                                   id="g4382"
                                   transform="translate(104,0)">
                                <circle
                                   r="21.76"
                                   cy="1028.0422"
                                   cx="23.039999"
                                   id="path4336"
                                   style="opacity:1;fill:none;fill-opacity:0.3;stroke:none;stroke-width:0.15000001;stroke-miterlimit:4;stroke-dasharray:none;stroke-opacity:1" />
                                <circle
                                   style="opacity:1;fill:url(#radialGradient4364);fill-opacity:1;stroke:none;stroke-width:0.15000001;stroke-miterlimit:4;stroke-dasharray:none;stroke-opacity:1"
                                   id="circle4356"
                                   cx="23.039999"
                                   cy="1028.0422"
                                   r="18.527555" />
                                <path
                                   id="path4366"
                                   transform="translate(0,1004.3622)"
                                   d="M 23.039062,6.34375 A 17.335657,17.335657 0 0 0 8.4257812,14.390625 14.72,10.089418 0 0 0 23.039062,23.378906 14.72,10.089418 0 0 0 37.666016,14.382812 17.335657,17.335657 0 0 0 23.039062,6.34375 Z"
                                   style="opacity:1;fill:url(#linearGradient4380);fill-opacity:1;stroke:none;stroke-width:0.21906541;stroke-miterlimit:4;stroke-dasharray:none;stroke-opacity:1"
                                   inkscape:connector-curvature="0" />
                                </g>
                                </g>
                                </g>
                                </g>
                                </g>
                                </g>
                                </g>
                                </g>
                                </g>
                                </g>
                                </g>
                                </g>
                                </g>
                                </g>
                                </g>
                              </g>
                            </g>
                          </g>
                        </g>
                      </g>
                    </g>
                  </g>
                </g>
              </g>
            </g>
          </g>
        </g>
      </g>
    </g>
    <g
       id="SecondHand"
       inkscape:label="#g5301">
      <g
         id="g5284">
        <g
           id="g5268">
          <g
             id="g5253">
            <g
               id="g5239">
              <g
                 id="g5226">
                <g
                   id="g5214">
                  <g
                     id="g5203">
                    <g
                       id="g5193">
                      <g
                         id="g5184">
                        <g
                           id="g5176">
                          <g
                             id="g5169">
                            <g
                               id="g5163">
                              <g
                                 id="g5158">
                                <g
                                   id="g5154">
                                <path
                                   inkscape:connector-curvature="0"
                                   id="path5150"
                                   d="m -24.319999,1026.7622 0,16.64"
                                   style="fill:#ff6600;fill-rule:evenodd;stroke:#00ff00;stroke-width:0.2;stroke-linecap:butt;stroke-linejoin:miter;stroke-opacity:1;stroke-miterlimit:4;stroke-dasharray:none" />
                                <rect
                                   ry="0.63999999"
                                   y="1026.7622"
                                   x="-26.879999"
                                   height="16.639999"
                                   width="5.1199999"
                                   id="rect5152"
                                   style="opacity:1;fill:none;fill-opacity:1;stroke:none;stroke-width:0.2;stroke-miterlimit:4;stroke-dasharray:none;stroke-opacity:1" />
                                </g>
                              </g>
                            </g>
                          </g>
                        </g>
                      </g>
                    </g>
                  </g>
                </g>
              </g>
            </g>
          </g>
        </g>
      </g>
    </g>
    <circle
       style="opacity:1;fill:#d45500;fill-opacity:1;stroke:#ffff00;stroke-width:0.2;stroke-miterlimit:4;stroke-dasharray:none;stroke-opacity:1"
       id="HandCenterScrew"
       cx="-12.16"
       cy="1023.5622"
       r="0.81923211"
       inkscape:label="#path4299" />
    <g
       id="MinuteHand"
       inkscape:label="#g4389">
      <g
         id="g4376">
        <g
           id="g4364">
          <g
             id="g4353">
            <g
               id="g4343">
              <g
                 id="g4334">
                <g
                   id="g4326">
                  <g
                     id="g4319">
                    <g
                       id="g4313">
                      <g
                         id="g4308">
                        <g
                           id="g4304">
                          <rect
                             ry="0.63999999"
                             y="1026.7622"
                             x="-18.559999"
                             height="15.36"
                             width="5.1199999"
                             id="rect4300"
                             style="opacity:1;fill:none;fill-opacity:1;stroke:none;stroke-width:0.2;stroke-miterlimit:4;stroke-dasharray:none;stroke-opacity:1" />
                          <path
                             inkscape:connector-curvature="0"
                             id="path4302"
                             d="m -16,1026.7622 0,15.36"
                             style="fill:none;fill-rule:evenodd;stroke:#ffffff;stroke-width:0.6;stroke-linecap:butt;stroke-linejoin:miter;stroke-opacity:1;stroke-miterlimit:4;stroke-dasharray:none" />
                        </g>
                      </g>
                    </g>
                  </g>
                </g>
              </g>
            </g>
          </g>
        </g>
      </g>
    </g>
    <g
       id="HourHand"
       transform="matrix(1,0,0,0.87500002,10,128.34526)"
       inkscape:label="#g4403">
      <g
         id="g4405">
        <g
           id="g4407">
          <g
             id="g4409">
            <g
               id="g4412">
              <g
                 id="g4414">
                <g
                   id="g4416">
                  <g
                     id="g4418">
                    <g
                       id="g4420">
                      <g
                         id="g4422">
                        <g
                           id="g4424">
                          <rect
                             style="opacity:1;fill:none;fill-opacity:1;stroke:none;stroke-width:0.2;stroke-miterlimit:4;stroke-dasharray:none;stroke-opacity:1"
                             id="rect4426"
                             width="5.1199999"
                             height="15.36"
                             x="-18.559999"
                             y="1026.7622"
                             ry="0.63999999" />
                          <path
                             style="fill:none;fill-rule:evenodd;stroke:#ffffff;stroke-width:0.78574804;stroke-linecap:butt;stroke-linejoin:miter;stroke-opacity:1;stroke-miterlimit:4;stroke-dasharray:none"
                             d="m -16,1026.7622 0,15.36"
                             id="path4428"
                             inkscape:connector-curvature="0" />
                        </g>
                      </g>
                    </g>
                  </g>
                </g>
              </g>
            </g>
          </g>
        </g>
      </g>
    </g>
  </g>
</svg>
