<?xml version="1.0" encoding="UTF-8" standalone="no"?>
<!-- Created with Inkscape (http://www.inkscape.org/) -->

<svg
   xmlns:dc="http://purl.org/dc/elements/1.1/"
   xmlns:cc="http://creativecommons.org/ns#"
   xmlns:rdf="http://www.w3.org/1999/02/22-rdf-syntax-ns#"
   xmlns:svg="http://www.w3.org/2000/svg"
   xmlns="http://www.w3.org/2000/svg"
   xmlns:xlink="http://www.w3.org/1999/xlink"
   xmlns:sodipodi="http://sodipodi.sourceforge.net/DTD/sodipodi-0.dtd"
   xmlns:inkscape="http://www.inkscape.org/namespaces/inkscape"
   width="48"
   height="48"
   viewBox="0 0 48.000001 48.000001"
   id="svg2"
   version="1.1"
   inkscape:version="0.91 r13725"
   sodipodi:docname="clock.svg">
  <defs
     id="defs4">
    <linearGradient
       inkscape:collect="always"
       id="linearGradient6670">
      <stop
         style="stop-color:#ffffff;stop-opacity:0.60000002"
         offset="0"
         id="stop6672" />
      <stop
         style="stop-color:#ffffff;stop-opacity:0;"
         offset="1"
         id="stop6674" />
    </linearGradient>
    <linearGradient
       inkscape:collect="always"
       id="linearGradient6648">
      <stop
         style="stop-color:#000000;stop-opacity:0"
         offset="0"
         id="stop6650" />
      <stop
         id="stop6660"
         offset="0.81250006"
         style="stop-color:#000000;stop-opacity:0" />
      <stop
         id="stop6658"
         offset="0.84375006"
         style="stop-color:#000000;stop-opacity:0.06842105" />
      <stop
         id="stop6656"
         offset="0.90625006"
         style="stop-color:#000000;stop-opacity:0.42105263" />
      <stop
         style="stop-color:#000000;stop-opacity:0.627451"
         offset="1"
         id="stop6652" />
    </linearGradient>
    <linearGradient
       inkscape:collect="always"
       id="linearGradient4198">
      <stop
         style="stop-color:#ffffff;stop-opacity:0"
         offset="0"
         id="stop4200" />
      <stop
         id="stop4206"
         offset="0.5"
         style="stop-color:#ffffff;stop-opacity:1" />
      <stop
         style="stop-color:#ffffff;stop-opacity:0;"
         offset="1"
         id="stop4202" />
    </linearGradient>
    <linearGradient
       inkscape:collect="always"
       id="linearGradient4179">
      <stop
         style="stop-color:#4d4d4d;stop-opacity:1"
         offset="0"
         id="stop4181" />
      <stop
         style="stop-color:#b3b3b3;stop-opacity:1"
         offset="1"
         id="stop4183" />
    </linearGradient>
    <linearGradient
       id="linearGradient4168"
       inkscape:collect="always">
      <stop
         id="stop4170"
         offset="0"
         style="stop-color:#b3b3b3;stop-opacity:1" />
      <stop
         id="stop4172"
         offset="1"
         style="stop-color:#1a1a1a;stop-opacity:0.58947366" />
    </linearGradient>
    <linearGradient
       inkscape:collect="always"
       id="linearGradient4156">
      <stop
         style="stop-color:#ffffff;stop-opacity:1;"
         offset="0"
         id="stop4158" />
      <stop
         style="stop-color:#333333;stop-opacity:1"
         offset="1"
         id="stop4160" />
    </linearGradient>
    <linearGradient
       inkscape:collect="always"
       id="linearGradient4143">
      <stop
         style="stop-color:#cccccc;stop-opacity:1"
         offset="0"
         id="stop4145" />
      <stop
         style="stop-color:#666666;stop-opacity:1"
         offset="1"
         id="stop4147" />
    </linearGradient>
    <linearGradient
       inkscape:collect="always"
       xlink:href="#linearGradient4143"
       id="linearGradient4149"
       x1="19.199999"
       y1="1.9200009"
       x2="25.6"
       y2="40.32"
       gradientUnits="userSpaceOnUse" />
    <linearGradient
       inkscape:collect="always"
       xlink:href="#linearGradient4156"
       id="linearGradient4162"
       x1="14.08"
       y1="3.200001"
       x2="32"
       y2="41.599998"
       gradientUnits="userSpaceOnUse" />
    <linearGradient
       inkscape:collect="always"
       xlink:href="#linearGradient4168"
       id="linearGradient4166"
       gradientUnits="userSpaceOnUse"
       x1="38.839897"
       y1="43.429893"
       x2="12.506779"
       y2="2.6135631"
       gradientTransform="matrix(0.97215984,0,0,0.97215984,0.64141128,1005.0214)" />
    <linearGradient
       inkscape:collect="always"
       xlink:href="#linearGradient4179"
       id="linearGradient4185"
       x1="19.199999"
       y1="3.200001"
       x2="23.039999"
       y2="42.880001"
       gradientUnits="userSpaceOnUse" />
    <linearGradient
       inkscape:collect="always"
       xlink:href="#linearGradient4198"
       id="linearGradient4204"
       x1="2.5599999"
       y1="1022.9222"
       x2="8.96"
       y2="1012.6822"
       gradientUnits="userSpaceOnUse" />
    <linearGradient
       inkscape:collect="always"
       xlink:href="#linearGradient4198"
       id="linearGradient4214"
       x1="8.96"
       y1="1012.6822"
       x2="20.48"
       y2="1007.5622"
       gradientUnits="userSpaceOnUse" />
    <radialGradient
       inkscape:collect="always"
       xlink:href="#linearGradient6648"
       id="radialGradient6654"
       cx="23.039999"
       cy="1028.0422"
       fx="23.039999"
       fy="1028.0422"
       r="18.361721"
       gradientUnits="userSpaceOnUse"
       gradientTransform="matrix(1.0805087,-1.4461798e-6,1.4928316e-6,1.1153644,50.143544,-118.59945)" />
    <linearGradient
       inkscape:collect="always"
       xlink:href="#linearGradient6670"
       id="linearGradient6676"
       x1="21.76"
       y1="1.2800009"
       x2="28.799999"
       y2="24.32"
       gradientUnits="userSpaceOnUse"
       gradientTransform="translate(52,1004.3622)" />
  </defs>
  <sodipodi:namedview
     id="base"
     pagecolor="#444c53"
     bordercolor="#666666"
     borderopacity="1.0"
     inkscape:pageopacity="0"
     inkscape:pageshadow="2"
     inkscape:zoom="6.2803271"
     inkscape:cx="20.709902"
     inkscape:cy="38.81884"
     inkscape:document-units="px"
     inkscape:current-layer="layer1"
     showgrid="true"
     units="px"
     inkscape:window-width="1366"
     inkscape:window-height="706"
     inkscape:window-x="-7"
     inkscape:window-y="0"
     inkscape:window-maximized="1"
     showguides="true"
     inkscape:guide-bbox="true">
    <inkscape:grid
       type="xygrid"
       id="grid3336"
       spacingx="0.001"
       spacingy="0.001" />
    <sodipodi:guide
       position="23.04,24.32"
       orientation="0,1"
       id="guide4134" />
    <sodipodi:guide
       position="23.04,24.32"
       orientation="1,0"
       id="guide4136" />
    <sodipodi:guide
       position="-14.08,26.88"
       orientation="0,1"
       id="guide7409" />
    <sodipodi:guide
       position="-5.12,6.4"
       orientation="0,1"
       id="guide7411" />
  </sodipodi:namedview>
  <metadata
     id="metadata7">
    <rdf:RDF>
      <cc:Work
         rdf:about="">
        <dc:format>image/svg+xml</dc:format>
        <dc:type
           rdf:resource="http://purl.org/dc/dcmitype/StillImage" />
        <dc:title />
      </cc:Work>
    </rdf:RDF>
  </metadata>
  <g
     inkscape:label="Layer 1"
     inkscape:groupmode="layer"
     id="layer1"
     transform="translate(0,-1004.3622)">
    <path
       id="path4977"
       d="m -23.134805,961.0717 0,0.1465 0.05078,0 c 0.03539,0 0.06563,0 0.08984,0.01 0.02422,0 0.04378,0.01 0.06055,0.016 0.01863,0.01 0.03579,0.021 0.04883,0.037 0.0149,0.016 0.03011,0.038 0.04687,0.064 l 0.576172,0.914 -0.474609,0.7285 c -0.05775,0.09 -0.118214,0.1545 -0.179688,0.1954 -0.06147,0.039 -0.128611,0.058 -0.203125,0.058 l -0.01172,0 0,0.1465 0.830078,0 0,-0.1465 -0.07227,0 c -0.05961,0 -0.107094,-0.012 -0.140625,-0.039 -0.03353,-0.029 -0.05078,-0.068 -0.05078,-0.1172 0,-0.045 0.01716,-0.09 0.04883,-0.1367 l 0.333984,-0.543 0.439453,0.6777 c 0.02422,0.035 0.03516,0.067 0.03516,0.1 0,0.012 -1.81e-4,0.023 -0.0039,0.031 -0.0019,0.01 -0.0104,0.015 -0.02344,0.019 -0.01304,0 -0.03251,0 -0.05859,0.01 -0.02608,0 -0.0628,0 -0.109375,0 l -0.08008,0 0,0.1465 0.960938,0 0,-0.1465 -0.03711,0 c -0.04657,0 -0.08338,1e-4 -0.111328,0 -0.02794,0 -0.05177,-0.011 -0.07227,-0.021 -0.02049,-0.01 -0.03997,-0.026 -0.05859,-0.049 -0.01863,-0.023 -0.04024,-0.055 -0.06445,-0.096 l -0.611328,-0.9668 0.388671,-0.582 c 0.04098,-0.061 0.07575,-0.1117 0.107422,-0.1504 0.03167,-0.039 0.06395,-0.069 0.09375,-0.092 0.02981,-0.023 0.06013,-0.037 0.0918,-0.045 0.03167,-0.01 0.06635,-0.016 0.105469,-0.016 l 0.04687,0 0,-0.1465 -0.804688,0 0,0.1465 0.04297,0 c 0.07079,0 0.120585,0.011 0.150391,0.031 0.03167,0.02 0.04687,0.051 0.04687,0.094 0,0.018 -0.0022,0.035 -0.0078,0.049 -0.0037,0.014 -0.01448,0.036 -0.03125,0.062 l -0.314453,0.504 -0.388672,-0.6172 c -0.02235,-0.035 -0.0332,-0.062 -0.0332,-0.08 0,-0.016 0.0087,-0.027 0.02734,-0.033 0.01863,-0.01 0.05544,-0.01 0.111328,-0.01 l 0.115234,0 0,-0.1465 -0.90625,0 z m 2.191407,0 0,0.1465 0.05859,0 c 0.05775,0 0.105231,0 0.140625,0.01 0.03539,0 0.06136,0.01 0.07813,0.022 0.01863,0.01 0.02957,0.026 0.03516,0.047 0.0056,0.018 0.0098,0.044 0.0098,0.076 l 0,1.7168 c 0,0.035 -0.0042,0.062 -0.0098,0.082 -0.0056,0.018 -0.01653,0.033 -0.03516,0.043 -0.01676,0.01 -0.04273,0.017 -0.07813,0.021 -0.03539,0 -0.08288,0 -0.140625,0 l -0.05859,0 0,0.1484 0.966797,0 0,-0.1484 -0.05664,0 c -0.05961,0 -0.107184,0 -0.142578,0 -0.03353,0 -0.0595,-0.011 -0.07813,-0.021 -0.01863,-0.01 -0.02957,-0.025 -0.03516,-0.043 -0.0056,-0.02 -0.0078,-0.047 -0.0078,-0.082 l 0,-1.7168 c 0,-0.033 0.0022,-0.058 0.0078,-0.076 0.0056,-0.02 0.01653,-0.037 0.03516,-0.047 0.01863,-0.012 0.04459,-0.019 0.07813,-0.022 0.03539,0 0.08297,-0.01 0.142578,-0.01 l 0.05664,0 0,-0.1465 -0.966797,0 z m 1.191406,0 0,0.1465 0.05859,0 c 0.05775,0 0.103277,0 0.138671,0.01 0.03539,0 0.06136,0.01 0.07813,0.022 0.01863,0.01 0.03152,0.026 0.03711,0.047 0.0056,0.018 0.0078,0.044 0.0078,0.076 l 0,1.7168 c 0,0.035 -0.0022,0.062 -0.0078,0.082 -0.0056,0.018 -0.01848,0.033 -0.03711,0.043 -0.01677,0.01 -0.04273,0.017 -0.07813,0.021 -0.03539,0 -0.08092,0 -0.138671,0 l -0.05859,0 0,0.1484 0.966797,0 0,-0.1484 -0.05664,0 c -0.05961,0 -0.107184,0 -0.142578,0 -0.03353,0 -0.0595,-0.011 -0.07813,-0.021 -0.01863,-0.01 -0.03152,-0.025 -0.03711,-0.043 -0.0056,-0.02 -0.0078,-0.047 -0.0078,-0.082 l 0,-1.7168 c 0,-0.033 0.0022,-0.058 0.0078,-0.076 0.0056,-0.02 0.01848,-0.037 0.03711,-0.047 0.01863,-0.012 0.04459,-0.019 0.07813,-0.022 0.03539,0 0.08297,-0.01 0.142578,-0.01 l 0.05664,0 0,-0.1465 -0.966797,0 z m -8.181641,1.4102 -0.914062,0.5273 0.07226,0.127 0.05664,-0.031 c 0.05462,-0.032 0.09925,-0.056 0.134766,-0.072 0.03449,-0.018 0.06202,-0.025 0.08398,-0.024 0.02271,0 0.04118,0 0.05664,0.02 0.01444,0.013 0.0306,0.032 0.04687,0.061 l 0.855468,1.4844 c 0.01729,0.03 0.02832,0.053 0.0332,0.074 0.0039,0.019 8.14e-4,0.04 -0.01172,0.059 -0.01077,0.018 -0.03301,0.038 -0.06445,0.061 -0.03246,0.021 -0.07624,0.047 -0.13086,0.078 l -0.05469,0.033 0.07422,0.1289 0.914062,-0.5274 -0.07422,-0.1308 -0.05273,0.031 c -0.05638,0.033 -0.102225,0.057 -0.136719,0.074 -0.03375,0.015 -0.06128,0.024 -0.08398,0.025 -0.02271,0 -0.0422,0 -0.05664,-0.018 -0.01546,-0.015 -0.03154,-0.036 -0.04883,-0.066 l -0.855469,-1.4825 c -0.01628,-0.028 -0.02543,-0.051 -0.0293,-0.07 -0.0049,-0.021 -0.0028,-0.041 0.0098,-0.06 0.01152,-0.021 0.03376,-0.041 0.06445,-0.061 0.03144,-0.023 0.07448,-0.051 0.13086,-0.084 l 0.05273,-0.029 -0.07227,-0.1269 z m 14.984375,0.5976 -0.07422,0.127 0.05664,0.031 c 0.05462,0.032 0.09746,0.059 0.128906,0.082 0.03246,0.021 0.05275,0.041 0.0625,0.061 0.01253,0.019 0.01661,0.04 0.01172,0.061 -0.0039,0.019 -0.01497,0.042 -0.03125,0.07 l -0.855469,1.4824 c -0.01729,0.03 -0.03337,0.052 -0.04883,0.066 -0.01444,0.013 -0.03393,0.019 -0.05664,0.018 -0.02094,-4e-4 -0.04847,-0.01 -0.08398,-0.023 -0.03449,-0.018 -0.07819,-0.043 -0.132812,-0.074 l -0.05664,-0.031 -0.07422,0.1289 0.914063,0.5273 0.07422,-0.1289 -0.05273,-0.031 c -0.05638,-0.033 -0.100353,-0.059 -0.132812,-0.08 -0.02968,-0.022 -0.04997,-0.042 -0.0625,-0.061 -0.01253,-0.019 -0.01754,-0.038 -0.01367,-0.057 0.0049,-0.021 0.01591,-0.046 0.0332,-0.076 l 0.855469,-1.4824 c 0.01628,-0.028 0.03243,-0.05 0.04687,-0.062 0.01546,-0.014 0.03393,-0.021 0.05664,-0.019 0.02372,-4e-4 0.05321,0.01 0.08594,0.023 0.03551,0.016 0.08034,0.042 0.136719,0.074 l 0.05273,0.029 0.07422,-0.1269 -0.914063,-0.5274 z m -16.085937,0.037 -0.761719,0.4394 0.07227,0.127 0.04102,-0.022 c 0.06695,-0.039 0.11984,-0.058 0.158203,-0.057 0.04013,4e-4 0.07043,0.02 0.0918,0.057 0.0092,0.016 0.01379,0.032 0.01563,0.047 0.0036,0.014 0.0046,0.036 0.002,0.068 l -0.04687,0.6094 -0.675781,-0.3223 c -0.03844,-0.018 -0.06311,-0.035 -0.07227,-0.051 -0.0081,-0.014 -0.0048,-0.027 0.0098,-0.043 0.01457,-0.016 0.0487,-0.04 0.101563,-0.07 l 0.109375,-0.062 -0.07422,-0.127 -0.855469,0.4961 0.07227,0.125 0.04883,-0.027 c 0.03348,-0.019 0.061,-0.033 0.08594,-0.043 0.02392,-0.011 0.04648,-0.017 0.06641,-0.019 0.02169,0 0.04398,0 0.06445,0.01 0.02223,0.01 0.04709,0.016 0.07617,0.029 l 1,0.4746 -0.08594,0.8887 c -0.0099,0.1091 -0.03251,0.1988 -0.07031,0.2676 -0.03882,0.067 -0.09359,0.1214 -0.164063,0.1621 l -0.01172,0.01 0.07422,0.127 0.785156,-0.4531 -0.07422,-0.127 -0.06836,0.039 c -0.05638,0.033 -0.107404,0.048 -0.152344,0.043 -0.04596,-0.01 -0.08105,-0.032 -0.105468,-0.074 -0.02238,-0.039 -0.02999,-0.087 -0.02344,-0.1445 l 0.04687,-0.6504 0.751953,0.3438 c 0.0402,0.017 0.06771,0.04 0.08399,0.068 0.0061,0.011 0.01117,0.02 0.01172,0.029 0.0023,0.01 -0.0034,0.017 -0.01367,0.027 -0.01132,0.01 -0.02713,0.021 -0.05078,0.037 -0.02365,0.016 -0.05751,0.037 -0.101562,0.062 l -0.07813,0.045 0.07422,0.1269 0.908203,-0.5254 -0.07227,-0.1269 -0.03516,0.019 c -0.04405,0.025 -0.07998,0.045 -0.107422,0.059 -0.02846,0.012 -0.05366,0.019 -0.07813,0.022 -0.02447,0 -0.05127,-6e-4 -0.08008,-0.01 -0.02881,-0.01 -0.06612,-0.025 -0.109375,-0.047 l -1.060547,-0.502 0.07813,-0.7148 c 0.0082,-0.075 0.01672,-0.1368 0.02734,-0.1875 0.01063,-0.051 0.02597,-0.095 0.04297,-0.1309 0.017,-0.036 0.03857,-0.065 0.06445,-0.09 0.02487,-0.026 0.0548,-0.049 0.0918,-0.07 l 0.04492,-0.027 -0.07226,-0.1269 z m 22.152344,5.4043 -0.126954,0.074 0.03125,0.055 c 0.03153,0.055 0.05646,0.1012 0.07227,0.1367 0.01757,0.034 0.02485,0.062 0.02344,0.084 0.0014,0.023 -0.005,0.041 -0.01953,0.057 -0.01281,0.014 -0.03431,0.031 -0.0625,0.047 l -1.482422,0.8554 c -0.02995,0.017 -0.0555,0.028 -0.07617,0.033 -0.01891,0 -0.03766,0 -0.05664,-0.014 -0.01796,-0.011 -0.03769,-0.031 -0.06055,-0.062 -0.02109,-0.033 -0.04854,-0.076 -0.08008,-0.1309 l -0.03125,-0.055 -0.128906,0.074 0.527343,0.9141 0.128907,-0.074 -0.0293,-0.053 c -0.03255,-0.056 -0.05861,-0.1023 -0.07617,-0.1368 -0.01479,-0.034 -0.02208,-0.061 -0.02344,-0.084 -0.0014,-0.023 0.0048,-0.042 0.01758,-0.057 0.01457,-0.015 0.03645,-0.032 0.06641,-0.049 l 1.482422,-0.8555 c 0.02819,-0.016 0.0514,-0.027 0.07031,-0.031 0.02067,0 0.04156,-8e-4 0.06055,0.012 0.02074,0.011 0.04047,0.034 0.06055,0.064 0.02285,0.032 0.04948,0.075 0.08203,0.1309 l 0.03125,0.053 0.126953,-0.072 -0.527343,-0.916 z m -28.1875,0.1093 -0.439453,0.7617 0.126953,0.074 0.02344,-0.041 c 0.03866,-0.067 0.07353,-0.1089 0.107422,-0.1269 0.03491,-0.02 0.07237,-0.019 0.109375,0 0.01586,0.01 0.02783,0.021 0.03711,0.033 0.0103,0.011 0.02141,0.029 0.03516,0.058 l 0.263672,0.5508 -0.746094,0.059 c -0.04216,0 -0.07008,0 -0.08594,-0.01 -0.0141,-0.01 -0.01856,-0.022 -0.01367,-0.043 0.0049,-0.021 0.02222,-0.056 0.05273,-0.1093 l 0.0625,-0.1094 -0.126953,-0.072 -0.494141,0.8555 0.126953,0.074 0.02734,-0.049 c 0.01933,-0.034 0.03794,-0.059 0.05469,-0.08 0.01499,-0.022 0.03067,-0.039 0.04687,-0.051 0.01722,-0.014 0.03542,-0.023 0.05664,-0.027 0.02223,-0.01 0.04997,-0.011 0.08203,-0.014 l 1.103516,-0.088 0.371094,0.8125 c 0.04599,0.099 0.06864,0.1891 0.07031,0.2676 -9.3e-5,0.077 -0.01986,0.1522 -0.06055,0.2227 l -0.0059,0.01 0.126953,0.072 0.453124,-0.7832 -0.126953,-0.074 -0.04102,0.068 c -0.03255,0.056 -0.06816,0.095 -0.109375,0.1133 -0.04298,0.017 -0.08662,0.013 -0.128906,-0.012 -0.03876,-0.022 -0.06857,-0.06 -0.0918,-0.1133 l -0.285156,-0.5859 0.824218,-0.078 c 0.04318,-0.01 0.07728,-6e-4 0.105468,0.016 0.01057,0.01 0.01842,0.014 0.02344,0.021 0.006,0.01 0.0075,0.015 0.0039,0.029 -0.0054,0.013 -0.01291,0.033 -0.02539,0.059 -0.01248,0.026 -0.03121,0.062 -0.05664,0.1055 l -0.04492,0.076 0.126953,0.072 0.525391,-0.9082 -0.126953,-0.074 -0.02149,0.035 c -0.02543,0.044 -0.04548,0.078 -0.0625,0.1035 -0.01878,0.024 -0.03859,0.044 -0.05859,0.059 -0.02,0.014 -0.04467,0.025 -0.07422,0.031 -0.02955,0.01 -0.06872,0.011 -0.117188,0.014 l -1.169922,0.096 -0.289062,-0.6562 c -0.03048,-0.069 -0.05413,-0.1285 -0.07031,-0.1778 -0.01618,-0.049 -0.02619,-0.093 -0.0293,-0.1328 -0.0031,-0.039 0.0015,-0.077 0.01172,-0.1113 0.0085,-0.035 0.02356,-0.07 0.04492,-0.1074 l 0.02539,-0.045 -0.126953,-0.074 z m 28.83789,1.0176 -0.126953,0.072 0.03125,0.057 c 0.03153,0.055 0.05451,0.099 0.07031,0.1348 0.01756,0.034 0.02681,0.062 0.02539,0.084 0.0014,0.023 -0.005,0.043 -0.01953,0.059 -0.01281,0.014 -0.03431,0.029 -0.0625,0.045 l -1.482422,0.8554 c -0.02995,0.017 -0.0555,0.03 -0.07617,0.035 -0.01891,0 -0.03766,0 -0.05664,-0.014 -0.01796,-0.011 -0.03769,-0.033 -0.06055,-0.064 -0.02109,-0.033 -0.04854,-0.074 -0.08008,-0.1289 l -0.03125,-0.057 -0.128907,0.074 0.527344,0.9161 0.128906,-0.076 -0.0293,-0.053 c -0.03255,-0.056 -0.05861,-0.1003 -0.07617,-0.1348 -0.01479,-0.034 -0.02207,-0.063 -0.02344,-0.086 -0.0014,-0.023 0.0028,-0.04 0.01563,-0.055 0.01457,-0.015 0.03841,-0.034 0.06836,-0.051 l 1.482422,-0.8555 c 0.02819,-0.016 0.0514,-0.025 0.07031,-0.029 0.02067,0 0.03961,-8e-4 0.05859,0.012 0.02074,0.012 0.04243,0.032 0.0625,0.062 0.02285,0.032 0.04948,0.075 0.08203,0.1309 l 0.03125,0.055 0.126953,-0.074 -0.527344,-0.9141 z m -0.09961,6.5332 0,1.0566 0.148437,0 0,-0.062 c 0,-0.065 0.0019,-0.1156 0.0039,-0.1542 0.0041,-0.037 0.01131,-0.066 0.02148,-0.086 0.01017,-0.02 0.02466,-0.033 0.04297,-0.039 0.02034,-0.01 0.04744,-0.01 0.08203,-0.01 l 1.710937,0 c 0.03255,0 0.05786,0 0.07617,0.01 0.02034,0.01 0.0367,0.019 0.04687,0.039 0.01221,0.02 0.01945,0.049 0.02148,0.086 0.0041,0.039 0.0059,0.089 0.0059,0.1542 l 0,0.062 0.146484,0 0,-1.0566 -0.146484,0 0,0.064 c 0,0.063 -0.0018,0.1136 -0.0059,0.1523 -0.002,0.039 -0.0093,0.068 -0.02148,0.086 -0.01017,0.02 -0.02653,0.033 -0.04687,0.039 -0.01831,0.01 -0.04362,0.01 -0.07617,0.01 l -1.710937,0 c -0.03459,0 -0.06169,0 -0.08203,-0.01 -0.01831,-0.01 -0.0328,-0.019 -0.04297,-0.039 -0.01017,-0.018 -0.01741,-0.047 -0.02148,-0.086 -0.002,-0.039 -0.0039,-0.089 -0.0039,-0.1523 l 0,-0.064 -0.148437,0 z m -29.402344,0.094 0,0.041 c 0,0.051 8.2e-5,0.091 -0.0019,0.1211 -0.0041,0.031 -0.01131,0.058 -0.02148,0.08 -0.01017,0.022 -0.02645,0.044 -0.04883,0.065 -0.02238,0.02 -0.05501,0.044 -0.0957,0.07 l -0.96289,0.668 -0.580078,-0.4238 c -0.06104,-0.045 -0.111735,-0.085 -0.150391,-0.1192 -0.03866,-0.035 -0.06942,-0.069 -0.0918,-0.1016 -0.02238,-0.033 -0.03678,-0.065 -0.04492,-0.1 -0.01017,-0.034 -0.01563,-0.074 -0.01563,-0.1171 l 0,-0.051 -0.146484,0 0,0.8789 0.146484,0 0,-0.047 c 0,-0.077 0.0109,-0.1315 0.03125,-0.1641 0.02035,-0.034 0.05102,-0.053 0.09375,-0.053 0.01831,0 0.03459,0 0.04883,0.01 0.01424,0 0.0341,0.015 0.06055,0.033 l 0.503906,0.3457 -0.615234,0.4238 c -0.03459,0.024 -0.06177,0.037 -0.08008,0.037 -0.01628,0 -0.0271,-0.011 -0.0332,-0.031 -0.0061,-0.02 -0.0098,-0.062 -0.0098,-0.1231 l 0,-0.125 -0.146484,0 0,0.9903 0.146484,0 0,-0.055 c 0,-0.039 0.0018,-0.071 0.0059,-0.098 0.002,-0.026 0.0075,-0.05 0.01563,-0.068 0.0081,-0.02 0.02083,-0.036 0.03711,-0.051 0.01628,-0.016 0.03801,-0.034 0.06445,-0.053 l 0.912109,-0.6289 0.726563,0.5196 c 0.08952,0.063 0.154622,0.1281 0.195312,0.1953 0.03866,0.067 0.05664,0.1412 0.05664,0.2226 l 0,0.012 0.146485,0 0,-0.9062 -0.146485,0 0,0.08 c 0,0.065 -0.01261,0.1157 -0.03906,0.1523 -0.02848,0.037 -0.06641,0.055 -0.115234,0.055 -0.04476,0 -0.09188,-0.018 -0.138672,-0.053 l -0.539062,-0.3653 0.673828,-0.4785 c 0.03459,-0.026 0.06901,-0.041 0.101562,-0.041 0.01221,0 0.02116,0 0.0293,0.01 0.0081,0 0.01546,0.011 0.01953,0.025 0.002,0.014 0.0038,0.036 0.0059,0.064 0.002,0.028 0.002,0.068 0.002,0.1191 l 0,0.088 0.146485,0 0,-1.0507 -0.146485,0 z m 29.402344,1.207 0,1.0547 0.148437,0 0,-0.061 c 0,-0.065 0.0019,-0.1176 0.0039,-0.1562 0.0041,-0.037 0.01131,-0.064 0.02148,-0.084 0.01017,-0.02 0.02466,-0.035 0.04297,-0.041 0.02034,-0.01 0.04744,-0.01 0.08203,-0.01 l 1.710937,0 c 0.03255,0 0.05786,0 0.07617,0.01 0.02034,0.01 0.0367,0.021 0.04687,0.041 0.01221,0.02 0.01945,0.047 0.02148,0.084 0.0041,0.039 0.0059,0.091 0.0059,0.1562 l 0,0.061 0.146484,0 0,-1.0547 -0.146484,0 0,0.062 c 0,0.063 -0.0018,0.1156 -0.0059,0.1543 -0.002,0.039 -0.0093,0.066 -0.02148,0.084 -0.01017,0.02 -0.02653,0.035 -0.04687,0.041 -0.01831,0.01 -0.04362,0.01 -0.07617,0.01 l -1.710937,0 c -0.03459,0 -0.06169,0 -0.08203,-0.01 -0.01831,-0.01 -0.0328,-0.021 -0.04297,-0.041 -0.01017,-0.018 -0.01741,-0.045 -0.02148,-0.084 -0.002,-0.039 -0.0039,-0.091 -0.0039,-0.1543 l 0,-0.062 -0.148437,0 z m -31.5625,1.2051 0,1.0547 0.146484,0 0,-0.062 c 0,-0.063 0.0018,-0.1157 0.0059,-0.1543 0.002,-0.039 0.0093,-0.066 0.02148,-0.084 0.01017,-0.02 0.02653,-0.035 0.04687,-0.041 0.01831,-0.01 0.04362,-0.01 0.07617,-0.01 l 1.710938,0 c 0.03459,0 0.06169,0 0.08203,0.01 0.01831,0.01 0.0328,0.021 0.04297,0.041 0.01017,0.018 0.01741,0.045 0.02148,0.084 0.002,0.039 0.0039,0.091 0.0039,0.1543 l 0,0.062 0.148437,0 0,-1.0547 -0.148437,0 0,0.061 c 0,0.065 -0.0019,0.1176 -0.0039,0.1563 -0.0041,0.037 -0.01131,0.064 -0.02148,0.084 -0.01017,0.02 -0.02466,0.035 -0.04297,0.041 -0.02034,0.01 -0.04744,0.01 -0.08203,0.01 l -1.710938,0 c -0.03255,0 -0.05786,0 -0.07617,-0.01 -0.02035,-0.01 -0.0367,-0.021 -0.04687,-0.041 -0.01221,-0.02 -0.01945,-0.047 -0.02148,-0.084 -0.0041,-0.039 -0.0059,-0.091 -0.0059,-0.1563 l 0,-0.061 -0.146484,0 z m 31.5625,0.094 0,1.0567 0.148437,0 0,-0.061 c 0,-0.065 0.0019,-0.1176 0.0039,-0.1562 0.0041,-0.037 0.01131,-0.066 0.02148,-0.086 0.01017,-0.02 0.02466,-0.033 0.04297,-0.039 0.02034,-0.01 0.04744,-0.01 0.08203,-0.01 l 1.710937,0 c 0.03255,0 0.05786,0 0.07617,0.01 0.02034,0.01 0.0367,0.019 0.04687,0.039 0.01221,0.02 0.01945,0.049 0.02148,0.086 0.0041,0.039 0.0059,0.091 0.0059,0.1562 l 0,0.061 0.146484,0 0,-1.0567 -0.146484,0 0,0.064 c 0,0.063 -0.0018,0.1137 -0.0059,0.1523 -0.002,0.039 -0.0093,0.068 -0.02148,0.086 -0.01017,0.02 -0.02653,0.033 -0.04687,0.039 -0.01831,0.01 -0.04362,0.01 -0.07617,0.01 l -1.710937,0 c -0.03459,0 -0.06169,0 -0.08203,-0.01 -0.01831,-0.01 -0.0328,-0.019 -0.04297,-0.039 -0.01017,-0.018 -0.01741,-0.047 -0.02148,-0.086 -0.002,-0.039 -0.0039,-0.089 -0.0039,-0.1523 l 0,-0.064 -0.148437,0 z m -28.638672,4.2539 -0.130859,0.076 0.02734,0.045 c 0.02827,0.049 0.04944,0.089 0.06445,0.1192 0.01236,0.03 0.01955,0.054 0.01953,0.074 -1.5e-5,0.02 -0.0082,0.039 -0.02148,0.053 -0.01505,0.015 -0.03632,0.03 -0.06641,0.047 l -1.490235,0.8594 c -0.02832,0.016 -0.05174,0.029 -0.07031,0.033 -0.02035,0.01 -0.03896,0 -0.05664,-0.01 -0.01945,-0.01 -0.03702,-0.026 -0.05469,-0.053 -0.02032,-0.027 -0.04595,-0.066 -0.07422,-0.1152 l -0.02539,-0.045 -0.128906,0.072 0.458985,0.7949 0.126953,-0.074 -0.02734,-0.047 c -0.02739,-0.048 -0.0473,-0.088 -0.06055,-0.1192 -0.01501,-0.03 -0.0222,-0.054 -0.01953,-0.074 1.5e-5,-0.02 0.0084,-0.038 0.02344,-0.053 0.01328,-0.014 0.03418,-0.029 0.0625,-0.045 l 1.488281,-0.8593 c 0.03008,-0.017 0.05582,-0.03 0.07617,-0.035 0.01858,0 0.03701,0 0.05469,0.01 0.0168,0.01 0.03632,0.028 0.05664,0.055 0.01855,0.028 0.04097,0.066 0.06836,0.1133 l 0.02734,0.047 0.130859,-0.074 -0.458984,-0.7949 z m 27.578125,0.7793 -0.529297,0.9141 0.130859,0.076 0.0293,-0.055 c 0.03255,-0.056 0.06094,-0.1004 0.08203,-0.1328 0.02183,-0.03 0.04156,-0.05 0.06055,-0.062 0.01898,-0.013 0.03773,-0.018 0.05664,-0.014 0.02067,0 0.04622,0.016 0.07617,0.033 l 1.482422,0.8555 c 0.02819,0.016 0.04774,0.032 0.06055,0.047 0.01457,0.015 0.02285,0.034 0.02148,0.057 3.99e-4,0.024 -0.0088,0.053 -0.02539,0.086 -0.0158,0.035 -0.03971,0.08 -0.07227,0.1367 l -0.03125,0.053 0.126953,0.074 0.529297,-0.9141 -0.126953,-0.074 -0.0332,0.057 c -0.03153,0.055 -0.05723,0.098 -0.08008,0.1289 -0.02109,0.033 -0.04277,0.053 -0.0625,0.062 -0.01898,0.013 -0.03792,0.017 -0.05859,0.012 -0.01891,0 -0.04212,-0.015 -0.07031,-0.031 l -1.482422,-0.8555 c -0.02995,-0.017 -0.05379,-0.033 -0.06836,-0.049 -0.01281,-0.014 -0.01699,-0.032 -0.01563,-0.055 3.45e-4,-0.021 0.0076,-0.05 0.02344,-0.086 0.01757,-0.034 0.04268,-0.078 0.07422,-0.1328 l 0.03125,-0.057 -0.128906,-0.074 z m -27.013672,0.1992 -0.130859,0.074 0.02734,0.047 c 0.02827,0.049 0.04944,0.087 0.06445,0.1172 0.01236,0.03 0.01955,0.056 0.01953,0.076 -1.5e-5,0.02 -0.0082,0.037 -0.02148,0.051 -0.01505,0.015 -0.03632,0.031 -0.06641,0.049 l -1.490234,0.8594 c -0.02832,0.016 -0.05173,0.027 -0.07031,0.031 -0.02035,0.01 -0.03896,0 -0.05664,-0.01 -0.01945,-0.01 -0.03702,-0.028 -0.05469,-0.055 -0.02032,-0.027 -0.04595,-0.064 -0.07422,-0.1133 l -0.02539,-0.047 -0.128907,0.074 0.458984,0.795 0.126953,-0.074 -0.02734,-0.049 c -0.02738,-0.047 -0.0473,-0.086 -0.06055,-0.1172 -0.01501,-0.03 -0.0222,-0.054 -0.01953,-0.074 1.5e-5,-0.02 0.0084,-0.04 0.02344,-0.055 0.01328,-0.014 0.03418,-0.029 0.0625,-0.045 l 1.488282,-0.8594 c 0.03009,-0.017 0.05582,-0.03 0.07617,-0.035 0.01858,0 0.03701,-5e-4 0.05469,0.01 0.0168,0.01 0.03632,0.026 0.05664,0.053 0.01855,0.028 0.04097,0.066 0.06836,0.1133 l 0.02734,0.049 0.130859,-0.076 -0.458978,-0.793 z m 0.564453,0.9766 -0.130859,0.076 0.02734,0.045 c 0.02827,0.049 0.04944,0.089 0.06445,0.1191 0.01236,0.03 0.01955,0.054 0.01953,0.074 -1.5e-5,0.02 -0.0082,0.039 -0.02148,0.053 -0.01505,0.015 -0.03632,0.029 -0.06641,0.047 l -1.490234,0.8613 c -0.02832,0.016 -0.05174,0.027 -0.07031,0.031 -0.02035,0.01 -0.03896,0 -0.05664,-0.01 -0.01945,-0.01 -0.03702,-0.026 -0.05469,-0.053 -0.02032,-0.027 -0.04595,-0.066 -0.07422,-0.1152 l -0.02539,-0.045 -0.128906,0.074 0.458984,0.7929 0.126953,-0.072 -0.02734,-0.049 c -0.02739,-0.047 -0.0473,-0.086 -0.06055,-0.1172 -0.01501,-0.03 -0.0222,-0.056 -0.01953,-0.076 1.5e-5,-0.02 0.0084,-0.038 0.02344,-0.053 0.01328,-0.014 0.03418,-0.028 0.0625,-0.045 l 1.488281,-0.8594 c 0.03009,-0.017 0.05582,-0.03 0.07617,-0.035 0.01858,0 0.03701,0 0.05469,0.01 0.0168,0.01 0.03632,0.028 0.05664,0.055 0.01855,0.028 0.04097,0.066 0.06836,0.1133 l 0.02734,0.047 0.13086,-0.074 -0.458985,-0.7949 z m 25.269531,0.7695 -0.0625,0.1075 1.275391,1.582 c 0.04241,0.053 0.07556,0.099 0.09961,0.1387 0.02405,0.04 0.03876,0.077 0.04492,0.1113 0.0079,0.035 0.0073,0.067 -0.002,0.1 -0.0075,0.033 -0.02348,0.071 -0.04687,0.1113 l -0.01367,0.027 0.126953,0.072 0.431641,-0.748 -0.126953,-0.072 -0.0293,0.049 c -0.04171,0.072 -0.08791,0.1211 -0.136719,0.1446 -0.04705,0.024 -0.09286,0.023 -0.138672,0 -0.01938,-0.011 -0.04033,-0.027 -0.06445,-0.051 -0.02412,-0.023 -0.04702,-0.046 -0.06836,-0.07 l -0.898438,-1.0899 1.582032,0.2403 c 0.01993,0 0.03968,0 0.05859,0.01 0.01789,0.01 0.03025,0.013 0.03906,0.018 0.02467,0.014 0.03594,0.038 0.03125,0.07 -0.0057,0.034 -0.0269,0.081 -0.0625,0.1426 l -0.06445,0.1113 0.126953,0.074 0.498047,-0.8652 -0.126953,-0.072 -0.03125,0.055 c -0.03459,0.06 -0.06981,0.098 -0.105469,0.1152 -0.03566,0.017 -0.09338,0.021 -0.173828,0.01 l -2.16211,-0.3145 z m -24.24414,0.9102 -1.966797,0.4004 c -0.06546,0.013 -0.120904,0.022 -0.166016,0.025 -0.04511,0 -0.08233,8e-4 -0.113281,-0.01 -0.03272,-0.01 -0.06082,-0.021 -0.08203,-0.041 -0.02298,-0.019 -0.04414,-0.047 -0.06445,-0.082 l -0.01367,-0.023 -0.126953,0.074 0.375,0.6484 0.126953,-0.074 -0.02344,-0.043 c -0.03622,-0.063 -0.05203,-0.1189 -0.04492,-0.1679 0.0053,-0.048 0.03211,-0.085 0.07813,-0.1114 0.01947,-0.011 0.04432,-0.021 0.07617,-0.031 0.03185,-0.01 0.06279,-0.02 0.09375,-0.027 l 1.365235,-0.293 -1.042969,1.1875 c -0.01239,0.015 -0.02579,0.029 -0.03906,0.043 -0.01416,0.012 -0.02435,0.022 -0.0332,0.027 -0.02478,0.014 -0.05035,0.013 -0.07422,0 -0.02475,-0.018 -0.05111,-0.056 -0.08203,-0.1094 l -0.05664,-0.096 -0.126953,0.074 0.433594,0.75 0.126953,-0.074 -0.02734,-0.047 c -0.03004,-0.052 -0.04244,-0.097 -0.03711,-0.1328 0.0053,-0.036 0.03371,-0.084 0.08594,-0.1445 l 1.414062,-1.627 -0.05469,-0.094 z m 2.666015,2.9473 -0.07422,0.1308 0.04687,0.027 c 0.05051,0.029 0.09017,0.053 0.11914,0.072 0.02637,0.02 0.04596,0.039 0.05664,0.057 0.01068,0.018 0.01422,0.036 0.0098,0.055 -0.0055,0.02 -0.0178,0.046 -0.03516,0.076 l -0.859375,1.4883 c -0.01633,0.028 -0.031,0.049 -0.04492,0.062 -0.01494,0.015 -0.0338,0.022 -0.05469,0.022 -0.02191,0 -0.04674,0 -0.07617,-0.02 -0.03203,-0.014 -0.07254,-0.035 -0.123047,-0.064 l -0.04883,-0.027 -0.07227,0.1269 0.81836,0.4727 0.07422,-0.127 -0.05078,-0.029 c -0.04893,-0.028 -0.08729,-0.053 -0.115234,-0.074 -0.02897,-0.019 -0.04661,-0.038 -0.05469,-0.057 -0.01068,-0.018 -0.01328,-0.036 -0.0078,-0.057 0.0045,-0.019 0.01492,-0.042 0.03125,-0.07 l 0.859375,-1.4883 c 0.01735,-0.03 0.03193,-0.051 0.04687,-0.066 0.01392,-0.013 0.03185,-0.02 0.05273,-0.019 0.01931,-7e-4 0.04609,0.01 0.07813,0.019 0.03101,0.016 0.07021,0.036 0.119141,0.064 l 0.04883,0.029 0.07617,-0.1289 -0.820313,-0.4746 z m 1.009766,0.582 -0.07617,0.1308 0.04883,0.027 c 0.05051,0.029 0.09017,0.053 0.119141,0.072 0.02637,0.02 0.04401,0.039 0.05469,0.057 0.01068,0.018 0.01422,0.036 0.0098,0.055 -0.0055,0.02 -0.0178,0.046 -0.03516,0.076 l -0.857422,1.4882 c -0.01633,0.028 -0.03295,0.049 -0.04687,0.062 -0.01494,0.015 -0.03185,0.022 -0.05273,0.022 -0.02191,0 -0.04869,0 -0.07813,-0.019 -0.03203,-0.014 -0.07254,-0.035 -0.123046,-0.065 l -0.04687,-0.027 -0.07422,0.1269 0.820312,0.4727 0.07227,-0.127 -0.04883,-0.029 c -0.04893,-0.028 -0.08729,-0.052 -0.115234,-0.072 -0.02897,-0.019 -0.04856,-0.038 -0.05664,-0.057 -0.01068,-0.018 -0.01328,-0.038 -0.0078,-0.058 0.0045,-0.019 0.01492,-0.042 0.03125,-0.07 l 0.859375,-1.4882 c 0.01735,-0.03 0.03389,-0.052 0.04883,-0.066 0.01392,-0.013 0.03184,-0.02 0.05273,-0.02 0.01931,-6e-4 0.04414,0.01 0.07617,0.02 0.03101,0.015 0.07021,0.036 0.11914,0.064 l 0.05078,0.029 0.07422,-0.1289 -0.818359,-0.4746 z m 15.533203,0.4277 -0.107422,0.062 0.3125,2.0078 c 0.01039,0.067 0.01661,0.1235 0.01758,0.17 9.64e-4,0.046 -0.0039,0.084 -0.01563,0.1171 -0.0107,0.034 -0.02861,0.065 -0.05273,0.088 -0.02311,0.025 -0.05518,0.049 -0.0957,0.072 l -0.02734,0.016 0.07422,0.127 0.748047,-0.4336 -0.07422,-0.127 -0.04883,0.029 c -0.07224,0.042 -0.135432,0.061 -0.189453,0.057 -0.053,0 -0.09269,-0.026 -0.119141,-0.072 -0.01119,-0.019 -0.02202,-0.044 -0.03125,-0.076 -0.0092,-0.032 -0.01699,-0.064 -0.02344,-0.096 l -0.232422,-1.3926 1.25,0.9981 c 0.0162,0.012 0.03048,0.024 0.04492,0.037 0.01268,0.014 0.02226,0.026 0.02734,0.035 0.01424,0.025 0.01056,0.048 -0.0098,0.074 -0.02209,0.027 -0.06333,0.058 -0.125,0.094 l -0.111328,0.064 0.07227,0.1269 0.865235,-0.498 -0.07422,-0.127 -0.05469,0.031 c -0.05991,0.035 -0.109056,0.05 -0.148437,0.047 -0.03938,0 -0.09218,-0.028 -0.15625,-0.078 l -1.714844,-1.3535 z m -13.751953,0.5449 -1.519531,1.3184 c -0.05059,0.044 -0.09503,0.08 -0.132813,0.1055 -0.03778,0.025 -0.07177,0.041 -0.103515,0.049 -0.03277,0.01 -0.06441,0.01 -0.09375,0 -0.03036,-0.01 -0.0633,-0.018 -0.09961,-0.039 l -0.02344,-0.014 -0.07422,0.127 0.669922,0.3867 0.07422,-0.127 -0.04492,-0.027 c -0.06472,-0.037 -0.107539,-0.078 -0.126953,-0.125 -0.02043,-0.045 -0.01677,-0.091 0.0098,-0.1367 0.01123,-0.019 0.02813,-0.042 0.05078,-0.066 0.02265,-0.025 0.04516,-0.046 0.06836,-0.068 l 1.046875,-0.9277 -0.294922,1.5547 c -0.0029,0.019 -0.0073,0.04 -0.01172,0.059 -0.006,0.018 -0.01052,0.03 -0.01563,0.039 -0.01429,0.025 -0.03661,0.036 -0.06641,0.033 -0.03138,0 -0.07561,-0.023 -0.130859,-0.055 l -0.09961,-0.057 -0.07227,0.1269 0.773437,0.4473 0.07422,-0.1269 -0.05078,-0.029 c -0.05367,-0.031 -0.08754,-0.064 -0.101563,-0.098 -0.01403,-0.034 -0.01409,-0.091 0,-0.1699 l 0.392578,-2.125 -0.09766,-0.057 z m 6.908203,1.4414 -0.732422,1.8946 c -0.02441,0.063 -0.04598,0.1155 -0.06836,0.1562 -0.02238,0.041 -0.04777,0.071 -0.07422,0.094 -0.02645,0.024 -0.05534,0.041 -0.08789,0.049 -0.03255,0.01 -0.07235,0.016 -0.119141,0.016 l -0.03125,0 0,0.1465 0.863281,0 0,-0.1465 -0.05664,0 c -0.08341,0 -0.148601,-0.016 -0.19336,-0.047 -0.04476,-0.028 -0.06641,-0.068 -0.06641,-0.1211 0,-0.022 0.0036,-0.049 0.01172,-0.082 0.0081,-0.033 0.01717,-0.065 0.02734,-0.096 l 0.494141,-1.3203 0.583984,1.4883 c 0.0081,0.018 0.01538,0.036 0.02148,0.055 0.0041,0.018 0.0059,0.033 0.0059,0.043 0,0.028 -0.01636,0.048 -0.04687,0.06 -0.03255,0.012 -0.08309,0.02 -0.154297,0.02 l -0.128906,0 0,0.1465 0.998047,0 0,-0.1465 -0.06445,0 c -0.06917,0 -0.119792,-0.011 -0.152344,-0.033 -0.03255,-0.022 -0.06323,-0.071 -0.09375,-0.1465 l -0.808594,-2.0293 -0.126953,0 z m -2.263672,0.049 0,0.1484 0.06055,0 c 0.0651,0 0.117595,0 0.15625,0 0.03662,0 0.06559,0.011 0.08594,0.022 0.02035,0.01 0.03296,0.025 0.03906,0.043 0.0061,0.02 0.0098,0.047 0.0098,0.082 l 0,1.7109 c 0,0.033 -0.0037,0.058 -0.0098,0.076 -0.0061,0.02 -0.01872,0.037 -0.03906,0.047 -0.02034,0.012 -0.04932,0.019 -0.08594,0.021 -0.03866,0 -0.09115,0.01 -0.15625,0.01 l -0.06055,0 0,0.1465 1.056641,0 0,-0.1465 -0.06445,0 c -0.06307,0 -0.113688,0 -0.152344,-0.01 -0.03866,0 -0.06763,-0.01 -0.08594,-0.021 -0.02035,-0.01 -0.03296,-0.027 -0.03906,-0.047 -0.0061,-0.018 -0.0098,-0.044 -0.0098,-0.076 l 0,-1.7109 c 0,-0.035 0.0037,-0.062 0.0098,-0.082 0.0061,-0.018 0.01872,-0.033 0.03906,-0.043 0.01831,-0.01 0.04728,-0.017 0.08594,-0.022 0.03866,0 0.08927,0 0.152344,0 l 0.06445,0 0,-0.1484 -1.056641,0 z"
       style="font-style:normal;font-variant:normal;font-weight:normal;font-stretch:normal;font-size:3.125px;font-family:'Tibetan Machine Uni';-inkscape-font-specification:'Tibetan Machine Uni';opacity:1;fill:#000000;fill-opacity:0.32631579;stroke:#000000;stroke-width:0.15800001;stroke-miterlimit:4;stroke-dasharray:none;stroke-opacity:0.62745098"
       inkscape:connector-curvature="0" />
    <path
       style="font-style:normal;font-variant:normal;font-weight:normal;font-stretch:normal;font-size:3.125px;font-family:'Tibetan Machine Uni';-inkscape-font-specification:'Tibetan Machine Uni';opacity:1;fill:#ffffff;fill-opacity:1;stroke:#ffffff;stroke-width:0.15800001;stroke-miterlimit:4;stroke-dasharray:none;stroke-opacity:1"
       d="m -23.134766,961.0712 0,0.1465 0.05078,0 c 0.03539,0 0.06563,0 0.08984,0.01 0.02422,0 0.04378,0.01 0.06055,0.016 0.01863,0.01 0.03579,0.021 0.04883,0.037 0.0149,0.016 0.03011,0.038 0.04687,0.064 l 0.576172,0.9141 -0.474609,0.7285 c -0.05775,0.09 -0.118214,0.1545 -0.179688,0.1953 -0.06147,0.039 -0.128606,0.059 -0.20312,0.059 l -0.01172,0 0,0.1465 0.830078,0 0,-0.1465 -0.07227,0 c -0.05961,0 -0.107094,-0.013 -0.140625,-0.039 -0.03353,-0.029 -0.05078,-0.068 -0.05078,-0.1172 0,-0.045 0.01716,-0.09 0.04883,-0.1367 l 0.333984,-0.5429 0.439453,0.6777 c 0.02422,0.035 0.03516,0.067 0.03516,0.1 0,0.012 -1.81e-4,0.023 -0.0039,0.031 -0.0019,0.01 -0.0104,0.015 -0.02344,0.02 -0.01304,0 -0.03251,0 -0.05859,0.01 -0.02608,0 -0.0628,0 -0.109375,0 l -0.08008,0 0,0.1465 0.960938,0 0,-0.1465 -0.03711,0 c -0.04657,0 -0.08338,10e-5 -0.111328,0 -0.02794,0 -0.05177,-0.011 -0.07227,-0.021 -0.02049,-0.01 -0.03997,-0.026 -0.05859,-0.049 -0.01863,-0.022 -0.04024,-0.055 -0.06445,-0.096 l -0.611336,-0.9668 0.388671,-0.582 c 0.04098,-0.061 0.07575,-0.1116 0.107422,-0.1504 0.03167,-0.039 0.06395,-0.069 0.09375,-0.092 0.02981,-0.022 0.06013,-0.037 0.0918,-0.045 0.03167,-0.01 0.06635,-0.016 0.105469,-0.016 l 0.04687,0 0,-0.1465 -0.804688,0 0,0.1465 0.04297,0 c 0.07079,0 0.120585,0.011 0.150391,0.031 0.03167,0.02 0.04687,0.051 0.04687,0.094 0,0.018 -0.0022,0.034 -0.0078,0.049 -0.0037,0.014 -0.01448,0.036 -0.03125,0.062 l -0.31446,0.5039 -0.388672,-0.6172 c -0.02235,-0.035 -0.0332,-0.062 -0.0332,-0.08 0,-0.016 0.0087,-0.027 0.02734,-0.033 0.01863,-0.01 0.05544,-0.01 0.111328,-0.01 l 0.115234,0 0,-0.1465 -0.90625,0 z m 2.191407,0 0,0.1465 0.05859,0 c 0.05775,0 0.105231,0 0.140625,0.01 0.03539,0 0.06136,0.01 0.07813,0.022 0.01863,0.01 0.02957,0.026 0.03516,0.047 0.0056,0.018 0.0098,0.043 0.0098,0.076 l 0,1.7168 c 0,0.035 -0.0042,0.062 -0.0098,0.082 -0.0056,0.018 -0.01653,0.033 -0.03516,0.043 -0.01676,0.01 -0.04273,0.017 -0.07813,0.021 -0.03539,0 -0.08288,0 -0.140625,0 l -0.05859,0 0,0.1484 0.966797,0 0,-0.1484 -0.05664,0 c -0.05961,0 -0.107184,0 -0.142578,0 -0.03353,0 -0.0595,-0.011 -0.07813,-0.021 -0.01863,-0.01 -0.02957,-0.025 -0.03516,-0.043 -0.0056,-0.02 -0.0078,-0.047 -0.0078,-0.082 l 0,-1.7168 c 0,-0.033 0.0022,-0.058 0.0078,-0.076 0.0056,-0.02 0.01653,-0.037 0.03516,-0.047 0.01863,-0.012 0.04459,-0.019 0.07813,-0.022 0.03539,0 0.08297,-0.01 0.142578,-0.01 l 0.05664,0 0,-0.1465 -0.966797,0 z m 1.191406,0 0,0.1465 0.05859,0 c 0.05775,0 0.103277,0 0.138671,0.01 0.03539,0 0.06136,0.01 0.07813,0.022 0.01863,0.01 0.03152,0.026 0.03711,0.047 0.0056,0.018 0.0078,0.043 0.0078,0.076 l 0,1.7168 c 0,0.035 -0.0022,0.062 -0.0078,0.082 -0.0056,0.018 -0.01848,0.033 -0.03711,0.043 -0.01677,0.01 -0.04273,0.017 -0.07813,0.021 -0.03539,0 -0.08092,0 -0.138671,0 l -0.05859,0 0,0.1484 0.966797,0 0,-0.1484 -0.05664,0 c -0.05961,0 -0.107184,0 -0.142578,0 -0.03353,0 -0.0595,-0.011 -0.07813,-0.021 -0.01863,-0.01 -0.03152,-0.025 -0.03711,-0.043 -0.0056,-0.02 -0.0078,-0.047 -0.0078,-0.082 l 0,-1.7168 c 0,-0.033 0.0022,-0.058 0.0078,-0.076 0.0056,-0.02 0.01848,-0.037 0.03711,-0.047 0.01863,-0.012 0.04459,-0.019 0.07813,-0.022 0.03539,0 0.08297,-0.01 0.142578,-0.01 l 0.05664,0 0,-0.1465 -0.966797,0 z m -8.181641,1.4101 -0.914062,0.5274 0.07226,0.1269 0.05664,-0.031 c 0.05462,-0.032 0.09925,-0.057 0.134766,-0.072 0.03449,-0.018 0.06202,-0.025 0.08398,-0.023 0.02271,0 0.04118,0 0.05664,0.019 0.01444,0.013 0.0306,0.032 0.04687,0.061 l 0.855468,1.4843 c 0.01729,0.03 0.02832,0.054 0.0332,0.074 0.0039,0.019 8.14e-4,0.04 -0.01172,0.059 -0.01077,0.018 -0.03301,0.038 -0.06445,0.061 -0.03246,0.021 -0.07624,0.047 -0.13086,0.078 l -0.05469,0.033 0.07422,0.1289 0.914062,-0.5273 -0.07422,-0.1309 -0.05273,0.031 c -0.05638,0.032 -0.102225,0.057 -0.136719,0.074 -0.03375,0.015 -0.06128,0.024 -0.08398,0.025 -0.02271,0 -0.0422,0 -0.05664,-0.018 -0.01546,-0.015 -0.03154,-0.036 -0.04883,-0.066 l -0.855455,-1.4824 c -0.01628,-0.028 -0.02543,-0.051 -0.0293,-0.07 -0.0049,-0.021 -0.0028,-0.042 0.0098,-0.061 0.01152,-0.021 0.03376,-0.041 0.06445,-0.061 0.03144,-0.023 0.07448,-0.051 0.13086,-0.084 l 0.05273,-0.029 -0.07227,-0.127 z m 14.984375,0.5977 -0.07422,0.127 0.05664,0.031 c 0.05462,0.031 0.09746,0.059 0.128906,0.082 0.03246,0.021 0.05275,0.041 0.0625,0.061 0.01253,0.019 0.01661,0.04 0.01172,0.06 -0.0039,0.019 -0.01497,0.042 -0.03125,0.07 l -0.855469,1.4825 c -0.01729,0.03 -0.03337,0.052 -0.04883,0.066 -0.01444,0.013 -0.03393,0.019 -0.05664,0.018 -0.02094,-3e-4 -0.04847,-0.01 -0.08398,-0.023 -0.03449,-0.018 -0.07819,-0.043 -0.132812,-0.074 l -0.05664,-0.031 -0.07422,0.1289 0.914063,0.5274 0.07422,-0.1289 -0.05273,-0.031 c -0.05638,-0.033 -0.100353,-0.059 -0.132812,-0.08 -0.02968,-0.022 -0.04997,-0.042 -0.0625,-0.061 -0.01253,-0.019 -0.01754,-0.038 -0.01367,-0.057 0.0049,-0.021 0.01591,-0.046 0.0332,-0.076 l 0.855469,-1.4824 c 0.01628,-0.028 0.03243,-0.05 0.04687,-0.062 0.01546,-0.015 0.03393,-0.021 0.05664,-0.02 0.02372,-4e-4 0.05321,0.01 0.08594,0.024 0.03551,0.016 0.08034,0.042 0.136719,0.074 l 0.05273,0.029 0.07422,-0.127 -0.914063,-0.5273 z m -16.085937,0.037 -0.761719,0.4395 0.07227,0.1269 0.04101,-0.022 c 0.06695,-0.039 0.11984,-0.058 0.158203,-0.057 0.04013,3e-4 0.07044,0.02 0.0918,0.057 0.0092,0.016 0.01379,0.032 0.01563,0.047 0.0036,0.014 0.0046,0.036 0.002,0.068 l -0.04687,0.6093 -0.675781,-0.3222 c -0.03844,-0.018 -0.06311,-0.035 -0.07227,-0.051 -0.0081,-0.014 -0.0048,-0.028 0.0098,-0.043 0.01457,-0.015 0.0487,-0.04 0.101563,-0.07 l 0.109375,-0.062 -0.07422,-0.1269 -0.855469,0.4961 0.07227,0.125 0.04883,-0.027 c 0.03348,-0.019 0.061,-0.033 0.08594,-0.043 0.02392,-0.011 0.04648,-0.017 0.06641,-0.019 0.02169,0 0.04398,0 0.06445,0.01 0.02223,0.01 0.04709,0.016 0.07617,0.029 l 1,0.4746 -0.08594,0.8886 c -0.0099,0.1091 -0.03251,0.1988 -0.07031,0.2676 -0.03882,0.067 -0.09359,0.1214 -0.164063,0.1621 l -0.01172,0.01 0.07422,0.127 0.785156,-0.4531 -0.07422,-0.127 -0.06836,0.039 c -0.05638,0.032 -0.107404,0.048 -0.152344,0.043 -0.04596,-0.01 -0.08105,-0.032 -0.105468,-0.074 -0.02238,-0.039 -0.02999,-0.087 -0.02344,-0.1445 l 0.04687,-0.6504 0.751953,0.3437 c 0.0402,0.017 0.06771,0.04 0.08399,0.068 0.0061,0.011 0.01117,0.02 0.01172,0.029 0.0023,0.01 -0.0034,0.017 -0.01367,0.027 -0.01132,0.01 -0.02713,0.021 -0.05078,0.037 -0.02365,0.016 -0.05751,0.037 -0.101562,0.062 l -0.07813,0.045 0.07422,0.1269 0.908203,-0.5254 -0.07227,-0.1269 -0.03516,0.019 c -0.04405,0.025 -0.07998,0.045 -0.107422,0.059 -0.02846,0.012 -0.05366,0.019 -0.07813,0.021 -0.02447,0 -0.05127,-6e-4 -0.08008,-0.01 -0.02881,-0.01 -0.06612,-0.025 -0.109375,-0.047 l -1.060624,-0.5019 0.07813,-0.7149 c 0.0082,-0.075 0.01672,-0.1367 0.02734,-0.1875 0.01063,-0.051 0.02597,-0.095 0.04297,-0.1308 0.017,-0.036 0.03857,-0.066 0.06445,-0.09 0.02487,-0.026 0.0548,-0.049 0.0918,-0.07 l 0.04492,-0.027 -0.07226,-0.127 z m 22.152344,5.4043 -0.126954,0.074 0.03125,0.055 c 0.03153,0.055 0.05646,0.1012 0.07227,0.1367 0.01757,0.035 0.02485,0.062 0.02344,0.084 0.0014,0.023 -0.005,0.041 -0.01953,0.057 -0.01281,0.014 -0.03431,0.031 -0.0625,0.047 l -1.482422,0.8555 c -0.02995,0.017 -0.0555,0.028 -0.07617,0.033 -0.01891,0 -0.03766,0 -0.05664,-0.014 -0.01796,-0.011 -0.03769,-0.031 -0.06055,-0.062 -0.02109,-0.032 -0.04854,-0.076 -0.08008,-0.1308 l -0.03125,-0.055 -0.128906,0.074 0.527343,0.9141 0.128907,-0.074 -0.0293,-0.053 c -0.03255,-0.056 -0.05861,-0.1022 -0.07617,-0.1367 -0.01479,-0.034 -0.02208,-0.061 -0.02344,-0.084 -0.0014,-0.023 0.0048,-0.042 0.01758,-0.057 0.01457,-0.015 0.03645,-0.032 0.06641,-0.049 l 1.482422,-0.8554 c 0.02819,-0.016 0.0514,-0.027 0.07031,-0.031 0.02067,0 0.04156,-8e-4 0.06055,0.012 0.02074,0.012 0.04047,0.034 0.06055,0.065 0.02285,0.031 0.04948,0.074 0.08203,0.1308 l 0.03125,0.053 0.126953,-0.072 -0.527343,-0.916 z m -28.187501,0.1094 -0.439453,0.7617 0.126953,0.074 0.02344,-0.041 c 0.03866,-0.067 0.07353,-0.1089 0.107421,-0.127 0.03491,-0.02 0.07237,-0.019 0.109375,0 0.01586,0.01 0.02783,0.021 0.03711,0.033 0.0103,0.011 0.02141,0.03 0.03516,0.059 l 0.263672,0.5508 -0.746093,0.059 c -0.04216,0 -0.07008,0 -0.08594,-0.01 -0.0141,-0.01 -0.01856,-0.022 -0.01367,-0.043 0.0049,-0.021 0.02222,-0.057 0.05273,-0.1093 l 0.0625,-0.1094 -0.126954,-0.072 -0.49414,0.8555 0.126953,0.074 0.02734,-0.049 c 0.01933,-0.034 0.03794,-0.059 0.05469,-0.08 0.01499,-0.022 0.03067,-0.039 0.04687,-0.051 0.01722,-0.014 0.03542,-0.023 0.05664,-0.027 0.02223,-0.01 0.04997,-0.011 0.08203,-0.014 l 1.103516,-0.088 0.371093,0.8125 c 0.04599,0.099 0.06864,0.1891 0.07031,0.2676 -9.2e-5,0.077 -0.01986,0.1522 -0.06055,0.2226 l -0.0059,0.01 0.126953,0.072 0.453125,-0.7832 -0.126953,-0.074 -0.04102,0.068 c -0.03255,0.056 -0.06816,0.095 -0.109375,0.1132 -0.04298,0.018 -0.08662,0.013 -0.128906,-0.012 -0.03876,-0.022 -0.06857,-0.06 -0.0918,-0.1133 l -0.285156,-0.5859 0.824219,-0.078 c 0.04318,-0.01 0.07728,-7e-4 0.105468,0.016 0.01057,0.01 0.01842,0.014 0.02344,0.022 0.006,0.01 0.0075,0.015 0.0039,0.029 -0.0054,0.013 -0.01291,0.033 -0.02539,0.059 -0.01248,0.026 -0.03121,0.061 -0.05664,0.1054 l -0.04492,0.076 0.126953,0.072 0.525391,-0.9082 -0.126953,-0.074 -0.02149,0.035 c -0.02543,0.044 -0.04548,0.078 -0.0625,0.1035 -0.01878,0.024 -0.03859,0.044 -0.05859,0.059 -0.02,0.014 -0.04466,0.025 -0.07422,0.031 -0.02955,0.01 -0.06873,0.011 -0.117188,0.014 l -1.169921,0.096 -0.289063,-0.6562 c -0.03048,-0.069 -0.05413,-0.1285 -0.07031,-0.1777 -0.01618,-0.049 -0.02619,-0.093 -0.0293,-0.1329 -0.0031,-0.039 0.0015,-0.077 0.01172,-0.1113 0.0085,-0.035 0.02356,-0.07 0.04492,-0.1074 l 0.02539,-0.045 -0.126953,-0.074 z m 28.837891,1.0176 -0.126953,0.072 0.03125,0.057 c 0.03153,0.055 0.05451,0.099 0.07031,0.1347 0.01757,0.035 0.02681,0.062 0.02539,0.084 0.0014,0.023 -0.005,0.043 -0.01953,0.059 -0.01281,0.014 -0.03431,0.029 -0.0625,0.045 l -1.482422,0.8555 c -0.02995,0.017 -0.0555,0.03 -0.07617,0.035 -0.01891,0 -0.03766,0 -0.05664,-0.014 -0.01796,-0.011 -0.03769,-0.033 -0.06055,-0.065 -0.02109,-0.032 -0.04854,-0.074 -0.08008,-0.1289 l -0.03125,-0.057 -0.128907,0.074 0.527344,0.916 0.128906,-0.076 -0.0293,-0.053 c -0.03255,-0.056 -0.05861,-0.1002 -0.07617,-0.1347 -0.01479,-0.034 -0.02207,-0.063 -0.02344,-0.086 -0.0014,-0.023 0.0028,-0.04 0.01563,-0.055 0.01457,-0.015 0.03841,-0.034 0.06836,-0.051 l 1.482422,-0.8554 c 0.02819,-0.016 0.0514,-0.026 0.07031,-0.029 0.02067,0 0.03961,-8e-4 0.05859,0.012 0.02074,0.011 0.04243,0.032 0.0625,0.062 0.02285,0.031 0.04948,0.074 0.08203,0.1309 l 0.03125,0.055 0.126953,-0.074 -0.527344,-0.914 z m -0.09961,6.5332 0,1.0566 0.148437,0 0,-0.062 c 0,-0.065 0.0019,-0.1156 0.0039,-0.1543 0.0041,-0.037 0.01131,-0.066 0.02148,-0.086 0.01017,-0.02 0.02466,-0.033 0.04297,-0.039 0.02034,-0.01 0.04744,-0.01 0.08203,-0.01 l 1.710937,0 c 0.03255,0 0.05786,0 0.07617,0.01 0.02034,0.01 0.0367,0.019 0.04687,0.039 0.01221,0.02 0.01945,0.049 0.02148,0.086 0.0041,0.039 0.0059,0.089 0.0059,0.1543 l 0,0.062 0.146484,0 0,-1.0566 -0.146484,0 0,0.064 c 0,0.063 -0.0018,0.1137 -0.0059,0.1524 -0.002,0.039 -0.0093,0.068 -0.02148,0.086 -0.01017,0.02 -0.02653,0.033 -0.04687,0.039 -0.01831,0.01 -0.04362,0.01 -0.07617,0.01 l -1.710937,0 c -0.03459,0 -0.06169,0 -0.08203,-0.01 -0.01831,-0.01 -0.0328,-0.019 -0.04297,-0.039 -0.01017,-0.018 -0.01741,-0.047 -0.02148,-0.086 -0.002,-0.039 -0.0039,-0.089 -0.0039,-0.1524 l 0,-0.064 -0.148437,0 z m -29.402344,0.094 0,0.041 c 0,0.051 8.1e-5,0.091 -0.002,0.1211 -0.0041,0.03 -0.01131,0.058 -0.02148,0.08 -0.01017,0.022 -0.02645,0.044 -0.04883,0.064 -0.02238,0.02 -0.05501,0.044 -0.0957,0.07 l -0.962893,0.6679 -0.580078,-0.4238 c -0.06104,-0.045 -0.111735,-0.085 -0.150391,-0.1191 -0.03866,-0.035 -0.06942,-0.069 -0.0918,-0.1016 -0.02238,-0.033 -0.03678,-0.065 -0.04492,-0.1 -0.01017,-0.035 -0.01563,-0.074 -0.01563,-0.1172 l 0,-0.051 -0.146484,0 0,0.8789 0.146484,0 0,-0.047 c 0,-0.077 0.0109,-0.1316 0.03125,-0.1641 0.02034,-0.035 0.05102,-0.053 0.09375,-0.053 0.01831,0 0.03459,0 0.04883,0.01 0.01424,0 0.0341,0.015 0.06055,0.033 l 0.503906,0.3456 -0.615234,0.4239 c -0.03459,0.024 -0.06177,0.037 -0.08008,0.037 -0.01628,0 -0.0271,-0.011 -0.0332,-0.031 -0.0061,-0.02 -0.0098,-0.062 -0.0098,-0.123 l 0,-0.125 -0.146484,0 0,0.9902 0.146484,0 0,-0.055 c 0,-0.039 0.0018,-0.071 0.0059,-0.098 0.002,-0.026 0.0075,-0.05 0.01563,-0.068 0.0081,-0.02 0.02083,-0.036 0.03711,-0.051 0.01628,-0.016 0.038,-0.034 0.06445,-0.053 l 0.912109,-0.6289 0.726563,0.5195 c 0.08952,0.063 0.154622,0.1282 0.195312,0.1953 0.03866,0.067 0.05664,0.1413 0.05664,0.2227 l 0,0.012 0.146485,0 0,-0.9063 -0.146485,0 0,0.08 c 0,0.065 -0.01261,0.1158 -0.03906,0.1524 -0.02848,0.037 -0.06641,0.055 -0.115234,0.055 -0.04476,0 -0.09188,-0.018 -0.138672,-0.053 l -0.539058,-0.3652 0.673828,-0.4785 c 0.03459,-0.026 0.06901,-0.041 0.101562,-0.041 0.01221,0 0.02116,0 0.0293,0.01 0.0081,0 0.01546,0.011 0.01953,0.025 0.002,0.014 0.0038,0.036 0.0059,0.064 0.002,0.029 0.002,0.068 0.002,0.1191 l 0,0.088 0.146485,0 0,-1.0508 -0.146485,0 z m 29.402344,1.207 0,1.0547 0.148437,0 0,-0.061 c 0,-0.065 0.0019,-0.1176 0.0039,-0.1563 0.0041,-0.037 0.01131,-0.064 0.02148,-0.084 0.01017,-0.02 0.02466,-0.035 0.04297,-0.041 0.02034,-0.01 0.04744,-0.01 0.08203,-0.01 l 1.710937,0 c 0.03255,0 0.05786,0 0.07617,0.01 0.02034,0.01 0.0367,0.021 0.04687,0.041 0.01221,0.02 0.01945,0.047 0.02148,0.084 0.0041,0.039 0.0059,0.091 0.0059,0.1563 l 0,0.061 0.146484,0 0,-1.0547 -0.146484,0 0,0.062 c 0,0.063 -0.0018,0.1157 -0.0059,0.1543 -0.002,0.039 -0.0093,0.066 -0.02148,0.084 -0.01017,0.02 -0.02653,0.035 -0.04687,0.041 -0.01831,0.01 -0.04362,0.01 -0.07617,0.01 l -1.710937,0 c -0.03459,0 -0.06169,0 -0.08203,-0.01 -0.01831,-0.01 -0.0328,-0.021 -0.04297,-0.041 -0.01017,-0.018 -0.01741,-0.045 -0.02148,-0.084 -0.002,-0.039 -0.0039,-0.091 -0.0039,-0.1543 l 0,-0.062 -0.148437,0 z m -31.5625,1.2051 0,1.0547 0.146484,0 0,-0.062 c 0,-0.063 0.0018,-0.1156 0.0059,-0.1543 0.002,-0.039 0.0093,-0.066 0.02148,-0.084 0.01017,-0.02 0.02653,-0.035 0.04687,-0.041 0.01831,-0.01 0.04362,-0.01 0.07617,-0.01 l 1.710938,0 c 0.03459,0 0.06169,0 0.08203,0.01 0.01831,0.01 0.0328,0.021 0.04297,0.041 0.01017,0.018 0.01741,0.045 0.02148,0.084 0.002,0.039 0.0039,0.091 0.0039,0.1543 l 0,0.062 0.148437,0 0,-1.0547 -0.148437,0 0,0.061 c 0,0.065 -0.0019,0.1176 -0.0039,0.1562 -0.0041,0.037 -0.01131,0.064 -0.02148,0.084 -0.01017,0.02 -0.02466,0.035 -0.04297,0.041 -0.02034,0.01 -0.04744,0.01 -0.08203,0.01 l -1.710938,0 c -0.03255,0 -0.05786,0 -0.07617,-0.01 -0.02035,-0.01 -0.0367,-0.021 -0.04687,-0.041 -0.01221,-0.02 -0.01945,-0.047 -0.02148,-0.084 -0.0041,-0.039 -0.0059,-0.091 -0.0059,-0.1562 l 0,-0.061 -0.146484,0 z m 31.5625,0.094 0,1.0566 0.148437,0 0,-0.061 c 0,-0.065 0.0019,-0.1176 0.0039,-0.1563 0.0041,-0.037 0.01131,-0.066 0.02148,-0.086 0.01017,-0.02 0.02466,-0.033 0.04297,-0.039 0.02034,-0.01 0.04744,-0.01 0.08203,-0.01 l 1.710937,0 c 0.03255,0 0.05786,0 0.07617,0.01 0.02034,0.01 0.0367,0.019 0.04687,0.039 0.01221,0.02 0.01945,0.049 0.02148,0.086 0.0041,0.039 0.0059,0.091 0.0059,0.1563 l 0,0.061 0.146484,0 0,-1.0566 -0.146484,0 0,0.064 c 0,0.063 -0.0018,0.1137 -0.0059,0.1524 -0.002,0.039 -0.0093,0.068 -0.02148,0.086 -0.01017,0.02 -0.02653,0.033 -0.04687,0.039 -0.01831,0.01 -0.04362,0.01 -0.07617,0.01 l -1.710937,0 c -0.03459,0 -0.06169,0 -0.08203,-0.01 -0.01831,-0.01 -0.0328,-0.019 -0.04297,-0.039 -0.01017,-0.018 -0.01741,-0.047 -0.02148,-0.086 -0.002,-0.039 -0.0039,-0.089 -0.0039,-0.1524 l 0,-0.064 -0.148437,0 z m -28.638672,4.2539 -0.130859,0.076 0.02734,0.045 c 0.02827,0.049 0.04944,0.089 0.06445,0.1191 0.01236,0.03 0.01955,0.054 0.01953,0.074 -1.5e-5,0.02 -0.0082,0.039 -0.02148,0.053 -0.01505,0.015 -0.03632,0.03 -0.06641,0.047 l -1.490235,0.8594 c -0.02832,0.016 -0.05173,0.029 -0.07031,0.033 -0.02035,0.01 -0.03896,0 -0.05664,-0.01 -0.01945,-0.01 -0.03702,-0.026 -0.05469,-0.053 -0.02032,-0.027 -0.04595,-0.066 -0.07422,-0.1153 l -0.02539,-0.045 -0.128906,0.072 0.458984,0.7949 0.126953,-0.074 -0.02734,-0.047 c -0.02738,-0.047 -0.0473,-0.088 -0.06055,-0.1191 -0.01501,-0.03 -0.0222,-0.054 -0.01953,-0.074 1.5e-5,-0.02 0.0084,-0.038 0.02344,-0.053 0.01328,-0.014 0.03418,-0.028 0.0625,-0.045 l 1.488282,-0.8594 c 0.03009,-0.017 0.05582,-0.029 0.07617,-0.035 0.01858,0 0.03701,0 0.05469,0.01 0.0168,0.01 0.03632,0.028 0.05664,0.055 0.01855,0.028 0.04097,0.066 0.06836,0.1133 l 0.02734,0.047 0.130859,-0.074 -0.458984,-0.7949 z m 27.578125,0.7793 -0.529297,0.914 0.130859,0.076 0.0293,-0.055 c 0.03255,-0.056 0.06094,-0.1003 0.08203,-0.1328 0.02183,-0.03 0.04156,-0.05 0.06055,-0.062 0.01898,-0.013 0.03773,-0.017 0.05664,-0.014 0.02067,0 0.04622,0.016 0.07617,0.033 l 1.482422,0.8555 c 0.02819,0.016 0.04774,0.032 0.06055,0.047 0.01457,0.015 0.02285,0.034 0.02148,0.057 3.99e-4,0.024 -0.0088,0.053 -0.02539,0.086 -0.0158,0.036 -0.03971,0.08 -0.07227,0.1368 l -0.03125,0.053 0.126953,0.074 0.529297,-0.914 -0.126953,-0.074 -0.0332,0.057 c -0.03153,0.055 -0.05723,0.097 -0.08008,0.1289 -0.02109,0.032 -0.04277,0.053 -0.0625,0.062 -0.01898,0.013 -0.03792,0.017 -0.05859,0.012 -0.01891,0 -0.04212,-0.015 -0.07031,-0.031 l -1.482422,-0.8555 c -0.02995,-0.017 -0.05379,-0.033 -0.06836,-0.049 -0.01281,-0.014 -0.01699,-0.032 -0.01563,-0.055 3.45e-4,-0.021 0.0076,-0.051 0.02344,-0.086 0.01757,-0.034 0.04268,-0.078 0.07422,-0.1328 l 0.03125,-0.057 -0.128906,-0.074 z m -27.013672,0.1992 -0.130859,0.074 0.02734,0.047 c 0.02827,0.049 0.04944,0.087 0.06445,0.1172 0.01236,0.03 0.01955,0.056 0.01953,0.076 -1.5e-5,0.02 -0.0082,0.037 -0.02148,0.051 -0.01505,0.015 -0.03632,0.032 -0.06641,0.049 l -1.490235,0.8594 c -0.02832,0.016 -0.05174,0.027 -0.07031,0.031 -0.02035,0.01 -0.03896,0 -0.05664,-0.01 -0.01945,-0.01 -0.03702,-0.028 -0.05469,-0.055 -0.02032,-0.027 -0.04595,-0.064 -0.07422,-0.1133 l -0.02539,-0.047 -0.128906,0.074 0.458984,0.7949 0.126953,-0.074 -0.02734,-0.049 c -0.02739,-0.047 -0.0473,-0.086 -0.06055,-0.1172 -0.01501,-0.03 -0.0222,-0.054 -0.01953,-0.074 1.5e-5,-0.02 0.0084,-0.04 0.02344,-0.055 0.01328,-0.014 0.03418,-0.029 0.0625,-0.045 l 1.488281,-0.8594 c 0.03009,-0.017 0.05582,-0.029 0.07617,-0.035 0.01858,0 0.037,-5e-4 0.05469,0.01 0.0168,0.01 0.03632,0.026 0.05664,0.053 0.01855,0.028 0.04098,0.066 0.06836,0.1133 l 0.02734,0.049 0.130859,-0.076 -0.458984,-0.7929 z m 0.564453,0.9766 -0.130859,0.076 0.02734,0.045 c 0.02827,0.049 0.04944,0.089 0.06445,0.1192 0.01236,0.03 0.01955,0.054 0.01953,0.074 -1.5e-5,0.02 -0.0082,0.039 -0.02148,0.053 -0.01505,0.015 -0.03632,0.03 -0.06641,0.047 l -1.490234,0.8613 c -0.02832,0.016 -0.05174,0.027 -0.07031,0.031 -0.02035,0.01 -0.03896,0 -0.05664,-0.01 -0.01945,-0.01 -0.03702,-0.026 -0.05469,-0.053 -0.02032,-0.027 -0.04595,-0.066 -0.07422,-0.1153 l -0.02539,-0.045 -0.128906,0.074 0.458984,0.793 0.126953,-0.072 -0.02734,-0.049 c -0.02739,-0.047 -0.0473,-0.086 -0.06055,-0.1172 -0.01501,-0.03 -0.0222,-0.056 -0.01953,-0.076 1.5e-5,-0.02 0.0084,-0.038 0.02344,-0.053 0.01328,-0.014 0.03418,-0.029 0.0625,-0.045 l 1.488281,-0.8594 c 0.03009,-0.017 0.05582,-0.03 0.07617,-0.035 0.01858,0 0.03701,0 0.05469,0.01 0.0168,0.01 0.03632,0.028 0.05664,0.055 0.01855,0.028 0.04097,0.066 0.06836,0.1133 l 0.02734,0.047 0.13086,-0.074 -0.458985,-0.795 z m 25.269531,0.7695 -0.0625,0.1074 1.275391,1.582 c 0.04241,0.053 0.07556,0.099 0.09961,0.1387 0.02405,0.04 0.03876,0.077 0.04492,0.1113 0.0079,0.035 0.0073,0.067 -0.002,0.1 -0.0075,0.033 -0.02348,0.071 -0.04687,0.1114 l -0.01367,0.027 0.126953,0.072 0.431641,-0.7481 -0.126953,-0.072 -0.0293,0.049 c -0.04171,0.072 -0.08791,0.121 -0.136719,0.1445 -0.04705,0.025 -0.09286,0.023 -0.138672,0 -0.01938,-0.011 -0.04033,-0.027 -0.06445,-0.051 -0.02412,-0.023 -0.04702,-0.046 -0.06836,-0.07 l -0.898438,-1.0898 1.582032,0.2402 c 0.01993,0 0.03968,0 0.05859,0.01 0.01789,0.01 0.03025,0.013 0.03906,0.018 0.02467,0.014 0.03594,0.038 0.03125,0.07 -0.0057,0.034 -0.0269,0.081 -0.0625,0.1426 l -0.06445,0.1113 0.126953,0.074 0.498047,-0.8652 -0.126953,-0.072 -0.03125,0.055 c -0.03459,0.06 -0.06981,0.098 -0.105469,0.1153 -0.03566,0.017 -0.09338,0.021 -0.173828,0.01 l -2.16211,-0.3145 z m -24.24414,0.9101 -1.966797,0.4004 c -0.06546,0.013 -0.120904,0.022 -0.166016,0.025 -0.04511,0 -0.08233,9e-4 -0.113281,-0.01 -0.03272,-0.01 -0.06082,-0.021 -0.08203,-0.041 -0.02298,-0.019 -0.04414,-0.047 -0.06445,-0.082 l -0.01367,-0.024 -0.126953,0.074 0.375,0.6484 0.126953,-0.074 -0.02344,-0.043 c -0.03622,-0.063 -0.05203,-0.119 -0.04492,-0.168 0.0053,-0.048 0.03211,-0.085 0.07813,-0.1113 0.01947,-0.011 0.04432,-0.021 0.07617,-0.031 0.03185,-0.01 0.06279,-0.02 0.09375,-0.027 l 1.365235,-0.293 -1.042969,1.1875 c -0.01239,0.015 -0.02579,0.029 -0.03906,0.043 -0.01416,0.012 -0.02435,0.022 -0.0332,0.027 -0.02478,0.014 -0.05035,0.013 -0.07422,0 -0.02475,-0.018 -0.05111,-0.056 -0.08203,-0.1094 l -0.05664,-0.096 -0.126953,0.074 0.433593,0.75 0.126954,-0.074 -0.02734,-0.047 c -0.03003,-0.052 -0.04244,-0.097 -0.03711,-0.1328 0.0053,-0.036 0.03371,-0.084 0.08594,-0.1445 l 1.414062,-1.627 -0.05469,-0.094 z m 2.666015,2.9473 -0.07422,0.1309 0.04687,0.027 c 0.05051,0.029 0.09017,0.053 0.11914,0.072 0.02637,0.02 0.04596,0.039 0.05664,0.057 0.01068,0.018 0.01422,0.036 0.0098,0.055 -0.0055,0.02 -0.0178,0.046 -0.03516,0.076 l -0.859375,1.4883 c -0.01633,0.028 -0.031,0.049 -0.04492,0.062 -0.01494,0.015 -0.0338,0.022 -0.05469,0.021 -0.02191,0 -0.04674,0 -0.07617,-0.019 -0.03203,-0.014 -0.07254,-0.035 -0.123047,-0.064 l -0.04883,-0.027 -0.07227,0.127 0.81836,0.4726 0.07422,-0.1269 -0.05078,-0.029 c -0.04893,-0.028 -0.08729,-0.053 -0.115234,-0.074 -0.02897,-0.019 -0.04661,-0.038 -0.05469,-0.057 -0.01068,-0.018 -0.01328,-0.036 -0.0078,-0.057 0.0045,-0.019 0.01492,-0.042 0.03125,-0.07 l 0.859375,-1.4883 c 0.01735,-0.03 0.03193,-0.052 0.04687,-0.066 0.01392,-0.013 0.03185,-0.02 0.05273,-0.02 0.01931,-6e-4 0.04609,0.01 0.07813,0.02 0.03101,0.015 0.07021,0.036 0.119141,0.064 l 0.04883,0.029 0.07617,-0.1289 -0.820313,-0.4746 z m 1.009766,0.582 -0.07617,0.1309 0.04883,0.027 c 0.05051,0.029 0.09017,0.053 0.119141,0.072 0.02637,0.02 0.04401,0.039 0.05469,0.057 0.01068,0.018 0.01422,0.036 0.0098,0.055 -0.0055,0.02 -0.0178,0.046 -0.03516,0.076 l -0.857422,1.4883 c -0.01633,0.028 -0.03295,0.049 -0.04687,0.062 -0.01494,0.015 -0.03185,0.022 -0.05273,0.022 -0.02191,0 -0.04869,0 -0.07813,-0.02 -0.03203,-0.014 -0.07254,-0.035 -0.123046,-0.064 l -0.04687,-0.027 -0.07422,0.127 0.820312,0.4727 0.07227,-0.127 -0.04883,-0.029 c -0.04893,-0.028 -0.08729,-0.051 -0.115234,-0.072 -0.02897,-0.019 -0.04856,-0.038 -0.05664,-0.057 -0.01068,-0.018 -0.01328,-0.038 -0.0078,-0.059 0.0045,-0.019 0.01492,-0.042 0.03125,-0.07 l 0.859375,-1.4883 c 0.01735,-0.03 0.03389,-0.051 0.04883,-0.066 0.01392,-0.013 0.03184,-0.02 0.05273,-0.02 0.01931,-7e-4 0.04414,0.01 0.07617,0.02 0.03101,0.016 0.07021,0.036 0.11914,0.064 l 0.05078,0.029 0.07422,-0.129 -0.818359,-0.4746 z m 15.533203,0.4278 -0.107422,0.062 0.3125,2.0078 c 0.01039,0.067 0.01661,0.1235 0.01758,0.1699 9.64e-4,0.046 -0.0039,0.085 -0.01563,0.1172 -0.0107,0.034 -0.02861,0.065 -0.05273,0.088 -0.02311,0.025 -0.05518,0.049 -0.0957,0.072 l -0.02734,0.016 0.07422,0.1269 0.748047,-0.4336 -0.07422,-0.1269 -0.04883,0.029 c -0.07224,0.042 -0.135432,0.061 -0.189453,0.057 -0.053,0 -0.09269,-0.026 -0.119141,-0.072 -0.01119,-0.019 -0.02202,-0.044 -0.03125,-0.076 -0.0092,-0.032 -0.01699,-0.064 -0.02344,-0.096 l -0.232422,-1.3926 1.25,0.9981 c 0.0162,0.012 0.03048,0.024 0.04492,0.037 0.01268,0.014 0.02226,0.026 0.02734,0.035 0.01424,0.025 0.01056,0.048 -0.0098,0.074 -0.02209,0.027 -0.06333,0.058 -0.125,0.094 l -0.111328,0.064 0.07227,0.127 0.865235,-0.498 -0.07422,-0.127 -0.05469,0.031 c -0.05991,0.034 -0.109056,0.05 -0.148437,0.047 -0.03938,0 -0.09218,-0.028 -0.15625,-0.078 l -1.714844,-1.3535 z m -13.751953,0.5449 -1.519531,1.3184 c -0.05059,0.044 -0.09503,0.08 -0.132813,0.1054 -0.03778,0.025 -0.07177,0.041 -0.103515,0.049 -0.03277,0.01 -0.06441,0.01 -0.09375,0 -0.03036,-0.01 -0.06331,-0.018 -0.09961,-0.039 l -0.02344,-0.014 -0.07422,0.127 0.669922,0.3867 0.07422,-0.127 -0.04492,-0.027 c -0.06472,-0.037 -0.107539,-0.078 -0.126953,-0.125 -0.02044,-0.045 -0.01678,-0.091 0.0098,-0.1367 0.01123,-0.019 0.02813,-0.042 0.05078,-0.066 0.02265,-0.025 0.04516,-0.046 0.06836,-0.068 l 1.046875,-0.9277 -0.294922,1.5547 c -0.0029,0.019 -0.0073,0.04 -0.01172,0.059 -0.006,0.018 -0.01052,0.03 -0.01563,0.039 -0.01429,0.025 -0.0366,0.036 -0.06641,0.033 -0.03138,0 -0.07561,-0.023 -0.130859,-0.055 l -0.09961,-0.057 -0.07226,0.1269 0.773437,0.4473 0.07422,-0.1269 -0.05078,-0.029 c -0.05367,-0.031 -0.08754,-0.064 -0.101563,-0.098 -0.01403,-0.034 -0.01409,-0.091 0,-0.1699 l 0.392578,-2.125 -0.09766,-0.057 z m 6.908204,1.4414 -0.732422,1.8945 c -0.02441,0.063 -0.04598,0.1156 -0.06836,0.1563 -0.02238,0.041 -0.04777,0.071 -0.07422,0.094 -0.02645,0.024 -0.05534,0.041 -0.08789,0.049 -0.03255,0.01 -0.07235,0.016 -0.119141,0.016 l -0.03125,0 0,0.1465 0.863281,0 0,-0.1465 -0.05664,0 c -0.08341,0 -0.148601,-0.016 -0.19336,-0.047 -0.04476,-0.029 -0.06641,-0.068 -0.06641,-0.1211 0,-0.022 0.0036,-0.05 0.01172,-0.082 0.0081,-0.033 0.01717,-0.065 0.02734,-0.096 l 0.494141,-1.3203 0.583984,1.4883 c 0.0081,0.018 0.01538,0.036 0.02148,0.055 0.0041,0.018 0.0059,0.033 0.0059,0.043 0,0.029 -0.01636,0.048 -0.04687,0.061 -0.03255,0.012 -0.08309,0.02 -0.154297,0.02 l -0.128906,0 0,0.1465 0.998047,0 0,-0.1465 -0.06445,0 c -0.06917,0 -0.119792,-0.011 -0.152344,-0.033 -0.03255,-0.022 -0.06323,-0.071 -0.09375,-0.1465 l -0.80863,-2.0293 -0.126953,0 z m -2.263672,0.049 0,0.1485 0.06055,0 c 0.0651,0 0.117595,0 0.15625,0 0.03662,0 0.06559,0.011 0.08594,0.021 0.02035,0.01 0.03296,0.025 0.03906,0.043 0.0061,0.02 0.0098,0.048 0.0098,0.082 l 0,1.711 c 0,0.032 -0.0037,0.058 -0.0098,0.076 -0.0061,0.02 -0.01872,0.037 -0.03906,0.047 -0.02034,0.012 -0.04932,0.02 -0.08594,0.022 -0.03865,0 -0.09115,0.01 -0.15625,0.01 l -0.06055,0 0,0.1465 1.056641,0 0,-0.1465 -0.06445,0 c -0.06307,0 -0.113688,0 -0.152344,-0.01 -0.03866,0 -0.06763,-0.01 -0.08594,-0.022 -0.02035,-0.01 -0.03296,-0.026 -0.03906,-0.047 -0.0061,-0.018 -0.0098,-0.044 -0.0098,-0.076 l 0,-1.711 c 0,-0.034 0.0037,-0.062 0.0098,-0.082 0.0061,-0.018 0.01872,-0.033 0.03906,-0.043 0.01831,-0.01 0.04728,-0.017 0.08594,-0.021 0.03866,0 0.08927,0 0.152344,0 l 0.06445,0 0,-0.1485 -1.056641,0 z"
       id="text4928"
       inkscape:connector-curvature="0" />
    <g
       id="Glass"
       transform="translate(2.000038,-3.4887812e-4)"
       inkscape:label="#g7371">
      <g
         id="g7334">
        <g
           id="g7298">
          <g
             id="g7263">
            <g
               id="g7229">
              <g
                 id="g7196">
                <g
                   id="g7164">
                  <g
                     id="g7133">
                    <g
                       id="g7103">
                      <g
                         id="g7074">
                        <g
                           id="g7046">
                          <g
                             id="g7019">
                            <g
                               id="g6993">
                              <g
                                 id="g6968">
                                <g
                                   id="g6944">
                                <g
                                   id="g6921">
                                <g
                                   id="g6899">
                                <g
                                   id="g6878">
                                <g
                                   id="g6858">
                                <g
                                   id="g6839">
                                <g
                                   id="g6821">
                                <g
                                   id="g6804">
                                <g
                                   id="g6788">
                                <g
                                   id="g6773">
                                <g
                                   id="g6759">
                                <g
                                   id="g6746">
                                <g
                                   id="g6734">
                                <g
                                   id="g6723">
                                <g
                                   id="g6713">
                                <g
                                   id="g6704">
                                <g
                                   id="g6696">
                                <g
                                   id="g6689">
                                <g
                                   id="g6683">
                                <g
                                   id="g6678">
                                <circle
                                   style="opacity:1;fill:none;fill-opacity:0.32631579;stroke:none;stroke-width:0.15800001;stroke-miterlimit:4;stroke-dasharray:none;stroke-opacity:0.62745098"
                                   id="path6644"
                                   cx="75.040001"
                                   cy="1028.0422"
                                   r="21.76" />
                                <circle
                                   style="opacity:1;fill:url(#radialGradient6654);fill-opacity:1;stroke:#000000;stroke-width:0.15800001;stroke-miterlimit:4;stroke-dasharray:none;stroke-opacity:0.62745098"
                                   id="path6646"
                                   cx="75.040001"
                                   cy="1028.0422"
                                   r="18.282721" />
                                <path
                                   style="opacity:1;fill:url(#linearGradient6676);fill-opacity:1;stroke:none;stroke-width:0.15800001;stroke-miterlimit:4;stroke-dasharray:none;stroke-opacity:0.62745098"
                                   d="m 75.039062,1010.3349 a 17.706882,17.706882 0 0 0 -12.464843,5.1425 14.719999,12.16 0 0 0 -2.253906,6.4414 14.719999,12.16 0 0 0 14.718749,12.1602 14.719999,12.16 0 0 0 14.720704,-12.1602 14.719999,12.16 0 0 0 -2.210938,-6.3925 17.706882,17.706882 0 0 0 -12.509766,-5.1914 z"
                                   id="path6662"
                                   inkscape:connector-curvature="0" />
                                </g>
                                </g>
                                </g>
                                </g>
                                </g>
                                </g>
                                </g>
                                </g>
                                </g>
                                </g>
                                </g>
                                </g>
                                </g>
                                </g>
                                </g>
                                </g>
                                </g>
                                </g>
                                </g>
                                </g>
                              </g>
                            </g>
                          </g>
                        </g>
                      </g>
                    </g>
                  </g>
                </g>
              </g>
            </g>
          </g>
        </g>
      </g>
    </g>
    <g
       id="SecondHand"
       inkscape:label="#g4344"
       transform="matrix(1,0,0,1.0709672,0,-72.774079)">
      <g
         id="g4334">
        <g
           id="g4325">
          <g
             id="g4317">
            <g
               id="g4310">
              <g
                 id="g4304">
                <g
                   id="g4299">
                  <g
                     id="g4295">
                    <rect
                       style="opacity:1;fill:none;fill-opacity:1;stroke:none;stroke-width:0.15000001;stroke-miterlimit:4;stroke-dasharray:none;stroke-opacity:1"
                       id="rect4289"
                       width="5.1199999"
                       height="20.480022"
                       x="-30.719999"
                       y="1025.4822"
                       ry="0.63999999" />
                    <path
                       style="fill:none;fill-rule:evenodd;stroke:#00ff00;stroke-width:0.24640646;stroke-linecap:butt;stroke-linejoin:miter;stroke-miterlimit:4;stroke-dasharray:none;stroke-opacity:1"
                       d="m -28.166059,1025.4822 0.07274,18.1893"
                       id="path4287"
                       inkscape:connector-curvature="0"
                       sodipodi:nodetypes="cc" />
                  </g>
                </g>
              </g>
            </g>
          </g>
        </g>
      </g>
    </g>
    <circle
       style="opacity:1;fill:#ffffff;fill-opacity:1;stroke:#00ff07;stroke-width:0.15000001;stroke-miterlimit:4;stroke-dasharray:none;stroke-opacity:1"
       id="HandCenterScrew"
       cx="-25.6"
       cy="1021.6422"
       r="0.98832256"
       inkscape:label="#path4557" />
    <g
       id="MinuteHand"
       inkscape:label="#g7612"
       transform="matrix(1,0,0,1.0709672,0,-72.774079)">
      <g
         id="g7593">
        <g
           id="g7575">
          <g
             id="g7558">
            <g
               id="g7542">
              <g
                 id="g7527">
                <g
                   id="g7513">
                  <g
                     id="g7500">
                    <g
                       id="g7488">
                      <g
                         id="g7477">
                        <g
                           id="g7467">
                          <g
                             id="g7458">
                            <g
                               id="g7450">
                              <g
                                 id="g7443">
                                <g
                                   id="g7437">
                                <g
                                   id="g7432">
                                <g
                                   id="g7428">
                                <rect
                                   ry="0.070753701"
                                   y="1025.4822"
                                   x="-18.24"
                                   height="15.36"
                                   width="4.48"
                                   id="rect7426"
                                   style="opacity:1;fill:none;fill-opacity:1;stroke:none;stroke-width:0.80000001;stroke-miterlimit:4;stroke-dasharray:none;stroke-opacity:0.51052629" />
                                <path
                                   inkscape:connector-curvature="0"
                                   id="path7420"
                                   d="m -16,1025.4822 0,15.36"
                                   style="fill:none;fill-rule:evenodd;stroke:#ffffff;stroke-width:0.60000002;stroke-linecap:butt;stroke-linejoin:miter;stroke-miterlimit:4;stroke-dasharray:none;stroke-opacity:1" />
                                </g>
                                </g>
                                </g>
                              </g>
                            </g>
                          </g>
                        </g>
                      </g>
                    </g>
                  </g>
                </g>
              </g>
            </g>
          </g>
        </g>
      </g>
    </g>
    <g
       id="HourHand"
       inkscape:label="#g8032"
       transform="matrix(1,0,0,1.0709672,0,-72.774079)">
      <g
         id="g8004">
        <g
           id="g7977">
          <g
             id="g7951">
            <g
               id="g7926">
              <g
                 id="g7902">
                <g
                   id="g7879">
                  <g
                     id="g7857">
                    <g
                       id="g7836">
                      <g
                         id="g7816">
                        <g
                           id="g7797">
                          <g
                             id="g7779">
                            <g
                               id="g7762">
                              <g
                                 id="g7746">
                                <g
                                   id="g7731">
                                <g
                                   id="g7717">
                                <g
                                   id="g7704">
                                <g
                                   id="g7692">
                                <g
                                   id="g7681">
                                <g
                                   id="g7671">
                                <g
                                   id="g7662">
                                <g
                                   id="g7654">
                                <g
                                   id="g7647">
                                <g
                                   id="g7641">
                                <g
                                   id="g7636">
                                <g
                                   id="g7632">
                                <rect
                                   style="opacity:1;fill:none;fill-opacity:1;stroke:none;stroke-width:0.75659019;stroke-miterlimit:4;stroke-dasharray:none;stroke-opacity:0.51052629"
                                   id="rect7424"
                                   width="3.8834097"
                                   height="13.584719"
                                   x="-10.261704"
                                   y="1025.4604"
                                   ry="0.070753746" />
                                <path
                                   style="fill:none;fill-rule:evenodd;stroke:#ffffff;stroke-width:0.80000001;stroke-linecap:butt;stroke-linejoin:miter;stroke-miterlimit:4;stroke-dasharray:none;stroke-opacity:1"
                                   d="m -8.3199996,1025.5328 0,13.44"
                                   id="path7422"
                                   inkscape:connector-curvature="0" />
                                </g>
                                </g>
                                </g>
                                </g>
                                </g>
                                </g>
                                </g>
                                </g>
                                </g>
                                </g>
                                </g>
                                </g>
                              </g>
                            </g>
                          </g>
                        </g>
                      </g>
                    </g>
                  </g>
                </g>
              </g>
            </g>
          </g>
        </g>
      </g>
    </g>
    <g
       id="ClockFace"
       inkscape:label="#g5099">
      <g
         id="g5044">
        <g
           id="g4990">
          <g
             id="g4937">
            <g
               id="g4885">
              <g
                 id="g4834">
                <g
                   id="g4784">
                  <g
                     id="g4735">
                    <g
                       id="g4687">
                      <g
                         id="g4640">
                        <g
                           id="g7140">
                          <g
                             id="g7097">
                            <g
                               id="g7055">
                              <g
                                 id="g7014">
                                <g
                                   id="g6974">
                                <g
                                   id="g6935">
                                <g
                                   id="g6897">
                                <g
                                   id="g6860">
                                <g
                                   id="g6824">
                                <g
                                   id="g6789">
                                <g
                                   id="g6755">
                                <g
                                   id="g6722">
                                <g
                                   id="g6690">
                                <g
                                   id="g6658">
                                <g
                                   id="g6628">
                                <g
                                   id="g6599">
                                <g
                                   id="g6571">
                                <g
                                   id="g6544">
                                <g
                                   id="g6518">
                                <g
                                   id="g6493">
                                <g
                                   id="g6469">
                                <g
                                   id="g6446">
                                <g
                                   id="g4375">
                                <g
                                   id="g4356">
                                <g
                                   id="g4338">
                                <g
                                   id="g4321">
                                <g
                                   id="g4305">
                                <g
                                   id="g4290">
                                <g
                                   id="g4276">
                                <g
                                   id="g4263">
                                <g
                                   id="g4251">
                                <g
                                   id="g4240">
                                <g
                                   id="g4230">
                                <path
                                   id="path4138"
                                   transform="translate(0,1004.3622)"
                                   d="M 23.039062,1.9199219 A 21.76,21.76 0 0 0 1.2792969,23.679688 21.76,21.76 0 0 0 23.039062,45.439453 21.76,21.76 0 0 0 44.800781,23.679688 21.76,21.76 0 0 0 23.039062,1.9199219 Z m 0,2.5605469 A 19.199999,19.199999 0 0 1 42.240234,23.679688 19.199999,19.199999 0 0 1 23.039062,42.880859 19.199999,19.199999 0 0 1 3.8398438,23.679688 19.199999,19.199999 0 0 1 23.039062,4.4804688 Z"
                                   style="opacity:1;fill:url(#linearGradient4149);fill-opacity:1;stroke:none;stroke-width:0.35800001;stroke-miterlimit:4;stroke-dasharray:none;stroke-opacity:1"
                                   inkscape:connector-curvature="0" />
                                <path
                                   id="path4151"
                                   transform="translate(0,1004.3622)"
                                   d="M 23.039062,2.4101562 A 21.269529,21.269529 0 0 0 1.7695312,23.679688 21.269529,21.269529 0 0 0 23.039062,44.949219 21.269529,21.269529 0 0 0 44.308594,23.679688 21.269529,21.269529 0 0 0 23.039062,2.4101562 Z m 0,0.7773438 A 20.491726,20.491726 0 0 1 43.53125,23.679688 20.491726,20.491726 0 0 1 23.039062,44.171875 20.491726,20.491726 0 0 1 2.5488281,23.679688 20.491726,20.491726 0 0 1 23.039062,3.1875 Z"
                                   style="opacity:0.5;fill:url(#linearGradient4162);fill-opacity:1;stroke:none;stroke-width:0.35800001;stroke-miterlimit:4;stroke-dasharray:none;stroke-opacity:1"
                                   inkscape:connector-curvature="0" />
                                <path
                                   inkscape:connector-curvature="0"
                                   style="opacity:0.5;fill:url(#linearGradient4166);fill-opacity:1;stroke:none;stroke-width:0.35800001;stroke-miterlimit:4;stroke-dasharray:none;stroke-opacity:1"
                                   d="m 23.039062,1007.3645 a 20.677382,20.677382 0 0 0 -20.6773836,20.6774 20.677382,20.677382 0 0 0 20.6773836,20.6774 20.677382,20.677382 0 0 0 20.677385,-20.6774 20.677382,20.677382 0 0 0 -20.677385,-20.6774 z m 0,0.7557 a 19.921233,19.921233 0 0 1 19.921682,19.9217 19.921233,19.921233 0 0 1 -19.921682,19.9217 19.921233,19.921233 0 0 1 -19.9197824,-19.9217 19.921233,19.921233 0 0 1 19.9197824,-19.9217 z"
                                   id="path4164" />
                                <path
                                   id="path4174"
                                   transform="translate(0,1004.3622)"
                                   d="M 23.039062,4.4804688 A 19.199999,19.199999 0 0 0 3.8398438,23.679688 19.199999,19.199999 0 0 0 23.039062,42.880859 19.199999,19.199999 0 0 0 42.240234,23.679688 19.199999,19.199999 0 0 0 23.039062,4.4804688 Z m 0,0.5878906 A 18.610838,18.610838 0 0 1 41.650391,23.679688 18.610838,18.610838 0 0 1 23.039062,42.291016 18.610838,18.610838 0 0 1 4.4296875,23.679688 18.610838,18.610838 0 0 1 23.039062,5.0683594 Z"
                                   style="opacity:1;fill:url(#linearGradient4185);fill-opacity:1;stroke:none;stroke-width:0.35800001;stroke-miterlimit:4;stroke-dasharray:none;stroke-opacity:1"
                                   inkscape:connector-curvature="0" />
                                <path
                                   id="path4196"
                                   d="m 20.353516,1006.9638 a 21.269529,21.269529 0 0 0 -11.8242191,5.5625 l 0.6132812,0.4824 a 20.491726,20.491726 0 0 1 11.6093749,-5.3067 l -0.398437,-0.7382 z"
                                   style="opacity:0.5;fill:url(#linearGradient4214);fill-opacity:1;stroke:none;stroke-width:0.35800001;stroke-miterlimit:4;stroke-dasharray:none;stroke-opacity:1"
                                   inkscape:connector-curvature="0" />
                                <path
                                   id="path4189"
                                   d="m 7.9433594,1013.0731 a 21.269529,21.269529 0 0 0 -5.5078125,9.7657 l 0.6933593,0.4629 A 20.491726,20.491726 0 0 1 8.5625,1013.5595 l -0.6191406,-0.4864 z"
                                   style="opacity:0.5;fill:url(#linearGradient4204);fill-opacity:1;stroke:none;stroke-width:0.35800001;stroke-miterlimit:4;stroke-dasharray:none;stroke-opacity:1"
                                   inkscape:connector-curvature="0" />
                                <circle
                                   r="18.512148"
                                   cy="1028.0422"
                                   cx="23.039999"
                                   id="path4218"
                                   style="opacity:1;fill:#0053ff;fill-opacity:1;stroke:#333333;stroke-width:0.35800001;stroke-miterlimit:4;stroke-dasharray:none;stroke-opacity:1" />
                                <circle
                                   style="opacity:1;fill:#000000;fill-opacity:1;stroke:none;stroke-width:0.35800001;stroke-miterlimit:4;stroke-dasharray:none;stroke-opacity:1"
                                   id="circle4220"
                                   cx="23.039999"
                                   cy="1028.0422"
                                   r="18.512148" />
                                </g>
                                </g>
                                </g>
                                </g>
                                </g>
                                </g>
                                </g>
                                </g>
                                </g>
                                </g>
                                </g>
                                <circle
                                   style="opacity:1;fill:none;fill-opacity:1;stroke:#916f6f;stroke-width:0.73500001;stroke-miterlimit:4;stroke-dasharray:none;stroke-opacity:0.51052629"
                                   id="path6418"
                                   cx="23.039999"
                                   cy="1028.0422"
                                   r="16.639999" />
                                <path
                                   inkscape:connector-curvature="0"
                                   style="opacity:1;fill:#c8beb7;fill-opacity:1;stroke:#d45500;stroke-width:0.73500001;stroke-miterlimit:4;stroke-dasharray:none;stroke-opacity:1"
                                   d="m 23.039062,7.0390625 c -0.04432,0 -0.07812,0.035758 -0.07812,0.080078 l 0,1.4414063 c 0,0.04432 0.03381,0.080078 0.07812,0.080078 0.04432,0 0.08008,-0.035758 0.08008,-0.080078 l 0,-1.4414063 c 0,-0.04432 -0.03576,-0.080078 -0.08008,-0.080078 z m -8.316406,2.2304687 c -0.03838,0.02216 -0.05146,0.070993 -0.0293,0.109375 L 15.412109,10.625 c 0.02216,0.03838 0.07099,0.05146 0.109375,0.0293 0.03838,-0.02216 0.05146,-0.07099 0.0293,-0.109375 L 14.830078,9.2988281 c -0.02216,-0.038382 -0.06904,-0.051457 -0.107422,-0.029297 z m 16.634766,0 c -0.03838,-0.02216 -0.08722,-0.00909 -0.109375,0.029297 l -0.71875,1.2460938 c -0.02216,0.03838 -0.0091,0.08722 0.0293,0.109375 0.03838,0.02216 0.08722,0.0091 0.109375,-0.0293 l 0.71875,-1.2460937 c 0.02216,-0.038382 0.0091,-0.087215 -0.0293,-0.109375 z m 5.980469,6.0585938 -1.246094,0.720703 c -0.03838,0.02216 -0.05146,0.07099 -0.0293,0.109375 0.02216,0.03838 0.07099,0.05146 0.109375,0.0293 L 37.417966,15.4668 c 0.03838,-0.02216 0.05146,-0.07099 0.0293,-0.109375 -0.02216,-0.03838 -0.07099,-0.05146 -0.109375,-0.0293 z m -28.5957035,0.002 c -0.038382,-0.02216 -0.087215,-0.01104 -0.109375,0.02734 -0.02216,0.03838 -0.00909,0.08722 0.029297,0.109375 l 1.2460936,0.72066 c 0.038382,0.02216 0.087215,0.0091 0.1093749,-0.0293 0.02216,-0.03838 0.0091,-0.08722 -0.029297,-0.109375 L 8.7421875,15.330078 Z M 6.484375,23.595703 c -0.04432,0 -0.080078,0.03576 -0.080078,0.08008 0,0.04432 0.035758,0.08008 0.080078,0.08008 l 1.4394531,0 c 0.04432,0 0.080078,-0.03576 0.080078,-0.08008 0,-0.04432 -0.035758,-0.08008 -0.080078,-0.08008 l -1.4394531,0 z m 31.671875,0 c -0.04432,0 -0.08008,0.03576 -0.08008,0.08008 0,0.04432 0.03576,0.08008 0.08008,0.08008 l 1.439453,0 c 0.04432,0 0.08008,-0.03576 0.08008,-0.08008 0,-0.04432 -0.03576,-0.08008 -0.08008,-0.08008 l -1.439453,0 z m -28.2480469,7.570313 -1.2460937,0.71875 c -0.038382,0.02216 -0.051457,0.07099 -0.029297,0.109375 0.02216,0.03838 0.070993,0.05146 0.109375,0.0293 l 1.2460937,-0.71875 c 0.038382,-0.02216 0.051457,-0.07099 0.029297,-0.109376 -0.02216,-0.03838 -0.070993,-0.05146 -0.109374,-0.0293 z m 26.2636719,0 c -0.03838,-0.02216 -0.08722,-0.0091 -0.109375,0.0293 -0.02216,0.03838 -0.0091,0.08722 0.0293,0.109376 l 1.246094,0.71875 c 0.03838,0.02216 0.08722,0.0091 0.109375,-0.0293 0.02216,-0.03838 0.0091,-0.08722 -0.0293,-0.109375 l -1.246094,-0.71875 z m -20.650391,5.533203 c -0.03838,-0.02216 -0.08721,-0.0091 -0.109375,0.0293 l -0.71875,1.246093 c -0.02216,0.03838 -0.0091,0.08722 0.0293,0.109375 0.03838,0.02216 0.08721,0.0091 0.109375,-0.0293 l 0.71875,-1.246094 c 0.02216,-0.03838 0.0091,-0.08722 -0.0293,-0.109375 z m 15.03711,0 c -0.03838,0.02216 -0.05146,0.07099 -0.0293,0.109375 l 0.71875,1.246094 c 0.02216,0.03838 0.07099,0.05146 0.109375,0.0293 0.03838,-0.02216 0.05146,-0.07099 0.0293,-0.109375 l -0.71875,-1.246093 c -0.02216,-0.03838 -0.07099,-0.05146 -0.109375,-0.0293 z m -7.517578,2.013672 c -0.04432,0 -0.08008,0.03576 -0.08008,0.08008 l 0,1.439453 c 0,0.04432 0.03576,0.08008 0.08008,0.08008 0.04432,0 0.07813,-0.03576 0.07813,-0.08008 l 0,-1.439453 c 0,-0.04432 -0.03381,-0.08008 -0.07813,-0.08008 z"
                                   transform="translate(0,1004.3622)"
                                   id="rect6420" />
                                </g>
                                </g>
                                </g>
                                </g>
                                </g>
                                </g>
                                </g>
                                </g>
                                </g>
                                </g>
                                </g>
                                </g>
                                </g>
                                </g>
                                </g>
                                </g>
                                </g>
                                </g>
                              </g>
                            </g>
                          </g>
                        </g>
                        <path
                           style="opacity:1;fill:#ffffff;fill-opacity:1;stroke:none;stroke-width:0.255;stroke-miterlimit:4;stroke-dasharray:none;stroke-opacity:0.51052629"
                           d="M 21.34375 6.765625 L 21.183594 6.7832031 L 21.291016 7.7988281 L 21.449219 7.78125 L 21.34375 6.765625 z M 24.736328 6.765625 L 24.630859 7.78125 L 24.789062 7.7988281 L 24.896484 6.7832031 L 24.736328 6.765625 z M 19.583984 7.0371094 L 19.427734 7.0703125 L 19.640625 8.0683594 L 19.796875 8.0351562 L 19.583984 7.0371094 z M 26.496094 7.0371094 L 26.283203 8.0351562 L 26.439453 8.0683594 L 26.652344 7.0703125 L 26.496094 7.0371094 z M 17.863281 7.4882812 L 17.710938 7.5371094 L 18.027344 8.5078125 L 18.179688 8.4589844 L 17.863281 7.4882812 z M 28.216797 7.4882812 L 27.900391 8.4589844 L 28.052734 8.5097656 L 28.369141 7.5390625 L 28.216797 7.4882812 z M 16.199219 8.1191406 L 16.052734 8.1835938 L 16.46875 9.1152344 L 16.615234 9.0507812 L 16.199219 8.1191406 z M 29.880859 8.1191406 L 29.464844 9.0507812 L 29.611328 9.1152344 L 30.027344 8.1835938 L 29.880859 8.1191406 z M 13.113281 9.8808594 L 12.984375 9.9746094 L 13.583984 10.800781 L 13.712891 10.707031 L 13.113281 9.8808594 z M 32.966797 9.8808594 L 32.367188 10.707031 L 32.496094 10.800781 L 33.095703 9.9746094 L 32.966797 9.8808594 z M 11.726562 10.994141 L 11.607422 11.101562 L 12.289062 11.859375 L 12.408203 11.751953 L 11.726562 10.994141 z M 34.353516 10.994141 L 33.671875 11.751953 L 33.791016 11.859375 L 34.472656 11.101562 L 34.353516 10.994141 z M 10.460938 12.246094 L 10.355469 12.365234 L 11.113281 13.048828 L 11.220703 12.929688 L 10.460938 12.246094 z M 35.619141 12.246094 L 34.859375 12.929688 L 34.966797 13.048828 L 35.724609 12.365234 L 35.619141 12.246094 z M 9.3359375 13.623047 L 9.2421875 13.753906 L 10.066406 14.353516 L 10.162109 14.222656 L 9.3359375 13.623047 z M 36.744141 13.623047 L 35.917969 14.222656 L 36.013672 14.353516 L 36.837891 13.753906 L 36.744141 13.623047 z M 7.5449219 16.693359 L 7.4785156 16.837891 L 8.4121094 17.253906 L 8.4765625 17.107422 L 7.5449219 16.693359 z M 38.535156 16.693359 L 37.603516 17.107422 L 37.667969 17.253906 L 38.601562 16.837891 L 38.535156 16.693359 z M 39.181641 18.349609 L 38.210938 18.666016 L 38.259766 18.818359 L 39.230469 18.501953 L 39.181641 18.349609 z M 6.8984375 18.351562 L 6.8496094 18.501953 L 7.8203125 18.818359 L 7.8691406 18.666016 L 6.8984375 18.351562 z M 6.4296875 20.066406 L 6.3964844 20.222656 L 7.3945312 20.435547 L 7.4277344 20.279297 L 6.4296875 20.066406 z M 39.650391 20.066406 L 38.652344 20.279297 L 38.685547 20.435547 L 39.683594 20.222656 L 39.650391 20.066406 z M 6.1445312 21.822266 L 6.1269531 21.982422 L 7.1425781 22.087891 L 7.1582031 21.929688 L 6.1445312 21.822266 z M 39.935547 21.822266 L 38.921875 21.929688 L 38.9375 22.087891 L 39.953125 21.982422 L 39.935547 21.822266 z M 7.1425781 25.269531 L 6.1269531 25.376953 L 6.1445312 25.535156 L 7.1582031 25.429688 L 7.1425781 25.269531 z M 38.9375 25.269531 L 38.921875 25.429688 L 39.935547 25.535156 L 39.953125 25.376953 L 38.9375 25.269531 z M 7.3945312 26.923828 L 6.3964844 27.134766 L 6.4296875 27.291016 L 7.4277344 27.080078 L 7.3945312 26.923828 z M 38.685547 26.923828 L 38.652344 27.080078 L 39.650391 27.291016 L 39.683594 27.134766 L 38.685547 26.923828 z M 7.8203125 28.541016 L 6.8496094 28.855469 L 6.8984375 29.007812 L 7.8691406 28.693359 L 7.8203125 28.541016 z M 38.259766 28.541016 L 38.210938 28.693359 L 39.181641 29.007812 L 39.230469 28.855469 L 38.259766 28.541016 z M 8.4121094 30.105469 L 7.4785156 30.519531 L 7.5449219 30.666016 L 8.4765625 30.251953 L 8.4121094 30.105469 z M 37.667969 30.105469 L 37.603516 30.25 L 38.535156 30.666016 L 38.601562 30.519531 L 37.667969 30.105469 z M 10.066406 33.005859 L 9.2421875 33.605469 L 9.3359375 33.734375 L 10.162109 33.134766 L 10.066406 33.005859 z M 36.013672 33.005859 L 35.917969 33.134766 L 36.744141 33.734375 L 36.837891 33.605469 L 36.013672 33.005859 z M 11.113281 34.310547 L 10.355469 34.994141 L 10.460938 35.113281 L 11.220703 34.429688 L 11.113281 34.310547 z M 34.966797 34.310547 L 34.859375 34.429688 L 35.619141 35.113281 L 35.724609 34.994141 L 34.966797 34.310547 z M 12.289062 35.5 L 11.607422 36.257812 L 11.726562 36.365234 L 12.408203 35.605469 L 12.289062 35.5 z M 33.791016 35.5 L 33.671875 35.605469 L 34.353516 36.365234 L 34.472656 36.257812 L 33.791016 35.5 z M 13.583984 36.558594 L 12.984375 37.384766 L 13.113281 37.478516 L 13.712891 36.652344 L 13.583984 36.558594 z M 32.496094 36.558594 L 32.367188 36.652344 L 32.966797 37.478516 L 33.095703 37.384766 L 32.496094 36.558594 z M 16.46875 38.242188 L 16.052734 39.175781 L 16.199219 39.240234 L 16.615234 38.308594 L 16.46875 38.242188 z M 29.611328 38.242188 L 29.464844 38.308594 L 29.880859 39.240234 L 30.027344 39.175781 L 29.611328 38.242188 z M 18.027344 38.849609 L 17.710938 39.820312 L 17.863281 39.869141 L 18.179688 38.898438 L 18.027344 38.849609 z M 28.052734 38.849609 L 27.900391 38.898438 L 28.216797 39.869141 L 28.369141 39.820312 L 28.052734 38.849609 z M 19.640625 39.291016 L 19.427734 40.289062 L 19.583984 40.322266 L 19.796875 39.324219 L 19.640625 39.291016 z M 26.439453 39.291016 L 26.283203 39.324219 L 26.496094 40.322266 L 26.652344 40.289062 L 26.439453 39.291016 z M 21.291016 39.560547 L 21.183594 40.576172 L 21.34375 40.591797 L 21.449219 39.578125 L 21.291016 39.560547 z M 24.789062 39.560547 L 24.630859 39.578125 L 24.738281 40.591797 L 24.896484 40.576172 L 24.789062 39.560547 z "
                           transform="translate(0,1004.3622)"
                           id="rect4316" />
                        <path
                           id="path4413"
                           d="m 21.512636,1011.2404 -0.160156,0.018 0.107422,1.0156 0.158203,-0.017 -0.105469,-1.0157 z m 3.392578,0 -0.105469,1.0157 0.158203,0.017 0.107422,-1.0156 -0.160156,-0.018 z m -5.152344,0.2715 -0.15625,0.033 0.212891,0.9981 0.15625,-0.033 -0.212891,-0.9981 z m 6.91211,0 -0.212891,0.9981 0.15625,0.033 0.212891,-0.9981 -0.15625,-0.033 z m -8.632813,0.4512 -0.152343,0.049 0.316406,0.9707 0.152344,-0.049 -0.316407,-0.9707 z m 10.353516,0 -0.316406,0.9707 0.152343,0.051 0.316407,-0.9707 -0.152344,-0.051 z m -12.017578,0.6308 -0.146485,0.064 0.416016,0.9316 0.146484,-0.064 -0.416015,-0.9317 z m 13.68164,0 -0.416015,0.9317 0.146484,0.064 0.416016,-0.9316 -0.146485,-0.064 z m -16.767578,1.7618 -0.128906,0.094 0.599609,0.8262 0.128907,-0.094 -0.59961,-0.8261 z m 19.853516,0 -0.599609,0.8261 0.128906,0.094 0.599609,-0.8262 -0.128906,-0.094 z m -21.240235,1.1132 -0.11914,0.1075 0.68164,0.7578 0.119141,-0.1074 -0.681641,-0.7579 z m 22.626954,0 -0.681641,0.7579 0.119141,0.1074 0.68164,-0.7578 -0.11914,-0.1075 z m -23.892578,1.252 -0.105469,0.1191 0.757812,0.6836 0.107422,-0.1191 -0.759765,-0.6836 z m 25.158203,0 -0.759766,0.6836 0.107422,0.1191 0.757812,-0.6836 -0.105468,-0.1191 z m -26.2832034,1.3769 -0.09375,0.1309 0.8242184,0.5996 0.0957,-0.1308 -0.8261714,-0.5997 z m 27.4082034,0 -0.826172,0.5997 0.0957,0.1308 0.824219,-0.5996 -0.09375,-0.1309 z m -29.199219,3.0704 -0.066406,0.1445 0.9335938,0.416 0.064453,-0.1465 -0.9316406,-0.414 z m 30.990234,0 -0.93164,0.414 0.06445,0.1465 0.933593,-0.416 -0.06641,-0.1445 z m 0.646485,1.6562 -0.970703,0.3164 0.04883,0.1524 0.970703,-0.3164 -0.04883,-0.1524 z m -32.2832034,0 -0.048828,0.1504 0.9707031,0.3164 0.048828,-0.1524 -0.9707031,-0.3144 z m -0.46875,1.7148 -0.033203,0.1563 0.9980468,0.2128 0.033203,-0.1562 -0.9980469,-0.2129 z m 33.2207034,0 -0.998047,0.2129 0.0332,0.1562 0.998047,-0.2128 -0.0332,-0.1563 z m -33.5058597,1.7559 -0.017578,0.1601 1.015625,0.1055 0.015625,-0.1582 -1.0136719,-0.1074 z m 33.7910157,0 -1.013672,0.1074 0.01563,0.1582 1.015625,-0.1055 -0.01758,-0.1601 z m -32.7929688,3.4472 -1.015625,0.1075 0.017578,0.1582 1.0136719,-0.1055 -0.015625,-0.1602 z m 31.7949218,0 -0.01563,0.1602 1.013672,0.1055 0.01758,-0.1582 -1.015625,-0.1075 z m -31.5429687,1.6543 -0.9980468,0.211 0.033203,0.1562 0.9980469,-0.2109 -0.033203,-0.1563 z m 31.2910157,0 -0.0332,0.1563 0.998047,0.2109 0.0332,-0.1562 -0.998047,-0.211 z m -30.8652344,1.6172 -0.9707031,0.3145 0.048828,0.1523 0.9707031,-0.3144 -0.048828,-0.1524 z m 30.4394534,0 -0.04883,0.1524 0.970703,0.3144 0.04883,-0.1523 -0.970703,-0.3145 z m -29.8476565,1.5645 -0.9335938,0.414 0.066406,0.1465 0.9316406,-0.414 -0.064453,-0.1465 z m 29.2558595,0 -0.06445,0.1445 0.93164,0.416 0.06641,-0.1465 -0.933593,-0.414 z m -27.601563,2.9004 -0.8242184,0.5996 0.09375,0.1289 0.8261714,-0.5996 -0.0957,-0.1289 z m 25.947266,0 -0.0957,0.1289 0.826172,0.5996 0.09375,-0.1289 -0.824219,-0.5996 z m -24.900391,1.3046 -0.757812,0.6836 0.105469,0.1192 0.759765,-0.6836 -0.107422,-0.1192 z m 23.853516,0 -0.107422,0.1192 0.759766,0.6836 0.105468,-0.1192 -0.757812,-0.6836 z m -22.677735,1.1895 -0.68164,0.7578 0.11914,0.1074 0.681641,-0.7597 -0.119141,-0.1055 z m 21.501954,0 -0.119141,0.1055 0.681641,0.7597 0.11914,-0.1074 -0.68164,-0.7578 z m -20.207032,1.0586 -0.599609,0.8262 0.128906,0.094 0.59961,-0.8262 -0.128907,-0.094 z m 18.91211,0 -0.128906,0.094 0.599609,0.8262 0.128906,-0.094 -0.599609,-0.8262 z m -16.027344,1.6836 -0.416016,0.9336 0.146485,0.064 0.416015,-0.9316 -0.146484,-0.066 z m 13.142578,0 -0.146484,0.066 0.416015,0.9316 0.146485,-0.064 -0.416016,-0.9336 z m -11.583984,0.6074 -0.316406,0.9707 0.152343,0.049 0.316407,-0.9707 -0.152344,-0.049 z m 10.02539,0 -0.152343,0.049 0.316406,0.9707 0.152344,-0.049 -0.316407,-0.9707 z m -8.412109,0.4414 -0.212891,0.9981 0.15625,0.033 0.212891,-0.9981 -0.15625,-0.033 z m 6.798828,0 -0.15625,0.033 0.212891,0.9981 0.15625,-0.033 -0.212891,-0.9981 z m -5.148437,0.2695 -0.107422,1.0157 0.160156,0.016 0.105469,-1.0137 -0.158203,-0.018 z m 3.498046,0 -0.158203,0.018 0.107422,1.0137 0.158203,-0.016 -0.107422,-1.0157 z"
                           style="opacity:1;fill:#ffffff;fill-opacity:0.47894737;stroke:none;stroke-width:0.255;stroke-miterlimit:4;stroke-dasharray:none;stroke-opacity:0.51052629"
                           inkscape:connector-curvature="0" />
                      </g>
                    </g>
                  </g>
                </g>
              </g>
            </g>
          </g>
        </g>
      </g>
    </g>
  </g>
</svg>
