<?xml version="1.0" encoding="UTF-8" standalone="no"?>
<!-- Created with Inkscape (http://www.inkscape.org/) -->

<svg
   xmlns:dc="http://purl.org/dc/elements/1.1/"
   xmlns:cc="http://creativecommons.org/ns#"
   xmlns:rdf="http://www.w3.org/1999/02/22-rdf-syntax-ns#"
   xmlns:svg="http://www.w3.org/2000/svg"
   xmlns="http://www.w3.org/2000/svg"
   xmlns:xlink="http://www.w3.org/1999/xlink"
   xmlns:sodipodi="http://sodipodi.sourceforge.net/DTD/sodipodi-0.dtd"
   xmlns:inkscape="http://www.inkscape.org/namespaces/inkscape"
   width="48"
   height="48"
   viewBox="0 0 48.000001 48.000001"
   id="svg2"
   version="1.1"
   inkscape:version="0.91 r13725"
   sodipodi:docname="clock.svg">
  <defs
     id="defs4">
    <linearGradient
       inkscape:collect="always"
       id="linearGradient7620">
      <stop
         style="stop-color:#b43f00;stop-opacity:1"
         offset="0"
         id="stop7622" />
      <stop
         style="stop-color:#550000;stop-opacity:0;"
         offset="1"
         id="stop7624" />
    </linearGradient>
    <linearGradient
       inkscape:collect="always"
       id="linearGradient6670">
      <stop
         style="stop-color:#ffffff;stop-opacity:0.60000002"
         offset="0"
         id="stop6672" />
      <stop
         style="stop-color:#ffffff;stop-opacity:0;"
         offset="1"
         id="stop6674" />
    </linearGradient>
    <linearGradient
       inkscape:collect="always"
       id="linearGradient6648">
      <stop
         style="stop-color:#000000;stop-opacity:0"
         offset="0"
         id="stop6650" />
      <stop
         id="stop6660"
         offset="0.81250006"
         style="stop-color:#000000;stop-opacity:0" />
      <stop
         id="stop6658"
         offset="0.84375006"
         style="stop-color:#000000;stop-opacity:0.06842105" />
      <stop
         id="stop6656"
         offset="0.90625006"
         style="stop-color:#000000;stop-opacity:0.42105263" />
      <stop
         style="stop-color:#000000;stop-opacity:0.627451"
         offset="1"
         id="stop6652" />
    </linearGradient>
    <linearGradient
       inkscape:collect="always"
       id="linearGradient4198">
      <stop
         style="stop-color:#ffffff;stop-opacity:0"
         offset="0"
         id="stop4200" />
      <stop
         id="stop4206"
         offset="0.5"
         style="stop-color:#ffffff;stop-opacity:1" />
      <stop
         style="stop-color:#ffffff;stop-opacity:0;"
         offset="1"
         id="stop4202" />
    </linearGradient>
    <linearGradient
       inkscape:collect="always"
       id="linearGradient4179">
      <stop
         style="stop-color:#4d4d4d;stop-opacity:1"
         offset="0"
         id="stop4181" />
      <stop
         style="stop-color:#b3b3b3;stop-opacity:1"
         offset="1"
         id="stop4183" />
    </linearGradient>
    <linearGradient
       id="linearGradient4168"
       inkscape:collect="always">
      <stop
         id="stop4170"
         offset="0"
         style="stop-color:#b3b3b3;stop-opacity:1" />
      <stop
         id="stop4172"
         offset="1"
         style="stop-color:#1a1a1a;stop-opacity:0.58947366" />
    </linearGradient>
    <linearGradient
       inkscape:collect="always"
       id="linearGradient4156">
      <stop
         style="stop-color:#ffffff;stop-opacity:1;"
         offset="0"
         id="stop4158" />
      <stop
         style="stop-color:#333333;stop-opacity:1"
         offset="1"
         id="stop4160" />
    </linearGradient>
    <linearGradient
       inkscape:collect="always"
       id="linearGradient4143">
      <stop
         style="stop-color:#cccccc;stop-opacity:1"
         offset="0"
         id="stop4145" />
      <stop
         style="stop-color:#666666;stop-opacity:1"
         offset="1"
         id="stop4147" />
    </linearGradient>
    <linearGradient
       inkscape:collect="always"
       xlink:href="#linearGradient4143"
       id="linearGradient4149"
       x1="19.199999"
       y1="1.9200009"
       x2="25.6"
       y2="40.32"
       gradientUnits="userSpaceOnUse"
       gradientTransform="translate(0,1004.3622)" />
    <linearGradient
       inkscape:collect="always"
       xlink:href="#linearGradient4156"
       id="linearGradient4162"
       x1="14.08"
       y1="3.200001"
       x2="32"
       y2="41.599998"
       gradientUnits="userSpaceOnUse"
       gradientTransform="translate(0,1004.3622)" />
    <linearGradient
       inkscape:collect="always"
       xlink:href="#linearGradient4168"
       id="linearGradient4166"
       gradientUnits="userSpaceOnUse"
       x1="38.839897"
       y1="43.429893"
       x2="12.506779"
       y2="2.6135631"
       gradientTransform="matrix(0.97215984,0,0,0.97215984,0.64141128,1005.0214)" />
    <linearGradient
       inkscape:collect="always"
       xlink:href="#linearGradient4179"
       id="linearGradient4185"
       x1="19.199999"
       y1="3.200001"
       x2="23.039999"
       y2="42.880001"
       gradientUnits="userSpaceOnUse"
       gradientTransform="translate(0,1004.3622)" />
    <linearGradient
       inkscape:collect="always"
       xlink:href="#linearGradient4198"
       id="linearGradient4204"
       x1="2.5599999"
       y1="1022.9222"
       x2="8.96"
       y2="1012.6822"
       gradientUnits="userSpaceOnUse" />
    <linearGradient
       inkscape:collect="always"
       xlink:href="#linearGradient4198"
       id="linearGradient4214"
       x1="8.96"
       y1="1012.6822"
       x2="20.48"
       y2="1007.5622"
       gradientUnits="userSpaceOnUse" />
    <radialGradient
       inkscape:collect="always"
       xlink:href="#linearGradient6648"
       id="radialGradient6654"
       cx="23.039999"
       cy="1028.0422"
       fx="23.039999"
       fy="1028.0422"
       r="18.361721"
       gradientUnits="userSpaceOnUse"
       gradientTransform="matrix(1.0805087,-1.4461798e-6,1.4928316e-6,1.1153644,50.143544,-118.59945)" />
    <linearGradient
       inkscape:collect="always"
       xlink:href="#linearGradient6670"
       id="linearGradient6676"
       x1="21.76"
       y1="1.2800009"
       x2="28.799999"
       y2="24.32"
       gradientUnits="userSpaceOnUse"
       gradientTransform="translate(52,1004.3622)" />
    <radialGradient
       inkscape:collect="always"
       xlink:href="#linearGradient7620"
       id="radialGradient7626"
       cx="23.039999"
       cy="1048.5222"
       fx="23.039999"
       fy="1048.5222"
       r="18.691148"
       gradientUnits="userSpaceOnUse" />
    <radialGradient
       inkscape:collect="always"
       xlink:href="#linearGradient7620"
       id="radialGradient7630"
       gradientUnits="userSpaceOnUse"
       cx="23.039999"
       cy="1026.7622"
       fx="23.039999"
       fy="1026.7622"
       r="18.691148"
       gradientTransform="translate(3.9941821e-5,0)" />
  </defs>
  <sodipodi:namedview
     id="base"
     pagecolor="#444c53"
     bordercolor="#666666"
     borderopacity="1.0"
     inkscape:pageopacity="0"
     inkscape:pageshadow="2"
     inkscape:zoom="9.3909918"
     inkscape:cx="19.196746"
     inkscape:cy="23.764921"
     inkscape:document-units="px"
     inkscape:current-layer="layer1"
     showgrid="true"
     units="px"
     inkscape:window-width="1366"
     inkscape:window-height="706"
     inkscape:window-x="-7"
     inkscape:window-y="0"
     inkscape:window-maximized="1"
     showguides="true"
     inkscape:guide-bbox="true"
     inkscape:object-paths="true"
     inkscape:snap-intersection-paths="true"
     inkscape:object-nodes="true"
     inkscape:snap-smooth-nodes="true"
     inkscape:snap-midpoints="true">
    <inkscape:grid
       type="xygrid"
       id="grid3336"
       spacingx="0.001"
       spacingy="0.001" />
    <sodipodi:guide
       position="23.04,24.32"
       orientation="0,1"
       id="guide4134" />
    <sodipodi:guide
       position="23.04,24.32"
       orientation="1,0"
       id="guide4136" />
    <sodipodi:guide
       position="-14.08,26.88"
       orientation="0,1"
       id="guide7409" />
    <sodipodi:guide
       position="-5.12,6.4"
       orientation="0,1"
       id="guide7411" />
  </sodipodi:namedview>
  <metadata
     id="metadata7">
    <rdf:RDF>
      <cc:Work
         rdf:about="">
        <dc:format>image/svg+xml</dc:format>
        <dc:type
           rdf:resource="http://purl.org/dc/dcmitype/StillImage" />
        <dc:title></dc:title>
      </cc:Work>
    </rdf:RDF>
  </metadata>
  <g
     inkscape:label="Layer 1"
     inkscape:groupmode="layer"
     id="layer1"
     transform="translate(0,-1004.3622)">
    <path
       id="path4977"
       d="m 57.138379,955.0881 0,0.1465 0.05078,0 c 0.03539,0 0.06563,0 0.08984,0.01 0.02422,0 0.04378,0.01 0.06055,0.016 0.01863,0.01 0.03579,0.021 0.04883,0.037 0.0149,0.016 0.03011,0.038 0.04687,0.064 l 0.576172,0.914 -0.474609,0.7285 c -0.05775,0.09 -0.118214,0.1545 -0.179688,0.1954 -0.06147,0.039 -0.128611,0.058 -0.203125,0.058 l -0.01172,0 0,0.1465 0.830078,0 0,-0.1465 -0.07227,0 c -0.05961,0 -0.107094,-0.012 -0.140625,-0.039 -0.03353,-0.029 -0.05078,-0.068 -0.05078,-0.1172 0,-0.045 0.01716,-0.09 0.04883,-0.1367 l 0.333984,-0.543 0.439453,0.6777 c 0.02422,0.035 0.03516,0.067 0.03516,0.1 0,0.012 -1.81e-4,0.023 -0.0039,0.031 -0.0019,0.01 -0.0104,0.015 -0.02344,0.019 -0.01304,0 -0.03251,0 -0.05859,0.01 -0.02608,0 -0.0628,0 -0.109375,0 l -0.08008,0 0,0.1465 0.960938,0 0,-0.1465 -0.03711,0 c -0.04657,0 -0.08338,10e-5 -0.111328,0 -0.02794,0 -0.05177,-0.011 -0.07227,-0.021 -0.02049,-0.01 -0.03997,-0.026 -0.05859,-0.049 -0.01863,-0.023 -0.04024,-0.055 -0.06445,-0.096 l -0.611328,-0.9668 0.388671,-0.582 c 0.04098,-0.061 0.07575,-0.1117 0.107422,-0.1504 0.03167,-0.039 0.06395,-0.069 0.09375,-0.092 0.02981,-0.023 0.06013,-0.037 0.0918,-0.045 0.03167,-0.01 0.06635,-0.016 0.105469,-0.016 l 0.04687,0 0,-0.1465 -0.804688,0 0,0.1465 0.04297,0 c 0.07079,0 0.120585,0.011 0.150391,0.031 0.03167,0.02 0.04687,0.051 0.04687,0.094 0,0.018 -0.0022,0.035 -0.0078,0.049 -0.0037,0.014 -0.01448,0.036 -0.03125,0.062 l -0.314453,0.504 -0.388672,-0.6172 c -0.02235,-0.035 -0.0332,-0.062 -0.0332,-0.08 0,-0.016 0.0087,-0.027 0.02734,-0.033 0.01863,-0.01 0.05544,-0.01 0.111328,-0.01 l 0.115234,0 0,-0.1465 -0.90625,0 z m 2.191407,0 0,0.1465 0.05859,0 c 0.05775,0 0.105231,0 0.140625,0.01 0.03539,0 0.06136,0.01 0.07813,0.022 0.01863,0.01 0.02957,0.026 0.03516,0.047 0.0056,0.018 0.0098,0.044 0.0098,0.076 l 0,1.7168 c 0,0.035 -0.0042,0.062 -0.0098,0.082 -0.0056,0.018 -0.01653,0.033 -0.03516,0.043 -0.01676,0.01 -0.04273,0.017 -0.07813,0.021 -0.03539,0 -0.08288,0 -0.140625,0 l -0.05859,0 0,0.1484 0.966797,0 0,-0.1484 -0.05664,0 c -0.05961,0 -0.107184,0 -0.142578,0 -0.03353,0 -0.0595,-0.011 -0.07813,-0.021 -0.01863,-0.01 -0.02957,-0.025 -0.03516,-0.043 -0.0056,-0.02 -0.0078,-0.047 -0.0078,-0.082 l 0,-1.7168 c 0,-0.033 0.0022,-0.058 0.0078,-0.076 0.0056,-0.02 0.01653,-0.037 0.03516,-0.047 0.01863,-0.012 0.04459,-0.019 0.07813,-0.022 0.03539,0 0.08297,-0.01 0.142578,-0.01 l 0.05664,0 0,-0.1465 -0.966797,0 z m 1.191406,0 0,0.1465 0.05859,0 c 0.05775,0 0.103277,0 0.138671,0.01 0.03539,0 0.06136,0.01 0.07813,0.022 0.01863,0.01 0.03152,0.026 0.03711,0.047 0.0056,0.018 0.0078,0.044 0.0078,0.076 l 0,1.7168 c 0,0.035 -0.0022,0.062 -0.0078,0.082 -0.0056,0.018 -0.01848,0.033 -0.03711,0.043 -0.01677,0.01 -0.04273,0.017 -0.07813,0.021 -0.03539,0 -0.08092,0 -0.138671,0 l -0.05859,0 0,0.1484 0.966797,0 0,-0.1484 -0.05664,0 c -0.05961,0 -0.107184,0 -0.142578,0 -0.03353,0 -0.0595,-0.011 -0.07813,-0.021 -0.01863,-0.01 -0.03152,-0.025 -0.03711,-0.043 -0.0056,-0.02 -0.0078,-0.047 -0.0078,-0.082 l 0,-1.7168 c 0,-0.033 0.0022,-0.058 0.0078,-0.076 0.0056,-0.02 0.01848,-0.037 0.03711,-0.047 0.01863,-0.012 0.04459,-0.019 0.07813,-0.022 0.03539,0 0.08297,-0.01 0.142578,-0.01 l 0.05664,0 0,-0.1465 -0.966797,0 z m -8.181641,1.4102 -0.914062,0.5273 0.07226,0.127 0.05664,-0.031 c 0.05462,-0.032 0.09925,-0.056 0.134766,-0.072 0.03449,-0.018 0.06202,-0.025 0.08398,-0.024 0.02271,0 0.04118,0 0.05664,0.02 0.01444,0.013 0.0306,0.032 0.04687,0.061 l 0.855468,1.4844 c 0.01729,0.03 0.02832,0.053 0.0332,0.074 0.0039,0.019 8.14e-4,0.04 -0.01172,0.059 -0.01077,0.018 -0.03301,0.038 -0.06445,0.061 -0.03246,0.021 -0.07624,0.047 -0.13086,0.078 l -0.05469,0.033 0.07422,0.1289 0.914062,-0.5274 -0.07422,-0.1308 -0.05273,0.031 c -0.05638,0.033 -0.102225,0.057 -0.136719,0.074 -0.03375,0.015 -0.06128,0.024 -0.08398,0.025 -0.02271,0 -0.0422,0 -0.05664,-0.018 -0.01546,-0.015 -0.03154,-0.036 -0.04883,-0.066 l -0.855469,-1.4825 c -0.01628,-0.028 -0.02543,-0.051 -0.0293,-0.07 -0.0049,-0.021 -0.0028,-0.041 0.0098,-0.06 0.01152,-0.021 0.03376,-0.041 0.06445,-0.061 0.03144,-0.023 0.07448,-0.051 0.13086,-0.084 l 0.05273,-0.029 -0.07227,-0.1269 z m 14.984375,0.5976 -0.07422,0.127 0.05664,0.031 c 0.05462,0.032 0.09746,0.059 0.128906,0.082 0.03246,0.021 0.05275,0.041 0.0625,0.061 0.01253,0.019 0.01661,0.04 0.01172,0.061 -0.0039,0.019 -0.01497,0.042 -0.03125,0.07 l -0.855469,1.4824 c -0.01729,0.03 -0.03337,0.052 -0.04883,0.066 -0.01444,0.013 -0.03393,0.019 -0.05664,0.018 -0.02094,-4e-4 -0.04847,-0.01 -0.08398,-0.023 -0.03449,-0.018 -0.07819,-0.043 -0.132812,-0.074 l -0.05664,-0.031 -0.07422,0.1289 0.914063,0.5273 0.07422,-0.1289 -0.05273,-0.031 c -0.05638,-0.033 -0.100353,-0.059 -0.132812,-0.08 -0.02968,-0.022 -0.04997,-0.042 -0.0625,-0.061 -0.01253,-0.019 -0.01754,-0.038 -0.01367,-0.057 0.0049,-0.021 0.01591,-0.046 0.0332,-0.076 l 0.855469,-1.4824 c 0.01628,-0.028 0.03243,-0.05 0.04687,-0.062 0.01546,-0.014 0.03393,-0.021 0.05664,-0.019 0.02372,-4e-4 0.05321,0.01 0.08594,0.023 0.03551,0.016 0.08034,0.042 0.136719,0.074 l 0.05273,0.029 0.07422,-0.1269 -0.914063,-0.5274 z m -16.085937,0.037 -0.761719,0.4394 0.07227,0.127 0.04102,-0.022 c 0.06695,-0.039 0.11984,-0.058 0.158203,-0.057 0.04013,4e-4 0.07043,0.02 0.0918,0.057 0.0092,0.016 0.01379,0.032 0.01563,0.047 0.0036,0.014 0.0046,0.036 0.002,0.068 l -0.04687,0.6094 -0.675781,-0.3223 c -0.03844,-0.018 -0.06311,-0.035 -0.07227,-0.051 -0.0081,-0.014 -0.0048,-0.027 0.0098,-0.043 0.01457,-0.016 0.0487,-0.04 0.101563,-0.07 l 0.109375,-0.062 -0.07422,-0.127 -0.855469,0.4961 0.07227,0.125 0.04883,-0.027 c 0.03348,-0.019 0.061,-0.033 0.08594,-0.043 0.02392,-0.011 0.04648,-0.017 0.06641,-0.019 0.02169,0 0.04398,0 0.06445,0.01 0.02223,0.01 0.04709,0.016 0.07617,0.029 l 1,0.4746 -0.08594,0.8887 c -0.0099,0.1091 -0.03251,0.1988 -0.07031,0.2676 -0.03882,0.067 -0.09359,0.1214 -0.164063,0.1621 l -0.01172,0.01 0.07422,0.127 0.785156,-0.4531 -0.07422,-0.127 -0.06836,0.039 c -0.05638,0.033 -0.107404,0.048 -0.152344,0.043 -0.04596,-0.01 -0.08105,-0.032 -0.105468,-0.074 -0.02238,-0.039 -0.02999,-0.087 -0.02344,-0.1445 l 0.04687,-0.6504 0.751953,0.3438 c 0.0402,0.017 0.06771,0.04 0.08399,0.068 0.0061,0.011 0.01117,0.02 0.01172,0.029 0.0023,0.01 -0.0034,0.017 -0.01367,0.027 -0.01132,0.01 -0.02713,0.021 -0.05078,0.037 -0.02365,0.016 -0.05751,0.037 -0.101562,0.062 l -0.07813,0.045 0.07422,0.1269 0.908203,-0.5254 -0.07227,-0.1269 -0.03516,0.019 c -0.04405,0.025 -0.07998,0.045 -0.107422,0.059 -0.02846,0.012 -0.05366,0.019 -0.07813,0.022 -0.02447,0 -0.05127,-6e-4 -0.08008,-0.01 -0.02881,-0.01 -0.06612,-0.025 -0.109375,-0.047 l -1.060547,-0.502 0.07813,-0.7148 c 0.0082,-0.075 0.01672,-0.1368 0.02734,-0.1875 0.01063,-0.051 0.02597,-0.095 0.04297,-0.1309 0.017,-0.036 0.03857,-0.065 0.06445,-0.09 0.02487,-0.026 0.0548,-0.049 0.0918,-0.07 l 0.04492,-0.027 -0.07226,-0.1269 z m 22.152344,5.4043 -0.126954,0.074 0.03125,0.055 c 0.03153,0.055 0.05646,0.1012 0.07227,0.1367 0.01757,0.034 0.02485,0.062 0.02344,0.084 0.0014,0.023 -0.005,0.041 -0.01953,0.057 -0.01281,0.014 -0.03431,0.031 -0.0625,0.047 l -1.482422,0.8554 c -0.02995,0.017 -0.0555,0.028 -0.07617,0.033 -0.01891,0 -0.03766,0 -0.05664,-0.014 -0.01796,-0.011 -0.03769,-0.031 -0.06055,-0.062 -0.02109,-0.033 -0.04854,-0.076 -0.08008,-0.1309 l -0.03125,-0.055 -0.128906,0.074 0.527343,0.9141 0.128907,-0.074 -0.0293,-0.053 c -0.03255,-0.056 -0.05861,-0.1023 -0.07617,-0.1368 -0.01479,-0.034 -0.02208,-0.061 -0.02344,-0.084 -0.0014,-0.023 0.0048,-0.042 0.01758,-0.057 0.01457,-0.015 0.03645,-0.032 0.06641,-0.049 l 1.482422,-0.8555 c 0.02819,-0.016 0.0514,-0.027 0.07031,-0.031 0.02067,0 0.04156,-8e-4 0.06055,0.012 0.02074,0.011 0.04047,0.034 0.06055,0.064 0.02285,0.032 0.04948,0.075 0.08203,0.1309 l 0.03125,0.053 0.126953,-0.072 -0.527343,-0.916 z m -28.187501,0.1093 -0.439453,0.7617 0.126953,0.074 0.02344,-0.041 c 0.03866,-0.067 0.07353,-0.1089 0.107422,-0.1269 0.03491,-0.02 0.07237,-0.019 0.109375,0 0.01586,0.01 0.02783,0.021 0.03711,0.033 0.0103,0.011 0.02141,0.029 0.03516,0.058 l 0.263672,0.5508 -0.746094,0.059 c -0.04216,0 -0.07008,0 -0.08594,-0.01 -0.0141,-0.01 -0.01856,-0.022 -0.01367,-0.043 0.0049,-0.021 0.02222,-0.056 0.05273,-0.1093 l 0.0625,-0.1094 -0.126953,-0.072 -0.49414,0.8555 0.126953,0.074 0.02734,-0.049 c 0.01933,-0.034 0.03794,-0.059 0.05469,-0.08 0.01499,-0.022 0.03067,-0.039 0.04687,-0.051 0.01722,-0.014 0.03542,-0.023 0.05664,-0.027 0.02223,-0.01 0.04997,-0.011 0.08203,-0.014 l 1.103515,-0.088 0.371094,0.8125 c 0.04599,0.099 0.06864,0.1891 0.07031,0.2676 -9.2e-5,0.077 -0.01986,0.1522 -0.06055,0.2227 l -0.0059,0.01 0.126953,0.072 0.453125,-0.7832 -0.126953,-0.074 -0.04102,0.068 c -0.03255,0.056 -0.06816,0.095 -0.109375,0.1133 -0.04298,0.017 -0.08662,0.013 -0.128906,-0.012 -0.03876,-0.022 -0.06857,-0.06 -0.0918,-0.1133 l -0.285157,-0.5859 0.824219,-0.078 c 0.04318,-0.01 0.07728,-6e-4 0.105468,0.016 0.01057,0.01 0.01842,0.014 0.02344,0.021 0.006,0.01 0.0075,0.015 0.0039,0.029 -0.0054,0.013 -0.01291,0.033 -0.02539,0.059 -0.01248,0.026 -0.03121,0.062 -0.05664,0.1055 l -0.04492,0.076 0.126953,0.072 0.525391,-0.9082 -0.126953,-0.074 -0.02149,0.035 c -0.02543,0.044 -0.04548,0.078 -0.0625,0.1035 -0.01878,0.024 -0.03859,0.044 -0.05859,0.059 -0.02,0.014 -0.04467,0.025 -0.07422,0.031 -0.02955,0.01 -0.06872,0.011 -0.117188,0.014 l -1.169922,0.096 -0.289063,-0.6562 c -0.03048,-0.069 -0.05413,-0.1285 -0.07031,-0.1778 -0.01618,-0.049 -0.02619,-0.093 -0.0293,-0.1328 -0.0031,-0.039 0.0015,-0.077 0.01172,-0.1113 0.0085,-0.035 0.02356,-0.07 0.04492,-0.1074 l 0.02539,-0.045 -0.126953,-0.074 z m 28.837891,1.0176 -0.126953,0.072 0.03125,0.057 c 0.03153,0.055 0.05451,0.099 0.07031,0.1348 0.01756,0.034 0.02681,0.062 0.02539,0.084 0.0014,0.023 -0.005,0.043 -0.01953,0.059 -0.01281,0.014 -0.03431,0.029 -0.0625,0.045 l -1.482422,0.8554 c -0.02995,0.017 -0.0555,0.03 -0.07617,0.035 -0.01891,0 -0.03766,0 -0.05664,-0.014 -0.01796,-0.011 -0.03769,-0.033 -0.06055,-0.064 -0.02109,-0.033 -0.04854,-0.074 -0.08008,-0.1289 l -0.03125,-0.057 -0.128907,0.074 0.527344,0.9161 0.128906,-0.076 -0.0293,-0.053 c -0.03255,-0.056 -0.05861,-0.1003 -0.07617,-0.1348 -0.01479,-0.034 -0.02207,-0.063 -0.02344,-0.086 -0.0014,-0.023 0.0028,-0.04 0.01563,-0.055 0.01457,-0.015 0.03841,-0.034 0.06836,-0.051 l 1.482422,-0.8555 c 0.02819,-0.016 0.0514,-0.025 0.07031,-0.029 0.02067,0 0.03961,-8e-4 0.05859,0.012 0.02074,0.012 0.04243,0.032 0.0625,0.062 0.02285,0.032 0.04948,0.075 0.08203,0.1309 l 0.03125,0.055 0.126953,-0.074 -0.527344,-0.9141 z m -0.09961,6.5332 0,1.0566 0.148437,0 0,-0.062 c 0,-0.065 0.0019,-0.1156 0.0039,-0.1542 0.0041,-0.037 0.01131,-0.066 0.02148,-0.086 0.01017,-0.02 0.02466,-0.033 0.04297,-0.039 0.02034,-0.01 0.04744,-0.01 0.08203,-0.01 l 1.710937,0 c 0.03255,0 0.05786,0 0.07617,0.01 0.02034,0.01 0.0367,0.019 0.04687,0.039 0.01221,0.02 0.01945,0.049 0.02148,0.086 0.0041,0.039 0.0059,0.089 0.0059,0.1542 l 0,0.062 0.146484,0 0,-1.0566 -0.146484,0 0,0.064 c 0,0.063 -0.0018,0.1136 -0.0059,0.1523 -0.002,0.039 -0.0093,0.068 -0.02148,0.086 -0.01017,0.02 -0.02653,0.033 -0.04687,0.039 -0.01831,0.01 -0.04362,0.01 -0.07617,0.01 l -1.710937,0 c -0.03459,0 -0.06169,0 -0.08203,-0.01 -0.01831,-0.01 -0.0328,-0.019 -0.04297,-0.039 -0.01017,-0.018 -0.01741,-0.047 -0.02148,-0.086 -0.002,-0.039 -0.0039,-0.089 -0.0039,-0.1523 l 0,-0.064 -0.148437,0 z m -29.402344,0.094 0,0.041 c 0,0.051 8.1e-5,0.091 -0.002,0.1211 -0.0041,0.031 -0.01131,0.058 -0.02148,0.08 -0.01017,0.022 -0.02645,0.044 -0.04883,0.065 -0.02238,0.02 -0.05501,0.044 -0.0957,0.07 l -0.962891,0.668 -0.580078,-0.4238 c -0.06103,-0.045 -0.111735,-0.085 -0.15039,-0.1192 -0.03866,-0.035 -0.06942,-0.069 -0.0918,-0.1016 -0.02238,-0.033 -0.03678,-0.065 -0.04492,-0.1 -0.01017,-0.034 -0.01563,-0.074 -0.01563,-0.1171 l 0,-0.051 -0.146485,0 0,0.8789 0.146485,0 0,-0.047 c 0,-0.077 0.01091,-0.1315 0.03125,-0.1641 0.02034,-0.034 0.05103,-0.053 0.09375,-0.053 0.01831,0 0.03459,0 0.04883,0.01 0.01424,0 0.0341,0.015 0.06055,0.033 l 0.503906,0.3457 -0.615235,0.4238 c -0.03459,0.024 -0.06177,0.037 -0.08008,0.037 -0.01628,0 -0.0271,-0.011 -0.0332,-0.031 -0.0061,-0.02 -0.0098,-0.062 -0.0098,-0.1231 l 0,-0.125 -0.146484,0 0,0.9903 0.146484,0 0,-0.055 c 0,-0.039 0.0018,-0.071 0.0059,-0.098 0.002,-0.026 0.0075,-0.05 0.01563,-0.068 0.0081,-0.02 0.02083,-0.036 0.03711,-0.051 0.01628,-0.016 0.03801,-0.034 0.06445,-0.053 l 0.91211,-0.6289 0.726562,0.5196 c 0.08952,0.063 0.154623,0.1281 0.195313,0.1953 0.03866,0.067 0.05664,0.1412 0.05664,0.2226 l 0,0.012 0.146484,0 0,-0.9062 -0.146484,0 0,0.08 c 0,0.065 -0.01261,0.1157 -0.03906,0.1523 -0.02848,0.037 -0.06641,0.055 -0.115235,0.055 -0.04476,0 -0.09188,-0.018 -0.138671,-0.053 l -0.539063,-0.3653 0.673828,-0.4785 c 0.03459,-0.026 0.06901,-0.041 0.101563,-0.041 0.01221,0 0.02116,0 0.0293,0.01 0.0081,0 0.01546,0.011 0.01953,0.025 0.002,0.014 0.0038,0.036 0.0059,0.064 0.002,0.028 0.002,0.068 0.002,0.1191 l 0,0.088 0.146484,0 0,-1.0507 -0.146484,0 z m 29.402344,1.207 0,1.0547 0.148437,0 0,-0.061 c 0,-0.065 0.0019,-0.1176 0.0039,-0.1562 0.0041,-0.037 0.01131,-0.064 0.02148,-0.084 0.01017,-0.02 0.02466,-0.035 0.04297,-0.041 0.02034,-0.01 0.04744,-0.01 0.08203,-0.01 l 1.710937,0 c 0.03255,0 0.05786,0 0.07617,0.01 0.02034,0.01 0.0367,0.021 0.04687,0.041 0.01221,0.02 0.01945,0.047 0.02148,0.084 0.0041,0.039 0.0059,0.091 0.0059,0.1562 l 0,0.061 0.146484,0 0,-1.0547 -0.146484,0 0,0.062 c 0,0.063 -0.0018,0.1156 -0.0059,0.1543 -0.002,0.039 -0.0093,0.066 -0.02148,0.084 -0.01017,0.02 -0.02653,0.035 -0.04687,0.041 -0.01831,0.01 -0.04362,0.01 -0.07617,0.01 l -1.710937,0 c -0.03459,0 -0.06169,0 -0.08203,-0.01 -0.01831,-0.01 -0.0328,-0.021 -0.04297,-0.041 -0.01017,-0.018 -0.01741,-0.045 -0.02148,-0.084 -0.002,-0.039 -0.0039,-0.091 -0.0039,-0.1543 l 0,-0.062 -0.148437,0 z m -31.5625,1.2051 0,1.0547 0.146484,0 0,-0.062 c 0,-0.063 0.0018,-0.1157 0.0059,-0.1543 0.002,-0.039 0.0093,-0.066 0.02148,-0.084 0.01017,-0.02 0.02653,-0.035 0.04687,-0.041 0.01831,-0.01 0.04362,-0.01 0.07617,-0.01 l 1.710937,0 c 0.03459,0 0.06169,0 0.08203,0.01 0.01831,0.01 0.0328,0.021 0.04297,0.041 0.01017,0.018 0.01741,0.045 0.02148,0.084 0.002,0.039 0.0039,0.091 0.0039,0.1543 l 0,0.062 0.148438,0 0,-1.0547 -0.148438,0 0,0.061 c 0,0.065 -0.0019,0.1176 -0.0039,0.1563 -0.0041,0.037 -0.01131,0.064 -0.02148,0.084 -0.01017,0.02 -0.02466,0.035 -0.04297,0.041 -0.02035,0.01 -0.04745,0.01 -0.08203,0.01 l -1.710937,0 c -0.03255,0 -0.05786,0 -0.07617,-0.01 -0.02034,-0.01 -0.0367,-0.021 -0.04687,-0.041 -0.01221,-0.02 -0.01945,-0.047 -0.02148,-0.084 -0.0041,-0.039 -0.0059,-0.091 -0.0059,-0.1563 l 0,-0.061 -0.146484,0 z m 31.5625,0.094 0,1.0567 0.148437,0 0,-0.061 c 0,-0.065 0.0019,-0.1176 0.0039,-0.1562 0.0041,-0.037 0.01131,-0.066 0.02148,-0.086 0.01017,-0.02 0.02466,-0.033 0.04297,-0.039 0.02034,-0.01 0.04744,-0.01 0.08203,-0.01 l 1.710937,0 c 0.03255,0 0.05786,0 0.07617,0.01 0.02034,0.01 0.0367,0.019 0.04687,0.039 0.01221,0.02 0.01945,0.049 0.02148,0.086 0.0041,0.039 0.0059,0.091 0.0059,0.1562 l 0,0.061 0.146484,0 0,-1.0567 -0.146484,0 0,0.064 c 0,0.063 -0.0018,0.1137 -0.0059,0.1523 -0.002,0.039 -0.0093,0.068 -0.02148,0.086 -0.01017,0.02 -0.02653,0.033 -0.04687,0.039 -0.01831,0.01 -0.04362,0.01 -0.07617,0.01 l -1.710937,0 c -0.03459,0 -0.06169,0 -0.08203,-0.01 -0.01831,-0.01 -0.0328,-0.019 -0.04297,-0.039 -0.01017,-0.018 -0.01741,-0.047 -0.02148,-0.086 -0.002,-0.039 -0.0039,-0.089 -0.0039,-0.1523 l 0,-0.064 -0.148437,0 z m -28.638672,4.2539 -0.13086,0.076 0.02734,0.045 c 0.02827,0.049 0.04944,0.089 0.06445,0.1192 0.01236,0.03 0.01955,0.054 0.01953,0.074 -1.5e-5,0.02 -0.0082,0.039 -0.02148,0.053 -0.01505,0.015 -0.03632,0.03 -0.06641,0.047 l -1.490234,0.8594 c -0.02832,0.016 -0.05174,0.029 -0.07031,0.033 -0.02035,0.01 -0.03896,0 -0.05664,-0.01 -0.01945,-0.01 -0.03702,-0.026 -0.05469,-0.053 -0.02032,-0.027 -0.04595,-0.066 -0.07422,-0.1152 l -0.02539,-0.045 -0.128906,0.072 0.458984,0.7949 0.126953,-0.074 -0.02734,-0.047 c -0.02739,-0.048 -0.0473,-0.088 -0.06055,-0.1192 -0.01501,-0.03 -0.0222,-0.054 -0.01953,-0.074 1.5e-5,-0.02 0.0084,-0.038 0.02344,-0.053 0.01328,-0.014 0.03418,-0.029 0.0625,-0.045 l 1.488282,-0.8593 c 0.03008,-0.017 0.05582,-0.03 0.07617,-0.035 0.01858,0 0.03701,0 0.05469,0.01 0.0168,0.01 0.03632,0.028 0.05664,0.055 0.01855,0.028 0.04097,0.066 0.06836,0.1133 l 0.02734,0.047 0.130859,-0.074 -0.458984,-0.7949 z m 27.578125,0.7793 -0.529297,0.9141 0.130859,0.076 0.0293,-0.055 c 0.03255,-0.056 0.06094,-0.1004 0.08203,-0.1328 0.02183,-0.03 0.04156,-0.05 0.06055,-0.062 0.01898,-0.013 0.03773,-0.018 0.05664,-0.014 0.02067,0 0.04622,0.016 0.07617,0.033 l 1.482422,0.8555 c 0.02819,0.016 0.04774,0.032 0.06055,0.047 0.01457,0.015 0.02285,0.034 0.02148,0.057 3.99e-4,0.024 -0.0088,0.053 -0.02539,0.086 -0.0158,0.035 -0.03971,0.08 -0.07227,0.1367 l -0.03125,0.053 0.126953,0.074 0.529297,-0.9141 -0.126953,-0.074 -0.0332,0.057 c -0.03153,0.055 -0.05723,0.098 -0.08008,0.1289 -0.02109,0.033 -0.04277,0.053 -0.0625,0.062 -0.01898,0.013 -0.03792,0.017 -0.05859,0.012 -0.01891,0 -0.04212,-0.015 -0.07031,-0.031 l -1.482422,-0.8555 c -0.02995,-0.017 -0.05379,-0.033 -0.06836,-0.049 -0.01281,-0.014 -0.01699,-0.032 -0.01563,-0.055 3.45e-4,-0.021 0.0076,-0.05 0.02344,-0.086 0.01757,-0.034 0.04268,-0.078 0.07422,-0.1328 l 0.03125,-0.057 -0.128906,-0.074 z m -27.013672,0.1992 -0.13086,0.074 0.02734,0.047 c 0.02827,0.049 0.04944,0.087 0.06445,0.1172 0.01236,0.03 0.01955,0.056 0.01953,0.076 -1.5e-5,0.02 -0.0082,0.037 -0.02148,0.051 -0.01505,0.015 -0.03632,0.031 -0.06641,0.049 l -1.490234,0.8594 c -0.02832,0.016 -0.05174,0.027 -0.07031,0.031 -0.02035,0.01 -0.03896,0 -0.05664,-0.01 -0.01945,-0.01 -0.03702,-0.028 -0.05469,-0.055 -0.02032,-0.027 -0.04595,-0.064 -0.07422,-0.1133 l -0.02539,-0.047 -0.128906,0.074 0.458984,0.795 0.126953,-0.074 -0.02734,-0.049 c -0.02738,-0.047 -0.0473,-0.086 -0.06055,-0.1172 -0.01501,-0.03 -0.0222,-0.054 -0.01953,-0.074 1.5e-5,-0.02 0.0084,-0.04 0.02344,-0.055 0.01328,-0.014 0.03418,-0.029 0.0625,-0.045 l 1.488282,-0.8594 c 0.03009,-0.017 0.05582,-0.03 0.07617,-0.035 0.01858,0 0.03701,-5e-4 0.05469,0.01 0.0168,0.01 0.03632,0.026 0.05664,0.053 0.01855,0.028 0.04098,0.066 0.06836,0.1133 l 0.02734,0.049 0.130859,-0.076 -0.458978,-0.793 z m 0.564453,0.9766 -0.130859,0.076 0.02734,0.045 c 0.02827,0.049 0.04944,0.089 0.06445,0.1191 0.01236,0.03 0.01955,0.054 0.01953,0.074 -1.5e-5,0.02 -0.0082,0.039 -0.02148,0.053 -0.01505,0.015 -0.03632,0.029 -0.06641,0.047 l -1.490234,0.8613 c -0.02832,0.016 -0.05174,0.027 -0.07031,0.031 -0.02035,0.01 -0.03896,0 -0.05664,-0.01 -0.01945,-0.01 -0.03702,-0.026 -0.05469,-0.053 -0.02032,-0.027 -0.04595,-0.066 -0.07422,-0.1152 l -0.02539,-0.045 -0.128907,0.074 0.458985,0.7929 0.126953,-0.072 -0.02734,-0.049 c -0.02739,-0.047 -0.0473,-0.086 -0.06055,-0.1172 -0.01501,-0.03 -0.0222,-0.056 -0.01953,-0.076 1.5e-5,-0.02 0.0084,-0.038 0.02344,-0.053 0.01328,-0.014 0.03418,-0.028 0.0625,-0.045 l 1.488281,-0.8594 c 0.03009,-0.017 0.05582,-0.03 0.07617,-0.035 0.01858,0 0.03701,0 0.05469,0.01 0.0168,0.01 0.03632,0.028 0.05664,0.055 0.01855,0.028 0.04097,0.066 0.06836,0.1133 l 0.02734,0.047 0.13086,-0.074 -0.458985,-0.7949 z m 25.269531,0.7695 -0.0625,0.1075 1.275391,1.582 c 0.04241,0.053 0.07556,0.099 0.09961,0.1387 0.02405,0.04 0.03876,0.077 0.04492,0.1113 0.0079,0.035 0.0073,0.067 -0.002,0.1 -0.0075,0.033 -0.02348,0.071 -0.04687,0.1113 l -0.01367,0.027 0.126953,0.072 0.431641,-0.748 -0.126953,-0.072 -0.0293,0.049 c -0.04171,0.072 -0.08791,0.1211 -0.136719,0.1446 -0.04705,0.024 -0.09286,0.023 -0.138672,0 -0.01938,-0.011 -0.04033,-0.027 -0.06445,-0.051 -0.02412,-0.023 -0.04702,-0.046 -0.06836,-0.07 l -0.898438,-1.0899 1.582032,0.2403 c 0.01993,0 0.03968,0 0.05859,0.01 0.01789,0.01 0.03025,0.013 0.03906,0.018 0.02467,0.014 0.03594,0.038 0.03125,0.07 -0.0057,0.034 -0.0269,0.081 -0.0625,0.1426 l -0.06445,0.1113 0.126953,0.074 0.498047,-0.8652 -0.126953,-0.072 -0.03125,0.055 c -0.03459,0.06 -0.06981,0.098 -0.105469,0.1152 -0.03566,0.017 -0.09338,0.021 -0.173828,0.01 l -2.16211,-0.3145 z m -24.24414,0.9102 -1.966797,0.4004 c -0.06546,0.013 -0.120904,0.022 -0.166016,0.025 -0.04511,0 -0.08233,8e-4 -0.113281,-0.01 -0.03272,-0.01 -0.06082,-0.021 -0.08203,-0.041 -0.02298,-0.019 -0.04414,-0.047 -0.06445,-0.082 l -0.01367,-0.023 -0.126953,0.074 0.375,0.6484 0.126953,-0.074 -0.02344,-0.043 c -0.03622,-0.063 -0.05203,-0.1189 -0.04492,-0.1679 0.0053,-0.048 0.03211,-0.085 0.07813,-0.1114 0.01947,-0.011 0.04432,-0.021 0.07617,-0.031 0.03185,-0.01 0.06279,-0.02 0.09375,-0.027 l 1.365235,-0.293 -1.042969,1.1875 c -0.01239,0.015 -0.02578,0.029 -0.03906,0.043 -0.01416,0.012 -0.02435,0.022 -0.0332,0.027 -0.02478,0.014 -0.05035,0.013 -0.07422,0 -0.02475,-0.018 -0.05111,-0.056 -0.08203,-0.1094 l -0.05664,-0.096 -0.126954,0.074 0.433594,0.75 0.126953,-0.074 -0.02734,-0.047 c -0.03003,-0.052 -0.04244,-0.097 -0.03711,-0.1328 0.0053,-0.036 0.03371,-0.084 0.08594,-0.1445 l 1.414063,-1.627 -0.05469,-0.094 z m 2.666015,2.9473 -0.07422,0.1308 0.04687,0.027 c 0.05051,0.029 0.09017,0.053 0.11914,0.072 0.02637,0.02 0.04596,0.039 0.05664,0.057 0.01068,0.018 0.01422,0.036 0.0098,0.055 -0.0055,0.02 -0.0178,0.046 -0.03516,0.076 l -0.859375,1.4883 c -0.01633,0.028 -0.031,0.049 -0.04492,0.062 -0.01494,0.015 -0.0338,0.022 -0.05469,0.022 -0.02191,0 -0.04674,0 -0.07617,-0.02 -0.03203,-0.014 -0.07254,-0.035 -0.123047,-0.064 l -0.04883,-0.027 -0.07227,0.1269 0.81836,0.4727 0.07422,-0.127 -0.05078,-0.029 c -0.04893,-0.028 -0.08729,-0.053 -0.115234,-0.074 -0.02897,-0.019 -0.04661,-0.038 -0.05469,-0.057 -0.01068,-0.018 -0.01328,-0.036 -0.0078,-0.057 0.0045,-0.019 0.01492,-0.042 0.03125,-0.07 l 0.859375,-1.4883 c 0.01735,-0.03 0.03193,-0.051 0.04687,-0.066 0.01392,-0.013 0.03185,-0.02 0.05273,-0.019 0.01931,-7e-4 0.04609,0.01 0.07813,0.019 0.03101,0.016 0.07021,0.036 0.119141,0.064 l 0.04883,0.029 0.07617,-0.1289 -0.820313,-0.4746 z m 1.009766,0.582 -0.07617,0.1308 0.04883,0.027 c 0.05051,0.029 0.09017,0.053 0.119141,0.072 0.02637,0.02 0.04401,0.039 0.05469,0.057 0.01068,0.018 0.01422,0.036 0.0098,0.055 -0.0055,0.02 -0.0178,0.046 -0.03516,0.076 l -0.857422,1.4882 c -0.01633,0.028 -0.03295,0.049 -0.04687,0.062 -0.01494,0.015 -0.03185,0.022 -0.05273,0.022 -0.02191,0 -0.04869,0 -0.07813,-0.019 -0.03203,-0.014 -0.07254,-0.035 -0.123046,-0.065 l -0.04687,-0.027 -0.07422,0.1269 0.820312,0.4727 0.07227,-0.127 -0.04883,-0.029 c -0.04893,-0.028 -0.08729,-0.052 -0.115234,-0.072 -0.02897,-0.019 -0.04856,-0.038 -0.05664,-0.057 -0.01068,-0.018 -0.01328,-0.038 -0.0078,-0.058 0.0045,-0.019 0.01492,-0.042 0.03125,-0.07 l 0.859375,-1.4882 c 0.01735,-0.03 0.03389,-0.052 0.04883,-0.066 0.01392,-0.013 0.03184,-0.02 0.05273,-0.02 0.01931,-6e-4 0.04414,0.01 0.07617,0.02 0.03101,0.015 0.07021,0.036 0.11914,0.064 l 0.05078,0.029 0.07422,-0.1289 -0.818359,-0.4746 z m 15.533203,0.4277 -0.107422,0.062 0.3125,2.0078 c 0.01039,0.067 0.01661,0.1235 0.01758,0.17 9.64e-4,0.046 -0.0039,0.084 -0.01563,0.1171 -0.0107,0.034 -0.02861,0.065 -0.05273,0.088 -0.02311,0.025 -0.05518,0.049 -0.0957,0.072 l -0.02734,0.016 0.07422,0.127 0.748047,-0.4336 -0.07422,-0.127 -0.04883,0.029 c -0.07224,0.042 -0.135432,0.061 -0.189453,0.057 -0.053,0 -0.09269,-0.026 -0.119141,-0.072 -0.01119,-0.019 -0.02202,-0.044 -0.03125,-0.076 -0.0092,-0.032 -0.01699,-0.064 -0.02344,-0.096 l -0.232422,-1.3926 1.25,0.9981 c 0.0162,0.012 0.03048,0.024 0.04492,0.037 0.01268,0.014 0.02226,0.026 0.02734,0.035 0.01424,0.025 0.01056,0.048 -0.0098,0.074 -0.02209,0.027 -0.06333,0.058 -0.125,0.094 l -0.111328,0.064 0.07227,0.1269 0.865235,-0.498 -0.07422,-0.127 -0.05469,0.031 c -0.05991,0.035 -0.109056,0.05 -0.148437,0.047 -0.03938,0 -0.09218,-0.028 -0.15625,-0.078 l -1.714844,-1.3535 z m -13.751953,0.5449 -1.519531,1.3184 c -0.05059,0.044 -0.09503,0.08 -0.132813,0.1055 -0.03778,0.025 -0.07177,0.041 -0.103515,0.049 -0.03277,0.01 -0.06441,0.01 -0.09375,0 -0.03036,-0.01 -0.0633,-0.018 -0.09961,-0.039 l -0.02344,-0.014 -0.07422,0.127 0.669922,0.3867 0.07422,-0.127 -0.04492,-0.027 c -0.06472,-0.037 -0.107539,-0.078 -0.126953,-0.125 -0.02043,-0.045 -0.01677,-0.091 0.0098,-0.1367 0.01123,-0.019 0.02813,-0.042 0.05078,-0.066 0.02265,-0.025 0.04516,-0.046 0.06836,-0.068 l 1.046875,-0.9277 -0.294922,1.5547 c -0.0029,0.019 -0.0073,0.04 -0.01172,0.059 -0.006,0.018 -0.01052,0.03 -0.01563,0.039 -0.01429,0.025 -0.03661,0.036 -0.06641,0.033 -0.03138,0 -0.07561,-0.023 -0.130859,-0.055 l -0.09961,-0.057 -0.07227,0.1269 0.773437,0.4473 0.07422,-0.1269 -0.05078,-0.029 c -0.05367,-0.031 -0.08754,-0.064 -0.101563,-0.098 -0.01403,-0.034 -0.01409,-0.091 0,-0.1699 l 0.392578,-2.125 -0.09766,-0.057 z m 6.908203,1.4414 -0.732422,1.8946 c -0.02441,0.063 -0.04598,0.1155 -0.06836,0.1562 -0.02238,0.041 -0.04777,0.071 -0.07422,0.094 -0.02645,0.024 -0.05534,0.041 -0.08789,0.049 -0.03255,0.01 -0.07235,0.016 -0.119141,0.016 l -0.03125,0 0,0.1465 0.863281,0 0,-0.1465 -0.05664,0 c -0.08341,0 -0.148601,-0.016 -0.19336,-0.047 -0.04476,-0.028 -0.06641,-0.068 -0.06641,-0.1211 0,-0.022 0.0036,-0.049 0.01172,-0.082 0.0081,-0.033 0.01717,-0.065 0.02734,-0.096 l 0.494141,-1.3203 0.583984,1.4883 c 0.0081,0.018 0.01538,0.036 0.02148,0.055 0.0041,0.018 0.0059,0.033 0.0059,0.043 0,0.028 -0.01636,0.048 -0.04687,0.06 -0.03255,0.012 -0.08309,0.02 -0.154297,0.02 l -0.128906,0 0,0.1465 0.998047,0 0,-0.1465 -0.06445,0 c -0.06917,0 -0.119792,-0.011 -0.152344,-0.033 -0.03255,-0.022 -0.06323,-0.071 -0.09375,-0.1465 l -0.808594,-2.0293 -0.126953,0 z m -2.263672,0.049 0,0.1484 0.06055,0 c 0.0651,0 0.117595,0 0.15625,0 0.03662,0 0.06559,0.011 0.08594,0.022 0.02035,0.01 0.03296,0.025 0.03906,0.043 0.0061,0.02 0.0098,0.047 0.0098,0.082 l 0,1.7109 c 0,0.033 -0.0037,0.058 -0.0098,0.076 -0.0061,0.02 -0.01872,0.037 -0.03906,0.047 -0.02034,0.012 -0.04932,0.019 -0.08594,0.021 -0.03866,0 -0.09115,0.01 -0.15625,0.01 l -0.06055,0 0,0.1465 1.056641,0 0,-0.1465 -0.06445,0 c -0.06307,0 -0.113688,0 -0.152344,-0.01 -0.03866,0 -0.06763,-0.01 -0.08594,-0.021 -0.02035,-0.01 -0.03296,-0.027 -0.03906,-0.047 -0.0061,-0.018 -0.0098,-0.044 -0.0098,-0.076 l 0,-1.7109 c 0,-0.035 0.0037,-0.062 0.0098,-0.082 0.0061,-0.018 0.01872,-0.033 0.03906,-0.043 0.01831,-0.01 0.04728,-0.017 0.08594,-0.022 0.03866,0 0.08927,0 0.152344,0 l 0.06445,0 0,-0.1484 -1.056641,0 z"
       style="font-style:normal;font-variant:normal;font-weight:normal;font-stretch:normal;font-size:3.125px;font-family:'Tibetan Machine Uni';-inkscape-font-specification:'Tibetan Machine Uni';opacity:1;fill:#000000;fill-opacity:0.32631579;stroke:#000000;stroke-width:0.15800001;stroke-miterlimit:4;stroke-dasharray:none;stroke-opacity:0.62745098"
       inkscape:connector-curvature="0" />
    <path
       style="font-style:normal;font-variant:normal;font-weight:normal;font-stretch:normal;font-size:3.125px;font-family:'Tibetan Machine Uni';-inkscape-font-specification:'Tibetan Machine Uni';opacity:1;fill:#ffffff;fill-opacity:1;stroke:#ffffff;stroke-width:0.15800001;stroke-miterlimit:4;stroke-dasharray:none;stroke-opacity:1"
       d="m 57.572314,954.54509 0,0.1465 0.05078,0 c 0.03539,0 0.06563,0 0.08984,0.01 0.02422,0 0.04378,0.01 0.06055,0.016 0.01863,0.01 0.03579,0.021 0.04883,0.037 0.0149,0.016 0.03011,0.038 0.04687,0.064 l 0.576172,0.9141 -0.474609,0.7285 c -0.05775,0.09 -0.118214,0.1545 -0.179688,0.1953 -0.06147,0.039 -0.128606,0.059 -0.20312,0.059 l -0.01172,0 0,0.1465 0.830078,0 0,-0.1465 -0.07227,0 c -0.05961,0 -0.107094,-0.013 -0.140625,-0.039 -0.03353,-0.029 -0.05078,-0.068 -0.05078,-0.1172 0,-0.045 0.01716,-0.09 0.04883,-0.1367 l 0.333984,-0.5429 0.439453,0.6777 c 0.02422,0.035 0.03516,0.067 0.03516,0.1 0,0.012 -1.81e-4,0.023 -0.0039,0.031 -0.0019,0.01 -0.0104,0.015 -0.02344,0.02 -0.01304,0 -0.03251,0 -0.05859,0.01 -0.02608,0 -0.0628,0 -0.109375,0 l -0.08008,0 0,0.1465 0.960938,0 0,-0.1465 -0.03711,0 c -0.04657,0 -0.08338,10e-5 -0.111328,0 -0.02794,0 -0.05177,-0.011 -0.07227,-0.021 -0.02049,-0.01 -0.03997,-0.026 -0.05859,-0.049 -0.01863,-0.022 -0.04024,-0.055 -0.06445,-0.096 l -0.611336,-0.9668 0.388671,-0.582 c 0.04098,-0.061 0.07575,-0.1116 0.107422,-0.1504 0.03167,-0.039 0.06395,-0.069 0.09375,-0.092 0.02981,-0.022 0.06013,-0.037 0.0918,-0.045 0.03167,-0.01 0.06635,-0.016 0.105469,-0.016 l 0.04687,0 0,-0.1465 -0.804688,0 0,0.1465 0.04297,0 c 0.07079,0 0.120585,0.011 0.150391,0.031 0.03167,0.02 0.04687,0.051 0.04687,0.094 0,0.018 -0.0022,0.034 -0.0078,0.049 -0.0037,0.014 -0.01448,0.036 -0.03125,0.062 l -0.31446,0.5039 -0.388672,-0.6172 c -0.02235,-0.035 -0.0332,-0.062 -0.0332,-0.08 0,-0.016 0.0087,-0.027 0.02734,-0.033 0.01863,-0.01 0.05544,-0.01 0.111328,-0.01 l 0.115234,0 0,-0.1465 -0.90625,0 z m 2.191407,0 0,0.1465 0.05859,0 c 0.05775,0 0.105231,0 0.140625,0.01 0.03539,0 0.06136,0.01 0.07813,0.022 0.01863,0.01 0.02957,0.026 0.03516,0.047 0.0056,0.018 0.0098,0.043 0.0098,0.076 l 0,1.7168 c 0,0.035 -0.0042,0.062 -0.0098,0.082 -0.0056,0.018 -0.01653,0.033 -0.03516,0.043 -0.01676,0.01 -0.04273,0.017 -0.07813,0.021 -0.03539,0 -0.08288,0 -0.140625,0 l -0.05859,0 0,0.1484 0.966797,0 0,-0.1484 -0.05664,0 c -0.05961,0 -0.107184,0 -0.142578,0 -0.03353,0 -0.0595,-0.011 -0.07813,-0.021 -0.01863,-0.01 -0.02957,-0.025 -0.03516,-0.043 -0.0056,-0.02 -0.0078,-0.047 -0.0078,-0.082 l 0,-1.7168 c 0,-0.033 0.0022,-0.058 0.0078,-0.076 0.0056,-0.02 0.01653,-0.037 0.03516,-0.047 0.01863,-0.012 0.04459,-0.019 0.07813,-0.022 0.03539,0 0.08297,-0.01 0.142578,-0.01 l 0.05664,0 0,-0.1465 -0.966797,0 z m 1.191406,0 0,0.1465 0.05859,0 c 0.05775,0 0.103277,0 0.138671,0.01 0.03539,0 0.06136,0.01 0.07813,0.022 0.01863,0.01 0.03152,0.026 0.03711,0.047 0.0056,0.018 0.0078,0.043 0.0078,0.076 l 0,1.7168 c 0,0.035 -0.0022,0.062 -0.0078,0.082 -0.0056,0.018 -0.01848,0.033 -0.03711,0.043 -0.01677,0.01 -0.04273,0.017 -0.07813,0.021 -0.03539,0 -0.08092,0 -0.138671,0 l -0.05859,0 0,0.1484 0.966797,0 0,-0.1484 -0.05664,0 c -0.05961,0 -0.107184,0 -0.142578,0 -0.03353,0 -0.0595,-0.011 -0.07813,-0.021 -0.01863,-0.01 -0.03152,-0.025 -0.03711,-0.043 -0.0056,-0.02 -0.0078,-0.047 -0.0078,-0.082 l 0,-1.7168 c 0,-0.033 0.0022,-0.058 0.0078,-0.076 0.0056,-0.02 0.01848,-0.037 0.03711,-0.047 0.01863,-0.012 0.04459,-0.019 0.07813,-0.022 0.03539,0 0.08297,-0.01 0.142578,-0.01 l 0.05664,0 0,-0.1465 -0.966797,0 z m -8.181641,1.4101 -0.914062,0.5274 0.07226,0.1269 0.05664,-0.031 c 0.05462,-0.032 0.09925,-0.057 0.134766,-0.072 0.03449,-0.018 0.06202,-0.025 0.08398,-0.023 0.02271,0 0.04118,0 0.05664,0.019 0.01444,0.013 0.0306,0.032 0.04687,0.061 l 0.855468,1.4843 c 0.01729,0.03 0.02832,0.054 0.0332,0.074 0.0039,0.019 8.14e-4,0.04 -0.01172,0.059 -0.01077,0.018 -0.03301,0.038 -0.06445,0.061 -0.03246,0.021 -0.07624,0.047 -0.13086,0.078 l -0.05469,0.033 0.07422,0.1289 0.914062,-0.5273 -0.07422,-0.1309 -0.05273,0.031 c -0.05638,0.032 -0.102225,0.057 -0.136719,0.074 -0.03375,0.015 -0.06128,0.024 -0.08398,0.025 -0.02271,0 -0.0422,0 -0.05664,-0.018 -0.01546,-0.015 -0.03154,-0.036 -0.04883,-0.066 l -0.855455,-1.4824 c -0.01628,-0.028 -0.02543,-0.051 -0.0293,-0.07 -0.0049,-0.021 -0.0028,-0.042 0.0098,-0.061 0.01152,-0.021 0.03376,-0.041 0.06445,-0.061 0.03144,-0.023 0.07448,-0.051 0.13086,-0.084 l 0.05273,-0.029 -0.07227,-0.127 z m 14.984375,0.5977 -0.07422,0.127 0.05664,0.031 c 0.05462,0.031 0.09746,0.059 0.128906,0.082 0.03246,0.021 0.05275,0.041 0.0625,0.061 0.01253,0.019 0.01661,0.04 0.01172,0.06 -0.0039,0.019 -0.01497,0.042 -0.03125,0.07 l -0.855469,1.4825 c -0.01729,0.03 -0.03337,0.052 -0.04883,0.066 -0.01444,0.013 -0.03393,0.019 -0.05664,0.018 -0.02094,-3e-4 -0.04847,-0.01 -0.08398,-0.023 -0.03449,-0.018 -0.07819,-0.043 -0.132812,-0.074 l -0.05664,-0.031 -0.07422,0.1289 0.914063,0.5274 0.07422,-0.1289 -0.05273,-0.031 c -0.05638,-0.033 -0.100353,-0.059 -0.132812,-0.08 -0.02968,-0.022 -0.04997,-0.042 -0.0625,-0.061 -0.01253,-0.019 -0.01754,-0.038 -0.01367,-0.057 0.0049,-0.021 0.01591,-0.046 0.0332,-0.076 l 0.855469,-1.4824 c 0.01628,-0.028 0.03243,-0.05 0.04687,-0.062 0.01546,-0.015 0.03393,-0.021 0.05664,-0.02 0.02372,-4e-4 0.05321,0.01 0.08594,0.024 0.03551,0.016 0.08034,0.042 0.136719,0.074 l 0.05273,0.029 0.07422,-0.127 -0.914063,-0.5273 z m -16.085937,0.037 -0.761719,0.4395 0.07227,0.1269 0.04101,-0.022 c 0.06695,-0.039 0.11984,-0.058 0.158203,-0.057 0.04013,3e-4 0.07044,0.02 0.0918,0.057 0.0092,0.016 0.01379,0.032 0.01563,0.047 0.0036,0.014 0.0046,0.036 0.002,0.068 l -0.04687,0.6093 -0.675781,-0.3222 c -0.03844,-0.018 -0.06311,-0.035 -0.07227,-0.051 -0.0081,-0.014 -0.0048,-0.028 0.0098,-0.043 0.01457,-0.015 0.0487,-0.04 0.101563,-0.07 l 0.109375,-0.062 -0.07422,-0.1269 -0.855469,0.4961 0.07227,0.125 0.04883,-0.027 c 0.03348,-0.019 0.061,-0.033 0.08594,-0.043 0.02392,-0.011 0.04648,-0.017 0.06641,-0.019 0.02169,0 0.04398,0 0.06445,0.01 0.02223,0.01 0.04709,0.016 0.07617,0.029 l 1,0.4746 -0.08594,0.8886 c -0.0099,0.1091 -0.03251,0.1988 -0.07031,0.2676 -0.03882,0.067 -0.09359,0.1214 -0.164063,0.1621 l -0.01172,0.01 0.07422,0.127 0.785156,-0.4531 -0.07422,-0.127 -0.06836,0.039 c -0.05638,0.032 -0.107404,0.048 -0.152344,0.043 -0.04596,-0.01 -0.08105,-0.032 -0.105468,-0.074 -0.02238,-0.039 -0.02999,-0.087 -0.02344,-0.1445 l 0.04687,-0.6504 0.751953,0.3437 c 0.0402,0.017 0.06771,0.04 0.08399,0.068 0.0061,0.011 0.01117,0.02 0.01172,0.029 0.0023,0.01 -0.0034,0.017 -0.01367,0.027 -0.01132,0.01 -0.02713,0.021 -0.05078,0.037 -0.02365,0.016 -0.05751,0.037 -0.101562,0.062 l -0.07813,0.045 0.07422,0.1269 0.908203,-0.5254 -0.07227,-0.1269 -0.03516,0.019 c -0.04405,0.025 -0.07998,0.045 -0.107422,0.059 -0.02846,0.012 -0.05366,0.019 -0.07813,0.021 -0.02447,0 -0.05127,-6e-4 -0.08008,-0.01 -0.02881,-0.01 -0.06612,-0.025 -0.109375,-0.047 l -1.060624,-0.5019 0.07813,-0.7149 c 0.0082,-0.075 0.01672,-0.1367 0.02734,-0.1875 0.01063,-0.051 0.02597,-0.095 0.04297,-0.1308 0.017,-0.036 0.03857,-0.066 0.06445,-0.09 0.02487,-0.026 0.0548,-0.049 0.0918,-0.07 l 0.04492,-0.027 -0.07226,-0.127 z m 22.152344,5.4043 -0.126954,0.074 0.03125,0.055 c 0.03153,0.055 0.05646,0.1012 0.07227,0.1367 0.01757,0.035 0.02485,0.062 0.02344,0.084 0.0014,0.023 -0.005,0.041 -0.01953,0.057 -0.01281,0.014 -0.03431,0.031 -0.0625,0.047 l -1.482422,0.8555 c -0.02995,0.017 -0.0555,0.028 -0.07617,0.033 -0.01891,0 -0.03766,0 -0.05664,-0.014 -0.01796,-0.011 -0.03769,-0.031 -0.06055,-0.062 -0.02109,-0.032 -0.04854,-0.076 -0.08008,-0.1308 l -0.03125,-0.055 -0.128906,0.074 0.527343,0.9141 0.128907,-0.074 -0.0293,-0.053 c -0.03255,-0.056 -0.05861,-0.1022 -0.07617,-0.1367 -0.01479,-0.034 -0.02208,-0.061 -0.02344,-0.084 -0.0014,-0.023 0.0048,-0.042 0.01758,-0.057 0.01457,-0.015 0.03645,-0.032 0.06641,-0.049 l 1.482422,-0.8554 c 0.02819,-0.016 0.0514,-0.027 0.07031,-0.031 0.02067,0 0.04156,-8e-4 0.06055,0.012 0.02074,0.012 0.04047,0.034 0.06055,0.065 0.02285,0.031 0.04948,0.074 0.08203,0.1308 l 0.03125,0.053 0.126953,-0.072 -0.527343,-0.916 z m -28.1875,0.1094 -0.439453,0.7617 0.126953,0.074 0.02344,-0.041 c 0.03866,-0.067 0.07353,-0.1089 0.107422,-0.127 0.03491,-0.02 0.07237,-0.019 0.109375,0 0.01586,0.01 0.02783,0.021 0.03711,0.033 0.0103,0.011 0.02141,0.03 0.03516,0.059 l 0.263671,0.5508 -0.746093,0.059 c -0.04216,0 -0.07008,0 -0.08594,-0.01 -0.01409,-0.01 -0.01856,-0.022 -0.01367,-0.043 0.0049,-0.021 0.02222,-0.057 0.05273,-0.1093 l 0.0625,-0.1094 -0.126953,-0.072 -0.494141,0.8555 0.126953,0.074 0.02734,-0.049 c 0.01933,-0.034 0.03794,-0.059 0.05469,-0.08 0.01499,-0.022 0.03067,-0.039 0.04687,-0.051 0.01722,-0.014 0.03542,-0.023 0.05664,-0.027 0.02223,-0.01 0.04997,-0.011 0.08203,-0.014 l 1.103516,-0.088 0.371093,0.8125 c 0.04599,0.099 0.06864,0.1891 0.07031,0.2676 -9.2e-5,0.077 -0.01986,0.1522 -0.06055,0.2226 l -0.0059,0.01 0.126954,0.072 0.453124,-0.7832 -0.126953,-0.074 -0.04102,0.068 c -0.03255,0.056 -0.06816,0.095 -0.109375,0.1132 -0.04298,0.018 -0.08662,0.013 -0.128905,-0.012 -0.03876,-0.022 -0.06857,-0.06 -0.0918,-0.1133 l -0.285157,-0.5859 0.824219,-0.078 c 0.04318,-0.01 0.07728,-7e-4 0.105468,0.016 0.01057,0.01 0.01842,0.014 0.02344,0.022 0.006,0.01 0.0075,0.015 0.0039,0.029 -0.0054,0.013 -0.01291,0.033 -0.02539,0.059 -0.01248,0.026 -0.03121,0.061 -0.05664,0.1054 l -0.04492,0.076 0.126953,0.072 0.525391,-0.9082 -0.126953,-0.074 -0.02149,0.035 c -0.02543,0.044 -0.04548,0.078 -0.0625,0.1035 -0.01878,0.024 -0.03859,0.044 -0.05859,0.059 -0.02,0.014 -0.04466,0.025 -0.07422,0.031 -0.02955,0.01 -0.06873,0.011 -0.117188,0.014 l -1.169921,0.096 -0.289063,-0.6562 c -0.03048,-0.069 -0.05413,-0.1285 -0.07031,-0.1777 -0.01618,-0.049 -0.02619,-0.093 -0.0293,-0.1329 -0.0031,-0.039 0.0015,-0.077 0.01172,-0.1113 0.0085,-0.035 0.02356,-0.07 0.04492,-0.1074 l 0.02539,-0.045 -0.126953,-0.074 z m 28.83789,1.0176 -0.126953,0.072 0.03125,0.057 c 0.03153,0.055 0.05451,0.099 0.07031,0.1347 0.01757,0.035 0.02681,0.062 0.02539,0.084 0.0014,0.023 -0.005,0.043 -0.01953,0.059 -0.01281,0.014 -0.03431,0.029 -0.0625,0.045 l -1.482422,0.8555 c -0.02995,0.017 -0.0555,0.03 -0.07617,0.035 -0.01891,0 -0.03766,0 -0.05664,-0.014 -0.01796,-0.011 -0.03769,-0.033 -0.06055,-0.065 -0.02109,-0.032 -0.04854,-0.074 -0.08008,-0.1289 l -0.03125,-0.057 -0.128907,0.074 0.527344,0.916 0.128906,-0.076 -0.0293,-0.053 c -0.03255,-0.056 -0.05861,-0.1002 -0.07617,-0.1347 -0.01479,-0.034 -0.02207,-0.063 -0.02344,-0.086 -0.0014,-0.023 0.0028,-0.04 0.01563,-0.055 0.01457,-0.015 0.03841,-0.034 0.06836,-0.051 l 1.482422,-0.8554 c 0.02819,-0.016 0.0514,-0.026 0.07031,-0.029 0.02067,0 0.03961,-8e-4 0.05859,0.012 0.02074,0.011 0.04243,0.032 0.0625,0.062 0.02285,0.031 0.04948,0.074 0.08203,0.1309 l 0.03125,0.055 0.126953,-0.074 -0.527344,-0.914 z m -0.09961,6.5332 0,1.0566 0.148437,0 0,-0.062 c 0,-0.065 0.0019,-0.1156 0.0039,-0.1543 0.0041,-0.037 0.01131,-0.066 0.02148,-0.086 0.01017,-0.02 0.02466,-0.033 0.04297,-0.039 0.02034,-0.01 0.04744,-0.01 0.08203,-0.01 l 1.710937,0 c 0.03255,0 0.05786,0 0.07617,0.01 0.02034,0.01 0.0367,0.019 0.04687,0.039 0.01221,0.02 0.01945,0.049 0.02148,0.086 0.0041,0.039 0.0059,0.089 0.0059,0.1543 l 0,0.062 0.146484,0 0,-1.0566 -0.146484,0 0,0.064 c 0,0.063 -0.0018,0.1137 -0.0059,0.1524 -0.002,0.039 -0.0093,0.068 -0.02148,0.086 -0.01017,0.02 -0.02653,0.033 -0.04687,0.039 -0.01831,0.01 -0.04362,0.01 -0.07617,0.01 l -1.710937,0 c -0.03459,0 -0.06169,0 -0.08203,-0.01 -0.01831,-0.01 -0.0328,-0.019 -0.04297,-0.039 -0.01017,-0.018 -0.01741,-0.047 -0.02148,-0.086 -0.002,-0.039 -0.0039,-0.089 -0.0039,-0.1524 l 0,-0.064 -0.148437,0 z m -29.402344,0.094 0,0.041 c 0,0.051 8.2e-5,0.091 -0.002,0.1211 -0.0041,0.03 -0.01131,0.058 -0.02148,0.08 -0.01017,0.022 -0.02645,0.044 -0.04883,0.064 -0.02238,0.02 -0.05501,0.044 -0.0957,0.07 l -0.962893,0.6679 -0.580078,-0.4238 c -0.06103,-0.045 -0.111735,-0.085 -0.150391,-0.1191 -0.03866,-0.035 -0.06942,-0.069 -0.0918,-0.1016 -0.02238,-0.033 -0.03678,-0.065 -0.04492,-0.1 -0.01017,-0.035 -0.01563,-0.074 -0.01563,-0.1172 l 0,-0.051 -0.146484,0 0,0.8789 0.146484,0 0,-0.047 c 0,-0.077 0.01091,-0.1316 0.03125,-0.1641 0.02034,-0.035 0.05103,-0.053 0.09375,-0.053 0.01831,0 0.03459,0 0.04883,0.01 0.01424,0 0.0341,0.015 0.06055,0.033 l 0.503907,0.3456 -0.615235,0.4239 c -0.03459,0.024 -0.06177,0.037 -0.08008,0.037 -0.01628,0 -0.0271,-0.011 -0.0332,-0.031 -0.0061,-0.02 -0.0098,-0.062 -0.0098,-0.123 l 0,-0.125 -0.146484,0 0,0.9902 0.146484,0 0,-0.055 c 0,-0.039 0.0018,-0.071 0.0059,-0.098 0.002,-0.026 0.0075,-0.05 0.01563,-0.068 0.0081,-0.02 0.02083,-0.036 0.03711,-0.051 0.01628,-0.016 0.038,-0.034 0.06445,-0.053 l 0.91211,-0.6289 0.726562,0.5195 c 0.08952,0.063 0.154622,0.1282 0.195313,0.1953 0.03866,0.067 0.05664,0.1413 0.05664,0.2227 l 0,0.012 0.146484,0 0,-0.9063 -0.146484,0 0,0.08 c 0,0.065 -0.01261,0.1158 -0.03906,0.1524 -0.02848,0.037 -0.06641,0.055 -0.115235,0.055 -0.04476,0 -0.09188,-0.018 -0.138672,-0.053 l -0.539058,-0.3652 0.673828,-0.4785 c 0.03459,-0.026 0.06901,-0.041 0.101563,-0.041 0.01221,0 0.02116,0 0.0293,0.01 0.0081,0 0.01546,0.011 0.01953,0.025 0.002,0.014 0.0038,0.036 0.0059,0.064 0.002,0.029 0.002,0.068 0.002,0.1191 l 0,0.088 0.146484,0 0,-1.0508 -0.146484,0 z m 29.402344,1.207 0,1.0547 0.148437,0 0,-0.061 c 0,-0.065 0.0019,-0.1176 0.0039,-0.1563 0.0041,-0.037 0.01131,-0.064 0.02148,-0.084 0.01017,-0.02 0.02466,-0.035 0.04297,-0.041 0.02034,-0.01 0.04744,-0.01 0.08203,-0.01 l 1.710937,0 c 0.03255,0 0.05786,0 0.07617,0.01 0.02034,0.01 0.0367,0.021 0.04687,0.041 0.01221,0.02 0.01945,0.047 0.02148,0.084 0.0041,0.039 0.0059,0.091 0.0059,0.1563 l 0,0.061 0.146484,0 0,-1.0547 -0.146484,0 0,0.062 c 0,0.063 -0.0018,0.1157 -0.0059,0.1543 -0.002,0.039 -0.0093,0.066 -0.02148,0.084 -0.01017,0.02 -0.02653,0.035 -0.04687,0.041 -0.01831,0.01 -0.04362,0.01 -0.07617,0.01 l -1.710937,0 c -0.03459,0 -0.06169,0 -0.08203,-0.01 -0.01831,-0.01 -0.0328,-0.021 -0.04297,-0.041 -0.01017,-0.018 -0.01741,-0.045 -0.02148,-0.084 -0.002,-0.039 -0.0039,-0.091 -0.0039,-0.1543 l 0,-0.062 -0.148437,0 z m -31.5625,1.2051 0,1.0547 0.146484,0 0,-0.062 c 0,-0.063 0.0018,-0.1156 0.0059,-0.1543 0.002,-0.039 0.0093,-0.066 0.02148,-0.084 0.01017,-0.02 0.02653,-0.035 0.04687,-0.041 0.01831,-0.01 0.04362,-0.01 0.07617,-0.01 l 1.710938,0 c 0.03459,0 0.06169,0 0.08203,0.01 0.01831,0.01 0.0328,0.021 0.04297,0.041 0.01017,0.018 0.01741,0.045 0.02148,0.084 0.002,0.039 0.0039,0.091 0.0039,0.1543 l 0,0.062 0.148437,0 0,-1.0547 -0.148437,0 0,0.061 c 0,0.065 -0.0019,0.1176 -0.0039,0.1562 -0.0041,0.037 -0.01131,0.064 -0.02148,0.084 -0.01017,0.02 -0.02466,0.035 -0.04297,0.041 -0.02034,0.01 -0.04744,0.01 -0.08203,0.01 l -1.710938,0 c -0.03255,0 -0.05786,0 -0.07617,-0.01 -0.02034,-0.01 -0.0367,-0.021 -0.04687,-0.041 -0.01221,-0.02 -0.01945,-0.047 -0.02148,-0.084 -0.0041,-0.039 -0.0059,-0.091 -0.0059,-0.1562 l 0,-0.061 -0.146484,0 z m 31.5625,0.094 0,1.0566 0.148437,0 0,-0.061 c 0,-0.065 0.0019,-0.1176 0.0039,-0.1563 0.0041,-0.037 0.01131,-0.066 0.02148,-0.086 0.01017,-0.02 0.02466,-0.033 0.04297,-0.039 0.02034,-0.01 0.04744,-0.01 0.08203,-0.01 l 1.710937,0 c 0.03255,0 0.05786,0 0.07617,0.01 0.02034,0.01 0.0367,0.019 0.04687,0.039 0.01221,0.02 0.01945,0.049 0.02148,0.086 0.0041,0.039 0.0059,0.091 0.0059,0.1563 l 0,0.061 0.146484,0 0,-1.0566 -0.146484,0 0,0.064 c 0,0.063 -0.0018,0.1137 -0.0059,0.1524 -0.002,0.039 -0.0093,0.068 -0.02148,0.086 -0.01017,0.02 -0.02653,0.033 -0.04687,0.039 -0.01831,0.01 -0.04362,0.01 -0.07617,0.01 l -1.710937,0 c -0.03459,0 -0.06169,0 -0.08203,-0.01 -0.01831,-0.01 -0.0328,-0.019 -0.04297,-0.039 -0.01017,-0.018 -0.01741,-0.047 -0.02148,-0.086 -0.002,-0.039 -0.0039,-0.089 -0.0039,-0.1524 l 0,-0.064 -0.148437,0 z m -28.638672,4.2539 -0.130859,0.076 0.02734,0.045 c 0.02827,0.049 0.04944,0.089 0.06445,0.1191 0.01236,0.03 0.01955,0.054 0.01953,0.074 -1.5e-5,0.02 -0.0082,0.039 -0.02148,0.053 -0.01505,0.015 -0.03632,0.03 -0.06641,0.047 l -1.490235,0.8594 c -0.02832,0.016 -0.05174,0.029 -0.07031,0.033 -0.02035,0.01 -0.03896,0 -0.05664,-0.01 -0.01945,-0.01 -0.03702,-0.026 -0.05469,-0.053 -0.02032,-0.027 -0.04595,-0.066 -0.07422,-0.1153 l -0.02539,-0.045 -0.128906,0.072 0.458984,0.7949 0.126954,-0.074 -0.02734,-0.047 c -0.02738,-0.047 -0.0473,-0.088 -0.06055,-0.1191 -0.01501,-0.03 -0.0222,-0.054 -0.01953,-0.074 1.4e-5,-0.02 0.0084,-0.038 0.02344,-0.053 0.01328,-0.014 0.03418,-0.028 0.0625,-0.045 l 1.488281,-0.8594 c 0.03009,-0.017 0.05582,-0.029 0.07617,-0.035 0.01858,0 0.03701,0 0.05469,0.01 0.0168,0.01 0.03632,0.028 0.05664,0.055 0.01855,0.028 0.04098,0.066 0.06836,0.1133 l 0.02734,0.047 0.130859,-0.074 -0.458984,-0.7949 z m 27.578125,0.7793 -0.529297,0.914 0.130859,0.076 0.0293,-0.055 c 0.03255,-0.056 0.06094,-0.1003 0.08203,-0.1328 0.02183,-0.03 0.04156,-0.05 0.06055,-0.062 0.01898,-0.013 0.03773,-0.017 0.05664,-0.014 0.02067,0 0.04622,0.016 0.07617,0.033 l 1.482422,0.8555 c 0.02819,0.016 0.04774,0.032 0.06055,0.047 0.01457,0.015 0.02285,0.034 0.02148,0.057 3.99e-4,0.024 -0.0088,0.053 -0.02539,0.086 -0.0158,0.036 -0.03971,0.08 -0.07227,0.1368 l -0.03125,0.053 0.126953,0.074 0.529297,-0.914 -0.126953,-0.074 -0.0332,0.057 c -0.03153,0.055 -0.05723,0.097 -0.08008,0.1289 -0.02109,0.032 -0.04277,0.053 -0.0625,0.062 -0.01898,0.013 -0.03792,0.017 -0.05859,0.012 -0.01891,0 -0.04212,-0.015 -0.07031,-0.031 l -1.482422,-0.8555 c -0.02995,-0.017 -0.05379,-0.033 -0.06836,-0.049 -0.01281,-0.014 -0.01699,-0.032 -0.01563,-0.055 3.45e-4,-0.021 0.0076,-0.051 0.02344,-0.086 0.01757,-0.034 0.04268,-0.078 0.07422,-0.1328 l 0.03125,-0.057 -0.128906,-0.074 z m -27.013672,0.1992 -0.130859,0.074 0.02734,0.047 c 0.02827,0.049 0.04944,0.087 0.06445,0.1172 0.01236,0.03 0.01955,0.056 0.01953,0.076 -1.5e-5,0.02 -0.0082,0.037 -0.02148,0.051 -0.01505,0.015 -0.03632,0.032 -0.06641,0.049 l -1.490235,0.8594 c -0.02832,0.016 -0.05174,0.027 -0.07031,0.031 -0.02035,0.01 -0.03896,0 -0.05664,-0.01 -0.01945,-0.01 -0.03702,-0.028 -0.05469,-0.055 -0.02032,-0.027 -0.04595,-0.064 -0.07422,-0.1133 l -0.02539,-0.047 -0.128906,0.074 0.458985,0.7949 0.126953,-0.074 -0.02734,-0.049 c -0.02739,-0.047 -0.0473,-0.086 -0.06055,-0.1172 -0.01501,-0.03 -0.0222,-0.054 -0.01953,-0.074 1.5e-5,-0.02 0.0084,-0.04 0.02344,-0.055 0.01328,-0.014 0.03418,-0.029 0.0625,-0.045 l 1.488281,-0.8594 c 0.03009,-0.017 0.05582,-0.029 0.07617,-0.035 0.01858,0 0.03701,-5e-4 0.05469,0.01 0.0168,0.01 0.03632,0.026 0.05664,0.053 0.01855,0.028 0.04097,0.066 0.06836,0.1133 l 0.02734,0.049 0.130859,-0.076 -0.458984,-0.7929 z m 0.564453,0.9766 -0.130859,0.076 0.02734,0.045 c 0.02827,0.049 0.04944,0.089 0.06445,0.1192 0.01236,0.03 0.01955,0.054 0.01953,0.074 -1.5e-5,0.02 -0.0082,0.039 -0.02148,0.053 -0.01505,0.015 -0.03632,0.03 -0.06641,0.047 l -1.490234,0.8613 c -0.02832,0.016 -0.05174,0.027 -0.07031,0.031 -0.02035,0.01 -0.03896,0 -0.05664,-0.01 -0.01945,-0.01 -0.03702,-0.026 -0.05469,-0.053 -0.02032,-0.027 -0.04595,-0.066 -0.07422,-0.1153 l -0.02539,-0.045 -0.128906,0.074 0.458984,0.793 0.126953,-0.072 -0.02734,-0.049 c -0.02739,-0.047 -0.0473,-0.086 -0.06055,-0.1172 -0.01501,-0.03 -0.0222,-0.056 -0.01953,-0.076 1.5e-5,-0.02 0.0084,-0.038 0.02344,-0.053 0.01328,-0.014 0.03418,-0.029 0.0625,-0.045 l 1.488281,-0.8594 c 0.03009,-0.017 0.05582,-0.03 0.07617,-0.035 0.01858,0 0.03701,0 0.05469,0.01 0.0168,0.01 0.03632,0.028 0.05664,0.055 0.01855,0.028 0.04097,0.066 0.06836,0.1133 l 0.02734,0.047 0.13086,-0.074 -0.458985,-0.795 z m 25.269531,0.7695 -0.0625,0.1074 1.275391,1.582 c 0.04241,0.053 0.07556,0.099 0.09961,0.1387 0.02405,0.04 0.03876,0.077 0.04492,0.1113 0.0079,0.035 0.0073,0.067 -0.002,0.1 -0.0075,0.033 -0.02348,0.071 -0.04687,0.1114 l -0.01367,0.027 0.126953,0.072 0.431641,-0.7481 -0.126953,-0.072 -0.0293,0.049 c -0.04171,0.072 -0.08791,0.121 -0.136719,0.1445 -0.04705,0.025 -0.09286,0.023 -0.138672,0 -0.01938,-0.011 -0.04033,-0.027 -0.06445,-0.051 -0.02412,-0.023 -0.04702,-0.046 -0.06836,-0.07 l -0.898438,-1.0898 1.582032,0.2402 c 0.01993,0 0.03968,0 0.05859,0.01 0.01789,0.01 0.03025,0.013 0.03906,0.018 0.02467,0.014 0.03594,0.038 0.03125,0.07 -0.0057,0.034 -0.0269,0.081 -0.0625,0.1426 l -0.06445,0.1113 0.126953,0.074 0.498047,-0.8652 -0.126953,-0.072 -0.03125,0.055 c -0.03459,0.06 -0.06981,0.098 -0.105469,0.1153 -0.03566,0.017 -0.09338,0.021 -0.173828,0.01 l -2.16211,-0.3145 z m -24.24414,0.9101 -1.966797,0.4004 c -0.06546,0.013 -0.120904,0.022 -0.166016,0.025 -0.04511,0 -0.08233,9e-4 -0.113281,-0.01 -0.03272,-0.01 -0.06082,-0.021 -0.08203,-0.041 -0.02298,-0.019 -0.04414,-0.047 -0.06445,-0.082 l -0.01367,-0.024 -0.126953,0.074 0.375,0.6484 0.126953,-0.074 -0.02344,-0.043 c -0.03622,-0.063 -0.05203,-0.119 -0.04492,-0.168 0.0053,-0.048 0.03211,-0.085 0.07813,-0.1113 0.01947,-0.011 0.04432,-0.021 0.07617,-0.031 0.03185,-0.01 0.06279,-0.02 0.09375,-0.027 l 1.365235,-0.293 -1.042969,1.1875 c -0.01239,0.015 -0.02578,0.029 -0.03906,0.043 -0.01416,0.012 -0.02435,0.022 -0.0332,0.027 -0.02478,0.014 -0.05035,0.013 -0.07422,0 -0.02475,-0.018 -0.05111,-0.056 -0.08203,-0.1094 l -0.05664,-0.096 -0.126953,0.074 0.433593,0.75 0.126954,-0.074 -0.02734,-0.047 c -0.03004,-0.052 -0.04244,-0.097 -0.03711,-0.1328 0.0053,-0.036 0.03371,-0.084 0.08594,-0.1445 l 1.414062,-1.627 -0.05469,-0.094 z m 2.666015,2.9473 -0.07422,0.1309 0.04687,0.027 c 0.05051,0.029 0.09017,0.053 0.11914,0.072 0.02637,0.02 0.04596,0.039 0.05664,0.057 0.01068,0.018 0.01422,0.036 0.0098,0.055 -0.0055,0.02 -0.0178,0.046 -0.03516,0.076 l -0.859375,1.4883 c -0.01633,0.028 -0.031,0.049 -0.04492,0.062 -0.01494,0.015 -0.0338,0.022 -0.05469,0.021 -0.02191,0 -0.04674,0 -0.07617,-0.019 -0.03203,-0.014 -0.07254,-0.035 -0.123047,-0.064 l -0.04883,-0.027 -0.07227,0.127 0.81836,0.4726 0.07422,-0.1269 -0.05078,-0.029 c -0.04893,-0.028 -0.08729,-0.053 -0.115234,-0.074 -0.02897,-0.019 -0.04661,-0.038 -0.05469,-0.057 -0.01068,-0.018 -0.01328,-0.036 -0.0078,-0.057 0.0045,-0.019 0.01492,-0.042 0.03125,-0.07 l 0.859375,-1.4883 c 0.01735,-0.03 0.03193,-0.052 0.04687,-0.066 0.01392,-0.013 0.03185,-0.02 0.05273,-0.02 0.01931,-6e-4 0.04609,0.01 0.07813,0.02 0.03101,0.015 0.07021,0.036 0.119141,0.064 l 0.04883,0.029 0.07617,-0.1289 -0.820313,-0.4746 z m 1.009766,0.582 -0.07617,0.1309 0.04883,0.027 c 0.05051,0.029 0.09017,0.053 0.119141,0.072 0.02637,0.02 0.04401,0.039 0.05469,0.057 0.01068,0.018 0.01422,0.036 0.0098,0.055 -0.0055,0.02 -0.0178,0.046 -0.03516,0.076 l -0.857422,1.4883 c -0.01633,0.028 -0.03295,0.049 -0.04687,0.062 -0.01494,0.015 -0.03185,0.022 -0.05273,0.022 -0.02191,0 -0.04869,0 -0.07813,-0.02 -0.03203,-0.014 -0.07254,-0.035 -0.123046,-0.064 l -0.04687,-0.027 -0.07422,0.127 0.820312,0.4727 0.07227,-0.127 -0.04883,-0.029 c -0.04893,-0.028 -0.08729,-0.051 -0.115234,-0.072 -0.02897,-0.019 -0.04856,-0.038 -0.05664,-0.057 -0.01068,-0.018 -0.01328,-0.038 -0.0078,-0.059 0.0045,-0.019 0.01492,-0.042 0.03125,-0.07 l 0.859375,-1.4883 c 0.01735,-0.03 0.03389,-0.051 0.04883,-0.066 0.01392,-0.013 0.03184,-0.02 0.05273,-0.02 0.01931,-7e-4 0.04414,0.01 0.07617,0.02 0.03101,0.016 0.07021,0.036 0.11914,0.064 l 0.05078,0.029 0.07422,-0.129 -0.818359,-0.4746 z m 15.533203,0.4278 -0.107422,0.062 0.3125,2.0078 c 0.01039,0.067 0.01661,0.1235 0.01758,0.1699 9.64e-4,0.046 -0.0039,0.085 -0.01563,0.1172 -0.0107,0.034 -0.02861,0.065 -0.05273,0.088 -0.02311,0.025 -0.05518,0.049 -0.0957,0.072 l -0.02734,0.016 0.07422,0.1269 0.748047,-0.4336 -0.07422,-0.1269 -0.04883,0.029 c -0.07224,0.042 -0.135432,0.061 -0.189453,0.057 -0.053,0 -0.09269,-0.026 -0.119141,-0.072 -0.01119,-0.019 -0.02202,-0.044 -0.03125,-0.076 -0.0092,-0.032 -0.01699,-0.064 -0.02344,-0.096 l -0.232422,-1.3926 1.25,0.9981 c 0.0162,0.012 0.03048,0.024 0.04492,0.037 0.01268,0.014 0.02226,0.026 0.02734,0.035 0.01424,0.025 0.01056,0.048 -0.0098,0.074 -0.02209,0.027 -0.06333,0.058 -0.125,0.094 l -0.111328,0.064 0.07227,0.127 0.865235,-0.498 -0.07422,-0.127 -0.05469,0.031 c -0.05991,0.034 -0.109056,0.05 -0.148437,0.047 -0.03938,0 -0.09218,-0.028 -0.15625,-0.078 l -1.714844,-1.3535 z m -13.751953,0.5449 -1.519531,1.3184 c -0.05059,0.044 -0.09503,0.08 -0.132813,0.1054 -0.03778,0.025 -0.07177,0.041 -0.103515,0.049 -0.03277,0.01 -0.06441,0.01 -0.09375,0 -0.03036,-0.01 -0.06331,-0.018 -0.09961,-0.039 l -0.02344,-0.014 -0.07422,0.127 0.669922,0.3867 0.07422,-0.127 -0.04492,-0.027 c -0.06472,-0.037 -0.107539,-0.078 -0.126953,-0.125 -0.02044,-0.045 -0.01678,-0.091 0.0098,-0.1367 0.01123,-0.019 0.02813,-0.042 0.05078,-0.066 0.02265,-0.025 0.04516,-0.046 0.06836,-0.068 l 1.046875,-0.9277 -0.294922,1.5547 c -0.0029,0.019 -0.0073,0.04 -0.01172,0.059 -0.006,0.018 -0.01052,0.03 -0.01563,0.039 -0.01429,0.025 -0.0366,0.036 -0.06641,0.033 -0.03138,0 -0.07561,-0.023 -0.130859,-0.055 l -0.09961,-0.057 -0.07226,0.1269 0.773437,0.4473 0.07422,-0.1269 -0.05078,-0.029 c -0.05367,-0.031 -0.08754,-0.064 -0.101563,-0.098 -0.01403,-0.034 -0.01409,-0.091 0,-0.1699 l 0.392578,-2.125 -0.09766,-0.057 z m 6.908204,1.4414 -0.732422,1.8945 c -0.02441,0.063 -0.04598,0.1156 -0.06836,0.1563 -0.02238,0.041 -0.04777,0.071 -0.07422,0.094 -0.02645,0.024 -0.05534,0.041 -0.08789,0.049 -0.03255,0.01 -0.07235,0.016 -0.119141,0.016 l -0.03125,0 0,0.1465 0.863281,0 0,-0.1465 -0.05664,0 c -0.08341,0 -0.148601,-0.016 -0.19336,-0.047 -0.04476,-0.029 -0.06641,-0.068 -0.06641,-0.1211 0,-0.022 0.0036,-0.05 0.01172,-0.082 0.0081,-0.033 0.01717,-0.065 0.02734,-0.096 l 0.494141,-1.3203 0.583984,1.4883 c 0.0081,0.018 0.01538,0.036 0.02148,0.055 0.0041,0.018 0.0059,0.033 0.0059,0.043 0,0.029 -0.01636,0.048 -0.04687,0.061 -0.03255,0.012 -0.08309,0.02 -0.154297,0.02 l -0.128906,0 0,0.1465 0.998047,0 0,-0.1465 -0.06445,0 c -0.06917,0 -0.119792,-0.011 -0.152344,-0.033 -0.03255,-0.022 -0.06323,-0.071 -0.09375,-0.1465 l -0.80863,-2.0293 -0.126953,0 z m -2.263672,0.049 0,0.1485 0.06055,0 c 0.0651,0 0.117595,0 0.15625,0 0.03662,0 0.06559,0.011 0.08594,0.021 0.02035,0.01 0.03296,0.025 0.03906,0.043 0.0061,0.02 0.0098,0.048 0.0098,0.082 l 0,1.711 c 0,0.032 -0.0037,0.058 -0.0098,0.076 -0.0061,0.02 -0.01872,0.037 -0.03906,0.047 -0.02034,0.012 -0.04932,0.02 -0.08594,0.022 -0.03865,0 -0.09115,0.01 -0.15625,0.01 l -0.06055,0 0,0.1465 1.056641,0 0,-0.1465 -0.06445,0 c -0.06307,0 -0.113688,0 -0.152344,-0.01 -0.03866,0 -0.06763,-0.01 -0.08594,-0.022 -0.02035,-0.01 -0.03296,-0.026 -0.03906,-0.047 -0.0061,-0.018 -0.0098,-0.044 -0.0098,-0.076 l 0,-1.711 c 0,-0.034 0.0037,-0.062 0.0098,-0.082 0.0061,-0.018 0.01872,-0.033 0.03906,-0.043 0.01831,-0.01 0.04728,-0.017 0.08594,-0.021 0.03866,0 0.08927,0 0.152344,0 l 0.06445,0 0,-0.1485 -1.056641,0 z"
       id="text4928"
       inkscape:connector-curvature="0" />
    <g
       id="Glass"
       transform="translate(2.000038,-3.4887812e-4)"
       inkscape:label="#g7371">
      <g
         id="g7334">
        <g
           id="g7298">
          <g
             id="g7263">
            <g
               id="g7229">
              <g
                 id="g7196">
                <g
                   id="g7164">
                  <g
                     id="g7133">
                    <g
                       id="g7103">
                      <g
                         id="g7074">
                        <g
                           id="g7046">
                          <g
                             id="g7019">
                            <g
                               id="g6993">
                              <g
                                 id="g6968">
                                <g
                                   id="g6944">
                                <g
                                   id="g6921">
                                <g
                                   id="g6899">
                                <g
                                   id="g6878">
                                <g
                                   id="g6858">
                                <g
                                   id="g6839">
                                <g
                                   id="g6821">
                                <g
                                   id="g6804">
                                <g
                                   id="g6788">
                                <g
                                   id="g6773">
                                <g
                                   id="g6759">
                                <g
                                   id="g6746">
                                <g
                                   id="g6734">
                                <g
                                   id="g6723">
                                <g
                                   id="g6713">
                                <g
                                   id="g6704">
                                <g
                                   id="g6696">
                                <g
                                   id="g6689">
                                <g
                                   id="g6683">
                                <g
                                   id="g6678">
                                <circle
                                   style="opacity:1;fill:none;fill-opacity:0.32631579;stroke:none;stroke-width:0.15800001;stroke-miterlimit:4;stroke-dasharray:none;stroke-opacity:0.62745098"
                                   id="path6644"
                                   cx="75.040001"
                                   cy="1028.0422"
                                   r="21.76" />
                                <circle
                                   style="opacity:1;fill:url(#radialGradient6654);fill-opacity:1;stroke:#000000;stroke-width:0.15800001;stroke-miterlimit:4;stroke-dasharray:none;stroke-opacity:0.62745098"
                                   id="path6646"
                                   cx="75.040001"
                                   cy="1028.0422"
                                   r="18.282721" />
                                <path
                                   style="opacity:1;fill:url(#linearGradient6676);fill-opacity:1;stroke:none;stroke-width:0.15800001;stroke-miterlimit:4;stroke-dasharray:none;stroke-opacity:0.62745098"
                                   d="m 75.039062,1010.3349 a 17.706882,17.706882 0 0 0 -12.464843,5.1425 14.719999,12.16 0 0 0 -2.253906,6.4414 14.719999,12.16 0 0 0 14.718749,12.1602 14.719999,12.16 0 0 0 14.720704,-12.1602 14.719999,12.16 0 0 0 -2.210938,-6.3925 17.706882,17.706882 0 0 0 -12.509766,-5.1914 z"
                                   id="path6662"
                                   inkscape:connector-curvature="0" />
                                </g>
                                </g>
                                </g>
                                </g>
                                </g>
                                </g>
                                </g>
                                </g>
                                </g>
                                </g>
                                </g>
                                </g>
                                </g>
                                </g>
                                </g>
                                </g>
                                </g>
                                </g>
                                </g>
                                </g>
                              </g>
                            </g>
                          </g>
                        </g>
                      </g>
                    </g>
                  </g>
                </g>
              </g>
            </g>
          </g>
        </g>
      </g>
    </g>
    <g
       id="SecondHand"
       inkscape:label="#g4344"
       transform="matrix(1,0,0,0.92857041,0,73.249776)">
      <g
         id="g4334">
        <g
           id="g4325">
          <g
             id="g4317">
            <g
               id="g4310">
              <g
                 id="g4304">
                <g
                   id="g4299">
                  <g
                     id="g4295">
                    <rect
                       style="opacity:1;fill:none;fill-opacity:1;stroke:none;stroke-width:0.15000001;stroke-miterlimit:4;stroke-dasharray:none;stroke-opacity:1"
                       id="rect4289"
                       width="5.1199999"
                       height="20.480022"
                       x="-30.719999"
                       y="1025.4822"
                       ry="0.63999999" />
                    <path
                       style="fill:none;fill-rule:evenodd;stroke:#0085ff;stroke-width:0.25;stroke-linecap:butt;stroke-linejoin:miter;stroke-miterlimit:4;stroke-dasharray:none;stroke-opacity:1"
                       d="m -28.166059,1025.4822 0.01212,20.1292"
                       id="path4287"
                       inkscape:connector-curvature="0"
                       sodipodi:nodetypes="cc" />
                  </g>
                </g>
              </g>
            </g>
          </g>
        </g>
      </g>
    </g>
    <circle
       style="opacity:1;fill:#ffffff;fill-opacity:1;stroke:#0080ff;stroke-width:0.15000001;stroke-miterlimit:4;stroke-dasharray:none;stroke-opacity:1"
       id="HandCenterScrew"
       cx="-25.6"
       cy="1021.6422"
       r="0.98832256"
       inkscape:label="#path4557" />
    <g
       id="ClockFace"
       inkscape:label="#g8556">
      <g
         id="g8512">
        <g
           id="g8469">
          <g
             id="g8427">
            <g
               id="g8386">
              <g
                 id="g8346">
                <g
                   id="g8307">
                  <g
                     id="g8269">
                    <g
                       id="g8232">
                      <g
                         id="g8196">
                        <g
                           id="g8161">
                          <g
                             id="g8127">
                            <g
                               id="g8094">
                              <g
                                 id="g8062">
                                <g
                                   id="g8031">
                                <g
                                   id="g8001">
                                <g
                                   id="g7972">
                                <g
                                   id="g7944">
                                <g
                                   id="g7917">
                                <g
                                   id="g7891">
                                <g
                                   id="g7866">
                                <g
                                   id="g7842">
                                <g
                                   id="g7819">
                                <g
                                   id="g7797">
                                <g
                                   id="g7776">
                                <g
                                   id="g7756">
                                <g
                                   id="g7737">
                                <g
                                   id="g7719">
                                <g
                                   id="g7702">
                                <g
                                   id="g7686">
                                <g
                                   id="g7671">
                                <g
                                   id="g7657">
                                <g
                                   id="g7644">
                                <g
                                   id="g7632">
                                <path
                                   inkscape:connector-curvature="0"
                                   style="opacity:1;fill:url(#linearGradient4149);fill-opacity:1;stroke:none;stroke-width:0.35800001;stroke-miterlimit:4;stroke-dasharray:none;stroke-opacity:1"
                                   d="m 23.039062,1006.2821 a 21.76,21.76 0 0 0 -21.7597651,21.7598 21.76,21.76 0 0 0 21.7597651,21.7598 21.76,21.76 0 0 0 21.761719,-21.7598 21.76,21.76 0 0 0 -21.761719,-21.7598 z m 0,2.5606 a 19.199999,19.199999 0 0 1 19.201172,19.1992 19.199999,19.199999 0 0 1 -19.201172,19.2012 19.199999,19.199999 0 0 1 -19.1992182,-19.2012 19.199999,19.199999 0 0 1 19.1992182,-19.1992 z"
                                   id="path4138" />
                                <path
                                   inkscape:connector-curvature="0"
                                   style="opacity:0.5;fill:url(#linearGradient4162);fill-opacity:1;stroke:none;stroke-width:0.35800001;stroke-miterlimit:4;stroke-dasharray:none;stroke-opacity:1"
                                   d="m 23.039062,1006.7724 a 21.269529,21.269529 0 0 0 -21.2695308,21.2695 21.269529,21.269529 0 0 0 21.2695308,21.2695 21.269529,21.269529 0 0 0 21.269532,-21.2695 21.269529,21.269529 0 0 0 -21.269532,-21.2695 z m 0,0.7773 a 20.491726,20.491726 0 0 1 20.492188,20.4922 20.491726,20.491726 0 0 1 -20.492188,20.4922 20.491726,20.491726 0 0 1 -20.4902339,-20.4922 20.491726,20.491726 0 0 1 20.4902339,-20.4922 z"
                                   id="path4151" />
                                <path
                                   id="path4164"
                                   d="m 23.039062,1007.3645 a 20.677382,20.677382 0 0 0 -20.6773836,20.6774 20.677382,20.677382 0 0 0 20.6773836,20.6774 20.677382,20.677382 0 0 0 20.677385,-20.6774 20.677382,20.677382 0 0 0 -20.677385,-20.6774 z m 0,0.7557 a 19.921233,19.921233 0 0 1 19.921682,19.9217 19.921233,19.921233 0 0 1 -19.921682,19.9217 19.921233,19.921233 0 0 1 -19.9197824,-19.9217 19.921233,19.921233 0 0 1 19.9197824,-19.9217 z"
                                   style="opacity:0.5;fill:url(#linearGradient4166);fill-opacity:1;stroke:none;stroke-width:0.35800001;stroke-miterlimit:4;stroke-dasharray:none;stroke-opacity:1"
                                   inkscape:connector-curvature="0" />
                                <path
                                   inkscape:connector-curvature="0"
                                   style="opacity:1;fill:url(#linearGradient4185);fill-opacity:1;stroke:none;stroke-width:0.35800001;stroke-miterlimit:4;stroke-dasharray:none;stroke-opacity:1"
                                   d="m 23.039062,1008.8427 a 19.199999,19.199999 0 0 0 -19.1992182,19.1992 19.199999,19.199999 0 0 0 19.1992182,19.2012 19.199999,19.199999 0 0 0 19.201172,-19.2012 19.199999,19.199999 0 0 0 -19.201172,-19.1992 z m 0,0.5879 a 18.610838,18.610838 0 0 1 18.611329,18.6113 18.610838,18.610838 0 0 1 -18.611329,18.6113 18.610838,18.610838 0 0 1 -18.6093745,-18.6113 18.610838,18.610838 0 0 1 18.6093745,-18.6113 z"
                                   id="path4174" />
                                <path
                                   inkscape:connector-curvature="0"
                                   style="opacity:0.5;fill:url(#linearGradient4214);fill-opacity:1;stroke:none;stroke-width:0.35800001;stroke-miterlimit:4;stroke-dasharray:none;stroke-opacity:1"
                                   d="m 20.353516,1006.9638 a 21.269529,21.269529 0 0 0 -11.8242191,5.5625 l 0.6132812,0.4824 a 20.491726,20.491726 0 0 1 11.6093749,-5.3067 l -0.398437,-0.7382 z"
                                   id="path4196" />
                                <path
                                   inkscape:connector-curvature="0"
                                   style="opacity:0.5;fill:url(#linearGradient4204);fill-opacity:1;stroke:none;stroke-width:0.35800001;stroke-miterlimit:4;stroke-dasharray:none;stroke-opacity:1"
                                   d="m 7.9433594,1013.0731 a 21.269529,21.269529 0 0 0 -5.5078125,9.7657 l 0.6933593,0.4629 A 20.491726,20.491726 0 0 1 8.5625,1013.5595 l -0.6191406,-0.4864 z"
                                   id="path4189" />
                                <circle
                                   style="opacity:1;fill:#550000;fill-opacity:1;stroke:#333333;stroke-width:0.35800001;stroke-miterlimit:4;stroke-dasharray:none;stroke-opacity:1"
                                   id="path4218"
                                   cx="23.039999"
                                   cy="1028.0422"
                                   r="18.512148" />
                                <circle
                                   r="18.512148"
                                   cy="1028.0422"
                                   cx="23.039999"
                                   id="circle7618"
                                   style="opacity:1;fill:url(#radialGradient7626);fill-opacity:1;stroke:#333333;stroke-width:0.35800001;stroke-miterlimit:4;stroke-dasharray:none;stroke-opacity:1" />
                                <circle
                                   style="opacity:1;fill:url(#radialGradient7630);fill-opacity:1;stroke:none;stroke-width:0.35800001;stroke-miterlimit:4;stroke-dasharray:none;stroke-opacity:1"
                                   id="circle7628"
                                   cx="23.040039"
                                   cy="1028.0422"
                                   r="18.512148" />
                                <path
                                   style="opacity:1;fill:#ffffff;fill-opacity:1;stroke:none;stroke-width:0.255;stroke-miterlimit:4;stroke-dasharray:none;stroke-opacity:0.51052629"
                                   d="m 22.033203,1010.2138 c -0.05736,0.1159 -0.155031,0.236 -0.292969,0.3593 -0.137942,0.1233 -0.300047,0.2278 -0.484375,0.3145 l 0,0.3203 c 0.102502,-0.038 0.219479,-0.096 0.347657,-0.1719 0.12939,-0.076 0.233154,-0.1509 0.3125,-0.2265 l 0,2.0996 0.330078,0 0,-2.6953 -0.212891,0 z m 1.949219,0 c -0.255116,-10e-5 -0.458011,0.068 -0.609375,0.2011 -0.15137,0.1318 -0.238524,0.3235 -0.261719,0.5762 l 0.337891,0.035 c 0.0013,-0.1685 0.0513,-0.3013 0.146484,-0.3965 0.09527,-0.095 0.222163,-0.1426 0.380859,-0.1426 0.150138,0 0.270512,0.044 0.363282,0.1348 0.094,0.089 0.140629,0.1994 0.140625,0.33 8e-6,0.1246 -0.04971,0.2581 -0.152344,0.3985 -0.102567,0.1391 -0.300046,0.3271 -0.591797,0.5664 -0.187986,0.1538 -0.333499,0.289 -0.433594,0.4062 -0.09893,0.1172 -0.169681,0.2367 -0.214843,0.3575 -0.02805,0.073 -0.04162,0.1491 -0.03906,0.2285 l 1.775391,0 0,-0.3164 -1.316407,0 c 0.03661,-0.06 0.08255,-0.1191 0.138672,-0.1778 0.05617,-0.06 0.183105,-0.1719 0.38086,-0.3379 0.236808,-0.2002 0.404541,-0.3579 0.505859,-0.4726 0.102495,-0.1148 0.176761,-0.2243 0.220703,-0.3281 0.04393,-0.1038 0.06639,-0.209 0.06641,-0.3164 -2e-6,-0.2112 -0.07641,-0.3884 -0.226562,-0.5313 -0.150157,-0.1428 -0.353777,-0.2148 -0.611335,-0.2148 z m -4.556641,0.4394 -0.15625,0.033 0.199219,0.9395 0.15625,-0.033 -0.199219,-0.9395 z m 7.228516,0 -0.199219,0.9395 0.15625,0.033 0.199219,-0.9395 -0.15625,-0.033 z m -9.025391,0.4727 -0.152344,0.051 0.296876,0.9121 0.152343,-0.049 -0.296875,-0.914 z m 10.822266,0 -0.296875,0.914 0.152344,0.049 0.296875,-0.9121 -0.152344,-0.051 z m -12.560547,0.6582 -0.146484,0.066 0.390625,0.8769 0.146484,-0.066 -0.390625,-0.8769 z m 14.298828,0 -0.390625,0.8769 0.146484,0.066 0.390626,-0.8769 -0.146485,-0.066 z m -15.666015,0.8535 -0.552735,0.3203 1.119141,1.9395 0.554687,-0.3184 -1.121093,-1.9414 z m 17.033203,0 -1.121094,1.9414 0.554687,0.3184 1.119141,-1.9395 -0.552734,-0.3203 z m -18.888672,0.9883 -0.13086,0.094 0.564453,0.7774 0.13086,-0.094 -0.564453,-0.7773 z m 20.74414,0 -0.564453,0.7773 0.13086,0.094 0.564453,-0.7774 -0.13086,-0.094 z m -22.195312,1.164 -0.117188,0.1075 0.640625,0.7128 0.119141,-0.1074 -0.642578,-0.7129 z m 23.646484,0 -0.642578,0.7129 0.119141,0.1074 0.640625,-0.7128 -0.117188,-0.1075 z m -24.9667966,1.3086 -0.1054688,0.1192 0.7128904,0.6406 0.107422,-0.1172 -0.7148436,-0.6426 z m 26.2871096,0 -0.714844,0.6426 0.107422,0.1172 0.71289,-0.6406 -0.105468,-0.1192 z m -27.4628909,1.4395 -0.09375,0.1289 0.7773438,0.5644 0.09375,-0.1308 -0.7773438,-0.5625 z m 28.6386719,0 -0.777344,0.5625 0.09375,0.1308 0.777344,-0.5644 -0.09375,-0.1289 z m -29.3886719,1.4199 -0.3203125,0.5547 1.9394532,1.1191 0.3203124,-0.5547 -1.9394531,-1.1191 z m 30.1386719,0 -1.939453,1.1191 0.320312,0.5547 1.939454,-1.1191 -0.320313,-0.5547 z m -31.2578125,1.7852 -0.066406,0.1464 0.8769532,0.3907 0.066406,-0.1465 -0.8769531,-0.3906 z m 32.3789065,0 -0.878907,0.3906 0.06641,0.1465 0.876953,-0.3907 -0.06445,-0.1464 z m -33.0546878,1.7324 -0.048828,0.1523 0.9140625,0.2969 0.048828,-0.1523 -0.9140626,-0.2969 z m 33.7285158,0 -0.914063,0.2969 0.04883,0.1523 0.914063,-0.2969 -0.04883,-0.1523 z m -34.216797,1.793 -0.033203,0.1562 0.9394531,0.2012 0.033203,-0.1563 -0.9394531,-0.2011 z m 34.705078,0 -0.939453,0.2011 0.0332,0.1563 0.939453,-0.2012 -0.0332,-0.1562 z m -0.9375,2.373 c -0.21241,0 -0.390374,0.06 -0.533203,0.1816 -0.142821,0.1209 -0.233153,0.2928 -0.273437,0.5137 l 0.328124,0.059 c 0.02404,-0.1612 0.08051,-0.2828 0.166016,-0.3633 0.08543,-0.081 0.192141,-0.1211 0.320313,-0.1211 0.129397,0 0.234645,0.04 0.316406,0.1192 0.08179,0.079 0.123047,0.1799 0.123047,0.3007 -2.6e-5,0.1526 -0.05571,0.2666 -0.167969,0.3399 -0.112264,0.073 -0.238528,0.1094 -0.378906,0.1094 l -0.05469,0 -0.03516,0.289 c 0.09275,-0.025 0.170171,-0.037 0.232422,-0.037 0.152579,0 0.277996,0.05 0.376953,0.1485 0.09888,0.098 0.148435,0.2216 0.148438,0.373 1e-5,0.1587 -0.05511,0.2928 -0.16211,0.4004 -0.106153,0.1074 -0.235595,0.1601 -0.390625,0.1601 -0.130623,10e-5 -0.242415,-0.041 -0.333984,-0.123 -0.09034,-0.083 -0.153565,-0.2176 -0.191407,-0.4043 l -0.328124,0.045 c 0.02268,0.2213 0.109708,0.4016 0.263671,0.541 0.156258,0.1404 0.352301,0.211 0.587891,0.211 0.261236,0 0.477541,-0.082 0.648438,-0.2442 0.170899,-0.1636 0.255859,-0.3613 0.255859,-0.5957 3.8e-5,-0.1733 -0.04492,-0.3188 -0.132813,-0.4336 -0.08788,-0.1159 -0.210446,-0.1918 -0.36914,-0.2285 0.122061,-0.056 0.213137,-0.1313 0.27539,-0.2265 0.06225,-0.095 0.09373,-0.2005 0.09375,-0.3164 -2e-5,-0.1221 -0.03169,-0.2391 -0.09766,-0.3477 -0.06467,-0.1089 -0.159911,-0.1939 -0.283203,-0.2559 -0.12329,-0.063 -0.25789,-0.093 -0.404297,-0.094 z m -32.908203,0 c -0.2416492,-2e-4 -0.4423855,0.082 -0.6035156,0.248 -0.1599245,0.1661 -0.2402906,0.3861 -0.2402344,0.6582 -1.79e-5,0.2637 0.076652,0.4757 0.2304688,0.6368 0.1537957,0.1612 0.3422863,0.2422 0.5644531,0.2422 0.1331274,-4e-4 0.2576104,-0.033 0.3710937,-0.098 0.1147416,-0.066 0.2036124,-0.1509 0.2695313,-0.2559 0.00103,0.029 0.00214,0.051 0.00195,0.066 -3.92e-5,0.1368 -0.015919,0.2707 -0.048828,0.4024 -0.033146,0.1319 -0.07423,0.2363 -0.1230469,0.3144 -0.048778,0.077 -0.1105738,0.1389 -0.1875,0.1856 -0.075577,0.046 -0.1642939,0.07 -0.265625,0.07 -0.1184838,4e-4 -0.215341,-0.034 -0.2910126,-0.1016 -0.075681,-0.067 -0.1274459,-0.1752 -0.1542969,-0.3242 l -0.3164063,0.029 c 0.026876,0.2112 0.105225,0.3751 0.2382813,0.4922 0.1330184,0.1162 0.3056987,0.1737 0.515625,0.1738 0.1977275,2e-4 0.369151,-0.052 0.515625,-0.1582 0.1477102,-0.1062 0.2595245,-0.2602 0.3339844,-0.4629 0.074514,-0.2038 0.1116861,-0.4771 0.1113281,-0.8203 2.76e-5,-0.3296 -0.037593,-0.5825 -0.1132812,-0.7558 -0.074447,-0.1746 -0.1848291,-0.3083 -0.3300782,-0.4024 -0.1440435,-0.094 -0.3040121,-0.1403 -0.4785156,-0.1406 z m 0.041016,0.2734 c 0.1415127,5e-4 0.2629942,0.056 0.3632813,0.1661 0.1012334,0.1114 0.1523479,0.2619 0.1523437,0.4511 -4.32e-5,0.1892 -0.04955,0.336 -0.1484375,0.4434 -0.097619,0.1062 -0.224353,0.1601 -0.3769531,0.1601 -0.1512698,-4e-4 -0.2800311,-0.049 -0.3828125,-0.1601 -0.1024857,-0.1077 -0.152353,-0.2451 -0.1523437,-0.416 -7e-7,-0.1905 0.053464,-0.3453 0.1621093,-0.4649 0.1086457,-0.1196 0.2363222,-0.1796 0.3828125,-0.1797 z m 0.00586,4.5352 -0.9394531,0.1992 0.033203,0.1563 0.9394531,-0.1993 -0.033203,-0.1562 z m 32.892578,0 -0.0332,0.1562 0.939453,0.1993 0.0332,-0.1563 -0.939453,-0.1992 z m -32.4453124,1.6992 -0.9140625,0.2969 0.048828,0.1523 0.9140626,-0.2968 -0.048828,-0.1524 z m 31.9980464,0 -0.04883,0.1524 0.914063,0.2968 0.04883,-0.1523 -0.914063,-0.2969 z m -31.3769526,1.6445 -0.8769532,0.3907 0.064453,0.1465 0.8789062,-0.3907 -0.066406,-0.1465 z m 30.7558596,0 -0.06445,0.1465 0.876953,0.3907 0.06445,-0.1465 -0.876953,-0.3907 z m -28.8281252,0.625 -1.9394532,1.1211 0.3203125,0.5547 1.9394531,-1.1211 -0.3203124,-0.5547 z m 26.9003902,0 -0.320312,0.5547 1.939453,1.1211 0.320313,-0.5547 -1.939454,-1.1211 z m -27.0859371,2.4258 -0.7773438,0.5625 0.09375,0.1309 0.7773438,-0.5645 -0.09375,-0.1289 z m 27.2714841,0 -0.09375,0.1289 0.777344,0.5645 0.09375,-0.1289 -0.777344,-0.5645 z m -26.171876,1.3711 -0.7128904,0.6426 0.1054688,0.1191 0.7148436,-0.6425 -0.107422,-0.1192 z m 25.072266,0 -0.107422,0.1192 0.714844,0.6425 0.105468,-0.1191 -0.71289,-0.6426 z m -23.835938,1.2481 -0.640625,0.7148 0.117188,0.1074 0.642578,-0.7148 -0.119141,-0.1074 z m 22.59961,0 -0.119141,0.1074 0.642578,0.7148 0.117188,-0.1074 -0.640625,-0.7148 z m -19.25,0.6894 -1.119141,1.9395 0.552735,0.3203 1.121093,-1.9395 -0.554687,-0.3203 z m 15.90039,0 -0.554687,0.3203 1.121094,1.9395 0.552734,-0.3203 -1.119141,-1.9395 z m -17.888672,0.4239 -0.564453,0.7773 0.13086,0.094 0.564453,-0.7773 -0.13086,-0.094 z m 19.876954,0 -0.13086,0.094 0.564453,0.7773 0.13086,-0.094 -0.564453,-0.7773 z m -9.861328,1.5195 c -0.283234,10e-5 -0.508563,0.1016 -0.675782,0.3066 -0.191652,0.2356 -0.287117,0.614 -0.287109,1.1328 -3.6e-5,0.4639 0.08641,0.7955 0.259765,0.9981 0.173346,0.2014 0.397194,0.3028 0.671876,0.3027 0.161234,-5e-4 0.3047,-0.038 0.43164,-0.1152 0.126971,-0.077 0.226811,-0.1881 0.298828,-0.332 0.0732,-0.1453 0.109542,-0.3022 0.109375,-0.4708 -1.2e-5,-0.2563 -0.07739,-0.4638 -0.232422,-0.625 -0.1538,-0.1624 -0.340832,-0.244 -0.560547,-0.2441 -0.125698,-10e-5 -0.244742,0.03 -0.359374,0.088 -0.114715,0.058 -0.211677,0.1487 -0.291016,0.2695 0.0025,-0.2685 0.03189,-0.4758 0.0918,-0.6211 0.05982,-0.1453 0.142312,-0.2563 0.246093,-0.332 0.07936,-0.059 0.172366,-0.088 0.277344,-0.088 0.130582,2e-4 0.238509,0.051 0.328125,0.1426 0.05372,0.058 0.09571,0.1518 0.125,0.2812 l 0.328125,-0.025 c -0.02689,-0.2088 -0.108658,-0.3718 -0.24414,-0.4903 -0.134256,-0.1185 -0.306363,-0.1779 -0.517578,-0.1777 z m -6.982422,0.2519 -0.390625,0.877 0.146484,0.064 0.390625,-0.8769 -0.146484,-0.064 z m 13.810546,0 -0.146484,0.064 0.390625,0.8769 0.146485,-0.064 -0.390626,-0.877 z m -12.171874,0.6368 -0.296876,0.914 0.152344,0.049 0.296875,-0.9121 -0.152343,-0.051 z m 10.533203,0 -0.152344,0.051 0.296875,0.9121 0.152344,-0.049 -0.296875,-0.914 z m -5.238282,0.3554 c 0.150096,2e-4 0.273449,0.058 0.373047,0.1621 0.09895,0.1059 0.148447,0.252 0.148438,0.4375 1.1e-5,0.1928 -0.05025,0.3447 -0.150391,0.4571 -0.100144,0.1123 -0.220221,0.168 -0.359375,0.1679 -0.09522,2e-4 -0.186812,-0.026 -0.273437,-0.08 -0.08661,-0.055 -0.154189,-0.1351 -0.203125,-0.2383 -0.04758,-0.1042 -0.07031,-0.2127 -0.07031,-0.3262 4.9e-5,-0.1734 0.05056,-0.3118 0.154297,-0.418 0.103812,-0.1074 0.231918,-0.162 0.380859,-0.1621 z m -3.599609,0.1074 -0.199219,0.9395 0.15625,0.033 0.201172,-0.9395 -0.158203,-0.033 z m 7.142578,0 -0.15625,0.033 0.199219,0.9395 0.15625,-0.033 -0.199219,-0.9395 z"
                                   id="rect8041"
                                   inkscape:connector-curvature="0" />
                                </g>
                                </g>
                                </g>
                                </g>
                                </g>
                                </g>
                                </g>
                                </g>
                                </g>
                                </g>
                                </g>
                                </g>
                                </g>
                                </g>
                                </g>
                                </g>
                                </g>
                                </g>
                                </g>
                                </g>
                              </g>
                            </g>
                          </g>
                        </g>
                      </g>
                    </g>
                  </g>
                </g>
              </g>
            </g>
          </g>
        </g>
      </g>
    </g>
    <g
       id="HourHand"
       inkscape:label="#g10258"
       transform="matrix(1,0,0,0.92857041,0,73.249776)">
      <g
         id="g10246">
        <g
           id="g10235">
          <g
             id="g10225">
            <g
               id="g10216">
              <g
                 id="g10208">
                <g
                   id="g10201">
                  <g
                     id="g10195">
                    <g
                       id="g10190">
                      <g
                         id="g10186">
                        <rect
                           style="opacity:1;fill:none;fill-opacity:1;stroke:none;stroke-width:0.25;stroke-miterlimit:4;stroke-dasharray:none;stroke-opacity:1"
                           id="rect10135"
                           width="5.1199999"
                           height="15.360023"
                           x="-14.08"
                           y="1025.4822"
                           ry="1.6188401e-15" />
                        <path
                           style="fill:none;fill-rule:evenodd;stroke:#ff9600;stroke-width:1px;stroke-linecap:butt;stroke-linejoin:miter;stroke-opacity:1"
                           d="m -11.52,1025.4822 0,15.36"
                           id="path10129"
                           inkscape:connector-curvature="0"
                           sodipodi:nodetypes="cc" />
                      </g>
                    </g>
                  </g>
                </g>
              </g>
            </g>
          </g>
        </g>
      </g>
    </g>
    <g
       id="MinuteHand"
       inkscape:label="#g10176"
       transform="matrix(1,0,0,0.92857041,0,73.249776)">
      <g
         id="g10167">
        <g
           id="g10159">
          <g
             id="g10152">
            <g
               id="g10146">
              <g
                 id="g10141">
                <g
                   id="g10137">
                  <rect
                     ry="1.6188401e-15"
                     y="1025.4822"
                     x="-20.48"
                     height="17.920023"
                     width="5.1199999"
                     id="rect10133"
                     style="opacity:1;fill:none;fill-opacity:1;stroke:none;stroke-width:0.25;stroke-miterlimit:4;stroke-dasharray:none;stroke-opacity:1" />
                  <path
                     inkscape:connector-curvature="0"
                     id="path10131"
                     d="m -17.92,1025.4822 0,17.92"
                     style="fill:none;fill-rule:evenodd;stroke:#ff9600;stroke-width:1px;stroke-linecap:butt;stroke-linejoin:miter;stroke-opacity:1" />
                </g>
              </g>
            </g>
          </g>
        </g>
      </g>
    </g>
  </g>
</svg>
