<?xml version="1.0" encoding="UTF-8" standalone="no"?>
<!-- Created with Inkscape (http://www.inkscape.org/) -->

<svg
   xmlns:dc="http://purl.org/dc/elements/1.1/"
   xmlns:cc="http://creativecommons.org/ns#"
   xmlns:rdf="http://www.w3.org/1999/02/22-rdf-syntax-ns#"
   xmlns:svg="http://www.w3.org/2000/svg"
   xmlns="http://www.w3.org/2000/svg"
   xmlns:xlink="http://www.w3.org/1999/xlink"
   xmlns:sodipodi="http://sodipodi.sourceforge.net/DTD/sodipodi-0.dtd"
   xmlns:inkscape="http://www.inkscape.org/namespaces/inkscape"
   width="48"
   height="48"
   viewBox="0 0 48.000001 48.000001"
   id="svg2"
   version="1.1"
   inkscape:version="0.91 r13725"
   sodipodi:docname="clock.svg">
  <defs
     id="defs4">
    <linearGradient
       inkscape:collect="always"
       id="linearGradient6670">
      <stop
         style="stop-color:#ffffff;stop-opacity:0.60000002"
         offset="0"
         id="stop6672" />
      <stop
         style="stop-color:#ffffff;stop-opacity:0;"
         offset="1"
         id="stop6674" />
    </linearGradient>
    <linearGradient
       inkscape:collect="always"
       id="linearGradient6648">
      <stop
         style="stop-color:#000000;stop-opacity:0"
         offset="0"
         id="stop6650" />
      <stop
         id="stop6660"
         offset="0.81250006"
         style="stop-color:#000000;stop-opacity:0" />
      <stop
         id="stop6658"
         offset="0.84375006"
         style="stop-color:#000000;stop-opacity:0.06842105" />
      <stop
         id="stop6656"
         offset="0.90625006"
         style="stop-color:#000000;stop-opacity:0.42105263" />
      <stop
         style="stop-color:#000000;stop-opacity:0.627451"
         offset="1"
         id="stop6652" />
    </linearGradient>
    <linearGradient
       inkscape:collect="always"
       id="linearGradient4198">
      <stop
         style="stop-color:#ffffff;stop-opacity:0"
         offset="0"
         id="stop4200" />
      <stop
         id="stop4206"
         offset="0.5"
         style="stop-color:#ffffff;stop-opacity:1" />
      <stop
         style="stop-color:#ffffff;stop-opacity:0;"
         offset="1"
         id="stop4202" />
    </linearGradient>
    <linearGradient
       inkscape:collect="always"
       id="linearGradient4179">
      <stop
         style="stop-color:#4d4d4d;stop-opacity:1"
         offset="0"
         id="stop4181" />
      <stop
         style="stop-color:#b3b3b3;stop-opacity:1"
         offset="1"
         id="stop4183" />
    </linearGradient>
    <linearGradient
       id="linearGradient4168"
       inkscape:collect="always">
      <stop
         id="stop4170"
         offset="0"
         style="stop-color:#b3b3b3;stop-opacity:1" />
      <stop
         id="stop4172"
         offset="1"
         style="stop-color:#1a1a1a;stop-opacity:0.58947366" />
    </linearGradient>
    <linearGradient
       inkscape:collect="always"
       id="linearGradient4156">
      <stop
         style="stop-color:#ffffff;stop-opacity:1;"
         offset="0"
         id="stop4158" />
      <stop
         style="stop-color:#333333;stop-opacity:1"
         offset="1"
         id="stop4160" />
    </linearGradient>
    <linearGradient
       inkscape:collect="always"
       id="linearGradient4143">
      <stop
         style="stop-color:#cccccc;stop-opacity:1"
         offset="0"
         id="stop4145" />
      <stop
         style="stop-color:#666666;stop-opacity:1"
         offset="1"
         id="stop4147" />
    </linearGradient>
    <linearGradient
       inkscape:collect="always"
       xlink:href="#linearGradient4143"
       id="linearGradient4149"
       x1="19.199999"
       y1="1.9200009"
       x2="25.6"
       y2="40.32"
       gradientUnits="userSpaceOnUse"
       gradientTransform="translate(0,1004.3622)" />
    <linearGradient
       inkscape:collect="always"
       xlink:href="#linearGradient4156"
       id="linearGradient4162"
       x1="14.08"
       y1="3.200001"
       x2="32"
       y2="41.599998"
       gradientUnits="userSpaceOnUse"
       gradientTransform="translate(0,1004.3622)" />
    <linearGradient
       inkscape:collect="always"
       xlink:href="#linearGradient4168"
       id="linearGradient4166"
       gradientUnits="userSpaceOnUse"
       x1="38.839897"
       y1="43.429893"
       x2="12.506779"
       y2="2.6135631"
       gradientTransform="matrix(0.97215984,0,0,0.97215984,0.64141128,1005.0214)" />
    <linearGradient
       inkscape:collect="always"
       xlink:href="#linearGradient4179"
       id="linearGradient4185"
       x1="19.199999"
       y1="3.200001"
       x2="23.039999"
       y2="42.880001"
       gradientUnits="userSpaceOnUse"
       gradientTransform="translate(0,1004.3622)" />
    <linearGradient
       inkscape:collect="always"
       xlink:href="#linearGradient4198"
       id="linearGradient4204"
       x1="2.5599999"
       y1="1022.9222"
       x2="8.96"
       y2="1012.6822"
       gradientUnits="userSpaceOnUse" />
    <linearGradient
       inkscape:collect="always"
       xlink:href="#linearGradient4198"
       id="linearGradient4214"
       x1="8.96"
       y1="1012.6822"
       x2="20.48"
       y2="1007.5622"
       gradientUnits="userSpaceOnUse" />
    <radialGradient
       inkscape:collect="always"
       xlink:href="#linearGradient6648"
       id="radialGradient6654"
       cx="23.039999"
       cy="1028.0422"
       fx="23.039999"
       fy="1028.0422"
       r="18.361721"
       gradientUnits="userSpaceOnUse"
       gradientTransform="matrix(1.0805087,-1.4461798e-6,1.4928316e-6,1.1153644,50.143544,-118.59945)" />
    <linearGradient
       inkscape:collect="always"
       xlink:href="#linearGradient6670"
       id="linearGradient6676"
       x1="21.76"
       y1="1.2800009"
       x2="28.799999"
       y2="24.32"
       gradientUnits="userSpaceOnUse"
       gradientTransform="translate(52,1004.3622)" />
  </defs>
  <sodipodi:namedview
     id="base"
     pagecolor="#444c53"
     bordercolor="#666666"
     borderopacity="1.0"
     inkscape:pageopacity="0"
     inkscape:pageshadow="2"
     inkscape:zoom="9.3909918"
     inkscape:cx="9.2206652"
     inkscape:cy="23.764921"
     inkscape:document-units="px"
     inkscape:current-layer="layer1"
     showgrid="true"
     units="px"
     inkscape:window-width="1366"
     inkscape:window-height="706"
     inkscape:window-x="-7"
     inkscape:window-y="0"
     inkscape:window-maximized="1"
     showguides="true"
     inkscape:guide-bbox="true"
     inkscape:object-paths="true"
     inkscape:snap-intersection-paths="true"
     inkscape:object-nodes="true"
     inkscape:snap-smooth-nodes="true"
     inkscape:snap-midpoints="true">
    <inkscape:grid
       type="xygrid"
       id="grid3336"
       spacingx="0.001"
       spacingy="0.001" />
    <sodipodi:guide
       position="23.04,24.32"
       orientation="0,1"
       id="guide4134" />
    <sodipodi:guide
       position="23.04,24.32"
       orientation="1,0"
       id="guide4136" />
    <sodipodi:guide
       position="-14.08,26.88"
       orientation="0,1"
       id="guide7409" />
    <sodipodi:guide
       position="-5.12,6.4"
       orientation="0,1"
       id="guide7411" />
  </sodipodi:namedview>
  <metadata
     id="metadata7">
    <rdf:RDF>
      <cc:Work
         rdf:about="">
        <dc:format>image/svg+xml</dc:format>
        <dc:type
           rdf:resource="http://purl.org/dc/dcmitype/StillImage" />
        <dc:title />
      </cc:Work>
    </rdf:RDF>
  </metadata>
  <g
     inkscape:label="Layer 1"
     inkscape:groupmode="layer"
     id="layer1"
     transform="translate(0,-1004.3622)">
    <path
       id="path4977"
       d="m 57.138379,955.0881 0,0.1465 0.05078,0 c 0.03539,0 0.06563,0 0.08984,0.01 0.02422,0 0.04378,0.01 0.06055,0.016 0.01863,0.01 0.03579,0.021 0.04883,0.037 0.0149,0.016 0.03011,0.038 0.04687,0.064 l 0.576172,0.914 -0.474609,0.7285 c -0.05775,0.09 -0.118214,0.1545 -0.179688,0.1954 -0.06147,0.039 -0.128611,0.058 -0.203125,0.058 l -0.01172,0 0,0.1465 0.830078,0 0,-0.1465 -0.07227,0 c -0.05961,0 -0.107094,-0.012 -0.140625,-0.039 -0.03353,-0.029 -0.05078,-0.068 -0.05078,-0.1172 0,-0.045 0.01716,-0.09 0.04883,-0.1367 l 0.333984,-0.543 0.439453,0.6777 c 0.02422,0.035 0.03516,0.067 0.03516,0.1 0,0.012 -1.81e-4,0.023 -0.0039,0.031 -0.0019,0.01 -0.0104,0.015 -0.02344,0.019 -0.01304,0 -0.03251,0 -0.05859,0.01 -0.02608,0 -0.0628,0 -0.109375,0 l -0.08008,0 0,0.1465 0.960938,0 0,-0.1465 -0.03711,0 c -0.04657,0 -0.08338,10e-5 -0.111328,0 -0.02794,0 -0.05177,-0.011 -0.07227,-0.021 -0.02049,-0.01 -0.03997,-0.026 -0.05859,-0.049 -0.01863,-0.023 -0.04024,-0.055 -0.06445,-0.096 l -0.611328,-0.9668 0.388671,-0.582 c 0.04098,-0.061 0.07575,-0.1117 0.107422,-0.1504 0.03167,-0.039 0.06395,-0.069 0.09375,-0.092 0.02981,-0.023 0.06013,-0.037 0.0918,-0.045 0.03167,-0.01 0.06635,-0.016 0.105469,-0.016 l 0.04687,0 0,-0.1465 -0.804688,0 0,0.1465 0.04297,0 c 0.07079,0 0.120585,0.011 0.150391,0.031 0.03167,0.02 0.04687,0.051 0.04687,0.094 0,0.018 -0.0022,0.035 -0.0078,0.049 -0.0037,0.014 -0.01448,0.036 -0.03125,0.062 l -0.314453,0.504 -0.388672,-0.6172 c -0.02235,-0.035 -0.0332,-0.062 -0.0332,-0.08 0,-0.016 0.0087,-0.027 0.02734,-0.033 0.01863,-0.01 0.05544,-0.01 0.111328,-0.01 l 0.115234,0 0,-0.1465 -0.90625,0 z m 2.191407,0 0,0.1465 0.05859,0 c 0.05775,0 0.105231,0 0.140625,0.01 0.03539,0 0.06136,0.01 0.07813,0.022 0.01863,0.01 0.02957,0.026 0.03516,0.047 0.0056,0.018 0.0098,0.044 0.0098,0.076 l 0,1.7168 c 0,0.035 -0.0042,0.062 -0.0098,0.082 -0.0056,0.018 -0.01653,0.033 -0.03516,0.043 -0.01676,0.01 -0.04273,0.017 -0.07813,0.021 -0.03539,0 -0.08288,0 -0.140625,0 l -0.05859,0 0,0.1484 0.966797,0 0,-0.1484 -0.05664,0 c -0.05961,0 -0.107184,0 -0.142578,0 -0.03353,0 -0.0595,-0.011 -0.07813,-0.021 -0.01863,-0.01 -0.02957,-0.025 -0.03516,-0.043 -0.0056,-0.02 -0.0078,-0.047 -0.0078,-0.082 l 0,-1.7168 c 0,-0.033 0.0022,-0.058 0.0078,-0.076 0.0056,-0.02 0.01653,-0.037 0.03516,-0.047 0.01863,-0.012 0.04459,-0.019 0.07813,-0.022 0.03539,0 0.08297,-0.01 0.142578,-0.01 l 0.05664,0 0,-0.1465 -0.966797,0 z m 1.191406,0 0,0.1465 0.05859,0 c 0.05775,0 0.103277,0 0.138671,0.01 0.03539,0 0.06136,0.01 0.07813,0.022 0.01863,0.01 0.03152,0.026 0.03711,0.047 0.0056,0.018 0.0078,0.044 0.0078,0.076 l 0,1.7168 c 0,0.035 -0.0022,0.062 -0.0078,0.082 -0.0056,0.018 -0.01848,0.033 -0.03711,0.043 -0.01677,0.01 -0.04273,0.017 -0.07813,0.021 -0.03539,0 -0.08092,0 -0.138671,0 l -0.05859,0 0,0.1484 0.966797,0 0,-0.1484 -0.05664,0 c -0.05961,0 -0.107184,0 -0.142578,0 -0.03353,0 -0.0595,-0.011 -0.07813,-0.021 -0.01863,-0.01 -0.03152,-0.025 -0.03711,-0.043 -0.0056,-0.02 -0.0078,-0.047 -0.0078,-0.082 l 0,-1.7168 c 0,-0.033 0.0022,-0.058 0.0078,-0.076 0.0056,-0.02 0.01848,-0.037 0.03711,-0.047 0.01863,-0.012 0.04459,-0.019 0.07813,-0.022 0.03539,0 0.08297,-0.01 0.142578,-0.01 l 0.05664,0 0,-0.1465 -0.966797,0 z m -8.181641,1.4102 -0.914062,0.5273 0.07226,0.127 0.05664,-0.031 c 0.05462,-0.032 0.09925,-0.056 0.134766,-0.072 0.03449,-0.018 0.06202,-0.025 0.08398,-0.024 0.02271,0 0.04118,0 0.05664,0.02 0.01444,0.013 0.0306,0.032 0.04687,0.061 l 0.855468,1.4844 c 0.01729,0.03 0.02832,0.053 0.0332,0.074 0.0039,0.019 8.14e-4,0.04 -0.01172,0.059 -0.01077,0.018 -0.03301,0.038 -0.06445,0.061 -0.03246,0.021 -0.07624,0.047 -0.13086,0.078 l -0.05469,0.033 0.07422,0.1289 0.914062,-0.5274 -0.07422,-0.1308 -0.05273,0.031 c -0.05638,0.033 -0.102225,0.057 -0.136719,0.074 -0.03375,0.015 -0.06128,0.024 -0.08398,0.025 -0.02271,0 -0.0422,0 -0.05664,-0.018 -0.01546,-0.015 -0.03154,-0.036 -0.04883,-0.066 l -0.855469,-1.4825 c -0.01628,-0.028 -0.02543,-0.051 -0.0293,-0.07 -0.0049,-0.021 -0.0028,-0.041 0.0098,-0.06 0.01152,-0.021 0.03376,-0.041 0.06445,-0.061 0.03144,-0.023 0.07448,-0.051 0.13086,-0.084 l 0.05273,-0.029 -0.07227,-0.1269 z m 14.984375,0.5976 -0.07422,0.127 0.05664,0.031 c 0.05462,0.032 0.09746,0.059 0.128906,0.082 0.03246,0.021 0.05275,0.041 0.0625,0.061 0.01253,0.019 0.01661,0.04 0.01172,0.061 -0.0039,0.019 -0.01497,0.042 -0.03125,0.07 l -0.855469,1.4824 c -0.01729,0.03 -0.03337,0.052 -0.04883,0.066 -0.01444,0.013 -0.03393,0.019 -0.05664,0.018 -0.02094,-4e-4 -0.04847,-0.01 -0.08398,-0.023 -0.03449,-0.018 -0.07819,-0.043 -0.132812,-0.074 l -0.05664,-0.031 -0.07422,0.1289 0.914063,0.5273 0.07422,-0.1289 -0.05273,-0.031 c -0.05638,-0.033 -0.100353,-0.059 -0.132812,-0.08 -0.02968,-0.022 -0.04997,-0.042 -0.0625,-0.061 -0.01253,-0.019 -0.01754,-0.038 -0.01367,-0.057 0.0049,-0.021 0.01591,-0.046 0.0332,-0.076 l 0.855469,-1.4824 c 0.01628,-0.028 0.03243,-0.05 0.04687,-0.062 0.01546,-0.014 0.03393,-0.021 0.05664,-0.019 0.02372,-4e-4 0.05321,0.01 0.08594,0.023 0.03551,0.016 0.08034,0.042 0.136719,0.074 l 0.05273,0.029 0.07422,-0.1269 -0.914063,-0.5274 z m -16.085937,0.037 -0.761719,0.4394 0.07227,0.127 0.04102,-0.022 c 0.06695,-0.039 0.11984,-0.058 0.158203,-0.057 0.04013,4e-4 0.07043,0.02 0.0918,0.057 0.0092,0.016 0.01379,0.032 0.01563,0.047 0.0036,0.014 0.0046,0.036 0.002,0.068 l -0.04687,0.6094 -0.675781,-0.3223 c -0.03844,-0.018 -0.06311,-0.035 -0.07227,-0.051 -0.0081,-0.014 -0.0048,-0.027 0.0098,-0.043 0.01457,-0.016 0.0487,-0.04 0.101563,-0.07 l 0.109375,-0.062 -0.07422,-0.127 -0.855469,0.4961 0.07227,0.125 0.04883,-0.027 c 0.03348,-0.019 0.061,-0.033 0.08594,-0.043 0.02392,-0.011 0.04648,-0.017 0.06641,-0.019 0.02169,0 0.04398,0 0.06445,0.01 0.02223,0.01 0.04709,0.016 0.07617,0.029 l 1,0.4746 -0.08594,0.8887 c -0.0099,0.1091 -0.03251,0.1988 -0.07031,0.2676 -0.03882,0.067 -0.09359,0.1214 -0.164063,0.1621 l -0.01172,0.01 0.07422,0.127 0.785156,-0.4531 -0.07422,-0.127 -0.06836,0.039 c -0.05638,0.033 -0.107404,0.048 -0.152344,0.043 -0.04596,-0.01 -0.08105,-0.032 -0.105468,-0.074 -0.02238,-0.039 -0.02999,-0.087 -0.02344,-0.1445 l 0.04687,-0.6504 0.751953,0.3438 c 0.0402,0.017 0.06771,0.04 0.08399,0.068 0.0061,0.011 0.01117,0.02 0.01172,0.029 0.0023,0.01 -0.0034,0.017 -0.01367,0.027 -0.01132,0.01 -0.02713,0.021 -0.05078,0.037 -0.02365,0.016 -0.05751,0.037 -0.101562,0.062 l -0.07813,0.045 0.07422,0.1269 0.908203,-0.5254 -0.07227,-0.1269 -0.03516,0.019 c -0.04405,0.025 -0.07998,0.045 -0.107422,0.059 -0.02846,0.012 -0.05366,0.019 -0.07813,0.022 -0.02447,0 -0.05127,-6e-4 -0.08008,-0.01 -0.02881,-0.01 -0.06612,-0.025 -0.109375,-0.047 l -1.060547,-0.502 0.07813,-0.7148 c 0.0082,-0.075 0.01672,-0.1368 0.02734,-0.1875 0.01063,-0.051 0.02597,-0.095 0.04297,-0.1309 0.017,-0.036 0.03857,-0.065 0.06445,-0.09 0.02487,-0.026 0.0548,-0.049 0.0918,-0.07 l 0.04492,-0.027 -0.07226,-0.1269 z m 22.152344,5.4043 -0.126954,0.074 0.03125,0.055 c 0.03153,0.055 0.05646,0.1012 0.07227,0.1367 0.01757,0.034 0.02485,0.062 0.02344,0.084 0.0014,0.023 -0.005,0.041 -0.01953,0.057 -0.01281,0.014 -0.03431,0.031 -0.0625,0.047 l -1.482422,0.8554 c -0.02995,0.017 -0.0555,0.028 -0.07617,0.033 -0.01891,0 -0.03766,0 -0.05664,-0.014 -0.01796,-0.011 -0.03769,-0.031 -0.06055,-0.062 -0.02109,-0.033 -0.04854,-0.076 -0.08008,-0.1309 l -0.03125,-0.055 -0.128906,0.074 0.527343,0.9141 0.128907,-0.074 -0.0293,-0.053 c -0.03255,-0.056 -0.05861,-0.1023 -0.07617,-0.1368 -0.01479,-0.034 -0.02208,-0.061 -0.02344,-0.084 -0.0014,-0.023 0.0048,-0.042 0.01758,-0.057 0.01457,-0.015 0.03645,-0.032 0.06641,-0.049 l 1.482422,-0.8555 c 0.02819,-0.016 0.0514,-0.027 0.07031,-0.031 0.02067,0 0.04156,-8e-4 0.06055,0.012 0.02074,0.011 0.04047,0.034 0.06055,0.064 0.02285,0.032 0.04948,0.075 0.08203,0.1309 l 0.03125,0.053 0.126953,-0.072 -0.527343,-0.916 z m -28.187501,0.1093 -0.439453,0.7617 0.126953,0.074 0.02344,-0.041 c 0.03866,-0.067 0.07353,-0.1089 0.107422,-0.1269 0.03491,-0.02 0.07237,-0.019 0.109375,0 0.01586,0.01 0.02783,0.021 0.03711,0.033 0.0103,0.011 0.02141,0.029 0.03516,0.058 l 0.263672,0.5508 -0.746094,0.059 c -0.04216,0 -0.07008,0 -0.08594,-0.01 -0.0141,-0.01 -0.01856,-0.022 -0.01367,-0.043 0.0049,-0.021 0.02222,-0.056 0.05273,-0.1093 l 0.0625,-0.1094 -0.126953,-0.072 -0.49414,0.8555 0.126953,0.074 0.02734,-0.049 c 0.01933,-0.034 0.03794,-0.059 0.05469,-0.08 0.01499,-0.022 0.03067,-0.039 0.04687,-0.051 0.01722,-0.014 0.03542,-0.023 0.05664,-0.027 0.02223,-0.01 0.04997,-0.011 0.08203,-0.014 l 1.103515,-0.088 0.371094,0.8125 c 0.04599,0.099 0.06864,0.1891 0.07031,0.2676 -9.2e-5,0.077 -0.01986,0.1522 -0.06055,0.2227 l -0.0059,0.01 0.126953,0.072 0.453125,-0.7832 -0.126953,-0.074 -0.04102,0.068 c -0.03255,0.056 -0.06816,0.095 -0.109375,0.1133 -0.04298,0.017 -0.08662,0.013 -0.128906,-0.012 -0.03876,-0.022 -0.06857,-0.06 -0.0918,-0.1133 l -0.285157,-0.5859 0.824219,-0.078 c 0.04318,-0.01 0.07728,-6e-4 0.105468,0.016 0.01057,0.01 0.01842,0.014 0.02344,0.021 0.006,0.01 0.0075,0.015 0.0039,0.029 -0.0054,0.013 -0.01291,0.033 -0.02539,0.059 -0.01248,0.026 -0.03121,0.062 -0.05664,0.1055 l -0.04492,0.076 0.126953,0.072 0.525391,-0.9082 -0.126953,-0.074 -0.02149,0.035 c -0.02543,0.044 -0.04548,0.078 -0.0625,0.1035 -0.01878,0.024 -0.03859,0.044 -0.05859,0.059 -0.02,0.014 -0.04467,0.025 -0.07422,0.031 -0.02955,0.01 -0.06872,0.011 -0.117188,0.014 l -1.169922,0.096 -0.289063,-0.6562 c -0.03048,-0.069 -0.05413,-0.1285 -0.07031,-0.1778 -0.01618,-0.049 -0.02619,-0.093 -0.0293,-0.1328 -0.0031,-0.039 0.0015,-0.077 0.01172,-0.1113 0.0085,-0.035 0.02356,-0.07 0.04492,-0.1074 l 0.02539,-0.045 -0.126953,-0.074 z m 28.837891,1.0176 -0.126953,0.072 0.03125,0.057 c 0.03153,0.055 0.05451,0.099 0.07031,0.1348 0.01756,0.034 0.02681,0.062 0.02539,0.084 0.0014,0.023 -0.005,0.043 -0.01953,0.059 -0.01281,0.014 -0.03431,0.029 -0.0625,0.045 l -1.482422,0.8554 c -0.02995,0.017 -0.0555,0.03 -0.07617,0.035 -0.01891,0 -0.03766,0 -0.05664,-0.014 -0.01796,-0.011 -0.03769,-0.033 -0.06055,-0.064 -0.02109,-0.033 -0.04854,-0.074 -0.08008,-0.1289 l -0.03125,-0.057 -0.128907,0.074 0.527344,0.9161 0.128906,-0.076 -0.0293,-0.053 c -0.03255,-0.056 -0.05861,-0.1003 -0.07617,-0.1348 -0.01479,-0.034 -0.02207,-0.063 -0.02344,-0.086 -0.0014,-0.023 0.0028,-0.04 0.01563,-0.055 0.01457,-0.015 0.03841,-0.034 0.06836,-0.051 l 1.482422,-0.8555 c 0.02819,-0.016 0.0514,-0.025 0.07031,-0.029 0.02067,0 0.03961,-8e-4 0.05859,0.012 0.02074,0.012 0.04243,0.032 0.0625,0.062 0.02285,0.032 0.04948,0.075 0.08203,0.1309 l 0.03125,0.055 0.126953,-0.074 -0.527344,-0.9141 z m -0.09961,6.5332 0,1.0566 0.148437,0 0,-0.062 c 0,-0.065 0.0019,-0.1156 0.0039,-0.1542 0.0041,-0.037 0.01131,-0.066 0.02148,-0.086 0.01017,-0.02 0.02466,-0.033 0.04297,-0.039 0.02034,-0.01 0.04744,-0.01 0.08203,-0.01 l 1.710937,0 c 0.03255,0 0.05786,0 0.07617,0.01 0.02034,0.01 0.0367,0.019 0.04687,0.039 0.01221,0.02 0.01945,0.049 0.02148,0.086 0.0041,0.039 0.0059,0.089 0.0059,0.1542 l 0,0.062 0.146484,0 0,-1.0566 -0.146484,0 0,0.064 c 0,0.063 -0.0018,0.1136 -0.0059,0.1523 -0.002,0.039 -0.0093,0.068 -0.02148,0.086 -0.01017,0.02 -0.02653,0.033 -0.04687,0.039 -0.01831,0.01 -0.04362,0.01 -0.07617,0.01 l -1.710937,0 c -0.03459,0 -0.06169,0 -0.08203,-0.01 -0.01831,-0.01 -0.0328,-0.019 -0.04297,-0.039 -0.01017,-0.018 -0.01741,-0.047 -0.02148,-0.086 -0.002,-0.039 -0.0039,-0.089 -0.0039,-0.1523 l 0,-0.064 -0.148437,0 z m -29.402344,0.094 0,0.041 c 0,0.051 8.1e-5,0.091 -0.002,0.1211 -0.0041,0.031 -0.01131,0.058 -0.02148,0.08 -0.01017,0.022 -0.02645,0.044 -0.04883,0.065 -0.02238,0.02 -0.05501,0.044 -0.0957,0.07 l -0.962891,0.668 -0.580078,-0.4238 c -0.06103,-0.045 -0.111735,-0.085 -0.15039,-0.1192 -0.03866,-0.035 -0.06942,-0.069 -0.0918,-0.1016 -0.02238,-0.033 -0.03678,-0.065 -0.04492,-0.1 -0.01017,-0.034 -0.01563,-0.074 -0.01563,-0.1171 l 0,-0.051 -0.146485,0 0,0.8789 0.146485,0 0,-0.047 c 0,-0.077 0.01091,-0.1315 0.03125,-0.1641 0.02034,-0.034 0.05103,-0.053 0.09375,-0.053 0.01831,0 0.03459,0 0.04883,0.01 0.01424,0 0.0341,0.015 0.06055,0.033 l 0.503906,0.3457 -0.615235,0.4238 c -0.03459,0.024 -0.06177,0.037 -0.08008,0.037 -0.01628,0 -0.0271,-0.011 -0.0332,-0.031 -0.0061,-0.02 -0.0098,-0.062 -0.0098,-0.1231 l 0,-0.125 -0.146484,0 0,0.9903 0.146484,0 0,-0.055 c 0,-0.039 0.0018,-0.071 0.0059,-0.098 0.002,-0.026 0.0075,-0.05 0.01563,-0.068 0.0081,-0.02 0.02083,-0.036 0.03711,-0.051 0.01628,-0.016 0.03801,-0.034 0.06445,-0.053 l 0.91211,-0.6289 0.726562,0.5196 c 0.08952,0.063 0.154623,0.1281 0.195313,0.1953 0.03866,0.067 0.05664,0.1412 0.05664,0.2226 l 0,0.012 0.146484,0 0,-0.9062 -0.146484,0 0,0.08 c 0,0.065 -0.01261,0.1157 -0.03906,0.1523 -0.02848,0.037 -0.06641,0.055 -0.115235,0.055 -0.04476,0 -0.09188,-0.018 -0.138671,-0.053 l -0.539063,-0.3653 0.673828,-0.4785 c 0.03459,-0.026 0.06901,-0.041 0.101563,-0.041 0.01221,0 0.02116,0 0.0293,0.01 0.0081,0 0.01546,0.011 0.01953,0.025 0.002,0.014 0.0038,0.036 0.0059,0.064 0.002,0.028 0.002,0.068 0.002,0.1191 l 0,0.088 0.146484,0 0,-1.0507 -0.146484,0 z m 29.402344,1.207 0,1.0547 0.148437,0 0,-0.061 c 0,-0.065 0.0019,-0.1176 0.0039,-0.1562 0.0041,-0.037 0.01131,-0.064 0.02148,-0.084 0.01017,-0.02 0.02466,-0.035 0.04297,-0.041 0.02034,-0.01 0.04744,-0.01 0.08203,-0.01 l 1.710937,0 c 0.03255,0 0.05786,0 0.07617,0.01 0.02034,0.01 0.0367,0.021 0.04687,0.041 0.01221,0.02 0.01945,0.047 0.02148,0.084 0.0041,0.039 0.0059,0.091 0.0059,0.1562 l 0,0.061 0.146484,0 0,-1.0547 -0.146484,0 0,0.062 c 0,0.063 -0.0018,0.1156 -0.0059,0.1543 -0.002,0.039 -0.0093,0.066 -0.02148,0.084 -0.01017,0.02 -0.02653,0.035 -0.04687,0.041 -0.01831,0.01 -0.04362,0.01 -0.07617,0.01 l -1.710937,0 c -0.03459,0 -0.06169,0 -0.08203,-0.01 -0.01831,-0.01 -0.0328,-0.021 -0.04297,-0.041 -0.01017,-0.018 -0.01741,-0.045 -0.02148,-0.084 -0.002,-0.039 -0.0039,-0.091 -0.0039,-0.1543 l 0,-0.062 -0.148437,0 z m -31.5625,1.2051 0,1.0547 0.146484,0 0,-0.062 c 0,-0.063 0.0018,-0.1157 0.0059,-0.1543 0.002,-0.039 0.0093,-0.066 0.02148,-0.084 0.01017,-0.02 0.02653,-0.035 0.04687,-0.041 0.01831,-0.01 0.04362,-0.01 0.07617,-0.01 l 1.710937,0 c 0.03459,0 0.06169,0 0.08203,0.01 0.01831,0.01 0.0328,0.021 0.04297,0.041 0.01017,0.018 0.01741,0.045 0.02148,0.084 0.002,0.039 0.0039,0.091 0.0039,0.1543 l 0,0.062 0.148438,0 0,-1.0547 -0.148438,0 0,0.061 c 0,0.065 -0.0019,0.1176 -0.0039,0.1563 -0.0041,0.037 -0.01131,0.064 -0.02148,0.084 -0.01017,0.02 -0.02466,0.035 -0.04297,0.041 -0.02035,0.01 -0.04745,0.01 -0.08203,0.01 l -1.710937,0 c -0.03255,0 -0.05786,0 -0.07617,-0.01 -0.02034,-0.01 -0.0367,-0.021 -0.04687,-0.041 -0.01221,-0.02 -0.01945,-0.047 -0.02148,-0.084 -0.0041,-0.039 -0.0059,-0.091 -0.0059,-0.1563 l 0,-0.061 -0.146484,0 z m 31.5625,0.094 0,1.0567 0.148437,0 0,-0.061 c 0,-0.065 0.0019,-0.1176 0.0039,-0.1562 0.0041,-0.037 0.01131,-0.066 0.02148,-0.086 0.01017,-0.02 0.02466,-0.033 0.04297,-0.039 0.02034,-0.01 0.04744,-0.01 0.08203,-0.01 l 1.710937,0 c 0.03255,0 0.05786,0 0.07617,0.01 0.02034,0.01 0.0367,0.019 0.04687,0.039 0.01221,0.02 0.01945,0.049 0.02148,0.086 0.0041,0.039 0.0059,0.091 0.0059,0.1562 l 0,0.061 0.146484,0 0,-1.0567 -0.146484,0 0,0.064 c 0,0.063 -0.0018,0.1137 -0.0059,0.1523 -0.002,0.039 -0.0093,0.068 -0.02148,0.086 -0.01017,0.02 -0.02653,0.033 -0.04687,0.039 -0.01831,0.01 -0.04362,0.01 -0.07617,0.01 l -1.710937,0 c -0.03459,0 -0.06169,0 -0.08203,-0.01 -0.01831,-0.01 -0.0328,-0.019 -0.04297,-0.039 -0.01017,-0.018 -0.01741,-0.047 -0.02148,-0.086 -0.002,-0.039 -0.0039,-0.089 -0.0039,-0.1523 l 0,-0.064 -0.148437,0 z m -28.638672,4.2539 -0.13086,0.076 0.02734,0.045 c 0.02827,0.049 0.04944,0.089 0.06445,0.1192 0.01236,0.03 0.01955,0.054 0.01953,0.074 -1.5e-5,0.02 -0.0082,0.039 -0.02148,0.053 -0.01505,0.015 -0.03632,0.03 -0.06641,0.047 l -1.490234,0.8594 c -0.02832,0.016 -0.05174,0.029 -0.07031,0.033 -0.02035,0.01 -0.03896,0 -0.05664,-0.01 -0.01945,-0.01 -0.03702,-0.026 -0.05469,-0.053 -0.02032,-0.027 -0.04595,-0.066 -0.07422,-0.1152 l -0.02539,-0.045 -0.128906,0.072 0.458984,0.7949 0.126953,-0.074 -0.02734,-0.047 c -0.02739,-0.048 -0.0473,-0.088 -0.06055,-0.1192 -0.01501,-0.03 -0.0222,-0.054 -0.01953,-0.074 1.5e-5,-0.02 0.0084,-0.038 0.02344,-0.053 0.01328,-0.014 0.03418,-0.029 0.0625,-0.045 l 1.488282,-0.8593 c 0.03008,-0.017 0.05582,-0.03 0.07617,-0.035 0.01858,0 0.03701,0 0.05469,0.01 0.0168,0.01 0.03632,0.028 0.05664,0.055 0.01855,0.028 0.04097,0.066 0.06836,0.1133 l 0.02734,0.047 0.130859,-0.074 -0.458984,-0.7949 z m 27.578125,0.7793 -0.529297,0.9141 0.130859,0.076 0.0293,-0.055 c 0.03255,-0.056 0.06094,-0.1004 0.08203,-0.1328 0.02183,-0.03 0.04156,-0.05 0.06055,-0.062 0.01898,-0.013 0.03773,-0.018 0.05664,-0.014 0.02067,0 0.04622,0.016 0.07617,0.033 l 1.482422,0.8555 c 0.02819,0.016 0.04774,0.032 0.06055,0.047 0.01457,0.015 0.02285,0.034 0.02148,0.057 3.99e-4,0.024 -0.0088,0.053 -0.02539,0.086 -0.0158,0.035 -0.03971,0.08 -0.07227,0.1367 l -0.03125,0.053 0.126953,0.074 0.529297,-0.9141 -0.126953,-0.074 -0.0332,0.057 c -0.03153,0.055 -0.05723,0.098 -0.08008,0.1289 -0.02109,0.033 -0.04277,0.053 -0.0625,0.062 -0.01898,0.013 -0.03792,0.017 -0.05859,0.012 -0.01891,0 -0.04212,-0.015 -0.07031,-0.031 l -1.482422,-0.8555 c -0.02995,-0.017 -0.05379,-0.033 -0.06836,-0.049 -0.01281,-0.014 -0.01699,-0.032 -0.01563,-0.055 3.45e-4,-0.021 0.0076,-0.05 0.02344,-0.086 0.01757,-0.034 0.04268,-0.078 0.07422,-0.1328 l 0.03125,-0.057 -0.128906,-0.074 z m -27.013672,0.1992 -0.13086,0.074 0.02734,0.047 c 0.02827,0.049 0.04944,0.087 0.06445,0.1172 0.01236,0.03 0.01955,0.056 0.01953,0.076 -1.5e-5,0.02 -0.0082,0.037 -0.02148,0.051 -0.01505,0.015 -0.03632,0.031 -0.06641,0.049 l -1.490234,0.8594 c -0.02832,0.016 -0.05174,0.027 -0.07031,0.031 -0.02035,0.01 -0.03896,0 -0.05664,-0.01 -0.01945,-0.01 -0.03702,-0.028 -0.05469,-0.055 -0.02032,-0.027 -0.04595,-0.064 -0.07422,-0.1133 l -0.02539,-0.047 -0.128906,0.074 0.458984,0.795 0.126953,-0.074 -0.02734,-0.049 c -0.02738,-0.047 -0.0473,-0.086 -0.06055,-0.1172 -0.01501,-0.03 -0.0222,-0.054 -0.01953,-0.074 1.5e-5,-0.02 0.0084,-0.04 0.02344,-0.055 0.01328,-0.014 0.03418,-0.029 0.0625,-0.045 l 1.488282,-0.8594 c 0.03009,-0.017 0.05582,-0.03 0.07617,-0.035 0.01858,0 0.03701,-5e-4 0.05469,0.01 0.0168,0.01 0.03632,0.026 0.05664,0.053 0.01855,0.028 0.04098,0.066 0.06836,0.1133 l 0.02734,0.049 0.130859,-0.076 -0.458978,-0.793 z m 0.564453,0.9766 -0.130859,0.076 0.02734,0.045 c 0.02827,0.049 0.04944,0.089 0.06445,0.1191 0.01236,0.03 0.01955,0.054 0.01953,0.074 -1.5e-5,0.02 -0.0082,0.039 -0.02148,0.053 -0.01505,0.015 -0.03632,0.029 -0.06641,0.047 l -1.490234,0.8613 c -0.02832,0.016 -0.05174,0.027 -0.07031,0.031 -0.02035,0.01 -0.03896,0 -0.05664,-0.01 -0.01945,-0.01 -0.03702,-0.026 -0.05469,-0.053 -0.02032,-0.027 -0.04595,-0.066 -0.07422,-0.1152 l -0.02539,-0.045 -0.128907,0.074 0.458985,0.7929 0.126953,-0.072 -0.02734,-0.049 c -0.02739,-0.047 -0.0473,-0.086 -0.06055,-0.1172 -0.01501,-0.03 -0.0222,-0.056 -0.01953,-0.076 1.5e-5,-0.02 0.0084,-0.038 0.02344,-0.053 0.01328,-0.014 0.03418,-0.028 0.0625,-0.045 l 1.488281,-0.8594 c 0.03009,-0.017 0.05582,-0.03 0.07617,-0.035 0.01858,0 0.03701,0 0.05469,0.01 0.0168,0.01 0.03632,0.028 0.05664,0.055 0.01855,0.028 0.04097,0.066 0.06836,0.1133 l 0.02734,0.047 0.13086,-0.074 -0.458985,-0.7949 z m 25.269531,0.7695 -0.0625,0.1075 1.275391,1.582 c 0.04241,0.053 0.07556,0.099 0.09961,0.1387 0.02405,0.04 0.03876,0.077 0.04492,0.1113 0.0079,0.035 0.0073,0.067 -0.002,0.1 -0.0075,0.033 -0.02348,0.071 -0.04687,0.1113 l -0.01367,0.027 0.126953,0.072 0.431641,-0.748 -0.126953,-0.072 -0.0293,0.049 c -0.04171,0.072 -0.08791,0.1211 -0.136719,0.1446 -0.04705,0.024 -0.09286,0.023 -0.138672,0 -0.01938,-0.011 -0.04033,-0.027 -0.06445,-0.051 -0.02412,-0.023 -0.04702,-0.046 -0.06836,-0.07 l -0.898438,-1.0899 1.582032,0.2403 c 0.01993,0 0.03968,0 0.05859,0.01 0.01789,0.01 0.03025,0.013 0.03906,0.018 0.02467,0.014 0.03594,0.038 0.03125,0.07 -0.0057,0.034 -0.0269,0.081 -0.0625,0.1426 l -0.06445,0.1113 0.126953,0.074 0.498047,-0.8652 -0.126953,-0.072 -0.03125,0.055 c -0.03459,0.06 -0.06981,0.098 -0.105469,0.1152 -0.03566,0.017 -0.09338,0.021 -0.173828,0.01 l -2.16211,-0.3145 z m -24.24414,0.9102 -1.966797,0.4004 c -0.06546,0.013 -0.120904,0.022 -0.166016,0.025 -0.04511,0 -0.08233,8e-4 -0.113281,-0.01 -0.03272,-0.01 -0.06082,-0.021 -0.08203,-0.041 -0.02298,-0.019 -0.04414,-0.047 -0.06445,-0.082 l -0.01367,-0.023 -0.126953,0.074 0.375,0.6484 0.126953,-0.074 -0.02344,-0.043 c -0.03622,-0.063 -0.05203,-0.1189 -0.04492,-0.1679 0.0053,-0.048 0.03211,-0.085 0.07813,-0.1114 0.01947,-0.011 0.04432,-0.021 0.07617,-0.031 0.03185,-0.01 0.06279,-0.02 0.09375,-0.027 l 1.365235,-0.293 -1.042969,1.1875 c -0.01239,0.015 -0.02578,0.029 -0.03906,0.043 -0.01416,0.012 -0.02435,0.022 -0.0332,0.027 -0.02478,0.014 -0.05035,0.013 -0.07422,0 -0.02475,-0.018 -0.05111,-0.056 -0.08203,-0.1094 l -0.05664,-0.096 -0.126954,0.074 0.433594,0.75 0.126953,-0.074 -0.02734,-0.047 c -0.03003,-0.052 -0.04244,-0.097 -0.03711,-0.1328 0.0053,-0.036 0.03371,-0.084 0.08594,-0.1445 l 1.414063,-1.627 -0.05469,-0.094 z m 2.666015,2.9473 -0.07422,0.1308 0.04687,0.027 c 0.05051,0.029 0.09017,0.053 0.11914,0.072 0.02637,0.02 0.04596,0.039 0.05664,0.057 0.01068,0.018 0.01422,0.036 0.0098,0.055 -0.0055,0.02 -0.0178,0.046 -0.03516,0.076 l -0.859375,1.4883 c -0.01633,0.028 -0.031,0.049 -0.04492,0.062 -0.01494,0.015 -0.0338,0.022 -0.05469,0.022 -0.02191,0 -0.04674,0 -0.07617,-0.02 -0.03203,-0.014 -0.07254,-0.035 -0.123047,-0.064 l -0.04883,-0.027 -0.07227,0.1269 0.81836,0.4727 0.07422,-0.127 -0.05078,-0.029 c -0.04893,-0.028 -0.08729,-0.053 -0.115234,-0.074 -0.02897,-0.019 -0.04661,-0.038 -0.05469,-0.057 -0.01068,-0.018 -0.01328,-0.036 -0.0078,-0.057 0.0045,-0.019 0.01492,-0.042 0.03125,-0.07 l 0.859375,-1.4883 c 0.01735,-0.03 0.03193,-0.051 0.04687,-0.066 0.01392,-0.013 0.03185,-0.02 0.05273,-0.019 0.01931,-7e-4 0.04609,0.01 0.07813,0.019 0.03101,0.016 0.07021,0.036 0.119141,0.064 l 0.04883,0.029 0.07617,-0.1289 -0.820313,-0.4746 z m 1.009766,0.582 -0.07617,0.1308 0.04883,0.027 c 0.05051,0.029 0.09017,0.053 0.119141,0.072 0.02637,0.02 0.04401,0.039 0.05469,0.057 0.01068,0.018 0.01422,0.036 0.0098,0.055 -0.0055,0.02 -0.0178,0.046 -0.03516,0.076 l -0.857422,1.4882 c -0.01633,0.028 -0.03295,0.049 -0.04687,0.062 -0.01494,0.015 -0.03185,0.022 -0.05273,0.022 -0.02191,0 -0.04869,0 -0.07813,-0.019 -0.03203,-0.014 -0.07254,-0.035 -0.123046,-0.065 l -0.04687,-0.027 -0.07422,0.1269 0.820312,0.4727 0.07227,-0.127 -0.04883,-0.029 c -0.04893,-0.028 -0.08729,-0.052 -0.115234,-0.072 -0.02897,-0.019 -0.04856,-0.038 -0.05664,-0.057 -0.01068,-0.018 -0.01328,-0.038 -0.0078,-0.058 0.0045,-0.019 0.01492,-0.042 0.03125,-0.07 l 0.859375,-1.4882 c 0.01735,-0.03 0.03389,-0.052 0.04883,-0.066 0.01392,-0.013 0.03184,-0.02 0.05273,-0.02 0.01931,-6e-4 0.04414,0.01 0.07617,0.02 0.03101,0.015 0.07021,0.036 0.11914,0.064 l 0.05078,0.029 0.07422,-0.1289 -0.818359,-0.4746 z m 15.533203,0.4277 -0.107422,0.062 0.3125,2.0078 c 0.01039,0.067 0.01661,0.1235 0.01758,0.17 9.64e-4,0.046 -0.0039,0.084 -0.01563,0.1171 -0.0107,0.034 -0.02861,0.065 -0.05273,0.088 -0.02311,0.025 -0.05518,0.049 -0.0957,0.072 l -0.02734,0.016 0.07422,0.127 0.748047,-0.4336 -0.07422,-0.127 -0.04883,0.029 c -0.07224,0.042 -0.135432,0.061 -0.189453,0.057 -0.053,0 -0.09269,-0.026 -0.119141,-0.072 -0.01119,-0.019 -0.02202,-0.044 -0.03125,-0.076 -0.0092,-0.032 -0.01699,-0.064 -0.02344,-0.096 l -0.232422,-1.3926 1.25,0.9981 c 0.0162,0.012 0.03048,0.024 0.04492,0.037 0.01268,0.014 0.02226,0.026 0.02734,0.035 0.01424,0.025 0.01056,0.048 -0.0098,0.074 -0.02209,0.027 -0.06333,0.058 -0.125,0.094 l -0.111328,0.064 0.07227,0.1269 0.865235,-0.498 -0.07422,-0.127 -0.05469,0.031 c -0.05991,0.035 -0.109056,0.05 -0.148437,0.047 -0.03938,0 -0.09218,-0.028 -0.15625,-0.078 l -1.714844,-1.3535 z m -13.751953,0.5449 -1.519531,1.3184 c -0.05059,0.044 -0.09503,0.08 -0.132813,0.1055 -0.03778,0.025 -0.07177,0.041 -0.103515,0.049 -0.03277,0.01 -0.06441,0.01 -0.09375,0 -0.03036,-0.01 -0.0633,-0.018 -0.09961,-0.039 l -0.02344,-0.014 -0.07422,0.127 0.669922,0.3867 0.07422,-0.127 -0.04492,-0.027 c -0.06472,-0.037 -0.107539,-0.078 -0.126953,-0.125 -0.02043,-0.045 -0.01677,-0.091 0.0098,-0.1367 0.01123,-0.019 0.02813,-0.042 0.05078,-0.066 0.02265,-0.025 0.04516,-0.046 0.06836,-0.068 l 1.046875,-0.9277 -0.294922,1.5547 c -0.0029,0.019 -0.0073,0.04 -0.01172,0.059 -0.006,0.018 -0.01052,0.03 -0.01563,0.039 -0.01429,0.025 -0.03661,0.036 -0.06641,0.033 -0.03138,0 -0.07561,-0.023 -0.130859,-0.055 l -0.09961,-0.057 -0.07227,0.1269 0.773437,0.4473 0.07422,-0.1269 -0.05078,-0.029 c -0.05367,-0.031 -0.08754,-0.064 -0.101563,-0.098 -0.01403,-0.034 -0.01409,-0.091 0,-0.1699 l 0.392578,-2.125 -0.09766,-0.057 z m 6.908203,1.4414 -0.732422,1.8946 c -0.02441,0.063 -0.04598,0.1155 -0.06836,0.1562 -0.02238,0.041 -0.04777,0.071 -0.07422,0.094 -0.02645,0.024 -0.05534,0.041 -0.08789,0.049 -0.03255,0.01 -0.07235,0.016 -0.119141,0.016 l -0.03125,0 0,0.1465 0.863281,0 0,-0.1465 -0.05664,0 c -0.08341,0 -0.148601,-0.016 -0.19336,-0.047 -0.04476,-0.028 -0.06641,-0.068 -0.06641,-0.1211 0,-0.022 0.0036,-0.049 0.01172,-0.082 0.0081,-0.033 0.01717,-0.065 0.02734,-0.096 l 0.494141,-1.3203 0.583984,1.4883 c 0.0081,0.018 0.01538,0.036 0.02148,0.055 0.0041,0.018 0.0059,0.033 0.0059,0.043 0,0.028 -0.01636,0.048 -0.04687,0.06 -0.03255,0.012 -0.08309,0.02 -0.154297,0.02 l -0.128906,0 0,0.1465 0.998047,0 0,-0.1465 -0.06445,0 c -0.06917,0 -0.119792,-0.011 -0.152344,-0.033 -0.03255,-0.022 -0.06323,-0.071 -0.09375,-0.1465 l -0.808594,-2.0293 -0.126953,0 z m -2.263672,0.049 0,0.1484 0.06055,0 c 0.0651,0 0.117595,0 0.15625,0 0.03662,0 0.06559,0.011 0.08594,0.022 0.02035,0.01 0.03296,0.025 0.03906,0.043 0.0061,0.02 0.0098,0.047 0.0098,0.082 l 0,1.7109 c 0,0.033 -0.0037,0.058 -0.0098,0.076 -0.0061,0.02 -0.01872,0.037 -0.03906,0.047 -0.02034,0.012 -0.04932,0.019 -0.08594,0.021 -0.03866,0 -0.09115,0.01 -0.15625,0.01 l -0.06055,0 0,0.1465 1.056641,0 0,-0.1465 -0.06445,0 c -0.06307,0 -0.113688,0 -0.152344,-0.01 -0.03866,0 -0.06763,-0.01 -0.08594,-0.021 -0.02035,-0.01 -0.03296,-0.027 -0.03906,-0.047 -0.0061,-0.018 -0.0098,-0.044 -0.0098,-0.076 l 0,-1.7109 c 0,-0.035 0.0037,-0.062 0.0098,-0.082 0.0061,-0.018 0.01872,-0.033 0.03906,-0.043 0.01831,-0.01 0.04728,-0.017 0.08594,-0.022 0.03866,0 0.08927,0 0.152344,0 l 0.06445,0 0,-0.1484 -1.056641,0 z"
       style="font-style:normal;font-variant:normal;font-weight:normal;font-stretch:normal;font-size:3.125px;font-family:'Tibetan Machine Uni';-inkscape-font-specification:'Tibetan Machine Uni';opacity:1;fill:#000000;fill-opacity:0.32631579;stroke:#000000;stroke-width:0.15800001;stroke-miterlimit:4;stroke-dasharray:none;stroke-opacity:0.62745098"
       inkscape:connector-curvature="0" />
    <path
       style="font-style:normal;font-variant:normal;font-weight:normal;font-stretch:normal;font-size:3.125px;font-family:'Tibetan Machine Uni';-inkscape-font-specification:'Tibetan Machine Uni';opacity:1;fill:#ffffff;fill-opacity:1;stroke:#ffffff;stroke-width:0.15800001;stroke-miterlimit:4;stroke-dasharray:none;stroke-opacity:1"
       d="m 57.572314,954.54509 0,0.1465 0.05078,0 c 0.03539,0 0.06563,0 0.08984,0.01 0.02422,0 0.04378,0.01 0.06055,0.016 0.01863,0.01 0.03579,0.021 0.04883,0.037 0.0149,0.016 0.03011,0.038 0.04687,0.064 l 0.576172,0.9141 -0.474609,0.7285 c -0.05775,0.09 -0.118214,0.1545 -0.179688,0.1953 -0.06147,0.039 -0.128606,0.059 -0.20312,0.059 l -0.01172,0 0,0.1465 0.830078,0 0,-0.1465 -0.07227,0 c -0.05961,0 -0.107094,-0.013 -0.140625,-0.039 -0.03353,-0.029 -0.05078,-0.068 -0.05078,-0.1172 0,-0.045 0.01716,-0.09 0.04883,-0.1367 l 0.333984,-0.5429 0.439453,0.6777 c 0.02422,0.035 0.03516,0.067 0.03516,0.1 0,0.012 -1.81e-4,0.023 -0.0039,0.031 -0.0019,0.01 -0.0104,0.015 -0.02344,0.02 -0.01304,0 -0.03251,0 -0.05859,0.01 -0.02608,0 -0.0628,0 -0.109375,0 l -0.08008,0 0,0.1465 0.960938,0 0,-0.1465 -0.03711,0 c -0.04657,0 -0.08338,10e-5 -0.111328,0 -0.02794,0 -0.05177,-0.011 -0.07227,-0.021 -0.02049,-0.01 -0.03997,-0.026 -0.05859,-0.049 -0.01863,-0.022 -0.04024,-0.055 -0.06445,-0.096 l -0.611336,-0.9668 0.388671,-0.582 c 0.04098,-0.061 0.07575,-0.1116 0.107422,-0.1504 0.03167,-0.039 0.06395,-0.069 0.09375,-0.092 0.02981,-0.022 0.06013,-0.037 0.0918,-0.045 0.03167,-0.01 0.06635,-0.016 0.105469,-0.016 l 0.04687,0 0,-0.1465 -0.804688,0 0,0.1465 0.04297,0 c 0.07079,0 0.120585,0.011 0.150391,0.031 0.03167,0.02 0.04687,0.051 0.04687,0.094 0,0.018 -0.0022,0.034 -0.0078,0.049 -0.0037,0.014 -0.01448,0.036 -0.03125,0.062 l -0.31446,0.5039 -0.388672,-0.6172 c -0.02235,-0.035 -0.0332,-0.062 -0.0332,-0.08 0,-0.016 0.0087,-0.027 0.02734,-0.033 0.01863,-0.01 0.05544,-0.01 0.111328,-0.01 l 0.115234,0 0,-0.1465 -0.90625,0 z m 2.191407,0 0,0.1465 0.05859,0 c 0.05775,0 0.105231,0 0.140625,0.01 0.03539,0 0.06136,0.01 0.07813,0.022 0.01863,0.01 0.02957,0.026 0.03516,0.047 0.0056,0.018 0.0098,0.043 0.0098,0.076 l 0,1.7168 c 0,0.035 -0.0042,0.062 -0.0098,0.082 -0.0056,0.018 -0.01653,0.033 -0.03516,0.043 -0.01676,0.01 -0.04273,0.017 -0.07813,0.021 -0.03539,0 -0.08288,0 -0.140625,0 l -0.05859,0 0,0.1484 0.966797,0 0,-0.1484 -0.05664,0 c -0.05961,0 -0.107184,0 -0.142578,0 -0.03353,0 -0.0595,-0.011 -0.07813,-0.021 -0.01863,-0.01 -0.02957,-0.025 -0.03516,-0.043 -0.0056,-0.02 -0.0078,-0.047 -0.0078,-0.082 l 0,-1.7168 c 0,-0.033 0.0022,-0.058 0.0078,-0.076 0.0056,-0.02 0.01653,-0.037 0.03516,-0.047 0.01863,-0.012 0.04459,-0.019 0.07813,-0.022 0.03539,0 0.08297,-0.01 0.142578,-0.01 l 0.05664,0 0,-0.1465 -0.966797,0 z m 1.191406,0 0,0.1465 0.05859,0 c 0.05775,0 0.103277,0 0.138671,0.01 0.03539,0 0.06136,0.01 0.07813,0.022 0.01863,0.01 0.03152,0.026 0.03711,0.047 0.0056,0.018 0.0078,0.043 0.0078,0.076 l 0,1.7168 c 0,0.035 -0.0022,0.062 -0.0078,0.082 -0.0056,0.018 -0.01848,0.033 -0.03711,0.043 -0.01677,0.01 -0.04273,0.017 -0.07813,0.021 -0.03539,0 -0.08092,0 -0.138671,0 l -0.05859,0 0,0.1484 0.966797,0 0,-0.1484 -0.05664,0 c -0.05961,0 -0.107184,0 -0.142578,0 -0.03353,0 -0.0595,-0.011 -0.07813,-0.021 -0.01863,-0.01 -0.03152,-0.025 -0.03711,-0.043 -0.0056,-0.02 -0.0078,-0.047 -0.0078,-0.082 l 0,-1.7168 c 0,-0.033 0.0022,-0.058 0.0078,-0.076 0.0056,-0.02 0.01848,-0.037 0.03711,-0.047 0.01863,-0.012 0.04459,-0.019 0.07813,-0.022 0.03539,0 0.08297,-0.01 0.142578,-0.01 l 0.05664,0 0,-0.1465 -0.966797,0 z m -8.181641,1.4101 -0.914062,0.5274 0.07226,0.1269 0.05664,-0.031 c 0.05462,-0.032 0.09925,-0.057 0.134766,-0.072 0.03449,-0.018 0.06202,-0.025 0.08398,-0.023 0.02271,0 0.04118,0 0.05664,0.019 0.01444,0.013 0.0306,0.032 0.04687,0.061 l 0.855468,1.4843 c 0.01729,0.03 0.02832,0.054 0.0332,0.074 0.0039,0.019 8.14e-4,0.04 -0.01172,0.059 -0.01077,0.018 -0.03301,0.038 -0.06445,0.061 -0.03246,0.021 -0.07624,0.047 -0.13086,0.078 l -0.05469,0.033 0.07422,0.1289 0.914062,-0.5273 -0.07422,-0.1309 -0.05273,0.031 c -0.05638,0.032 -0.102225,0.057 -0.136719,0.074 -0.03375,0.015 -0.06128,0.024 -0.08398,0.025 -0.02271,0 -0.0422,0 -0.05664,-0.018 -0.01546,-0.015 -0.03154,-0.036 -0.04883,-0.066 l -0.855455,-1.4824 c -0.01628,-0.028 -0.02543,-0.051 -0.0293,-0.07 -0.0049,-0.021 -0.0028,-0.042 0.0098,-0.061 0.01152,-0.021 0.03376,-0.041 0.06445,-0.061 0.03144,-0.023 0.07448,-0.051 0.13086,-0.084 l 0.05273,-0.029 -0.07227,-0.127 z m 14.984375,0.5977 -0.07422,0.127 0.05664,0.031 c 0.05462,0.031 0.09746,0.059 0.128906,0.082 0.03246,0.021 0.05275,0.041 0.0625,0.061 0.01253,0.019 0.01661,0.04 0.01172,0.06 -0.0039,0.019 -0.01497,0.042 -0.03125,0.07 l -0.855469,1.4825 c -0.01729,0.03 -0.03337,0.052 -0.04883,0.066 -0.01444,0.013 -0.03393,0.019 -0.05664,0.018 -0.02094,-3e-4 -0.04847,-0.01 -0.08398,-0.023 -0.03449,-0.018 -0.07819,-0.043 -0.132812,-0.074 l -0.05664,-0.031 -0.07422,0.1289 0.914063,0.5274 0.07422,-0.1289 -0.05273,-0.031 c -0.05638,-0.033 -0.100353,-0.059 -0.132812,-0.08 -0.02968,-0.022 -0.04997,-0.042 -0.0625,-0.061 -0.01253,-0.019 -0.01754,-0.038 -0.01367,-0.057 0.0049,-0.021 0.01591,-0.046 0.0332,-0.076 l 0.855469,-1.4824 c 0.01628,-0.028 0.03243,-0.05 0.04687,-0.062 0.01546,-0.015 0.03393,-0.021 0.05664,-0.02 0.02372,-4e-4 0.05321,0.01 0.08594,0.024 0.03551,0.016 0.08034,0.042 0.136719,0.074 l 0.05273,0.029 0.07422,-0.127 -0.914063,-0.5273 z m -16.085937,0.037 -0.761719,0.4395 0.07227,0.1269 0.04101,-0.022 c 0.06695,-0.039 0.11984,-0.058 0.158203,-0.057 0.04013,3e-4 0.07044,0.02 0.0918,0.057 0.0092,0.016 0.01379,0.032 0.01563,0.047 0.0036,0.014 0.0046,0.036 0.002,0.068 l -0.04687,0.6093 -0.675781,-0.3222 c -0.03844,-0.018 -0.06311,-0.035 -0.07227,-0.051 -0.0081,-0.014 -0.0048,-0.028 0.0098,-0.043 0.01457,-0.015 0.0487,-0.04 0.101563,-0.07 l 0.109375,-0.062 -0.07422,-0.1269 -0.855469,0.4961 0.07227,0.125 0.04883,-0.027 c 0.03348,-0.019 0.061,-0.033 0.08594,-0.043 0.02392,-0.011 0.04648,-0.017 0.06641,-0.019 0.02169,0 0.04398,0 0.06445,0.01 0.02223,0.01 0.04709,0.016 0.07617,0.029 l 1,0.4746 -0.08594,0.8886 c -0.0099,0.1091 -0.03251,0.1988 -0.07031,0.2676 -0.03882,0.067 -0.09359,0.1214 -0.164063,0.1621 l -0.01172,0.01 0.07422,0.127 0.785156,-0.4531 -0.07422,-0.127 -0.06836,0.039 c -0.05638,0.032 -0.107404,0.048 -0.152344,0.043 -0.04596,-0.01 -0.08105,-0.032 -0.105468,-0.074 -0.02238,-0.039 -0.02999,-0.087 -0.02344,-0.1445 l 0.04687,-0.6504 0.751953,0.3437 c 0.0402,0.017 0.06771,0.04 0.08399,0.068 0.0061,0.011 0.01117,0.02 0.01172,0.029 0.0023,0.01 -0.0034,0.017 -0.01367,0.027 -0.01132,0.01 -0.02713,0.021 -0.05078,0.037 -0.02365,0.016 -0.05751,0.037 -0.101562,0.062 l -0.07813,0.045 0.07422,0.1269 0.908203,-0.5254 -0.07227,-0.1269 -0.03516,0.019 c -0.04405,0.025 -0.07998,0.045 -0.107422,0.059 -0.02846,0.012 -0.05366,0.019 -0.07813,0.021 -0.02447,0 -0.05127,-6e-4 -0.08008,-0.01 -0.02881,-0.01 -0.06612,-0.025 -0.109375,-0.047 l -1.060624,-0.5019 0.07813,-0.7149 c 0.0082,-0.075 0.01672,-0.1367 0.02734,-0.1875 0.01063,-0.051 0.02597,-0.095 0.04297,-0.1308 0.017,-0.036 0.03857,-0.066 0.06445,-0.09 0.02487,-0.026 0.0548,-0.049 0.0918,-0.07 l 0.04492,-0.027 -0.07226,-0.127 z m 22.152344,5.4043 -0.126954,0.074 0.03125,0.055 c 0.03153,0.055 0.05646,0.1012 0.07227,0.1367 0.01757,0.035 0.02485,0.062 0.02344,0.084 0.0014,0.023 -0.005,0.041 -0.01953,0.057 -0.01281,0.014 -0.03431,0.031 -0.0625,0.047 l -1.482422,0.8555 c -0.02995,0.017 -0.0555,0.028 -0.07617,0.033 -0.01891,0 -0.03766,0 -0.05664,-0.014 -0.01796,-0.011 -0.03769,-0.031 -0.06055,-0.062 -0.02109,-0.032 -0.04854,-0.076 -0.08008,-0.1308 l -0.03125,-0.055 -0.128906,0.074 0.527343,0.9141 0.128907,-0.074 -0.0293,-0.053 c -0.03255,-0.056 -0.05861,-0.1022 -0.07617,-0.1367 -0.01479,-0.034 -0.02208,-0.061 -0.02344,-0.084 -0.0014,-0.023 0.0048,-0.042 0.01758,-0.057 0.01457,-0.015 0.03645,-0.032 0.06641,-0.049 l 1.482422,-0.8554 c 0.02819,-0.016 0.0514,-0.027 0.07031,-0.031 0.02067,0 0.04156,-8e-4 0.06055,0.012 0.02074,0.012 0.04047,0.034 0.06055,0.065 0.02285,0.031 0.04948,0.074 0.08203,0.1308 l 0.03125,0.053 0.126953,-0.072 -0.527343,-0.916 z m -28.1875,0.1094 -0.439453,0.7617 0.126953,0.074 0.02344,-0.041 c 0.03866,-0.067 0.07353,-0.1089 0.107422,-0.127 0.03491,-0.02 0.07237,-0.019 0.109375,0 0.01586,0.01 0.02783,0.021 0.03711,0.033 0.0103,0.011 0.02141,0.03 0.03516,0.059 l 0.263671,0.5508 -0.746093,0.059 c -0.04216,0 -0.07008,0 -0.08594,-0.01 -0.01409,-0.01 -0.01856,-0.022 -0.01367,-0.043 0.0049,-0.021 0.02222,-0.057 0.05273,-0.1093 l 0.0625,-0.1094 -0.126953,-0.072 -0.494141,0.8555 0.126953,0.074 0.02734,-0.049 c 0.01933,-0.034 0.03794,-0.059 0.05469,-0.08 0.01499,-0.022 0.03067,-0.039 0.04687,-0.051 0.01722,-0.014 0.03542,-0.023 0.05664,-0.027 0.02223,-0.01 0.04997,-0.011 0.08203,-0.014 l 1.103516,-0.088 0.371093,0.8125 c 0.04599,0.099 0.06864,0.1891 0.07031,0.2676 -9.2e-5,0.077 -0.01986,0.1522 -0.06055,0.2226 l -0.0059,0.01 0.126954,0.072 0.453124,-0.7832 -0.126953,-0.074 -0.04102,0.068 c -0.03255,0.056 -0.06816,0.095 -0.109375,0.1132 -0.04298,0.018 -0.08662,0.013 -0.128905,-0.012 -0.03876,-0.022 -0.06857,-0.06 -0.0918,-0.1133 l -0.285157,-0.5859 0.824219,-0.078 c 0.04318,-0.01 0.07728,-7e-4 0.105468,0.016 0.01057,0.01 0.01842,0.014 0.02344,0.022 0.006,0.01 0.0075,0.015 0.0039,0.029 -0.0054,0.013 -0.01291,0.033 -0.02539,0.059 -0.01248,0.026 -0.03121,0.061 -0.05664,0.1054 l -0.04492,0.076 0.126953,0.072 0.525391,-0.9082 -0.126953,-0.074 -0.02149,0.035 c -0.02543,0.044 -0.04548,0.078 -0.0625,0.1035 -0.01878,0.024 -0.03859,0.044 -0.05859,0.059 -0.02,0.014 -0.04466,0.025 -0.07422,0.031 -0.02955,0.01 -0.06873,0.011 -0.117188,0.014 l -1.169921,0.096 -0.289063,-0.6562 c -0.03048,-0.069 -0.05413,-0.1285 -0.07031,-0.1777 -0.01618,-0.049 -0.02619,-0.093 -0.0293,-0.1329 -0.0031,-0.039 0.0015,-0.077 0.01172,-0.1113 0.0085,-0.035 0.02356,-0.07 0.04492,-0.1074 l 0.02539,-0.045 -0.126953,-0.074 z m 28.83789,1.0176 -0.126953,0.072 0.03125,0.057 c 0.03153,0.055 0.05451,0.099 0.07031,0.1347 0.01757,0.035 0.02681,0.062 0.02539,0.084 0.0014,0.023 -0.005,0.043 -0.01953,0.059 -0.01281,0.014 -0.03431,0.029 -0.0625,0.045 l -1.482422,0.8555 c -0.02995,0.017 -0.0555,0.03 -0.07617,0.035 -0.01891,0 -0.03766,0 -0.05664,-0.014 -0.01796,-0.011 -0.03769,-0.033 -0.06055,-0.065 -0.02109,-0.032 -0.04854,-0.074 -0.08008,-0.1289 l -0.03125,-0.057 -0.128907,0.074 0.527344,0.916 0.128906,-0.076 -0.0293,-0.053 c -0.03255,-0.056 -0.05861,-0.1002 -0.07617,-0.1347 -0.01479,-0.034 -0.02207,-0.063 -0.02344,-0.086 -0.0014,-0.023 0.0028,-0.04 0.01563,-0.055 0.01457,-0.015 0.03841,-0.034 0.06836,-0.051 l 1.482422,-0.8554 c 0.02819,-0.016 0.0514,-0.026 0.07031,-0.029 0.02067,0 0.03961,-8e-4 0.05859,0.012 0.02074,0.011 0.04243,0.032 0.0625,0.062 0.02285,0.031 0.04948,0.074 0.08203,0.1309 l 0.03125,0.055 0.126953,-0.074 -0.527344,-0.914 z m -0.09961,6.5332 0,1.0566 0.148437,0 0,-0.062 c 0,-0.065 0.0019,-0.1156 0.0039,-0.1543 0.0041,-0.037 0.01131,-0.066 0.02148,-0.086 0.01017,-0.02 0.02466,-0.033 0.04297,-0.039 0.02034,-0.01 0.04744,-0.01 0.08203,-0.01 l 1.710937,0 c 0.03255,0 0.05786,0 0.07617,0.01 0.02034,0.01 0.0367,0.019 0.04687,0.039 0.01221,0.02 0.01945,0.049 0.02148,0.086 0.0041,0.039 0.0059,0.089 0.0059,0.1543 l 0,0.062 0.146484,0 0,-1.0566 -0.146484,0 0,0.064 c 0,0.063 -0.0018,0.1137 -0.0059,0.1524 -0.002,0.039 -0.0093,0.068 -0.02148,0.086 -0.01017,0.02 -0.02653,0.033 -0.04687,0.039 -0.01831,0.01 -0.04362,0.01 -0.07617,0.01 l -1.710937,0 c -0.03459,0 -0.06169,0 -0.08203,-0.01 -0.01831,-0.01 -0.0328,-0.019 -0.04297,-0.039 -0.01017,-0.018 -0.01741,-0.047 -0.02148,-0.086 -0.002,-0.039 -0.0039,-0.089 -0.0039,-0.1524 l 0,-0.064 -0.148437,0 z m -29.402344,0.094 0,0.041 c 0,0.051 8.2e-5,0.091 -0.002,0.1211 -0.0041,0.03 -0.01131,0.058 -0.02148,0.08 -0.01017,0.022 -0.02645,0.044 -0.04883,0.064 -0.02238,0.02 -0.05501,0.044 -0.0957,0.07 l -0.962893,0.6679 -0.580078,-0.4238 c -0.06103,-0.045 -0.111735,-0.085 -0.150391,-0.1191 -0.03866,-0.035 -0.06942,-0.069 -0.0918,-0.1016 -0.02238,-0.033 -0.03678,-0.065 -0.04492,-0.1 -0.01017,-0.035 -0.01563,-0.074 -0.01563,-0.1172 l 0,-0.051 -0.146484,0 0,0.8789 0.146484,0 0,-0.047 c 0,-0.077 0.01091,-0.1316 0.03125,-0.1641 0.02034,-0.035 0.05103,-0.053 0.09375,-0.053 0.01831,0 0.03459,0 0.04883,0.01 0.01424,0 0.0341,0.015 0.06055,0.033 l 0.503907,0.3456 -0.615235,0.4239 c -0.03459,0.024 -0.06177,0.037 -0.08008,0.037 -0.01628,0 -0.0271,-0.011 -0.0332,-0.031 -0.0061,-0.02 -0.0098,-0.062 -0.0098,-0.123 l 0,-0.125 -0.146484,0 0,0.9902 0.146484,0 0,-0.055 c 0,-0.039 0.0018,-0.071 0.0059,-0.098 0.002,-0.026 0.0075,-0.05 0.01563,-0.068 0.0081,-0.02 0.02083,-0.036 0.03711,-0.051 0.01628,-0.016 0.038,-0.034 0.06445,-0.053 l 0.91211,-0.6289 0.726562,0.5195 c 0.08952,0.063 0.154622,0.1282 0.195313,0.1953 0.03866,0.067 0.05664,0.1413 0.05664,0.2227 l 0,0.012 0.146484,0 0,-0.9063 -0.146484,0 0,0.08 c 0,0.065 -0.01261,0.1158 -0.03906,0.1524 -0.02848,0.037 -0.06641,0.055 -0.115235,0.055 -0.04476,0 -0.09188,-0.018 -0.138672,-0.053 l -0.539058,-0.3652 0.673828,-0.4785 c 0.03459,-0.026 0.06901,-0.041 0.101563,-0.041 0.01221,0 0.02116,0 0.0293,0.01 0.0081,0 0.01546,0.011 0.01953,0.025 0.002,0.014 0.0038,0.036 0.0059,0.064 0.002,0.029 0.002,0.068 0.002,0.1191 l 0,0.088 0.146484,0 0,-1.0508 -0.146484,0 z m 29.402344,1.207 0,1.0547 0.148437,0 0,-0.061 c 0,-0.065 0.0019,-0.1176 0.0039,-0.1563 0.0041,-0.037 0.01131,-0.064 0.02148,-0.084 0.01017,-0.02 0.02466,-0.035 0.04297,-0.041 0.02034,-0.01 0.04744,-0.01 0.08203,-0.01 l 1.710937,0 c 0.03255,0 0.05786,0 0.07617,0.01 0.02034,0.01 0.0367,0.021 0.04687,0.041 0.01221,0.02 0.01945,0.047 0.02148,0.084 0.0041,0.039 0.0059,0.091 0.0059,0.1563 l 0,0.061 0.146484,0 0,-1.0547 -0.146484,0 0,0.062 c 0,0.063 -0.0018,0.1157 -0.0059,0.1543 -0.002,0.039 -0.0093,0.066 -0.02148,0.084 -0.01017,0.02 -0.02653,0.035 -0.04687,0.041 -0.01831,0.01 -0.04362,0.01 -0.07617,0.01 l -1.710937,0 c -0.03459,0 -0.06169,0 -0.08203,-0.01 -0.01831,-0.01 -0.0328,-0.021 -0.04297,-0.041 -0.01017,-0.018 -0.01741,-0.045 -0.02148,-0.084 -0.002,-0.039 -0.0039,-0.091 -0.0039,-0.1543 l 0,-0.062 -0.148437,0 z m -31.5625,1.2051 0,1.0547 0.146484,0 0,-0.062 c 0,-0.063 0.0018,-0.1156 0.0059,-0.1543 0.002,-0.039 0.0093,-0.066 0.02148,-0.084 0.01017,-0.02 0.02653,-0.035 0.04687,-0.041 0.01831,-0.01 0.04362,-0.01 0.07617,-0.01 l 1.710938,0 c 0.03459,0 0.06169,0 0.08203,0.01 0.01831,0.01 0.0328,0.021 0.04297,0.041 0.01017,0.018 0.01741,0.045 0.02148,0.084 0.002,0.039 0.0039,0.091 0.0039,0.1543 l 0,0.062 0.148437,0 0,-1.0547 -0.148437,0 0,0.061 c 0,0.065 -0.0019,0.1176 -0.0039,0.1562 -0.0041,0.037 -0.01131,0.064 -0.02148,0.084 -0.01017,0.02 -0.02466,0.035 -0.04297,0.041 -0.02034,0.01 -0.04744,0.01 -0.08203,0.01 l -1.710938,0 c -0.03255,0 -0.05786,0 -0.07617,-0.01 -0.02034,-0.01 -0.0367,-0.021 -0.04687,-0.041 -0.01221,-0.02 -0.01945,-0.047 -0.02148,-0.084 -0.0041,-0.039 -0.0059,-0.091 -0.0059,-0.1562 l 0,-0.061 -0.146484,0 z m 31.5625,0.094 0,1.0566 0.148437,0 0,-0.061 c 0,-0.065 0.0019,-0.1176 0.0039,-0.1563 0.0041,-0.037 0.01131,-0.066 0.02148,-0.086 0.01017,-0.02 0.02466,-0.033 0.04297,-0.039 0.02034,-0.01 0.04744,-0.01 0.08203,-0.01 l 1.710937,0 c 0.03255,0 0.05786,0 0.07617,0.01 0.02034,0.01 0.0367,0.019 0.04687,0.039 0.01221,0.02 0.01945,0.049 0.02148,0.086 0.0041,0.039 0.0059,0.091 0.0059,0.1563 l 0,0.061 0.146484,0 0,-1.0566 -0.146484,0 0,0.064 c 0,0.063 -0.0018,0.1137 -0.0059,0.1524 -0.002,0.039 -0.0093,0.068 -0.02148,0.086 -0.01017,0.02 -0.02653,0.033 -0.04687,0.039 -0.01831,0.01 -0.04362,0.01 -0.07617,0.01 l -1.710937,0 c -0.03459,0 -0.06169,0 -0.08203,-0.01 -0.01831,-0.01 -0.0328,-0.019 -0.04297,-0.039 -0.01017,-0.018 -0.01741,-0.047 -0.02148,-0.086 -0.002,-0.039 -0.0039,-0.089 -0.0039,-0.1524 l 0,-0.064 -0.148437,0 z m -28.638672,4.2539 -0.130859,0.076 0.02734,0.045 c 0.02827,0.049 0.04944,0.089 0.06445,0.1191 0.01236,0.03 0.01955,0.054 0.01953,0.074 -1.5e-5,0.02 -0.0082,0.039 -0.02148,0.053 -0.01505,0.015 -0.03632,0.03 -0.06641,0.047 l -1.490235,0.8594 c -0.02832,0.016 -0.05174,0.029 -0.07031,0.033 -0.02035,0.01 -0.03896,0 -0.05664,-0.01 -0.01945,-0.01 -0.03702,-0.026 -0.05469,-0.053 -0.02032,-0.027 -0.04595,-0.066 -0.07422,-0.1153 l -0.02539,-0.045 -0.128906,0.072 0.458984,0.7949 0.126954,-0.074 -0.02734,-0.047 c -0.02738,-0.047 -0.0473,-0.088 -0.06055,-0.1191 -0.01501,-0.03 -0.0222,-0.054 -0.01953,-0.074 1.4e-5,-0.02 0.0084,-0.038 0.02344,-0.053 0.01328,-0.014 0.03418,-0.028 0.0625,-0.045 l 1.488281,-0.8594 c 0.03009,-0.017 0.05582,-0.029 0.07617,-0.035 0.01858,0 0.03701,0 0.05469,0.01 0.0168,0.01 0.03632,0.028 0.05664,0.055 0.01855,0.028 0.04098,0.066 0.06836,0.1133 l 0.02734,0.047 0.130859,-0.074 -0.458984,-0.7949 z m 27.578125,0.7793 -0.529297,0.914 0.130859,0.076 0.0293,-0.055 c 0.03255,-0.056 0.06094,-0.1003 0.08203,-0.1328 0.02183,-0.03 0.04156,-0.05 0.06055,-0.062 0.01898,-0.013 0.03773,-0.017 0.05664,-0.014 0.02067,0 0.04622,0.016 0.07617,0.033 l 1.482422,0.8555 c 0.02819,0.016 0.04774,0.032 0.06055,0.047 0.01457,0.015 0.02285,0.034 0.02148,0.057 3.99e-4,0.024 -0.0088,0.053 -0.02539,0.086 -0.0158,0.036 -0.03971,0.08 -0.07227,0.1368 l -0.03125,0.053 0.126953,0.074 0.529297,-0.914 -0.126953,-0.074 -0.0332,0.057 c -0.03153,0.055 -0.05723,0.097 -0.08008,0.1289 -0.02109,0.032 -0.04277,0.053 -0.0625,0.062 -0.01898,0.013 -0.03792,0.017 -0.05859,0.012 -0.01891,0 -0.04212,-0.015 -0.07031,-0.031 l -1.482422,-0.8555 c -0.02995,-0.017 -0.05379,-0.033 -0.06836,-0.049 -0.01281,-0.014 -0.01699,-0.032 -0.01563,-0.055 3.45e-4,-0.021 0.0076,-0.051 0.02344,-0.086 0.01757,-0.034 0.04268,-0.078 0.07422,-0.1328 l 0.03125,-0.057 -0.128906,-0.074 z m -27.013672,0.1992 -0.130859,0.074 0.02734,0.047 c 0.02827,0.049 0.04944,0.087 0.06445,0.1172 0.01236,0.03 0.01955,0.056 0.01953,0.076 -1.5e-5,0.02 -0.0082,0.037 -0.02148,0.051 -0.01505,0.015 -0.03632,0.032 -0.06641,0.049 l -1.490235,0.8594 c -0.02832,0.016 -0.05174,0.027 -0.07031,0.031 -0.02035,0.01 -0.03896,0 -0.05664,-0.01 -0.01945,-0.01 -0.03702,-0.028 -0.05469,-0.055 -0.02032,-0.027 -0.04595,-0.064 -0.07422,-0.1133 l -0.02539,-0.047 -0.128906,0.074 0.458985,0.7949 0.126953,-0.074 -0.02734,-0.049 c -0.02739,-0.047 -0.0473,-0.086 -0.06055,-0.1172 -0.01501,-0.03 -0.0222,-0.054 -0.01953,-0.074 1.5e-5,-0.02 0.0084,-0.04 0.02344,-0.055 0.01328,-0.014 0.03418,-0.029 0.0625,-0.045 l 1.488281,-0.8594 c 0.03009,-0.017 0.05582,-0.029 0.07617,-0.035 0.01858,0 0.03701,-5e-4 0.05469,0.01 0.0168,0.01 0.03632,0.026 0.05664,0.053 0.01855,0.028 0.04097,0.066 0.06836,0.1133 l 0.02734,0.049 0.130859,-0.076 -0.458984,-0.7929 z m 0.564453,0.9766 -0.130859,0.076 0.02734,0.045 c 0.02827,0.049 0.04944,0.089 0.06445,0.1192 0.01236,0.03 0.01955,0.054 0.01953,0.074 -1.5e-5,0.02 -0.0082,0.039 -0.02148,0.053 -0.01505,0.015 -0.03632,0.03 -0.06641,0.047 l -1.490234,0.8613 c -0.02832,0.016 -0.05174,0.027 -0.07031,0.031 -0.02035,0.01 -0.03896,0 -0.05664,-0.01 -0.01945,-0.01 -0.03702,-0.026 -0.05469,-0.053 -0.02032,-0.027 -0.04595,-0.066 -0.07422,-0.1153 l -0.02539,-0.045 -0.128906,0.074 0.458984,0.793 0.126953,-0.072 -0.02734,-0.049 c -0.02739,-0.047 -0.0473,-0.086 -0.06055,-0.1172 -0.01501,-0.03 -0.0222,-0.056 -0.01953,-0.076 1.5e-5,-0.02 0.0084,-0.038 0.02344,-0.053 0.01328,-0.014 0.03418,-0.029 0.0625,-0.045 l 1.488281,-0.8594 c 0.03009,-0.017 0.05582,-0.03 0.07617,-0.035 0.01858,0 0.03701,0 0.05469,0.01 0.0168,0.01 0.03632,0.028 0.05664,0.055 0.01855,0.028 0.04097,0.066 0.06836,0.1133 l 0.02734,0.047 0.13086,-0.074 -0.458985,-0.795 z m 25.269531,0.7695 -0.0625,0.1074 1.275391,1.582 c 0.04241,0.053 0.07556,0.099 0.09961,0.1387 0.02405,0.04 0.03876,0.077 0.04492,0.1113 0.0079,0.035 0.0073,0.067 -0.002,0.1 -0.0075,0.033 -0.02348,0.071 -0.04687,0.1114 l -0.01367,0.027 0.126953,0.072 0.431641,-0.7481 -0.126953,-0.072 -0.0293,0.049 c -0.04171,0.072 -0.08791,0.121 -0.136719,0.1445 -0.04705,0.025 -0.09286,0.023 -0.138672,0 -0.01938,-0.011 -0.04033,-0.027 -0.06445,-0.051 -0.02412,-0.023 -0.04702,-0.046 -0.06836,-0.07 l -0.898438,-1.0898 1.582032,0.2402 c 0.01993,0 0.03968,0 0.05859,0.01 0.01789,0.01 0.03025,0.013 0.03906,0.018 0.02467,0.014 0.03594,0.038 0.03125,0.07 -0.0057,0.034 -0.0269,0.081 -0.0625,0.1426 l -0.06445,0.1113 0.126953,0.074 0.498047,-0.8652 -0.126953,-0.072 -0.03125,0.055 c -0.03459,0.06 -0.06981,0.098 -0.105469,0.1153 -0.03566,0.017 -0.09338,0.021 -0.173828,0.01 l -2.16211,-0.3145 z m -24.24414,0.9101 -1.966797,0.4004 c -0.06546,0.013 -0.120904,0.022 -0.166016,0.025 -0.04511,0 -0.08233,9e-4 -0.113281,-0.01 -0.03272,-0.01 -0.06082,-0.021 -0.08203,-0.041 -0.02298,-0.019 -0.04414,-0.047 -0.06445,-0.082 l -0.01367,-0.024 -0.126953,0.074 0.375,0.6484 0.126953,-0.074 -0.02344,-0.043 c -0.03622,-0.063 -0.05203,-0.119 -0.04492,-0.168 0.0053,-0.048 0.03211,-0.085 0.07813,-0.1113 0.01947,-0.011 0.04432,-0.021 0.07617,-0.031 0.03185,-0.01 0.06279,-0.02 0.09375,-0.027 l 1.365235,-0.293 -1.042969,1.1875 c -0.01239,0.015 -0.02578,0.029 -0.03906,0.043 -0.01416,0.012 -0.02435,0.022 -0.0332,0.027 -0.02478,0.014 -0.05035,0.013 -0.07422,0 -0.02475,-0.018 -0.05111,-0.056 -0.08203,-0.1094 l -0.05664,-0.096 -0.126953,0.074 0.433593,0.75 0.126954,-0.074 -0.02734,-0.047 c -0.03004,-0.052 -0.04244,-0.097 -0.03711,-0.1328 0.0053,-0.036 0.03371,-0.084 0.08594,-0.1445 l 1.414062,-1.627 -0.05469,-0.094 z m 2.666015,2.9473 -0.07422,0.1309 0.04687,0.027 c 0.05051,0.029 0.09017,0.053 0.11914,0.072 0.02637,0.02 0.04596,0.039 0.05664,0.057 0.01068,0.018 0.01422,0.036 0.0098,0.055 -0.0055,0.02 -0.0178,0.046 -0.03516,0.076 l -0.859375,1.4883 c -0.01633,0.028 -0.031,0.049 -0.04492,0.062 -0.01494,0.015 -0.0338,0.022 -0.05469,0.021 -0.02191,0 -0.04674,0 -0.07617,-0.019 -0.03203,-0.014 -0.07254,-0.035 -0.123047,-0.064 l -0.04883,-0.027 -0.07227,0.127 0.81836,0.4726 0.07422,-0.1269 -0.05078,-0.029 c -0.04893,-0.028 -0.08729,-0.053 -0.115234,-0.074 -0.02897,-0.019 -0.04661,-0.038 -0.05469,-0.057 -0.01068,-0.018 -0.01328,-0.036 -0.0078,-0.057 0.0045,-0.019 0.01492,-0.042 0.03125,-0.07 l 0.859375,-1.4883 c 0.01735,-0.03 0.03193,-0.052 0.04687,-0.066 0.01392,-0.013 0.03185,-0.02 0.05273,-0.02 0.01931,-6e-4 0.04609,0.01 0.07813,0.02 0.03101,0.015 0.07021,0.036 0.119141,0.064 l 0.04883,0.029 0.07617,-0.1289 -0.820313,-0.4746 z m 1.009766,0.582 -0.07617,0.1309 0.04883,0.027 c 0.05051,0.029 0.09017,0.053 0.119141,0.072 0.02637,0.02 0.04401,0.039 0.05469,0.057 0.01068,0.018 0.01422,0.036 0.0098,0.055 -0.0055,0.02 -0.0178,0.046 -0.03516,0.076 l -0.857422,1.4883 c -0.01633,0.028 -0.03295,0.049 -0.04687,0.062 -0.01494,0.015 -0.03185,0.022 -0.05273,0.022 -0.02191,0 -0.04869,0 -0.07813,-0.02 -0.03203,-0.014 -0.07254,-0.035 -0.123046,-0.064 l -0.04687,-0.027 -0.07422,0.127 0.820312,0.4727 0.07227,-0.127 -0.04883,-0.029 c -0.04893,-0.028 -0.08729,-0.051 -0.115234,-0.072 -0.02897,-0.019 -0.04856,-0.038 -0.05664,-0.057 -0.01068,-0.018 -0.01328,-0.038 -0.0078,-0.059 0.0045,-0.019 0.01492,-0.042 0.03125,-0.07 l 0.859375,-1.4883 c 0.01735,-0.03 0.03389,-0.051 0.04883,-0.066 0.01392,-0.013 0.03184,-0.02 0.05273,-0.02 0.01931,-7e-4 0.04414,0.01 0.07617,0.02 0.03101,0.016 0.07021,0.036 0.11914,0.064 l 0.05078,0.029 0.07422,-0.129 -0.818359,-0.4746 z m 15.533203,0.4278 -0.107422,0.062 0.3125,2.0078 c 0.01039,0.067 0.01661,0.1235 0.01758,0.1699 9.64e-4,0.046 -0.0039,0.085 -0.01563,0.1172 -0.0107,0.034 -0.02861,0.065 -0.05273,0.088 -0.02311,0.025 -0.05518,0.049 -0.0957,0.072 l -0.02734,0.016 0.07422,0.1269 0.748047,-0.4336 -0.07422,-0.1269 -0.04883,0.029 c -0.07224,0.042 -0.135432,0.061 -0.189453,0.057 -0.053,0 -0.09269,-0.026 -0.119141,-0.072 -0.01119,-0.019 -0.02202,-0.044 -0.03125,-0.076 -0.0092,-0.032 -0.01699,-0.064 -0.02344,-0.096 l -0.232422,-1.3926 1.25,0.9981 c 0.0162,0.012 0.03048,0.024 0.04492,0.037 0.01268,0.014 0.02226,0.026 0.02734,0.035 0.01424,0.025 0.01056,0.048 -0.0098,0.074 -0.02209,0.027 -0.06333,0.058 -0.125,0.094 l -0.111328,0.064 0.07227,0.127 0.865235,-0.498 -0.07422,-0.127 -0.05469,0.031 c -0.05991,0.034 -0.109056,0.05 -0.148437,0.047 -0.03938,0 -0.09218,-0.028 -0.15625,-0.078 l -1.714844,-1.3535 z m -13.751953,0.5449 -1.519531,1.3184 c -0.05059,0.044 -0.09503,0.08 -0.132813,0.1054 -0.03778,0.025 -0.07177,0.041 -0.103515,0.049 -0.03277,0.01 -0.06441,0.01 -0.09375,0 -0.03036,-0.01 -0.06331,-0.018 -0.09961,-0.039 l -0.02344,-0.014 -0.07422,0.127 0.669922,0.3867 0.07422,-0.127 -0.04492,-0.027 c -0.06472,-0.037 -0.107539,-0.078 -0.126953,-0.125 -0.02044,-0.045 -0.01678,-0.091 0.0098,-0.1367 0.01123,-0.019 0.02813,-0.042 0.05078,-0.066 0.02265,-0.025 0.04516,-0.046 0.06836,-0.068 l 1.046875,-0.9277 -0.294922,1.5547 c -0.0029,0.019 -0.0073,0.04 -0.01172,0.059 -0.006,0.018 -0.01052,0.03 -0.01563,0.039 -0.01429,0.025 -0.0366,0.036 -0.06641,0.033 -0.03138,0 -0.07561,-0.023 -0.130859,-0.055 l -0.09961,-0.057 -0.07226,0.1269 0.773437,0.4473 0.07422,-0.1269 -0.05078,-0.029 c -0.05367,-0.031 -0.08754,-0.064 -0.101563,-0.098 -0.01403,-0.034 -0.01409,-0.091 0,-0.1699 l 0.392578,-2.125 -0.09766,-0.057 z m 6.908204,1.4414 -0.732422,1.8945 c -0.02441,0.063 -0.04598,0.1156 -0.06836,0.1563 -0.02238,0.041 -0.04777,0.071 -0.07422,0.094 -0.02645,0.024 -0.05534,0.041 -0.08789,0.049 -0.03255,0.01 -0.07235,0.016 -0.119141,0.016 l -0.03125,0 0,0.1465 0.863281,0 0,-0.1465 -0.05664,0 c -0.08341,0 -0.148601,-0.016 -0.19336,-0.047 -0.04476,-0.029 -0.06641,-0.068 -0.06641,-0.1211 0,-0.022 0.0036,-0.05 0.01172,-0.082 0.0081,-0.033 0.01717,-0.065 0.02734,-0.096 l 0.494141,-1.3203 0.583984,1.4883 c 0.0081,0.018 0.01538,0.036 0.02148,0.055 0.0041,0.018 0.0059,0.033 0.0059,0.043 0,0.029 -0.01636,0.048 -0.04687,0.061 -0.03255,0.012 -0.08309,0.02 -0.154297,0.02 l -0.128906,0 0,0.1465 0.998047,0 0,-0.1465 -0.06445,0 c -0.06917,0 -0.119792,-0.011 -0.152344,-0.033 -0.03255,-0.022 -0.06323,-0.071 -0.09375,-0.1465 l -0.80863,-2.0293 -0.126953,0 z m -2.263672,0.049 0,0.1485 0.06055,0 c 0.0651,0 0.117595,0 0.15625,0 0.03662,0 0.06559,0.011 0.08594,0.021 0.02035,0.01 0.03296,0.025 0.03906,0.043 0.0061,0.02 0.0098,0.048 0.0098,0.082 l 0,1.711 c 0,0.032 -0.0037,0.058 -0.0098,0.076 -0.0061,0.02 -0.01872,0.037 -0.03906,0.047 -0.02034,0.012 -0.04932,0.02 -0.08594,0.022 -0.03865,0 -0.09115,0.01 -0.15625,0.01 l -0.06055,0 0,0.1465 1.056641,0 0,-0.1465 -0.06445,0 c -0.06307,0 -0.113688,0 -0.152344,-0.01 -0.03866,0 -0.06763,-0.01 -0.08594,-0.022 -0.02035,-0.01 -0.03296,-0.026 -0.03906,-0.047 -0.0061,-0.018 -0.0098,-0.044 -0.0098,-0.076 l 0,-1.711 c 0,-0.034 0.0037,-0.062 0.0098,-0.082 0.0061,-0.018 0.01872,-0.033 0.03906,-0.043 0.01831,-0.01 0.04728,-0.017 0.08594,-0.021 0.03866,0 0.08927,0 0.152344,0 l 0.06445,0 0,-0.1485 -1.056641,0 z"
       id="text4928"
       inkscape:connector-curvature="0" />
    <g
       id="Glass"
       transform="translate(2.000038,-3.4887812e-4)"
       inkscape:label="#g7371">
      <g
         id="g7334">
        <g
           id="g7298">
          <g
             id="g7263">
            <g
               id="g7229">
              <g
                 id="g7196">
                <g
                   id="g7164">
                  <g
                     id="g7133">
                    <g
                       id="g7103">
                      <g
                         id="g7074">
                        <g
                           id="g7046">
                          <g
                             id="g7019">
                            <g
                               id="g6993">
                              <g
                                 id="g6968">
                                <g
                                   id="g6944">
                                <g
                                   id="g6921">
                                <g
                                   id="g6899">
                                <g
                                   id="g6878">
                                <g
                                   id="g6858">
                                <g
                                   id="g6839">
                                <g
                                   id="g6821">
                                <g
                                   id="g6804">
                                <g
                                   id="g6788">
                                <g
                                   id="g6773">
                                <g
                                   id="g6759">
                                <g
                                   id="g6746">
                                <g
                                   id="g6734">
                                <g
                                   id="g6723">
                                <g
                                   id="g6713">
                                <g
                                   id="g6704">
                                <g
                                   id="g6696">
                                <g
                                   id="g6689">
                                <g
                                   id="g6683">
                                <g
                                   id="g6678">
                                <circle
                                   style="opacity:1;fill:none;fill-opacity:0.32631579;stroke:none;stroke-width:0.15800001;stroke-miterlimit:4;stroke-dasharray:none;stroke-opacity:0.62745098"
                                   id="path6644"
                                   cx="75.040001"
                                   cy="1028.0422"
                                   r="21.76" />
                                <circle
                                   style="opacity:1;fill:url(#radialGradient6654);fill-opacity:1;stroke:#000000;stroke-width:0.15800001;stroke-miterlimit:4;stroke-dasharray:none;stroke-opacity:0.62745098"
                                   id="path6646"
                                   cx="75.040001"
                                   cy="1028.0422"
                                   r="18.282721" />
                                <path
                                   style="opacity:1;fill:url(#linearGradient6676);fill-opacity:1;stroke:none;stroke-width:0.15800001;stroke-miterlimit:4;stroke-dasharray:none;stroke-opacity:0.62745098"
                                   d="m 75.039062,1010.3349 a 17.706882,17.706882 0 0 0 -12.464843,5.1425 14.719999,12.16 0 0 0 -2.253906,6.4414 14.719999,12.16 0 0 0 14.718749,12.1602 14.719999,12.16 0 0 0 14.720704,-12.1602 14.719999,12.16 0 0 0 -2.210938,-6.3925 17.706882,17.706882 0 0 0 -12.509766,-5.1914 z"
                                   id="path6662"
                                   inkscape:connector-curvature="0" />
                                </g>
                                </g>
                                </g>
                                </g>
                                </g>
                                </g>
                                </g>
                                </g>
                                </g>
                                </g>
                                </g>
                                </g>
                                </g>
                                </g>
                                </g>
                                </g>
                                </g>
                                </g>
                                </g>
                                </g>
                              </g>
                            </g>
                          </g>
                        </g>
                      </g>
                    </g>
                  </g>
                </g>
              </g>
            </g>
          </g>
        </g>
      </g>
    </g>
    <g
       id="SecondHand"
       inkscape:label="#g4344"
       transform="matrix(1,0,0,0.92857041,0,73.249776)">
      <g
         id="g4334">
        <g
           id="g4325">
          <g
             id="g4317">
            <g
               id="g4310">
              <g
                 id="g4304">
                <g
                   id="g4299">
                  <g
                     id="g4295">
                    <rect
                       style="opacity:1;fill:none;fill-opacity:1;stroke:none;stroke-width:0.15000001;stroke-miterlimit:4;stroke-dasharray:none;stroke-opacity:1"
                       id="rect4289"
                       width="5.1199999"
                       height="20.480022"
                       x="-30.719999"
                       y="1025.4822"
                       ry="0.63999999" />
                    <path
                       style="fill:none;fill-rule:evenodd;stroke:#0085ff;stroke-width:0.25;stroke-linecap:butt;stroke-linejoin:miter;stroke-miterlimit:4;stroke-dasharray:none;stroke-opacity:1"
                       d="m -28.166059,1025.4822 0.01212,20.1292"
                       id="path4287"
                       inkscape:connector-curvature="0"
                       sodipodi:nodetypes="cc" />
                  </g>
                </g>
              </g>
            </g>
          </g>
        </g>
      </g>
    </g>
    <circle
       style="opacity:1;fill:#ffffff;fill-opacity:1;stroke:#0080ff;stroke-width:0.15000001;stroke-miterlimit:4;stroke-dasharray:none;stroke-opacity:1"
       id="HandCenterScrew"
       cx="-25.6"
       cy="1021.6422"
       r="0.98832256"
       inkscape:label="#path4557" />
    <g
       id="ClockFace"
       inkscape:label="#g10043">
      <g
         id="g9958">
        <g
           id="g9874">
          <g
             id="g9791">
            <g
               id="g9709">
              <g
                 id="g9628">
                <g
                   id="g9548">
                  <g
                     id="g9469">
                    <g
                       id="g9391">
                      <g
                         id="g9314">
                        <g
                           id="g9238">
                          <g
                             id="g9163">
                            <g
                               id="g9089">
                              <g
                                 id="g9016">
                                <g
                                   id="g8944">
                                <g
                                   id="g8873">
                                <g
                                   id="g8803">
                                <g
                                   id="g8734">
                                <g
                                   id="g8666">
                                <g
                                   id="g8599">
                                <g
                                   id="g8533">
                                <g
                                   id="g8468">
                                <g
                                   id="g8404">
                                <g
                                   id="g8341">
                                <g
                                   id="g8279">
                                <g
                                   id="g8218">
                                <g
                                   id="g8158">
                                <g
                                   id="g8099">
                                <g
                                   id="g7844">
                                <g
                                   id="g7792">
                                <g
                                   id="g7741">
                                <g
                                   id="g7691">
                                <g
                                   id="g7642">
                                <g
                                   id="g7594">
                                <g
                                   id="g7547">
                                <g
                                   id="g7501">
                                <g
                                   id="g7456">
                                <g
                                   id="g7412">
                                <g
                                   id="g7369">
                                <g
                                   id="g7327">
                                <g
                                   id="g7286">
                                <g
                                   id="g7246">
                                <g
                                   id="g7207">
                                <g
                                   id="g7169">
                                <g
                                   id="g7132">
                                <g
                                   id="g7096">
                                <g
                                   id="g7061">
                                <g
                                   id="g7027">
                                <g
                                   id="g6994">
                                <g
                                   id="g6962">
                                <g
                                   id="g6931">
                                <g
                                   id="g6901">
                                <g
                                   id="g6872">
                                <g
                                   id="g6844">
                                <g
                                   id="g6817">
                                <g
                                   id="g6791">
                                <g
                                   id="g6766">
                                <g
                                   id="g6742">
                                <g
                                   id="g6719">
                                <g
                                   id="g6697">
                                <g
                                   id="g6676">
                                <g
                                   id="g6656">
                                <g
                                   id="g6637">
                                <g
                                   id="g6619">
                                <g
                                   id="g6602">
                                <g
                                   id="g6586">
                                <g
                                   id="g6571">
                                <g
                                   id="g6557">
                                <g
                                   id="g6544">
                                <g
                                   id="g6532">
                                <g
                                   id="g6521">
                                <g
                                   id="g6511">
                                <g
                                   id="g6502">
                                <path
                                   id="path4138"
                                   d="m 23.039062,1006.2821 a 21.76,21.76 0 0 0 -21.7597651,21.7598 21.76,21.76 0 0 0 21.7597651,21.7598 21.76,21.76 0 0 0 21.761719,-21.7598 21.76,21.76 0 0 0 -21.761719,-21.7598 z m 0,2.5606 a 19.199999,19.199999 0 0 1 19.201172,19.1992 19.199999,19.199999 0 0 1 -19.201172,19.2012 19.199999,19.199999 0 0 1 -19.1992182,-19.2012 19.199999,19.199999 0 0 1 19.1992182,-19.1992 z"
                                   style="opacity:1;fill:url(#linearGradient4149);fill-opacity:1;stroke:none;stroke-width:0.35800001;stroke-miterlimit:4;stroke-dasharray:none;stroke-opacity:1"
                                   inkscape:connector-curvature="0" />
                                <path
                                   id="path4151"
                                   d="m 23.039062,1006.7724 a 21.269529,21.269529 0 0 0 -21.2695308,21.2695 21.269529,21.269529 0 0 0 21.2695308,21.2695 21.269529,21.269529 0 0 0 21.269532,-21.2695 21.269529,21.269529 0 0 0 -21.269532,-21.2695 z m 0,0.7773 a 20.491726,20.491726 0 0 1 20.492188,20.4922 20.491726,20.491726 0 0 1 -20.492188,20.4922 20.491726,20.491726 0 0 1 -20.4902339,-20.4922 20.491726,20.491726 0 0 1 20.4902339,-20.4922 z"
                                   style="opacity:0.5;fill:url(#linearGradient4162);fill-opacity:1;stroke:none;stroke-width:0.35800001;stroke-miterlimit:4;stroke-dasharray:none;stroke-opacity:1"
                                   inkscape:connector-curvature="0" />
                                <path
                                   inkscape:connector-curvature="0"
                                   style="opacity:0.5;fill:url(#linearGradient4166);fill-opacity:1;stroke:none;stroke-width:0.35800001;stroke-miterlimit:4;stroke-dasharray:none;stroke-opacity:1"
                                   d="m 23.039062,1007.3645 a 20.677382,20.677382 0 0 0 -20.6773836,20.6774 20.677382,20.677382 0 0 0 20.6773836,20.6774 20.677382,20.677382 0 0 0 20.677385,-20.6774 20.677382,20.677382 0 0 0 -20.677385,-20.6774 z m 0,0.7557 a 19.921233,19.921233 0 0 1 19.921682,19.9217 19.921233,19.921233 0 0 1 -19.921682,19.9217 19.921233,19.921233 0 0 1 -19.9197824,-19.9217 19.921233,19.921233 0 0 1 19.9197824,-19.9217 z"
                                   id="path4164" />
                                <path
                                   id="path4174"
                                   d="m 23.039062,1008.8427 a 19.199999,19.199999 0 0 0 -19.1992182,19.1992 19.199999,19.199999 0 0 0 19.1992182,19.2012 19.199999,19.199999 0 0 0 19.201172,-19.2012 19.199999,19.199999 0 0 0 -19.201172,-19.1992 z m 0,0.5879 a 18.610838,18.610838 0 0 1 18.611329,18.6113 18.610838,18.610838 0 0 1 -18.611329,18.6113 18.610838,18.610838 0 0 1 -18.6093745,-18.6113 18.610838,18.610838 0 0 1 18.6093745,-18.6113 z"
                                   style="opacity:1;fill:url(#linearGradient4185);fill-opacity:1;stroke:none;stroke-width:0.35800001;stroke-miterlimit:4;stroke-dasharray:none;stroke-opacity:1"
                                   inkscape:connector-curvature="0" />
                                <path
                                   id="path4196"
                                   d="m 20.353516,1006.9638 a 21.269529,21.269529 0 0 0 -11.8242191,5.5625 l 0.6132812,0.4824 a 20.491726,20.491726 0 0 1 11.6093749,-5.3067 l -0.398437,-0.7382 z"
                                   style="opacity:0.5;fill:url(#linearGradient4214);fill-opacity:1;stroke:none;stroke-width:0.35800001;stroke-miterlimit:4;stroke-dasharray:none;stroke-opacity:1"
                                   inkscape:connector-curvature="0" />
                                <path
                                   id="path4189"
                                   d="m 7.9433594,1013.0731 a 21.269529,21.269529 0 0 0 -5.5078125,9.7657 l 0.6933593,0.4629 A 20.491726,20.491726 0 0 1 8.5625,1013.5595 l -0.6191406,-0.4864 z"
                                   style="opacity:0.5;fill:url(#linearGradient4204);fill-opacity:1;stroke:none;stroke-width:0.35800001;stroke-miterlimit:4;stroke-dasharray:none;stroke-opacity:1"
                                   inkscape:connector-curvature="0" />
                                <circle
                                   r="18.512148"
                                   cy="1028.0422"
                                   cx="23.039999"
                                   id="path4218"
                                   style="opacity:1;fill:#550000;fill-opacity:1;stroke:#333333;stroke-width:0.35800001;stroke-miterlimit:4;stroke-dasharray:none;stroke-opacity:1" />
                                </g>
                                </g>
                                </g>
                                </g>
                                </g>
                                </g>
                                </g>
                                </g>
                                </g>
                                </g>
                                </g>
                                </g>
                                </g>
                                </g>
                                </g>
                                </g>
                                </g>
                                </g>
                                </g>
                                </g>
                                </g>
                                </g>
                                </g>
                                </g>
                                </g>
                                </g>
                                </g>
                                </g>
                                </g>
                                </g>
                                </g>
                                </g>
                                </g>
                                </g>
                                </g>
                                </g>
                                </g>
                                </g>
                                </g>
                                </g>
                                </g>
                                </g>
                                </g>
                                </g>
                                </g>
                                <g
                                   style="font-style:normal;font-variant:normal;font-weight:normal;font-stretch:normal;font-size:3.75px;font-family:Arial;-inkscape-font-specification:Arial;opacity:1;fill:#ffffff;fill-opacity:1;stroke:none;stroke-width:0.255;stroke-miterlimit:4;stroke-dasharray:none;stroke-opacity:0.51052629"
                                   id="text7903" />
                                <g
                                   style="font-style:normal;font-variant:normal;font-weight:normal;font-stretch:normal;font-size:3.75px;font-family:Arial;-inkscape-font-specification:Arial;opacity:1;fill:#ffffff;fill-opacity:1;stroke:none;stroke-width:0.255;stroke-miterlimit:4;stroke-dasharray:none;stroke-opacity:0.51052629"
                                   id="text7907" />
                                <g
                                   style="font-style:normal;font-variant:normal;font-weight:normal;font-stretch:normal;font-size:3.75px;font-family:Arial;-inkscape-font-specification:Arial;opacity:1;fill:#ffffff;fill-opacity:1;stroke:none;stroke-width:0.255;stroke-miterlimit:4;stroke-dasharray:none;stroke-opacity:0.51052629"
                                   id="text7911" />
                                <g
                                   style="font-style:normal;font-variant:normal;font-weight:normal;font-stretch:normal;font-size:3.75px;font-family:Arial;-inkscape-font-specification:Arial;opacity:1;fill:#ffffff;fill-opacity:1;stroke:none;stroke-width:0.255;stroke-miterlimit:4;stroke-dasharray:none;stroke-opacity:0.51052629"
                                   id="text7915" />
                                <path
                                   style="opacity:1;fill:#ffffff;fill-opacity:1;stroke:none;stroke-width:0.255;stroke-miterlimit:4;stroke-dasharray:none;stroke-opacity:0.51052629"
                                   d="M 22.033203 5.8515625 C 21.975845 5.9675006 21.878172 6.0876011 21.740234 6.2109375 C 21.602292 6.3342013 21.440187 6.4387206 21.255859 6.5253906 L 21.255859 6.8457031 C 21.358361 6.8078882 21.475338 6.7495636 21.603516 6.6738281 C 21.732906 6.5981563 21.83667 6.5229322 21.916016 6.4472656 L 21.916016 8.546875 L 22.246094 8.546875 L 22.246094 5.8515625 L 22.033203 5.8515625 z M 23.982422 5.8515625 C 23.727306 5.85152 23.524411 5.9196669 23.373047 6.0527344 C 23.221677 6.1845328 23.134523 6.3761657 23.111328 6.6289062 L 23.449219 6.6640625 C 23.450471 6.4956016 23.500515 6.3628493 23.595703 6.2675781 C 23.690977 6.1723864 23.817866 6.124995 23.976562 6.125 C 24.1267 6.1250157 24.247074 6.1694031 24.339844 6.2597656 C 24.433845 6.3488564 24.480473 6.4592406 24.480469 6.5898438 C 24.480477 6.7143768 24.430754 6.8479014 24.328125 6.9882812 C 24.225558 7.1274066 24.028079 7.3154274 23.736328 7.5546875 C 23.548342 7.708494 23.402829 7.8437372 23.302734 7.9609375 C 23.203807 8.0781302 23.133053 8.1975594 23.087891 8.3183594 C 23.059844 8.3916293 23.046271 8.4675193 23.048828 8.546875 L 24.824219 8.546875 L 24.824219 8.2304688 L 23.507812 8.2304688 C 23.544423 8.1707761 23.590361 8.1113976 23.646484 8.0527344 C 23.702651 7.9929047 23.829589 7.8808457 24.027344 7.7148438 C 24.264152 7.5146442 24.431885 7.3569194 24.533203 7.2421875 C 24.635698 7.1274501 24.709964 7.0178648 24.753906 6.9140625 C 24.797834 6.8103287 24.820299 6.7051218 24.820312 6.5976562 C 24.82031 6.3865219 24.743899 6.2092658 24.59375 6.0664062 C 24.4436 5.9235977 24.23998 5.8516129 23.982422 5.8515625 z M 19.425781 6.2910156 L 19.269531 6.3242188 L 19.46875 7.2636719 L 19.625 7.2304688 L 19.425781 6.2910156 z M 26.654297 6.2910156 L 26.455078 7.2304688 L 26.611328 7.2636719 L 26.810547 6.3242188 L 26.654297 6.2910156 z M 17.628906 6.7636719 L 17.476562 6.8144531 L 17.773438 7.7265625 L 17.925781 7.6777344 L 17.628906 6.7636719 z M 28.451172 6.7636719 L 28.154297 7.6777344 L 28.306641 7.7265625 L 28.603516 6.8144531 L 28.451172 6.7636719 z M 15.890625 7.421875 L 15.744141 7.4882812 L 16.134766 8.3652344 L 16.28125 8.2988281 L 15.890625 7.421875 z M 30.189453 7.421875 L 29.798828 8.2988281 L 29.945312 8.3652344 L 30.335938 7.4882812 L 30.189453 7.421875 z M 14.523438 8.2753906 L 13.970703 8.5957031 L 15.089844 10.535156 L 15.644531 10.216797 L 14.523438 8.2753906 z M 31.556641 8.2753906 L 30.435547 10.216797 L 30.990234 10.535156 L 32.109375 8.5957031 L 31.556641 8.2753906 z M 12.667969 9.2636719 L 12.537109 9.3574219 L 13.101562 10.134766 L 13.232422 10.041016 L 12.667969 9.2636719 z M 33.412109 9.2636719 L 32.847656 10.041016 L 32.978516 10.134766 L 33.542969 9.3574219 L 33.412109 9.2636719 z M 11.216797 10.427734 L 11.099609 10.535156 L 11.740234 11.248047 L 11.859375 11.140625 L 11.216797 10.427734 z M 34.863281 10.427734 L 34.220703 11.140625 L 34.339844 11.248047 L 34.980469 10.535156 L 34.863281 10.427734 z M 9.8964844 11.736328 L 9.7910156 11.855469 L 10.503906 12.496094 L 10.611328 12.378906 L 9.8964844 11.736328 z M 36.183594 11.736328 L 35.46875 12.378906 L 35.576172 12.496094 L 36.289062 11.855469 L 36.183594 11.736328 z M 8.7207031 13.175781 L 8.6269531 13.304688 L 9.4042969 13.869141 L 9.4980469 13.738281 L 8.7207031 13.175781 z M 37.359375 13.175781 L 36.582031 13.738281 L 36.675781 13.869141 L 37.453125 13.304688 L 37.359375 13.175781 z M 7.9707031 14.595703 L 7.6503906 15.150391 L 9.5898438 16.269531 L 9.9101562 15.714844 L 7.9707031 14.595703 z M 38.109375 14.595703 L 36.169922 15.714844 L 36.490234 16.269531 L 38.429688 15.150391 L 38.109375 14.595703 z M 6.8515625 16.380859 L 6.7851562 16.527344 L 7.6621094 16.917969 L 7.7285156 16.771484 L 6.8515625 16.380859 z M 39.230469 16.380859 L 38.351562 16.771484 L 38.417969 16.917969 L 39.294922 16.527344 L 39.230469 16.380859 z M 6.1757812 18.113281 L 6.1269531 18.265625 L 7.0410156 18.5625 L 7.0898438 18.410156 L 6.1757812 18.113281 z M 39.904297 18.113281 L 38.990234 18.410156 L 39.039062 18.5625 L 39.953125 18.265625 L 39.904297 18.113281 z M 5.6875 19.90625 L 5.6542969 20.0625 L 6.59375 20.263672 L 6.6269531 20.107422 L 5.6875 19.90625 z M 40.392578 19.90625 L 39.453125 20.107422 L 39.486328 20.263672 L 40.425781 20.0625 L 40.392578 19.90625 z M 39.455078 22.279297 C 39.242668 22.279335 39.064704 22.338876 38.921875 22.460938 C 38.779054 22.581805 38.688722 22.753677 38.648438 22.974609 L 38.976562 23.033203 C 39.000606 22.871989 39.057068 22.750443 39.142578 22.669922 C 39.228003 22.589321 39.334719 22.54883 39.462891 22.548828 C 39.592288 22.548831 39.697536 22.588534 39.779297 22.667969 C 39.861089 22.747308 39.902344 22.847879 39.902344 22.96875 C 39.902318 23.121339 39.846634 23.235312 39.734375 23.308594 C 39.622111 23.381752 39.495847 23.417965 39.355469 23.417969 L 39.300781 23.417969 L 39.265625 23.707031 C 39.358378 23.682377 39.435796 23.669878 39.498047 23.669922 C 39.650626 23.669945 39.776043 23.719832 39.875 23.818359 C 39.97388 23.91595 40.023435 24.040007 40.023438 24.191406 C 40.023448 24.350076 39.968328 24.484243 39.861328 24.591797 C 39.755175 24.699214 39.625733 24.751945 39.470703 24.751953 C 39.34008 24.751996 39.228288 24.710631 39.136719 24.628906 C 39.04638 24.54591 38.983154 24.411348 38.945312 24.224609 L 38.617188 24.269531 C 38.639872 24.490834 38.726896 24.671109 38.880859 24.810547 C 39.037117 24.950881 39.23316 25.021493 39.46875 25.021484 C 39.729986 25.021499 39.946291 24.93968 40.117188 24.777344 C 40.288087 24.613741 40.373047 24.415971 40.373047 24.181641 C 40.373085 24.008311 40.328126 23.862849 40.240234 23.748047 C 40.152352 23.632142 40.029788 23.556197 39.871094 23.519531 C 39.993155 23.463382 40.084231 23.388166 40.146484 23.292969 C 40.208737 23.197772 40.240218 23.092554 40.240234 22.976562 C 40.240214 22.854491 40.208549 22.737516 40.142578 22.628906 C 40.077912 22.519981 39.982667 22.435056 39.859375 22.373047 C 39.736085 22.30973 39.601485 22.279644 39.455078 22.279297 z M 6.546875 22.283203 C 6.3052258 22.282956 6.1044895 22.365223 5.9433594 22.53125 C 5.7834349 22.697329 5.7030688 22.917294 5.703125 23.189453 C 5.7031071 23.453111 5.7797772 23.665071 5.9335938 23.826172 C 6.0873895 23.98737 6.2758801 24.068369 6.4980469 24.068359 C 6.6311743 24.068031 6.7556573 24.035218 6.8691406 23.970703 C 6.9838822 23.905126 7.072753 23.819833 7.1386719 23.714844 C 7.1396974 23.743687 7.1408092 23.765954 7.140625 23.78125 C 7.1405858 23.918031 7.1247056 24.051857 7.0917969 24.183594 C 7.0586509 24.315484 7.0175668 24.419889 6.96875 24.498047 C 6.9199724 24.574578 6.8581762 24.636866 6.78125 24.683594 C 6.7056725 24.729892 6.6169561 24.753873 6.515625 24.753906 C 6.3971382 24.75428 6.300281 24.719545 6.2246094 24.652344 C 6.148928 24.58514 6.0971635 24.477062 6.0703125 24.328125 L 5.7539062 24.357422 C 5.780782 24.568625 5.8591312 24.732486 5.9921875 24.849609 C 6.1252059 24.965805 6.2978862 25.023288 6.5078125 25.023438 C 6.70554 25.02355 6.8769635 24.971401 7.0234375 24.865234 C 7.1711477 24.759024 7.282962 24.604991 7.3574219 24.402344 C 7.4319356 24.198481 7.469108 23.925205 7.46875 23.582031 C 7.4687776 23.252435 7.4311566 22.999496 7.3554688 22.826172 C 7.281022 22.651578 7.1706397 22.517882 7.0253906 22.423828 C 6.8813471 22.329826 6.7213785 22.283491 6.546875 22.283203 z M 6.5878906 22.556641 C 6.7294033 22.557072 6.8508848 22.612396 6.9511719 22.722656 C 7.0524053 22.83414 7.1035198 22.984594 7.1035156 23.173828 C 7.1034724 23.363054 7.053966 23.509801 6.9550781 23.617188 C 6.8574595 23.723413 6.7307251 23.777269 6.578125 23.777344 C 6.4268552 23.776883 6.2980939 23.727978 6.1953125 23.617188 C 6.0928268 23.509527 6.0429595 23.372105 6.0429688 23.201172 C 6.0429681 23.01071 6.0964324 22.855954 6.2050781 22.736328 C 6.3137238 22.616703 6.4414003 22.556685 6.5878906 22.556641 z M 6.59375 27.091797 L 5.6542969 27.291016 L 5.6875 27.447266 L 6.6269531 27.248047 L 6.59375 27.091797 z M 39.486328 27.091797 L 39.453125 27.248047 L 40.392578 27.447266 L 40.425781 27.291016 L 39.486328 27.091797 z M 7.0410156 28.791016 L 6.1269531 29.087891 L 6.1757812 29.240234 L 7.0898438 28.943359 L 7.0410156 28.791016 z M 39.039062 28.791016 L 38.990234 28.943359 L 39.904297 29.240234 L 39.953125 29.087891 L 39.039062 28.791016 z M 7.6621094 30.435547 L 6.7851562 30.826172 L 6.8496094 30.972656 L 7.7285156 30.582031 L 7.6621094 30.435547 z M 38.417969 30.435547 L 38.353516 30.582031 L 39.230469 30.972656 L 39.294922 30.826172 L 38.417969 30.435547 z M 9.5898438 31.060547 L 7.6503906 32.181641 L 7.9707031 32.736328 L 9.9101562 31.615234 L 9.5898438 31.060547 z M 36.490234 31.060547 L 36.169922 31.615234 L 38.109375 32.736328 L 38.429688 32.181641 L 36.490234 31.060547 z M 9.4042969 33.486328 L 8.6269531 34.048828 L 8.7207031 34.179688 L 9.4980469 33.615234 L 9.4042969 33.486328 z M 36.675781 33.486328 L 36.582031 33.615234 L 37.359375 34.179688 L 37.453125 34.050781 L 36.675781 33.486328 z M 10.503906 34.857422 L 9.7910156 35.5 L 9.8964844 35.619141 L 10.611328 34.976562 L 10.503906 34.857422 z M 35.576172 34.857422 L 35.46875 34.976562 L 36.183594 35.619141 L 36.289062 35.5 L 35.576172 34.857422 z M 11.740234 36.105469 L 11.099609 36.820312 L 11.216797 36.927734 L 11.859375 36.212891 L 11.740234 36.105469 z M 34.339844 36.105469 L 34.220703 36.212891 L 34.863281 36.927734 L 34.980469 36.820312 L 34.339844 36.105469 z M 15.089844 36.794922 L 13.970703 38.734375 L 14.523438 39.054688 L 15.644531 37.115234 L 15.089844 36.794922 z M 30.990234 36.794922 L 30.435547 37.115234 L 31.556641 39.054688 L 32.109375 38.734375 L 30.990234 36.794922 z M 13.101562 37.21875 L 12.537109 37.996094 L 12.667969 38.089844 L 13.232422 37.3125 L 13.101562 37.21875 z M 32.978516 37.21875 L 32.847656 37.3125 L 33.412109 38.089844 L 33.542969 37.996094 L 32.978516 37.21875 z M 23.117188 38.738281 C 22.833954 38.738396 22.608625 38.839909 22.441406 39.044922 C 22.249754 39.280524 22.154289 39.658895 22.154297 40.177734 C 22.154261 40.641563 22.240711 40.973213 22.414062 41.175781 C 22.587408 41.377224 22.811256 41.478608 23.085938 41.478516 C 23.247172 41.478028 23.390638 41.440169 23.517578 41.363281 C 23.644549 41.286298 23.744389 41.175223 23.816406 41.03125 C 23.889606 40.885995 23.925948 40.729064 23.925781 40.560547 C 23.925769 40.304244 23.848391 40.096701 23.693359 39.935547 C 23.539559 39.773121 23.352527 39.691489 23.132812 39.691406 C 23.007114 39.691269 22.88807 39.72116 22.773438 39.779297 C 22.658723 39.837723 22.561761 39.927983 22.482422 40.048828 C 22.484911 39.780277 22.514317 39.572953 22.574219 39.427734 C 22.634043 39.282397 22.716531 39.171379 22.820312 39.095703 C 22.899669 39.036918 22.992678 39.007786 23.097656 39.007812 C 23.228238 39.007965 23.336165 39.058756 23.425781 39.150391 C 23.479503 39.208837 23.521489 39.302222 23.550781 39.431641 L 23.878906 39.40625 C 23.852021 39.197498 23.770248 39.034472 23.634766 38.916016 C 23.50051 38.797513 23.328403 38.738091 23.117188 38.738281 z M 16.134766 38.990234 L 15.744141 39.867188 L 15.890625 39.931641 L 16.28125 39.054688 L 16.134766 38.990234 z M 29.945312 38.990234 L 29.798828 39.054688 L 30.189453 39.931641 L 30.335938 39.867188 L 29.945312 38.990234 z M 17.773438 39.626953 L 17.476562 40.541016 L 17.628906 40.589844 L 17.925781 39.677734 L 17.773438 39.626953 z M 28.306641 39.626953 L 28.154297 39.677734 L 28.451172 40.589844 L 28.603516 40.541016 L 28.306641 39.626953 z M 23.068359 39.982422 C 23.218455 39.982633 23.341808 40.040551 23.441406 40.144531 C 23.540354 40.250417 23.589853 40.396478 23.589844 40.582031 C 23.589855 40.774847 23.539597 40.926729 23.439453 41.039062 C 23.339309 41.151396 23.219232 41.207064 23.080078 41.207031 C 22.984854 41.207238 22.893266 41.181148 22.806641 41.126953 C 22.720028 41.071739 22.652452 40.991902 22.603516 40.888672 C 22.555934 40.784503 22.533209 40.675981 22.533203 40.5625 C 22.533252 40.389121 22.583763 40.250683 22.6875 40.144531 C 22.791312 40.037067 22.919418 39.982456 23.068359 39.982422 z M 19.46875 40.089844 L 19.269531 41.029297 L 19.425781 41.0625 L 19.626953 40.123047 L 19.46875 40.089844 z M 26.611328 40.089844 L 26.455078 40.123047 L 26.654297 41.0625 L 26.810547 41.029297 L 26.611328 40.089844 z "
                                   id="rect8041"
                                   transform="translate(0,1004.3622)" />
                                </g>
                                </g>
                                </g>
                                </g>
                                </g>
                                </g>
                                </g>
                                </g>
                                </g>
                                </g>
                                </g>
                                </g>
                                </g>
                                </g>
                              </g>
                            </g>
                          </g>
                        </g>
                      </g>
                    </g>
                  </g>
                </g>
              </g>
            </g>
          </g>
        </g>
      </g>
    </g>
    <g
       id="HourHand"
       inkscape:label="#g10258"
       transform="matrix(1,0,0,0.92857041,0,73.249776)">
      <g
         id="g10246">
        <g
           id="g10235">
          <g
             id="g10225">
            <g
               id="g10216">
              <g
                 id="g10208">
                <g
                   id="g10201">
                  <g
                     id="g10195">
                    <g
                       id="g10190">
                      <g
                         id="g10186">
                        <rect
                           style="opacity:1;fill:none;fill-opacity:1;stroke:none;stroke-width:0.25;stroke-miterlimit:4;stroke-dasharray:none;stroke-opacity:1"
                           id="rect10135"
                           width="5.1199999"
                           height="15.360023"
                           x="-14.08"
                           y="1025.4822"
                           ry="1.6188401e-15" />
                        <path
                           style="fill:none;fill-rule:evenodd;stroke:#ff9600;stroke-width:1px;stroke-linecap:butt;stroke-linejoin:miter;stroke-opacity:1"
                           d="m -11.52,1025.4822 0,15.36"
                           id="path10129"
                           inkscape:connector-curvature="0"
                           sodipodi:nodetypes="cc" />
                      </g>
                    </g>
                  </g>
                </g>
              </g>
            </g>
          </g>
        </g>
      </g>
    </g>
    <g
       id="MinuteHand"
       inkscape:label="#g10176"
       transform="matrix(1,0,0,0.92857041,0,73.249776)">
      <g
         id="g10167">
        <g
           id="g10159">
          <g
             id="g10152">
            <g
               id="g10146">
              <g
                 id="g10141">
                <g
                   id="g10137">
                  <rect
                     ry="1.6188401e-15"
                     y="1025.4822"
                     x="-20.48"
                     height="17.920023"
                     width="5.1199999"
                     id="rect10133"
                     style="opacity:1;fill:none;fill-opacity:1;stroke:none;stroke-width:0.25;stroke-miterlimit:4;stroke-dasharray:none;stroke-opacity:1" />
                  <path
                     inkscape:connector-curvature="0"
                     id="path10131"
                     d="m -17.92,1025.4822 0,17.92"
                     style="fill:none;fill-rule:evenodd;stroke:#ff9600;stroke-width:1px;stroke-linecap:butt;stroke-linejoin:miter;stroke-opacity:1" />
                </g>
              </g>
            </g>
          </g>
        </g>
      </g>
    </g>
  </g>
</svg>
