<?xml version="1.0" encoding="UTF-8" standalone="no"?>
<!-- Created with Inkscape (http://www.inkscape.org/) -->

<svg
   xmlns:dc="http://purl.org/dc/elements/1.1/"
   xmlns:cc="http://creativecommons.org/ns#"
   xmlns:rdf="http://www.w3.org/1999/02/22-rdf-syntax-ns#"
   xmlns:svg="http://www.w3.org/2000/svg"
   xmlns="http://www.w3.org/2000/svg"
   xmlns:xlink="http://www.w3.org/1999/xlink"
   xmlns:sodipodi="http://sodipodi.sourceforge.net/DTD/sodipodi-0.dtd"
   xmlns:inkscape="http://www.inkscape.org/namespaces/inkscape"
   width="48.047894"
   height="48.047806"
   viewBox="0 0 48.047895 48.047807"
   id="svg2"
   version="1.1"
   inkscape:version="0.91 r13725"
   sodipodi:docname="drawing-6.svg">
  <defs
     id="defs4">
    <linearGradient
       inkscape:collect="always"
       id="linearGradient5324">
      <stop
         style="stop-color:#000000;stop-opacity:0.26755852"
         offset="0"
         id="stop5326" />
      <stop
         style="stop-color:#000000;stop-opacity:0"
         offset="1"
         id="stop5328" />
    </linearGradient>
    <linearGradient
       inkscape:collect="always"
       id="linearGradient5308">
      <stop
         style="stop-color:#ffffff;stop-opacity:0.09803922"
         offset="0"
         id="stop5310" />
      <stop
         style="stop-color:#ffffff;stop-opacity:0;"
         offset="1"
         id="stop5312" />
    </linearGradient>
    <linearGradient
       inkscape:collect="always"
       id="linearGradient4324">
      <stop
         style="stop-color:#ffffff;stop-opacity:0.30100334"
         offset="0"
         id="stop4326" />
      <stop
         style="stop-color:#ffffff;stop-opacity:0;"
         offset="1"
         id="stop4328" />
    </linearGradient>
    <linearGradient
       inkscape:collect="always"
       id="linearGradient4311">
      <stop
         style="stop-color:#000000;stop-opacity:1;"
         offset="0"
         id="stop4313" />
      <stop
         style="stop-color:#1a1a1a;stop-opacity:1"
         offset="1"
         id="stop4315" />
    </linearGradient>
    <linearGradient
       inkscape:collect="always"
       id="linearGradient4303">
      <stop
         style="stop-color:#000000;stop-opacity:1;"
         offset="0"
         id="stop4305" />
      <stop
         style="stop-color:#1a1a1a;stop-opacity:1"
         offset="1"
         id="stop4307" />
    </linearGradient>
    <linearGradient
       inkscape:collect="always"
       xlink:href="#linearGradient4303"
       id="linearGradient4309"
       x1="16.639999"
       y1="13.440001"
       x2="25.6"
       y2="42.880001"
       gradientUnits="userSpaceOnUse"
       gradientTransform="translate(1.85e-7,1004.3622)" />
    <linearGradient
       inkscape:collect="always"
       xlink:href="#linearGradient4311"
       id="linearGradient4317"
       x1="16.639999"
       y1="13.440001"
       x2="25.6"
       y2="42.880001"
       gradientUnits="userSpaceOnUse"
       gradientTransform="translate(1.85e-7,1004.3622)" />
    <linearGradient
       inkscape:collect="always"
       xlink:href="#linearGradient4324"
       id="linearGradient4330"
       x1="-3.2859964"
       y1="-3.2240663"
       x2="10.24"
       y2="28.800001"
       gradientUnits="userSpaceOnUse" />
    <radialGradient
       inkscape:collect="always"
       xlink:href="#linearGradient7423"
       id="radialGradient7429"
       cx="-23.039999"
       cy="1022.9222"
       fx="-23.039999"
       fy="1022.9222"
       r="1.28"
       gradientUnits="userSpaceOnUse"
       gradientTransform="matrix(0.74370885,0,0,0.74370885,-0.74854415,259.49339)" />
    <linearGradient
       inkscape:collect="always"
       id="linearGradient7423">
      <stop
         style="stop-color:#ff8332;stop-opacity:1;"
         offset="0"
         id="stop7425" />
      <stop
         style="stop-color:#2f0000;stop-opacity:1"
         offset="1"
         id="stop7427" />
    </linearGradient>
    <linearGradient
       inkscape:collect="always"
       xlink:href="#linearGradient5308"
       id="linearGradient5314"
       x1="88.023903"
       y1="2.264533"
       x2="99.543907"
       y2="18.904533"
       gradientUnits="userSpaceOnUse" />
    <linearGradient
       inkscape:collect="always"
       xlink:href="#linearGradient5308"
       id="linearGradient5322"
       x1="70.400002"
       y1="1028.0422"
       x2="85.759995"
       y2="1026.7622"
       gradientUnits="userSpaceOnUse" />
    <linearGradient
       inkscape:collect="always"
       xlink:href="#linearGradient5324"
       id="linearGradient5330"
       x1="111.68"
       y1="1040.8423"
       x2="102.39999"
       y2="1035.7223"
       gradientUnits="userSpaceOnUse" />
  </defs>
  <sodipodi:namedview
     id="base"
     pagecolor="#1f1f1f"
     bordercolor="#666666"
     borderopacity="1.0"
     inkscape:pageopacity="0"
     inkscape:pageshadow="2"
     inkscape:zoom="6.3916952"
     inkscape:cx="4.8332266"
     inkscape:cy="35.079927"
     inkscape:document-units="px"
     inkscape:current-layer="layer1"
     showgrid="true"
     units="px"
     inkscape:window-width="1366"
     inkscape:window-height="706"
     inkscape:window-x="-7"
     inkscape:window-y="0"
     inkscape:window-maximized="1"
     showguides="true"
     inkscape:guide-bbox="true"
     fit-margin-top="0"
     fit-margin-left="0"
     fit-margin-right="0"
     fit-margin-bottom="0">
    <inkscape:grid
       type="xygrid"
       id="grid3336"
       spacingx="0.001"
       spacingy="0.001"
       originx="0.98390842"
       originy="-1.576726" />
    <sodipodi:guide
       position="24.023909,24.023274"
       orientation="0,1"
       id="guide4136" />
    <sodipodi:guide
       position="24.023909,24.023274"
       orientation="1,0"
       id="guide4138" />
    <sodipodi:guide
       position="8.6639085,6.103274"
       orientation="0,1"
       id="guide4999" />
    <sodipodi:guide
       position="-4.1360916,26.583274"
       orientation="0,1"
       id="guide5001" />
  </sodipodi:namedview>
  <metadata
     id="metadata7">
    <rdf:RDF>
      <cc:Work
         rdf:about="">
        <dc:format>image/svg+xml</dc:format>
        <dc:type
           rdf:resource="http://purl.org/dc/dcmitype/StillImage" />
        <dc:title></dc:title>
      </cc:Work>
    </rdf:RDF>
  </metadata>
  <g
     inkscape:label="Layer 1"
     inkscape:groupmode="layer"
     id="layer1"
     transform="translate(0.98390839,-1002.7377)">
    <g
       id="ClockFace"
       transform="translate(-0.34603821,0.34674421)"
       inkscape:label="#g4962">
      <g
         id="g4926">
        <g
           id="g4891">
          <g
             id="g4857">
            <g
               id="g4824">
              <g
                 id="g4792">
                <g
                   id="g4761">
                  <g
                     id="g4731">
                    <g
                       id="g4702">
                      <g
                         id="g4674">
                        <g
                           id="g4647">
                          <g
                             id="g4621">
                            <g
                               id="g4596">
                              <g
                                 id="g4572">
                                <g
                                   id="g4549">
                                <g
                                   id="g4527">
                                <g
                                   id="g4506">
                                <g
                                   id="g4486">
                                <g
                                   id="g4467">
                                <g
                                   id="g4449">
                                <g
                                   id="g4432">
                                <g
                                   id="g4416">
                                <g
                                   id="g4401">
                                <g
                                   id="g4387">
                                <g
                                   id="g4374">
                                <g
                                   id="g4362">
                                <g
                                   id="g4351">
                                <g
                                   id="g4341">
                                <g
                                   id="g4332">
                                <rect
                                   ry="2.9528894"
                                   y="1007.1687"
                                   x="3.447134"
                                   height="39.18581"
                                   width="39.18581"
                                   id="rect4154"
                                   style="opacity:1;fill:#001f00;fill-opacity:1;stroke:#004600;stroke-width:0.09184175;stroke-miterlimit:4;stroke-dasharray:none;stroke-opacity:1" />
                                <path
                                   style="font-style:normal;font-variant:normal;font-weight:normal;font-stretch:normal;font-size:5px;font-family:'Latin Modern Roman Dunhill';-inkscape-font-specification:'Latin Modern Roman Dunhill';opacity:1;fill:#000000;fill-opacity:1;stroke:#4d4d4d;stroke-width:0.078;stroke-miterlimit:4;stroke-dasharray:none;stroke-opacity:1"
                                   d="m 12.600629,1010.1844 c -0.0088,0.21 -0.167578,0.4609 -0.642578,0.4609 l 0.08789,0.1543 c 0.295,0 0.460703,-0.095 0.542968,-0.1953 l 2.253907,3.9062 c 0.103923,0.18 0.123828,0.2383 -0.326172,0.2383 l -0.160156,0 0.08984,0.1563 c 0.16634,-0.015 0.600782,-0.016 0.800781,-0.016 0.200001,0 0.636653,7e-4 0.820313,0.016 l -0.08984,-0.1563 -0.160156,0 c -0.45,0 -0.496706,-0.053 -0.603516,-0.2383 l -2.421875,-4.1953 c -0.06928,-0.12 -0.07641,-0.1308 -0.191406,-0.1308 z m 2.5,0 c -0.0088,0.21 -0.167578,0.4609 -0.642578,0.4609 l 0.08789,0.1543 c 0.295,0 0.460703,-0.095 0.542968,-0.1953 l 2.253907,3.9062 c 0.103923,0.18 0.123828,0.2383 -0.326172,0.2383 l -0.160156,0 0.08984,0.1563 c 0.16634,-0.015 0.600782,-0.016 0.800781,-0.016 0.200001,0 0.636653,7e-4 0.820313,0.016 l -0.08984,-0.1563 -0.160156,0 c -0.45,0 -0.496706,-0.053 -0.603516,-0.2383 l -2.421875,-4.1953 c -0.06928,-0.12 -0.07641,-0.1308 -0.191406,-0.1308 z m 6.845703,0 c -0.13,0.21 -0.435156,0.4609 -0.910156,0.4609 l 0,0.1543 c 0.295,0 0.514297,-0.095 0.654297,-0.1953 l 0,3.9062 c 0,0.18 -0.01484,0.2383 -0.464844,0.2383 l -0.160156,0 0,0.1563 c 0.175,-0.015 0.610547,-0.016 0.810547,-0.016 0.2,0 0.633594,7e-4 0.808593,0.016 l 0,-0.1563 -0.158203,0 c -0.45,0 -0.466796,-0.053 -0.466797,-0.2383 l 0,-4.1953 c 0,-0.12 0.0017,-0.1308 -0.113281,-0.1308 z m 2.330078,0 c -0.715,0 -0.935546,0.8507 -0.935547,1.3457 0,0.095 0.02062,0.2988 0.265626,0.2988 0.155,0 0.259765,-0.1148 0.259765,-0.2598 0,-0.19 -0.155625,-0.2636 -0.265625,-0.2636 -0.04,0 -0.05984,0 -0.08984,0.014 0.045,-0.47 0.24961,-0.9804 0.72461,-0.9804 0.525,0 0.644531,0.6014 0.644531,1.1464 0,0.525 -0.17,1.045 -0.625,1.795 l -0.875,1.4394 c -0.04,0.06 -0.03906,0.071 -0.03906,0.1856 l 1.855469,0 0.138672,-0.8711 -0.125,0 c -0.025,0.15 -0.05937,0.3703 -0.109375,0.4453 -0.035,0.04 -0.364609,0.041 -0.474609,0.041 l -0.990235,0 0.97461,-1.3711 c 0.335,-0.47 0.724609,-0.9954 0.724609,-1.6504 0,-0.715 -0.378594,-1.3144 -1.058594,-1.3144 z m 8.41211,0 c -0.251244,0.21 -0.698828,0.4609 -1.173828,0.4609 l -0.08984,0.1543 c 0.295,0 0.569843,-0.095 0.767578,-0.1953 l -2.255859,3.9062 c -0.103923,0.18 -0.153516,0.2383 -0.603516,0.2383 l -0.160156,0 -0.08789,0.1563 c 0.18366,-0.015 0.61836,-0.016 0.818359,-0.016 0.200001,0 0.634442,7e-4 0.800782,0.016 l 0.08984,-0.1563 -0.160157,0 c -0.45,0 -0.432981,-0.053 -0.326172,-0.2383 l 2.421875,-4.1953 c 0.06928,-0.12 0.07399,-0.1308 -0.04102,-0.1308 z m -25.5312505,5.709 c -0.2460938,-0.029 -0.6113282,0 -0.6113282,0.4316 0,0.65 0.79375,1.3236 0.96875,1.4746 0.45,0.3798 0.9150782,0.6687 1.4550782,0.9805 0.3499999,0.202 0.9757031,0.5623 1.4707035,0.7031 0.195,0.053 0.935547,0.2598 0.935547,-0.3652 0,-0.465 -0.415782,-1.005 -0.925781,-1.4395 -0.445001,-0.3819 -0.8504695,-0.6402 -1.4804695,-1.0039 -0.4100001,-0.2367 -1.0750001,-0.6205 -1.625,-0.748 -0.0375,-0.01 -0.1054688,-0.024 -0.1875,-0.033 z m -0.1914063,0.2421 c 0.178125,0.012 0.4014844,0.097 0.5839844,0.1797 0.365,0.1658 1.0048437,0.5351 1.3398437,0.7285 0.505,0.2916 0.9204688,0.5312 1.3554687,0.8223 0.825,0.5513 1.019532,0.9536 1.019532,1.1836 0,0.205 -0.150078,0.2639 -0.330079,0.25 -0.345,-0.034 -0.829922,-0.279 -2.0449217,-0.9805 -0.445,-0.2569 -0.9199219,-0.5325 -1.2949218,-0.789 -0.515,-0.3524 -0.9394532,-0.7767 -0.9394532,-1.1367 0,-0.2075 0.1324219,-0.2695 0.3105469,-0.2579 z m 32.1894538,0.836 c -0.274375,0.014 -0.609922,0.152 -0.857422,0.2949 -0.095,0.055 -0.300782,0.1945 -0.300782,0.4395 0,0.1549 0.116719,0.193 0.261719,0.1093 0.19,-0.1097 0.263672,-0.3079 0.263672,-0.4179 0,-0.04 -0.0037,-0.058 -0.01367,-0.082 0.47,-0.2263 0.978516,-0.3148 0.978516,0.1602 0,0.525 -0.599531,0.992 -1.144531,1.3066 -0.525,0.3031 -1.044922,0.4322 -1.794922,0.4102 l -1.439453,-0.043 c -0.06,-0.01 -0.07055,0 -0.185547,0.066 l 0,1.8555 0.86914,-0.3633 0,-0.125 c -0.15,0.062 -0.368359,0.1532 -0.443359,0.1465 -0.04,-0.012 -0.04102,-0.3412 -0.04102,-0.4512 l 0,-0.9902 1.371094,0.1836 c 0.47,0.064 0.993438,0.1516 1.648438,-0.2266 0.715,-0.4128 1.316406,-1.1403 1.316406,-1.8203 0,-0.3575 -0.213906,-0.4672 -0.488281,-0.4531 z m -32.5898444,1.6601 c -0.0175,0 -0.019531,0.03 -0.019531,0.088 0.21,0.2513 0.4589844,0.7008 0.4589844,1.1758 l 0.15625,0.09 c 0,-0.295 -0.095313,-0.5698 -0.1953125,-0.7675 l 3.9042965,2.2539 c 0.18,0.1039 0.240235,0.1535 0.240235,0.6035 l 0,0.1601 0.154297,0.09 c -0.015,-0.1837 -0.01367,-0.6184 -0.01367,-0.8184 0,-0.2 -0.0013,-0.6364 0.01367,-0.8027 l -0.154297,-0.088 0,0.1602 c 0,0.45 -0.05523,0.4329 -0.240235,0.3261 l -4.1953121,-2.4218 c -0.06,-0.035 -0.091875,-0.053 -0.109375,-0.049 z m 2.3398437,7.1875 c -0.565,0 -1.0403906,0.036 -1.5253906,0.1856 -0.455,0.145 -0.8339844,0.4159 -0.8339844,0.8359 0,0.39 0.2497656,0.6143 0.5097656,0.7793 0.375,0.24 0.7007813,0.2754 1.0507813,0.2754 0.355,0 0.6833594,-0.036 1.0683594,-0.2812 0.25,-0.155 0.4765625,-0.3488 0.4765625,-0.7188 0,-0.405 -0.3301563,-0.565 -0.5351563,-0.625 l 0.1484375,0 c 1.2150007,0 1.9707037,0.3247 1.9707037,0.8047 0,0.2 -0.08008,0.4401 -0.330078,0.5351 0,0 0.0098,-0.035 0.0098,-0.07 0,-0.11 -0.07547,-0.2304 -0.230469,-0.2304 -0.154999,0 -0.228515,0.1204 -0.228515,0.2304 0,0.065 0.02914,0.2305 0.244141,0.2305 0.375,0 0.675781,-0.2553 0.675781,-0.6953 0,-0.68 -0.990703,-1.2559 -2.4707037,-1.2559 z m 27.2792967,0 c -0.554999,0 -1.189453,0.3768 -1.189453,1.0118 0,0.58 0.584844,1.0644 1.339844,1.0644 0.615,0 1.165156,-0.3445 1.285156,-0.8945 0.25,0.63 0.929766,0.7597 1.259766,0.7597 0.56,0 0.945312,-0.4457 0.945313,-0.9257 0,-0.55 -0.525235,-0.8789 -0.990235,-0.8789 -0.23,0 -0.269531,0.1739 -0.269531,0.2539 0,0.15 0.11,0.2558 0.25,0.2558 0.16,0 0.255859,-0.1158 0.255859,-0.2558 0,-0.03 -0.0056,-0.075 -0.01563,-0.1 0.435,0.1 0.644532,0.429 0.644532,0.709 0,0.17 -0.115079,0.4805 -0.830079,0.4805 -1.135,0 -1.169218,-0.3493 -1.199218,-0.6543 -0.015,-0.12 -0.02039,-0.1452 -0.02539,-0.1602 0,0 -0.0058,-0.041 -0.05078,-0.041 -0.055,0 -0.05469,0.036 -0.05469,0.1211 l 0,0.2149 c 0,0.1 5.47e-4,0.34 -0.439453,0.5 -0.26,0.09 -0.535625,0.1 -0.765625,0.1 -0.955,0 -1.199219,-0.3306 -1.199219,-0.5606 0,-0.38 0.320547,-0.7183 0.810547,-0.8183 -0.015,0.03 -0.01563,0.075 -0.01563,0.1 0,0.175 0.124297,0.2793 0.279297,0.2793 0.19,0 0.28125,-0.1543 0.28125,-0.2793 0,-0.015 -0.0016,-0.2813 -0.306641,-0.2813 z m -27.8281248,0.4551 c 0.69,0 1.1835937,0.1605 1.1835937,0.6055 0,0.565 -0.9488281,0.5644 -1.4238281,0.5644 -0.36,0 -0.6764062,0 -0.9414062,-0.084 -0.255,-0.085 -0.5039063,-0.2403 -0.5039063,-0.5253 0,-0.295 0.3655469,-0.4557 0.8105469,-0.5157 0.17,-0.02 0.55,-0.045 0.875,-0.045 z m 2.6191408,6.7188 c -0.24125,-0.041 -0.564531,0.046 -0.894531,0.2363 -0.6450004,0.3724 -0.930391,0.842 -1.1503911,1.209 l -0.2402343,0.3945 c -0.225,-0.1851 -0.61,-0.313 -1.125,-0.016 -0.535,0.3089 -1.0195313,0.9633 -1.0195313,1.4883 0,0.565 0.5589063,0.581 1.1289063,0.2519 0.57,-0.3291 0.8658594,-0.8181 0.8808593,-0.8418 l 0.2890626,-0.4824 c 0.33,0.2895 0.7859375,0.3312 1.3359375,0.014 0.635,-0.3667 1.195313,-1.1246 1.195313,-1.7246 0,-0.32 -0.159141,-0.4886 -0.400391,-0.5293 z m 25.056641,0.1367 0,1.3301 -0.826172,-0.4766 c -0.18,-0.1039 -0.234375,-0.1456 -0.234375,-0.5156 l 0,-0.1055 -0.154297,-0.09 c 0.015,0.2136 0.01367,0.4736 0.01367,0.6836 0,0.21 0.0013,0.4755 -0.01367,0.6718 l 0.154297,0.09 0,-0.1055 c 0,-0.37 0.05438,-0.3481 0.234375,-0.2441 l 0.826172,0.4765 0,0.5 0.154297,0.09 0,-0.5 3.27539,1.8906 c 0.1,0.058 0.128906,0.075 0.128906,0 0,-0.055 -0.0034,-0.058 -0.06836,-0.125 l -3.271484,-3.4141 c -0.06,-0.065 -0.06875,-0.07 -0.21875,-0.1562 z m -25.083985,0.072 c 0.175625,0.038 0.28711,0.169 0.28711,0.3965 0,0.49 -0.510547,1.0848 -1.060547,1.4024 -0.5700004,0.3291 -1.024141,0.3017 -1.2441411,0.094 l 0.515625,-0.8574 c 0.1550001,-0.2545 0.3639844,-0.6017 0.8339851,-0.873 0.2525,-0.1458 0.492343,-0.2001 0.667968,-0.1622 z m 25.238282,0.1465 2.634765,2.7461 0,0.01 -2.634765,-1.5215 0,-1.2305 z m -27.9609382,1.4961 c 0.175,0.01 0.3047656,0.063 0.3847657,0.1192 l -0.5351563,0.8945 c -0.02,0.031 -0.2302344,0.3812 -0.6152344,0.6035 -0.42,0.2425 -0.7890625,0.1674 -0.7890625,-0.2226 0,-0.425 0.4403906,-0.9395 0.9003906,-1.2051 0.26,-0.1501 0.4792969,-0.1953 0.6542969,-0.1895 z m 7.4042972,3.5313 -0.759766,1.0293 0.125,0 c 0.06119,-0.08 0.289031,-0.3951 0.388672,-0.4551 0.05232,-0.03 0.442813,-0.029 0.507813,-0.029 l 1.103515,0 -1.292968,1.2187 c -1.251274,1.18 -1.991556,2.3156 -2.277344,2.8106 -0.05196,0.09 -0.177266,0.3047 0.05273,0.3047 0.23,0 0.359805,-0.2254 0.388672,-0.2754 l 0.248047,-0.4297 c 0.03175,-0.055 0.357204,-0.6102 0.642578,-1.0352 0.458372,-0.69 0.832425,-1.1094 1.050781,-1.3144 l 1.580079,-1.4902 c 0.06175,-0.055 0.06735,-0.064 0.130859,-0.1739 l -1.214844,0 c -0.61,0 -0.583676,-0.065 -0.548828,-0.1601 l -0.125,0 z m 13.527344,0.088 c -0.05,0 -0.02666,0.041 0.01953,0.1211 l 1.228516,2.1289 c 0.05196,0.09 0.07453,0.1308 0.144531,0.1308 0.04,0 0.04004,-0.019 0.03906,-0.064 -0.0048,-0.095 -0.03109,-0.4512 0.378907,-0.4512 0.215,0 0.469291,0.2148 0.724609,0.5098 0.211451,0.245 0.388619,0.5361 0.582031,0.8711 0.164545,0.285 0.381408,0.6598 0.4375,0.9648 0.04588,0.27 -0.01563,0.4746 -0.265625,0.4746 -0.39,0 -0.901766,-0.3744 -1.292969,-0.9394 0.03866,0.015 0.05219,0.019 0.117188,0.019 0.17,0 0.176704,-0.1261 0.107422,-0.2461 -0.06928,-0.12 -0.225625,-0.2441 -0.390625,-0.2441 -0.155,0 -0.190794,0.094 -0.08398,0.2793 0.297336,0.515 0.984766,1.2714 1.634766,1.2714 0.565,0 0.730381,-0.6307 0.199219,-1.5507 -0.476314,-0.825 -1.283125,-1.5196 -1.828125,-1.5196 -0.315,0 -0.417075,0.1851 -0.44336,0.3301 l -0.894531,-1.5508 c 0.180415,0.07 0.35,0.1055 0.5,0.1055 0.615,0 0.655563,-0.5099 0.609375,-0.5899 -0.01732,-0.03 -0.04508,-0.051 -0.08008,-0.051 0,0 -0.01903,10e-5 -0.04883,0.035 -0.119944,0.13 -0.326016,0.1895 -0.541016,0.1895 -0.35,0 -0.654581,-0.1401 -0.787109,-0.2051 -0.05155,-0.02 -0.06641,-0.02 -0.06641,-0.02 z m -5.69336,0.1718 c -0.665,0 -1.316406,0.9249 -1.316406,2.4649 0,0.565 0.03648,0.965 0.146485,1.375 0.129999,0.485 0.403437,0.9883 0.898437,0.9883 0.39,0 0.60625,-0.25 0.78125,-0.545 0.215,-0.355 0.25,-0.6636 0.25,-1.0136 0,-0.285 -0.0157,-0.6105 -0.220703,-0.9805 -0.235,-0.415 -0.469297,-0.5645 -0.779297,-0.5645 -0.385,0 -0.545,0.2852 -0.625,0.5352 l 0,-0.1406 c 0,-1.32 0.404141,-1.9942 0.869141,-1.9942 0.25,0 0.414609,0.1388 0.474609,0.3438 -0.02,0 -0.02922,-0.01 -0.07422,-0.01 -0.11,0 -0.230469,0.076 -0.230468,0.2305 0,0.155 0.120468,0.2305 0.230468,0.2305 0.05,0 0.230469,-0.02 0.230469,-0.25 0,-0.305 -0.169766,-0.67 -0.634766,-0.67 z m -0.255859,1.834 c 0.565,0 0.564453,0.9447 0.564453,1.4297 0,0.34 7.81e-4,0.6404 -0.07422,0.9004 -0.05,0.19 -0.189765,0.5254 -0.509765,0.5254 -0.58,0 -0.580078,-1.1997 -0.580078,-1.6797 0,-0.305 0.0096,-1.1758 0.599609,-1.1758 z"
                                   id="path5003"
                                   inkscape:connector-curvature="0" />
                                <path
                                   inkscape:connector-curvature="0"
                                   id="text4142"
                                   d="m 12.455078,1010.122 c -0.0088,0.21 -0.167578,0.4609 -0.642578,0.4609 l 0.08789,0.1543 c 0.295,0 0.460703,-0.095 0.542968,-0.1953 l 2.253907,3.9062 c 0.103923,0.18 0.123828,0.2383 -0.326172,0.2383 l -0.160156,0 0.08984,0.1563 c 0.16634,-0.015 0.600782,-0.016 0.800781,-0.016 0.200001,0 0.636653,7e-4 0.820313,0.016 l -0.08984,-0.1563 -0.160156,0 c -0.45,0 -0.496706,-0.053 -0.603516,-0.2383 l -2.421875,-4.1953 c -0.06928,-0.12 -0.07641,-0.1308 -0.191406,-0.1308 z m 2.5,0 c -0.0088,0.21 -0.167578,0.4609 -0.642578,0.4609 l 0.08789,0.1543 c 0.295,0 0.460703,-0.095 0.542968,-0.1953 l 2.253907,3.9062 c 0.103923,0.18 0.123828,0.2383 -0.326172,0.2383 l -0.160156,0 0.08984,0.1563 c 0.16634,-0.015 0.600782,-0.016 0.800781,-0.016 0.200001,0 0.636653,7e-4 0.820313,0.016 l -0.08984,-0.1563 -0.160156,0 c -0.45,0 -0.496706,-0.053 -0.603516,-0.2383 l -2.421875,-4.1953 c -0.06928,-0.12 -0.07641,-0.1308 -0.191406,-0.1308 z m 6.845703,0 c -0.13,0.21 -0.435156,0.4609 -0.910156,0.4609 l 0,0.1543 c 0.295,0 0.514297,-0.095 0.654297,-0.1953 l 0,3.9062 c 0,0.18 -0.01484,0.2383 -0.464844,0.2383 l -0.160156,0 0,0.1563 c 0.175,-0.015 0.610547,-0.016 0.810547,-0.016 0.2,0 0.633594,7e-4 0.808593,0.016 l 0,-0.1563 -0.158203,0 c -0.45,0 -0.466796,-0.053 -0.466797,-0.2383 l 0,-4.1953 c 0,-0.12 0.0017,-0.1308 -0.113281,-0.1308 z m 2.330078,0 c -0.715,0 -0.935546,0.8507 -0.935547,1.3457 0,0.095 0.02062,0.2988 0.265626,0.2988 0.155,0 0.259765,-0.1148 0.259765,-0.2598 0,-0.19 -0.155625,-0.2636 -0.265625,-0.2636 -0.04,0 -0.05984,0 -0.08984,0.014 0.045,-0.47 0.24961,-0.9804 0.72461,-0.9804 0.525,0 0.644531,0.6014 0.644531,1.1464 0,0.525 -0.17,1.045 -0.625,1.795 l -0.875,1.4394 c -0.04,0.06 -0.03906,0.071 -0.03906,0.1856 l 1.855469,0 0.138672,-0.8711 -0.125,0 c -0.025,0.15 -0.05937,0.3703 -0.109375,0.4453 -0.035,0.04 -0.364609,0.041 -0.474609,0.041 l -0.990235,0 0.97461,-1.3711 c 0.335,-0.47 0.724609,-0.9954 0.724609,-1.6504 0,-0.715 -0.378594,-1.3144 -1.058594,-1.3144 z m 8.41211,0 c -0.251244,0.21 -0.698828,0.4609 -1.173828,0.4609 l -0.08984,0.1543 c 0.295,0 0.569843,-0.095 0.767578,-0.1953 l -2.255859,3.9062 c -0.103923,0.18 -0.153516,0.2383 -0.603516,0.2383 l -0.160156,0 -0.08789,0.1563 c 0.18366,-0.015 0.61836,-0.016 0.818359,-0.016 0.200001,0 0.634442,7e-4 0.800782,0.016 l 0.08984,-0.1563 -0.160157,0 c -0.45,0 -0.432981,-0.053 -0.326172,-0.2383 l 2.421875,-4.1953 c 0.06928,-0.12 0.07399,-0.1308 -0.04102,-0.1308 z m -25.5312504,5.709 c -0.2460938,-0.029 -0.6113282,0 -0.6113282,0.4316 0,0.65 0.79375,1.3236 0.96875,1.4746 0.45,0.3798 0.9150782,0.6687 1.4550782,0.9805 0.3499999,0.202 0.9757031,0.5623 1.4707034,0.7031 0.195,0.053 0.935547,0.2598 0.935547,-0.3652 0,-0.465 -0.415782,-1.005 -0.925781,-1.4395 -0.4450007,-0.3819 -0.8504694,-0.6402 -1.4804694,-1.0039 -0.4100001,-0.2367 -1.0750001,-0.6205 -1.625,-0.748 -0.0375,-0.01 -0.1054688,-0.024 -0.1875,-0.033 z m -0.1914063,0.2421 c 0.178125,0.012 0.4014844,0.097 0.5839844,0.1797 0.365,0.1658 1.0048437,0.5351 1.3398437,0.7285 0.505,0.2916 0.9204688,0.5312 1.3554686,0.8223 0.825,0.5513 1.019532,0.9536 1.019532,1.1836 0,0.205 -0.150078,0.2639 -0.330079,0.25 -0.345,-0.034 -0.8299216,-0.279 -2.0449216,-0.9805 -0.445,-0.2569 -0.9199219,-0.5325 -1.2949218,-0.789 -0.515,-0.3524 -0.9394532,-0.7767 -0.9394532,-1.1367 0,-0.2075 0.1324219,-0.2695 0.3105469,-0.2579 z m 32.1894537,0.836 c -0.274375,0.014 -0.609922,0.152 -0.857422,0.2949 -0.095,0.055 -0.300782,0.1945 -0.300782,0.4395 0,0.1549 0.116719,0.193 0.261719,0.1093 0.19,-0.1097 0.263672,-0.3079 0.263672,-0.4179 0,-0.04 -0.0037,-0.058 -0.01367,-0.082 0.47,-0.2263 0.978516,-0.3148 0.978516,0.1602 0,0.525 -0.599531,0.992 -1.144531,1.3066 -0.525,0.3031 -1.044922,0.4322 -1.794922,0.4102 l -1.439453,-0.043 c -0.06,-0.01 -0.07055,0 -0.185547,0.066 l 0,1.8555 0.86914,-0.3633 0,-0.125 c -0.15,0.062 -0.368359,0.1532 -0.443359,0.1465 -0.04,-0.012 -0.04102,-0.3412 -0.04102,-0.4512 l 0,-0.9902 1.371094,0.1836 c 0.47,0.064 0.993438,0.1516 1.648438,-0.2266 0.715,-0.4128 1.316406,-1.1403 1.316406,-1.8203 0,-0.3575 -0.213906,-0.4672 -0.488281,-0.4531 z m -32.5898443,1.6601 c -0.0175,0 -0.019531,0.03 -0.019531,0.088 0.21,0.2513 0.4589844,0.7008 0.4589844,1.1758 l 0.15625,0.09 c 0,-0.295 -0.095313,-0.5698 -0.1953125,-0.7675 l 3.9042964,2.2539 c 0.18,0.1039 0.240235,0.1535 0.240235,0.6035 l 0,0.1601 0.154297,0.09 c -0.015,-0.1837 -0.01367,-0.6184 -0.01367,-0.8184 0,-0.2 -0.0013,-0.6364 0.01367,-0.8027 l -0.154297,-0.088 0,0.1602 c 0,0.45 -0.05523,0.4329 -0.240235,0.3261 l -4.195312,-2.4218 c -0.06,-0.035 -0.091875,-0.053 -0.109375,-0.049 z m 2.3398437,7.1875 c -0.565,0 -1.0403906,0.036 -1.5253906,0.1856 -0.455,0.145 -0.8339844,0.4159 -0.8339844,0.8359 0,0.39 0.2497656,0.6143 0.5097656,0.7793 0.375,0.24 0.7007813,0.2754 1.0507813,0.2754 0.355,0 0.6833594,-0.036 1.0683594,-0.2812 0.25,-0.155 0.4765625,-0.3488 0.4765625,-0.7188 0,-0.405 -0.3301563,-0.565 -0.5351563,-0.625 l 0.1484375,0 c 1.2150006,0 1.9707036,0.3247 1.9707036,0.8047 0,0.2 -0.08008,0.4401 -0.330078,0.5351 0,0 0.0098,-0.035 0.0098,-0.07 0,-0.11 -0.07547,-0.2304 -0.230469,-0.2304 -0.154999,0 -0.228515,0.1204 -0.228515,0.2304 0,0.065 0.02914,0.2305 0.244141,0.2305 0.375,0 0.675781,-0.2553 0.675781,-0.6953 0,-0.68 -0.990703,-1.2559 -2.4707036,-1.2559 z m 27.2792966,0 c -0.554999,0 -1.189453,0.3768 -1.189453,1.0118 0,0.58 0.584844,1.0644 1.339844,1.0644 0.615,0 1.165156,-0.3445 1.285156,-0.8945 0.25,0.63 0.929766,0.7597 1.259766,0.7597 0.56,0 0.945312,-0.4457 0.945313,-0.9257 0,-0.55 -0.525235,-0.8789 -0.990235,-0.8789 -0.23,0 -0.269531,0.1739 -0.269531,0.2539 0,0.15 0.11,0.2558 0.25,0.2558 0.16,0 0.255859,-0.1158 0.255859,-0.2558 0,-0.03 -0.0056,-0.075 -0.01563,-0.1 0.435,0.1 0.644532,0.429 0.644532,0.709 0,0.17 -0.115079,0.4805 -0.830079,0.4805 -1.135,0 -1.169218,-0.3493 -1.199218,-0.6543 -0.015,-0.12 -0.02039,-0.1452 -0.02539,-0.1602 0,0 -0.0058,-0.041 -0.05078,-0.041 -0.055,0 -0.05469,0.036 -0.05469,0.1211 l 0,0.2149 c 0,0.1 5.47e-4,0.34 -0.439453,0.5 -0.26,0.09 -0.535625,0.1 -0.765625,0.1 -0.955,0 -1.199219,-0.3306 -1.199219,-0.5606 0,-0.38 0.320547,-0.7183 0.810547,-0.8183 -0.015,0.03 -0.01563,0.075 -0.01563,0.1 0,0.175 0.124297,0.2793 0.279297,0.2793 0.19,0 0.28125,-0.1543 0.28125,-0.2793 0,-0.015 -0.0016,-0.2813 -0.306641,-0.2813 z m -27.8281247,0.4551 c 0.69,0 1.1835937,0.1605 1.1835937,0.6055 0,0.565 -0.9488281,0.5644 -1.4238281,0.5644 -0.36,0 -0.6764062,0 -0.9414062,-0.084 -0.255,-0.085 -0.5039063,-0.2403 -0.5039063,-0.5253 0,-0.295 0.3655469,-0.4557 0.8105469,-0.5157 0.17,-0.02 0.55,-0.045 0.875,-0.045 z m 2.6191407,6.7188 c -0.24125,-0.041 -0.564531,0.046 -0.8945313,0.2363 -0.645,0.3724 -0.9303906,0.842 -1.1503907,1.209 l -0.2402343,0.3945 c -0.225,-0.1851 -0.61,-0.313 -1.125,-0.016 -0.535,0.3089 -1.0195313,0.9633 -1.0195313,1.4883 0,0.565 0.5589063,0.581 1.1289063,0.2519 0.57,-0.3291 0.8658594,-0.8181 0.8808593,-0.8418 l 0.2890626,-0.4824 c 0.33,0.2895 0.7859375,0.3312 1.3359374,0.014 0.635,-0.3667 1.195313,-1.1246 1.195313,-1.7246 0,-0.32 -0.159141,-0.4886 -0.400391,-0.5293 z m 25.056641,0.1367 0,1.3301 -0.826172,-0.4766 c -0.18,-0.1039 -0.234375,-0.1456 -0.234375,-0.5156 l 0,-0.1055 -0.154297,-0.09 c 0.015,0.2136 0.01367,0.4736 0.01367,0.6836 0,0.21 0.0013,0.4755 -0.01367,0.6718 l 0.154297,0.09 0,-0.1055 c 0,-0.37 0.05438,-0.3481 0.234375,-0.2441 l 0.826172,0.4765 0,0.5 0.154297,0.09 0,-0.5 3.27539,1.8906 c 0.1,0.058 0.128906,0.075 0.128906,0 0,-0.055 -0.0034,-0.058 -0.06836,-0.125 l -3.271484,-3.4141 c -0.06,-0.065 -0.06875,-0.07 -0.21875,-0.1562 z m -25.083985,0.072 c 0.175625,0.038 0.28711,0.169 0.28711,0.3965 0,0.49 -0.510547,1.0848 -1.060547,1.4024 -0.5700003,0.3291 -1.0241409,0.3017 -1.244141,0.094 l 0.515625,-0.8574 c 0.1550001,-0.2545 0.3639844,-0.6017 0.833985,-0.873 0.2525,-0.1458 0.492343,-0.2001 0.667968,-0.1622 z m 25.238282,0.1465 2.634765,2.7461 0,0.01 -2.634765,-1.5215 0,-1.2305 z m -27.9609381,1.4961 c 0.175,0.01 0.3047656,0.063 0.3847657,0.1192 l -0.5351563,0.8945 c -0.02,0.031 -0.2302344,0.3812 -0.6152344,0.6035 -0.42,0.2425 -0.7890625,0.1674 -0.7890625,-0.2226 0,-0.425 0.4403906,-0.9395 0.9003906,-1.2051 0.26,-0.1501 0.4792969,-0.1953 0.6542969,-0.1895 z m 7.4042971,3.5313 -0.759766,1.0293 0.125,0 c 0.06119,-0.08 0.289031,-0.3951 0.388672,-0.4551 0.05232,-0.03 0.442813,-0.029 0.507813,-0.029 l 1.103515,0 -1.292968,1.2187 c -1.251274,1.18 -1.991556,2.3156 -2.277344,2.8106 -0.05196,0.09 -0.177266,0.3047 0.05273,0.3047 0.23,0 0.359805,-0.2254 0.388672,-0.2754 l 0.248047,-0.4297 c 0.03175,-0.055 0.357204,-0.6102 0.642578,-1.0352 0.458372,-0.69 0.832425,-1.1094 1.050781,-1.3144 l 1.580079,-1.4902 c 0.06175,-0.055 0.06735,-0.064 0.130859,-0.1739 l -1.214844,0 c -0.61,0 -0.583676,-0.065 -0.548828,-0.1601 l -0.125,0 z m 13.527344,0.088 c -0.05,0 -0.02666,0.041 0.01953,0.1211 l 1.228516,2.1289 c 0.05196,0.09 0.07453,0.1308 0.144531,0.1308 0.04,0 0.04004,-0.019 0.03906,-0.064 -0.0048,-0.095 -0.03109,-0.4512 0.378907,-0.4512 0.215,0 0.469291,0.2148 0.724609,0.5098 0.211451,0.245 0.388619,0.5361 0.582031,0.8711 0.164545,0.285 0.381408,0.6598 0.4375,0.9648 0.04588,0.27 -0.01563,0.4746 -0.265625,0.4746 -0.39,0 -0.901766,-0.3744 -1.292969,-0.9394 0.03866,0.015 0.05219,0.019 0.117188,0.019 0.17,0 0.176704,-0.1261 0.107422,-0.2461 -0.06928,-0.12 -0.225625,-0.2441 -0.390625,-0.2441 -0.155,0 -0.190794,0.094 -0.08398,0.2793 0.297336,0.515 0.984766,1.2714 1.634766,1.2714 0.565,0 0.730381,-0.6307 0.199219,-1.5507 -0.476314,-0.825 -1.283125,-1.5196 -1.828125,-1.5196 -0.315,0 -0.417075,0.1851 -0.44336,0.3301 l -0.894531,-1.5508 c 0.180415,0.07 0.35,0.1055 0.5,0.1055 0.615,0 0.655563,-0.5099 0.609375,-0.5899 -0.01732,-0.03 -0.04508,-0.051 -0.08008,-0.051 0,0 -0.01903,1e-4 -0.04883,0.035 -0.119944,0.13 -0.326016,0.1895 -0.541016,0.1895 -0.35,0 -0.654581,-0.1401 -0.787109,-0.2051 -0.05155,-0.02 -0.06641,-0.02 -0.06641,-0.02 z m -5.69336,0.1718 c -0.665,0 -1.316406,0.9249 -1.316406,2.4649 0,0.565 0.03648,0.965 0.146485,1.375 0.129999,0.485 0.403437,0.9883 0.898437,0.9883 0.39,0 0.60625,-0.25 0.78125,-0.545 0.215,-0.355 0.25,-0.6636 0.25,-1.0136 0,-0.285 -0.0157,-0.6105 -0.220703,-0.9805 -0.235,-0.415 -0.469297,-0.5645 -0.779297,-0.5645 -0.385,0 -0.545,0.2852 -0.625,0.5352 l 0,-0.1406 c 0,-1.32 0.404141,-1.9942 0.869141,-1.9942 0.25,0 0.414609,0.1388 0.474609,0.3438 -0.02,0 -0.02922,-0.01 -0.07422,-0.01 -0.11,0 -0.230469,0.076 -0.230468,0.2305 0,0.155 0.120468,0.2305 0.230468,0.2305 0.05,0 0.230469,-0.02 0.230469,-0.25 0,-0.305 -0.169766,-0.67 -0.634766,-0.67 z m -0.255859,1.834 c 0.565,0 0.564453,0.9447 0.564453,1.4297 0,0.34 7.81e-4,0.6404 -0.07422,0.9004 -0.05,0.19 -0.189765,0.5254 -0.509765,0.5254 -0.58,0 -0.580078,-1.1997 -0.580078,-1.6797 0,-0.305 0.0096,-1.1758 0.599609,-1.1758 z"
                                   style="font-style:normal;font-variant:normal;font-weight:normal;font-stretch:normal;font-size:5px;font-family:'Latin Modern Roman Dunhill';-inkscape-font-specification:'Latin Modern Roman Dunhill';opacity:1;fill:#ffffff;fill-opacity:1;stroke:#d5ffff;stroke-width:0.078;stroke-miterlimit:4;stroke-dasharray:none;stroke-opacity:1" />
                                <path
                                   inkscape:connector-curvature="0"
                                   id="path4287"
                                   d="m 17.355469,1019.0728 0.796875,1.0956 0.203125,0 -0.794922,-1.0956 -0.205078,0 z m 2.173828,0 0.488281,1.0956 0.179688,0 -0.488282,-1.0956 -0.179687,0 z m 0.927734,0 0.355469,1.0956 0.173828,0 -0.355469,-1.0956 -0.173828,0 z m 0.865235,0 0.232422,1.0956 0.169921,0 -0.234375,-1.0956 -0.167968,0 z m 0.828125,0 0.115234,1.0956 0.164063,0 -0.115235,-1.0956 -0.164062,0 z m 1.615234,0 -0.115234,1.0956 0.164062,0 0.115235,-1.0956 -0.164063,0 z m 0.824219,0 -0.234375,1.0956 0.169922,0 0.232421,-1.0956 -0.167968,0 z m 0.859375,0 -0.355469,1.0956 0.173828,0 0.355469,-1.0956 -0.173828,0 z m 0.921875,0 -0.488282,1.0956 0.179688,0 0.488281,-1.0956 -0.179687,0 z m 2.148437,0 -0.794922,1.0956 0.203125,0 0.796875,-1.0956 -0.205078,0 z m -12.103515,0.1973 0,0.01 c -0.02462,0.012 -0.05022,0.024 -0.07422,0.037 l -0.0039,0 c -0.01074,0.01 -0.02064,0.013 -0.03125,0.02 l -0.0059,0 c -0.01096,0.01 -0.02239,0.013 -0.0332,0.019 l 0.873047,0.9687 c 0.05035,-0.027 0.102166,-0.051 0.15625,-0.072 l -0.880859,-0.9785 z m 13.248046,0.01 -0.880859,0.9785 c 0.05408,0.02 0.105899,0.044 0.15625,0.072 l 0.873047,-0.9687 c -0.01081,-0.01 -0.02224,-0.014 -0.0332,-0.021 l -0.0059,0 c -0.0102,-0.01 -0.02093,-0.012 -0.03125,-0.018 l -0.0059,0 c -0.01089,-0.01 -0.02217,-0.012 -0.0332,-0.018 0,0 -0.002,0 -0.002,0 -0.01166,-0.01 -0.02336,-0.012 -0.03516,-0.018 0,0 -0.002,0 -0.002,0 l 0,-0.01 z m -14.021484,0.7031 0,0 c -0.0072,0.012 -0.01451,0.023 -0.02148,0.035 l -0.002,0 c -0.0068,0.011 -0.013,0.023 -0.01953,0.035 l -0.002,0 c -0.0066,0.012 -0.01314,0.023 -0.01953,0.035 -0.0066,0.012 -0.01321,0.026 -0.01953,0.039 l 0.980468,0.8828 c 0.02067,-0.054 0.04496,-0.1078 0.07227,-0.1582 l -0.96875,-0.8731 z m 14.794922,0 0,0 -0.96875,0.873 c 0.0273,0.05 0.0516,0.1022 0.07227,0.1563 l 0.978515,-0.8809 c -0.0059,-0.012 -0.01143,-0.023 -0.01758,-0.035 0,0 -0.002,0 -0.002,0 -0.0058,-0.011 -0.01153,-0.022 -0.01758,-0.033 -0.0012,0 -0.0027,3e-4 -0.0039,-0.01 -0.0058,-0.01 -0.01161,-0.02 -0.01758,-0.031 -0.0011,0 -8.54e-4,3e-4 -0.002,-0.01 -0.0065,-0.011 -0.01287,-0.022 -0.01953,-0.033 0,0 -0.002,0 -0.002,0 z m -15.080078,1.0918 0,0.2051 1.095703,0.7949 0,-0.2031 -1.095703,-0.7969 z m 15.365234,0 -1.095703,0.7969 0,0.2031 1.095703,-0.7949 0,-0.2051 z m -15.365234,2.1739 0,0.1797 1.095703,0.4882 0,-0.1796 -1.095703,-0.4883 z m 15.365234,0 -1.095703,0.4883 0,0.1796 1.095703,-0.4882 0,-0.1797 z m -15.365234,0.9277 0,0.1738 1.095703,0.3555 0,-0.1738 -1.095703,-0.3555 z m 15.365234,0 -1.095703,0.3555 0,0.1738 1.095703,-0.3555 0,-0.1738 z m -15.365234,0.8652 0,0.168 1.095703,0.2344 0,-0.1699 -1.095703,-0.2326 z m 15.365234,0 -1.095703,0.2325 0,0.1699 1.095703,-0.2344 0,-0.168 z m -15.365234,0.8282 0,0.164 1.095703,0.1153 0,-0.1641 -1.095703,-0.1152 z m 15.365234,0 -1.095703,0.1152 0,0.1641 1.095703,-0.1153 0,-0.164 z m -14.269531,1.5 -1.095703,0.1152 0,0.1641 1.095703,-0.1153 0,-0.164 z m 13.173828,0 0,0.164 1.095703,0.1153 0,-0.1641 -1.095703,-0.1152 z m -13.173828,0.705 -1.095703,0.2344 0,0.1679 1.095703,-0.2324 0,-0.17 z m 13.173828,0 0,0.17 1.095703,0.2324 0,-0.168 -1.095703,-0.2344 z m -13.173828,0.7383 -1.095703,0.3554 0,0.1738 1.095703,-0.3553 0,-0.1739 z m 13.173828,0 0,0.1739 1.095703,0.3553 0,-0.1738 -1.095703,-0.3554 z m -13.173828,0.789 -1.095703,0.4883 0,0.1797 1.095703,-0.4883 0,-0.1797 z m 13.173828,0 0,0.1797 1.095703,0.4883 0,-0.1797 -1.095703,-0.4883 z m -13.173828,1.8418 -1.095703,0.795 0,0.205 1.095703,-0.7969 0,-0.2031 z m 13.173828,0 0,0.2031 1.095703,0.7969 0,-0.205 -1.095703,-0.795 z m -0.08594,1.0527 0,0.01 c -0.02066,0.054 -0.04497,0.1058 -0.07227,0.1562 l 0.96875,0.8731 c 0.0067,-0.011 0.01503,-0.022 0.02148,-0.033 0.0011,0 8.53e-4,2e-4 0.002,-0.01 0.006,-0.01 0.0118,-0.02 0.01758,-0.031 0.0012,0 0.0027,2e-4 0.0039,-0.01 0.0061,-0.011 0.01174,-0.022 0.01758,-0.033 0,0 0.002,0 0.002,0 0.0061,-0.012 0.01167,-0.023 0.01758,-0.035 l -0.978515,-0.8828 z m -13.001954,0.01 -0.980468,0.8808 c 0.01265,0.025 0.02731,0.051 0.04101,0.076 0.0067,0.012 0.01252,0.023 0.01953,0.035 l 0.002,0 c 0.007,0.012 0.01426,0.024 0.02148,0.035 l 0.96875,-0.873 c -0.02703,-0.05 -0.05174,-0.1008 -0.07227,-0.1543 z m 0.601563,0.6797 0,0.01 -0.873047,0.9688 c 0.01081,0.01 0.02224,0.014 0.0332,0.021 l 0.0059,0 c 0.01061,0.01 0.02051,0.012 0.03125,0.018 l 0.0039,0 c 0.024,0.013 0.0496,0.026 0.07422,0.039 l 0.880859,-0.9805 c -0.05408,-0.021 -0.105899,-0.044 -0.15625,-0.072 z m 11.798828,0.01 c -0.05035,0.028 -0.102166,0.051 -0.15625,0.072 l 0.880859,0.9805 c 0,0 0.002,0 0.002,0 0.0118,-0.01 0.0235,-0.012 0.03516,-0.018 0,0 0.002,0 0.002,0 0.01103,-0.01 0.0223,-0.012 0.0332,-0.018 l 0.0059,0 c 0.01032,-0.01 0.02105,-0.012 0.03125,-0.018 l 0.0059,0 c 0.01096,-0.01 0.02239,-0.014 0.0332,-0.022 l -0.873047,-0.9766 z m -10.787109,0.1582 -0.796875,1.0957 0.203125,0 0.796875,-1.0957 -0.203125,0 z m 1.865234,0 -0.488281,1.0957 0.179687,0 0.488282,-1.0957 -0.179688,0 z m 0.794922,0 -0.355469,1.0957 0.173828,0 0.355469,-1.0957 -0.173828,0 z m 0.742188,0 -0.232422,1.0957 0.167968,0 0.234375,-1.0957 -0.169921,0 z m 0.710937,0 -0.115234,1.0957 0.164062,0 0.115235,-1.0957 -0.164063,0 z m 1.384766,0 0.115234,1.0957 0.164063,0 -0.115235,-1.0957 -0.164062,0 z m 0.705078,0 0.234375,1.0957 0.167968,0 -0.232421,-1.0957 -0.169922,0 z m 0.738281,0 0.355469,1.0957 0.173828,0 -0.355469,-1.0957 -0.173828,0 z m 0.789062,0 0.488282,1.0957 0.179687,0 -0.488281,-1.0957 -0.179688,0 z m 1.841797,0 0.796875,1.0957 0.203125,0 -0.796875,-1.0957 -0.203125,0 z"
                                   style="opacity:1;fill:#ffff00;fill-opacity:0.43143813;stroke:none;stroke-width:0.07048446;stroke-miterlimit:4;stroke-dasharray:none;stroke-opacity:1" />
                                <path
                                   inkscape:connector-curvature="0"
                                   id="path4285"
                                   d="m 18.339844,1019.0792 0.632812,1.0957 0.445313,0 -0.632813,-1.0957 -0.445312,0 z m 4.472656,0 0,1.0957 0.384766,0 0,-1.0957 -0.384766,0 z m 4.400391,0 -0.632813,1.0957 0.445313,0 0.632812,-1.0957 -0.445312,0 z m 3.509765,2.9824 -1.095703,0.6328 0,0.4453 1.095703,-0.6328 0,-0.086 0,-0.1895 0,-0.1679 0,0 z m -15.365234,0.082 0,0.086 0,0.1914 0,0.168 1.095703,0.6328 0,-0.4453 -1.095703,-0.6328 z m 14.269531,4.3906 0,0.3847 1.095703,0 0,-0.3847 -1.095703,0 z m -14.269531,0.07 0,0.074 0,0.166 0,0.1446 1.095703,0 0,-0.3848 -1.095703,0 z m 14.269531,3.6973 0,0.4453 1.095703,0.6328 0,-0.086 0,-0.1914 0,-0.1679 -1.095703,-0.6328 z m -13.173828,0.082 -1.095703,0.6328 0,0.086 0,0.1895 0,0.168 1.095703,-0.6329 0,-0.4433 z m 2.601563,2.9648 -0.632813,1.0957 0.445313,0 0.632812,-1.0957 -0.445312,0 z m 3.828124,0 0,1.0957 0.384766,0 0,-1.0957 -0.384766,0 z m 3.779297,0 0.632813,1.0957 0.445312,0 -0.632812,-1.0957 -0.445313,0 z"
                                   style="opacity:1;fill:#ff4c00;fill-opacity:1;stroke:none;stroke-width:0.07048446;stroke-miterlimit:4;stroke-dasharray:none;stroke-opacity:1" />
                                <path
                                   inkscape:connector-curvature="0"
                                   id="rect4291"
                                   d="m 4.2514232,1002.7939 c -2.8686132,0 -5.17910093,2.3105 -5.17910093,5.1791 l 0,37.5792 c 0,2.8687 2.31048773,5.1771 5.17910093,5.1771 l 37.5772318,0 c 2.868613,0 5.179101,-2.3084 5.179101,-5.1771 l 0,-37.5792 c 0,-2.8686 -2.310488,-5.1791 -5.179101,-5.1791 l -37.5772318,0 z m 3.0102136,3.8414 31.5568042,0 c 2.408875,0 4.347863,1.939 4.347863,4.3479 l 0,31.5568 c 0,2.4089 -1.938988,4.3479 -4.347863,4.3479 l -31.5568042,0 c -2.4088742,0 -4.3478622,-1.939 -4.3478622,-4.3479 l 0,-31.5568 c 0,-2.4089 1.938988,-4.3479 4.3478622,-4.3479 z"
                                   style="opacity:1;fill:#000000;fill-opacity:1;stroke:#000000;stroke-width:0.11234803;stroke-miterlimit:4;stroke-dasharray:none;stroke-opacity:1" />
                                <path
                                   id="path4319"
                                   transform="translate(0,1004.3622)"
                                   d="m 4.2519531,-1.5683594 c -2.8686132,0 -5.17968747,2.31108753 -5.17968748,5.1796875 l 0,32.2695309 3.84179688,-1.146484 0,-28.1132812 c 0,-2.4089001 1.9387821,-4.3476563 4.3476563,-4.3476563 l 31.5566402,0 c 2.408875,0 4.347657,1.9387562 4.347657,4.3476563 l 0,16.1074222 3.841796,-1.144532 0,-17.9726559 c 0,-2.86859998 -2.311074,-5.1796875 -5.179687,-5.1796875 l -37.5761719,0 z"
                                   style="opacity:1;fill:url(#linearGradient4330);fill-opacity:1;stroke:#000000;stroke-width:0.11234803;stroke-miterlimit:4;stroke-dasharray:none;stroke-opacity:1"
                                   inkscape:connector-curvature="0" />
                                <path
                                   inkscape:connector-curvature="0"
                                   id="rect4298"
                                   d="m 5.1191408,1006.2821 c -1.4182258,0 -2.5585937,1.1404 -2.5585937,2.5586 l 0,35.8418 c 0,1.4182 1.1403679,2.5586 2.5585937,2.5586 l 35.8417972,0 c 1.418225,0 2.558593,-1.1404 2.558593,-2.5586 l 0,-35.8418 c 0,-1.4182 -1.140368,-2.5586 -2.558593,-2.5586 l -35.8417972,0 z m 1.0527344,1.2031 33.7363278,0 c 1.334925,0 2.408203,1.0733 2.408203,2.4083 l 0,33.7363 c 0,1.3349 -1.073278,2.4082 -2.408203,2.4082 l -33.7363278,0 c -1.3349245,0 -2.4082031,-1.0733 -2.4082031,-2.4082 l 0,-33.7363 c 0,-1.335 1.0732786,-2.4083 2.4082031,-2.4083 z"
                                   style="opacity:1;fill:url(#linearGradient4317);fill-opacity:1;stroke:url(#linearGradient4309);stroke-width:0.1;stroke-miterlimit:4;stroke-dasharray:none;stroke-opacity:1" />
                                </g>
                                </g>
                                </g>
                                </g>
                                </g>
                                </g>
                                </g>
                                </g>
                                </g>
                                </g>
                                </g>
                                </g>
                                </g>
                                </g>
                                </g>
                              </g>
                            </g>
                          </g>
                        </g>
                      </g>
                    </g>
                  </g>
                </g>
              </g>
            </g>
          </g>
        </g>
      </g>
    </g>
    <g
       transform="translate(3.6937877,-1.7417453)"
       id="SecondHand"
       inkscape:label="#g6215">
      <g
         id="g6189">
        <g
           id="g6164">
          <g
             id="g6140">
            <g
               id="g6117">
              <g
                 id="g6095">
                <g
                   id="g6074">
                  <g
                     id="g6054">
                    <g
                       id="g6035">
                      <g
                         id="g6017">
                        <g
                           id="g6000">
                          <g
                             id="g5984">
                            <g
                               id="g5969">
                              <g
                                 id="g5955">
                                <g
                                   id="g5942">
                                <g
                                   id="g5930">
                                <g
                                   id="g5919">
                                <g
                                   id="g5909">
                                <g
                                   id="g5900">
                                <g
                                   id="g5892">
                                <g
                                   id="g5885">
                                <g
                                   id="g5879">
                                <g
                                   id="g5874">
                                <g
                                   id="g5870">
                                <rect
                                   style="opacity:1;fill:none;fill-opacity:1;stroke:none;stroke-width:0.1;stroke-miterlimit:4;stroke-dasharray:none;stroke-opacity:1"
                                   id="rect5868"
                                   width="8"
                                   height="23"
                                   x="-17.24"
                                   y="1025.2501"
                                   ry="7.1181271e-06" />
                                <path
                                   style="fill:#ff8332;fill-opacity:1;fill-rule:evenodd;stroke:none;stroke-width:0.05769818;stroke-linecap:butt;stroke-linejoin:miter;stroke-miterlimit:4;stroke-dasharray:none;stroke-opacity:1"
                                   d="m -13.461151,1026.6662 c 0,8.6322 0,19.7308 0.221151,21.5806 0.221151,-1.8498 0.221151,-12.9484 0.221151,-21.5806 0,-1.8497 -0.442302,-1.8497 -0.442302,0 z"
                                   id="path5862"
                                   inkscape:connector-curvature="0"
                                   sodipodi:nodetypes="cccc" />
                                </g>
                                </g>
                                </g>
                                </g>
                                </g>
                                </g>
                                </g>
                                </g>
                                </g>
                                </g>
                              </g>
                            </g>
                          </g>
                        </g>
                      </g>
                    </g>
                  </g>
                </g>
              </g>
            </g>
          </g>
        </g>
      </g>
    </g>
    <g
       id="MinuteHand"
       inkscape:label="#g6618"
       transform="matrix(1,0,0,0.89096129,3.6937877,110.28486)">
      <g
         id="g6591">
        <g
           id="g6565">
          <g
             id="g6540">
            <g
               id="g6516">
              <g
                 id="g6493">
                <g
                   id="g6471">
                  <g
                     id="g6450">
                    <g
                       id="g6430">
                      <g
                         id="g6411">
                        <g
                           id="g6393">
                          <g
                             id="g6376">
                            <g
                               id="g6360">
                              <g
                                 id="g6345">
                                <g
                                   id="g6331">
                                <g
                                   id="g6318">
                                <g
                                   id="g6306">
                                <g
                                   id="g6295">
                                <g
                                   id="g6285">
                                <g
                                   id="g6276">
                                <g
                                   id="g6268">
                                <g
                                   id="g6261">
                                <g
                                   id="g6255">
                                <g
                                   id="g6250">
                                <g
                                   id="g6246">
                                <path
                                   style="fill:#ffffff;fill-rule:evenodd;stroke:#000000;stroke-width:0.0776575;stroke-linecap:butt;stroke-linejoin:miter;stroke-miterlimit:4;stroke-dasharray:none;stroke-opacity:1"
                                   d="m -29.581172,1028.8203 c 0,7.4989 0,17.1402 0.461172,18.7471 0.461172,-1.6069 0.461172,-11.2482 0.461172,-18.7471 0,-1.6068 -0.922344,-1.6068 -0.922344,0 z"
                                   id="path5864"
                                   inkscape:connector-curvature="0"
                                   sodipodi:nodetypes="cccc" />
                                <rect
                                   ry="0.95999998"
                                   y="1027.4022"
                                   x="-30.08"
                                   height="20.48"
                                   width="1.92"
                                   id="rect6242"
                                   style="opacity:1;fill:none;fill-opacity:1;stroke:none;stroke-width:0.1;stroke-miterlimit:4;stroke-dasharray:none;stroke-opacity:1" />
                                </g>
                                </g>
                                </g>
                                </g>
                                </g>
                                </g>
                                </g>
                                </g>
                                </g>
                                </g>
                                </g>
                              </g>
                            </g>
                          </g>
                        </g>
                      </g>
                    </g>
                  </g>
                </g>
              </g>
            </g>
          </g>
        </g>
      </g>
    </g>
    <g
       id="HourHand"
       inkscape:label="#g7382"
       transform="matrix(1,0,0,0.76252912,3.6937877,242.23636)">
      <g
         id="g7344">
        <g
           id="g7307">
          <g
             id="g7271">
            <g
               id="g7236">
              <g
                 id="g7202">
                <g
                   id="g7169">
                  <g
                     id="g7137">
                    <g
                       id="g7106">
                      <g
                         id="g7076">
                        <g
                           id="g7047">
                          <g
                             id="g7019">
                            <g
                               id="g6992">
                              <g
                                 id="g6966">
                                <g
                                   id="g6941">
                                <g
                                   id="g6917">
                                <g
                                   id="g6894">
                                <g
                                   id="g6872">
                                <g
                                   id="g6851">
                                <g
                                   id="g6831">
                                <g
                                   id="g6812">
                                <g
                                   id="g6794">
                                <g
                                   id="g6777">
                                <g
                                   id="g6761">
                                <g
                                   id="g6746">
                                <g
                                   id="g6732">
                                <g
                                   id="g6719">
                                <g
                                   id="g6707">
                                <g
                                   id="g6696">
                                <g
                                   id="g6686">
                                <g
                                   id="g6677">
                                <g
                                   id="g6669">
                                <g
                                   id="g6662">
                                <g
                                   id="g6656">
                                <g
                                   id="g6650">
                                <g
                                   id="g6646">
                                <path
                                   style="fill:#ffffff;fill-opacity:1;fill-rule:evenodd;stroke:#000000;stroke-width:0.08425208;stroke-linecap:butt;stroke-linejoin:miter;stroke-miterlimit:4;stroke-dasharray:none;stroke-opacity:1"
                                   d="m -37.407872,1028.817 c 0,6.6963 0,15.3058 0.607874,16.7408 0.607874,-1.435 0.607874,-10.0445 0.607874,-16.7408 0,-1.4349 -1.215748,-1.4349 -1.215748,0 z"
                                   id="path5866"
                                   inkscape:connector-curvature="0"
                                   sodipodi:nodetypes="cccc" />
                                <rect
                                   style="opacity:1;fill:none;fill-opacity:1;stroke:none;stroke-width:0.1;stroke-miterlimit:4;stroke-dasharray:none;stroke-opacity:1"
                                   id="rect6244"
                                   width="1.92"
                                   height="18.559999"
                                   x="-37.759998"
                                   y="1027.4022"
                                   ry="0.95999998" />
                                </g>
                                </g>
                                </g>
                                </g>
                                </g>
                                </g>
                                </g>
                                </g>
                                </g>
                                </g>
                                </g>
                                </g>
                                </g>
                                </g>
                                </g>
                                </g>
                                </g>
                                </g>
                                </g>
                                </g>
                                </g>
                                </g>
                              </g>
                            </g>
                          </g>
                        </g>
                      </g>
                    </g>
                  </g>
                </g>
              </g>
            </g>
          </g>
        </g>
      </g>
    </g>
    <circle
       style="opacity:1;fill:url(#radialGradient7429);fill-opacity:1;stroke:none;stroke-width:0.1;stroke-miterlimit:4;stroke-dasharray:none;stroke-opacity:1"
       id="HandCenterScrew"
       cx="-17.883595"
       cy="1020.2498"
       r="0.95194733"
       inkscape:label="#path7421" />
    <g
       id="Glass"
       style="stroke:none"
       transform="translate(-16,0)"
       inkscape:label="#g5440">
      <g
         id="g5424"
         style="stroke:none">
        <g
           id="g5409"
           style="stroke:none">
          <g
             id="g5395"
             style="stroke:none">
            <g
               id="g5382"
               style="stroke:none">
              <g
                 id="g5370"
                 style="stroke:none">
                <g
                   id="g5359"
                   style="stroke:none">
                  <g
                     id="g5349"
                     style="stroke:none">
                    <g
                       id="g5340"
                       style="stroke:none">
                      <g
                         id="g5332"
                         style="stroke:none">
                        <rect
                           style="opacity:1;fill:none;fill-opacity:1;stroke:none;stroke-width:0.09858023;stroke-miterlimit:4;stroke-dasharray:none;stroke-opacity:1"
                           id="rect5290"
                           width="47.949421"
                           height="47.949417"
                           x="70.719292"
                           y="1003.1336"
                           ry="2.9109654" />
                        <rect
                           style="opacity:1;fill:none;fill-opacity:1;stroke:none;stroke-width:0.10007232;stroke-miterlimit:4;stroke-dasharray:none;stroke-opacity:1"
                           id="rect5292"
                           width="38.427582"
                           height="38.427929"
                           x="75.508148"
                           y="1007.8109"
                           ry="2.5618408" />
                        <rect
                           ry="2.5618408"
                           y="1007.8109"
                           x="75.508148"
                           height="38.427929"
                           width="38.427582"
                           id="rect5294"
                           style="opacity:1;fill:none;fill-opacity:1;stroke:none;stroke-width:0.10007232;stroke-miterlimit:4;stroke-dasharray:none;stroke-opacity:1" />
                        <path
                           style="opacity:1;fill:url(#linearGradient5314);fill-opacity:1;stroke:none;stroke-width:0.10007232;stroke-miterlimit:4;stroke-dasharray:none;stroke-opacity:1"
                           d="m 79.054688,5.0722656 c -1.41926,0 -2.5625,1.1432402 -2.5625,2.5625 l 0,15.1093754 c 8.971718,-8.959608 28.171722,-6.399608 38.427732,0 l 0,-15.1093754 c 0,-1.4192598 -1.14324,-2.5625 -2.5625,-2.5625 z"
                           transform="translate(-0.98390839,1002.7377)"
                           id="rect5300"
                           inkscape:connector-curvature="0"
                           sodipodi:nodetypes="ssccsss" />
                        <path
                           id="path5304"
                           d="m 113.93573,1010.3735 c 0,-1.4193 -1.14324,-2.5625 -2.5625,-2.5625 l -15.109372,0 0,38.4278 15.109372,0 c 1.41926,0 2.5625,-1.1433 2.5625,-2.5625 l 0,-33.3028 z"
                           style="opacity:1;fill:url(#linearGradient5330);fill-opacity:1;stroke:none;stroke-width:0.10007232;stroke-miterlimit:4;stroke-dasharray:none;stroke-opacity:1"
                           inkscape:connector-curvature="0" />
                        <path
                           inkscape:connector-curvature="0"
                           style="opacity:1;fill:url(#linearGradient5322);fill-opacity:1;stroke:none;stroke-width:0.10007232;stroke-miterlimit:4;stroke-dasharray:none;stroke-opacity:1"
                           d="m 75.508148,1010.3735 c 0,-1.4193 1.14324,-2.5625 2.5625,-2.5625 l 15.109372,0 0,38.4278 -15.109372,0 c -1.41926,0 -2.5625,-1.1433 -2.5625,-2.5625 l 0,-33.3028 z"
                           id="path5306" />
                      </g>
                    </g>
                  </g>
                </g>
              </g>
            </g>
          </g>
        </g>
      </g>
    </g>
  </g>
</svg>
