<?xml version="1.0" encoding="UTF-8" standalone="no"?>
<!-- Created with Inkscape (http://www.inkscape.org/) -->

<svg
   xmlns:dc="http://purl.org/dc/elements/1.1/"
   xmlns:cc="http://creativecommons.org/ns#"
   xmlns:rdf="http://www.w3.org/1999/02/22-rdf-syntax-ns#"
   xmlns:svg="http://www.w3.org/2000/svg"
   xmlns="http://www.w3.org/2000/svg"
   xmlns:xlink="http://www.w3.org/1999/xlink"
   xmlns:sodipodi="http://sodipodi.sourceforge.net/DTD/sodipodi-0.dtd"
   xmlns:inkscape="http://www.inkscape.org/namespaces/inkscape"
   width="53.832031"
   height="53.832031"
   viewBox="0 0 53.832032 53.832032"
   id="svg2"
   version="1.1"
   inkscape:version="0.91 r13725"
   sodipodi:docname="clock.svg">
  <defs
     id="defs4">
    <linearGradient
       id="linearGradient11263"
       inkscape:collect="always">
      <stop
         id="stop11265"
         offset="0"
         style="stop-color:#ffffff;stop-opacity:0.15050167" />
      <stop
         id="stop11267"
         offset="1"
         style="stop-color:#ffffff;stop-opacity:0;" />
    </linearGradient>
    <linearGradient
       id="linearGradient11257"
       inkscape:collect="always">
      <stop
         id="stop11259"
         offset="0"
         style="stop-color:#ffffff;stop-opacity:0.17725752" />
      <stop
         id="stop11261"
         offset="1"
         style="stop-color:#ffffff;stop-opacity:0;" />
    </linearGradient>
    <linearGradient
       inkscape:collect="always"
       id="linearGradient11241">
      <stop
         style="stop-color:#000000;stop-opacity:0.49019608"
         offset="0"
         id="stop11243" />
      <stop
         style="stop-color:#000000;stop-opacity:0;"
         offset="1"
         id="stop11245" />
    </linearGradient>
    <linearGradient
       inkscape:collect="always"
       id="linearGradient7423">
      <stop
         style="stop-color:#ff8332;stop-opacity:1;"
         offset="0"
         id="stop7425" />
      <stop
         style="stop-color:#2f0000;stop-opacity:1"
         offset="1"
         id="stop7427" />
    </linearGradient>
    <linearGradient
       id="linearGradient4246"
       inkscape:collect="always">
      <stop
         id="stop4248"
         offset="0"
         style="stop-color:#ffffff;stop-opacity:0.08026756" />
      <stop
         id="stop4250"
         offset="1"
         style="stop-color:#ffffff;stop-opacity:0;" />
    </linearGradient>
    <linearGradient
       inkscape:collect="always"
       id="linearGradient6647">
      <stop
         style="stop-color:#000000;stop-opacity:1;"
         offset="0"
         id="stop6649" />
      <stop
         style="stop-color:#2d2d2d;stop-opacity:1"
         offset="1"
         id="stop6651" />
    </linearGradient>
    <linearGradient
       inkscape:collect="always"
       id="linearGradient6639">
      <stop
         style="stop-color:#ffffff;stop-opacity:0.35294119"
         offset="0"
         id="stop6641" />
      <stop
         style="stop-color:#ffffff;stop-opacity:0;"
         offset="1"
         id="stop6643" />
    </linearGradient>
    <linearGradient
       inkscape:collect="always"
       xlink:href="#linearGradient6639"
       id="linearGradient6645"
       x1="1.28"
       y1="-3.1999989"
       x2="16.639999"
       y2="22.4"
       gradientUnits="userSpaceOnUse"
       gradientTransform="translate(0.92787307,1004.3622)" />
    <linearGradient
       inkscape:collect="always"
       xlink:href="#linearGradient6647"
       id="linearGradient6653"
       x1="8.96"
       y1="-3.1999989"
       x2="23.039999"
       y2="49.279999"
       gradientUnits="userSpaceOnUse"
       gradientTransform="translate(0.92787307,1004.3622)" />
    <radialGradient
       inkscape:collect="always"
       xlink:href="#linearGradient4246"
       id="radialGradient4244"
       cx="37.119999"
       cy="1044.6823"
       fx="37.119999"
       fy="1044.6823"
       r="22.521999"
       gradientTransform="matrix(1,0,0,0.99999898,80,0.00104541)"
       gradientUnits="userSpaceOnUse" />
    <linearGradient
       inkscape:collect="always"
       xlink:href="#linearGradient4246"
       id="linearGradient4259"
       x1="2.5599999"
       y1="4.480001"
       x2="34.559998"
       y2="19.84"
       gradientUnits="userSpaceOnUse"
       gradientTransform="translate(80,1004.3622)" />
    <radialGradient
       inkscape:collect="always"
       xlink:href="#linearGradient7423"
       id="radialGradient7429"
       cx="-23.039999"
       cy="1022.9222"
       fx="-23.039999"
       fy="1022.9222"
       r="1.28"
       gradientUnits="userSpaceOnUse"
       gradientTransform="matrix(0.74370885,0,0,0.74370885,-5.9049478,262.1659)" />
    <linearGradient
       inkscape:collect="always"
       xlink:href="#linearGradient11263"
       id="linearGradient11239"
       x1="104.35508"
       y1="-0.60429597"
       x2="104.35508"
       y2="12.195704"
       gradientUnits="userSpaceOnUse" />
    <linearGradient
       inkscape:collect="always"
       xlink:href="#linearGradient11241"
       id="linearGradient11247"
       x1="128"
       y1="1025.4822"
       x2="122.88"
       y2="1025.4822"
       gradientUnits="userSpaceOnUse" />
    <linearGradient
       inkscape:collect="always"
       xlink:href="#linearGradient11257"
       id="linearGradient11255"
       x1="76.799995"
       y1="1013.9622"
       x2="89.599998"
       y2="1016.5222"
       gradientUnits="userSpaceOnUse" />
    <linearGradient
       inkscape:collect="always"
       xlink:href="#linearGradient11241"
       id="linearGradient11275"
       x1="92.159996"
       y1="1052.3622"
       x2="92.159996"
       y2="1044.6823"
       gradientUnits="userSpaceOnUse" />
  </defs>
  <sodipodi:namedview
     id="base"
     pagecolor="#442126"
     bordercolor="#666666"
     borderopacity="1.0"
     inkscape:pageopacity="0"
     inkscape:pageshadow="2"
     inkscape:zoom="17.016606"
     inkscape:cx="-28.695951"
     inkscape:cy="18.818721"
     inkscape:document-units="px"
     inkscape:current-layer="layer1"
     showgrid="true"
     units="px"
     inkscape:window-width="1366"
     inkscape:window-height="706"
     inkscape:window-x="-7"
     inkscape:window-y="0"
     inkscape:window-maximized="1"
     showguides="true"
     inkscape:guide-bbox="true"
     fit-margin-top="0"
     fit-margin-left="0"
     fit-margin-right="0"
     fit-margin-bottom="0"
     inkscape:snap-smooth-nodes="false"
     inkscape:object-nodes="false"
     inkscape:snap-midpoints="false"
     inkscape:object-paths="false"
     inkscape:snap-intersection-paths="false">
    <inkscape:grid
       type="xygrid"
       id="grid3336"
       spacingx="0.001"
       spacingy="0.001"
       originx="1.9550781"
       originy="3.236328" />
    <sodipodi:guide
       position="26.915078,26.916328"
       orientation="0,1"
       id="guide4134" />
    <sodipodi:guide
       position="26.915078,26.916328"
       orientation="1,0"
       id="guide4136" />
    <sodipodi:guide
       position="-15.964922,7.076328"
       orientation="0,1"
       id="guide5858" />
    <sodipodi:guide
       position="-12.124922,30.116328"
       orientation="0,1"
       id="guide5860" />
  </sodipodi:namedview>
  <metadata
     id="metadata7">
    <rdf:RDF>
      <cc:Work
         rdf:about="">
        <dc:format>image/svg+xml</dc:format>
        <dc:type
           rdf:resource="http://purl.org/dc/dcmitype/StillImage" />
        <dc:title></dc:title>
      </cc:Work>
    </rdf:RDF>
  </metadata>
  <g
     inkscape:label="Layer 1"
     inkscape:groupmode="layer"
     id="layer1"
     transform="translate(1.9550781,-1001.7665)">
    <g
       id="ClockFace"
       inkscape:label="#g10291">
      <g
         id="g10258">
        <g
           id="g10226">
          <g
             id="g10195">
            <g
               id="g10165">
              <g
                 id="g10136">
                <g
                   id="g10108">
                  <g
                     id="g10081">
                    <g
                       id="g10055">
                      <g
                         id="g10030">
                        <g
                           id="g10006">
                          <g
                             id="g9983">
                            <g
                               id="g9961">
                              <g
                                 id="g9940">
                                <g
                                   id="g9920">
                                <g
                                   id="g9901">
                                <g
                                   id="g9883">
                                <g
                                   id="g9866">
                                <g
                                   id="g9850">
                                <g
                                   id="g9835">
                                <g
                                   id="g9821">
                                <g
                                   id="g9808">
                                <g
                                   id="g9796">
                                <g
                                   id="g9785">
                                <g
                                   id="g9775">
                                <g
                                   id="g9766">
                                <rect
                                   style="opacity:1;fill:#3a0000;fill-opacity:1;stroke:none;stroke-width:0.1;stroke-miterlimit:4;stroke-dasharray:none;stroke-opacity:1"
                                   id="rect4147"
                                   width="48.409115"
                                   height="48.409084"
                                   x="1.683316"
                                   y="1004.4776"
                                   ry="5.5026879" />
                                <path
                                   style="font-style:normal;font-variant:normal;font-weight:normal;font-stretch:normal;font-size:medium;font-family:Valencia;-inkscape-font-specification:Valencia;fill:#ffffff;fill-opacity:1;stroke:#000000;stroke-width:0.1;stroke-miterlimit:4;stroke-dasharray:none;stroke-opacity:1"
                                   d="m 14.033342,1009.4837 2.78125,4.2988 c 0.247957,0.62 0.499855,1.2335 0.757812,1.8535 l 0.320312,0 -0.740234,-1.6836 0.04883,0 0.05078,0 0.01172,0 1.199218,1.6836 0.320312,0 c -0.467957,-0.62 -0.920949,-1.2335 -1.378905,-1.8535 l -2.181641,-4.2988 -0.310547,0 2.162109,4.1602 -0.08984,0 -2.642578,-4.1602 -0.308594,0 z m 1.542969,0 3.55078,6.1523 0.320313,0 -3.550781,-6.1523 -0.320312,0 z m 9.039061,0 0.296876,4.2988 c -0.11,0.62 -0.206641,1.2335 -0.306641,1.8535 l 0.320312,0 0.228516,-1.6836 0.04883,0 0.05078,0 0.01172,0 0.228516,1.6836 0.320312,0 c -0.11,-0.62 -0.208594,-1.2335 -0.308593,-1.8535 l 0.298828,-4.2988 -0.310547,0 -0.238281,4.1602 -0.0918,0 -0.238282,-4.1602 -0.310547,0 z m 1.542969,0 0,6.1523 0.320313,0 0,-6.1523 -0.320313,0 z m 0.78125,0 0,6.1523 0.320313,0 0,-6.1523 -0.320313,0 z m 9.806641,0 -3.552734,6.1523 0.322265,0 3.550781,-6.1523 -0.320312,0 z m -30.0156241,7.6641 0,0.3125 4.1601561,2.6425 0,0.092 -4.1601561,-2.1621 0,0.3106 4.3007811,2.1816 c 0.619999,0.468 1.229609,0.921 1.84961,1.3789 l 0,-0.3203 -1.679688,-1.1992 0,-0.055 0,-0.051 0,-0.01 1.679688,0.7402 0,-0.3203 c -0.620001,-0.2479 -1.229611,-0.4998 -1.84961,-0.7578 l -4.3007811,-2.7832 z m 38.3164051,0.049 -6.150391,3.5507 0,0.3203 6.150391,-3.5507 0,-0.3203 z m 0,0.7812 -6.150391,3.5508 0,0.3203 6.150391,-3.5508 0,-0.3203 z m -32.166014,9.7735 c -0.620001,0.11 -1.229611,0.2085 -1.84961,0.3085 l -4.3007811,-0.2988 0,0.3086 4.1601561,0.2402 0,0.09 -4.1601561,0.2403 0,0.3105 4.3007811,-0.3008 c 0.619999,0.11 1.229609,0.2106 1.84961,0.3106 l 0,-0.3203 -1.679688,-0.2305 0,-0.049 0,-0.055 0,-0.01 1.679688,-0.2305 0,-0.3144 z m 26.015623,0.025 0,0.3183 6.150391,0 0,-0.3183 -6.150391,0 z m 0,0.7812 0,0.3184 6.150391,0 0,-0.3184 -6.150391,0 z m 0,0.7813 0,0.3183 6.150391,0 0,-0.3183 -6.150391,0 z m -32.1660141,0.029 0,0.3183 6.1503911,0 0,-0.3183 -6.1503911,0 z m 6.1503911,5.0234 -6.1503911,3.9902 0,0.4004 6.1503911,-3.1113 0,-0.3086 -5.320313,2.7402 5.320313,-3.4004 0,-0.3105 z m 26.015623,0.7519 0,0.3106 5.320313,3.4004 -5.320313,-2.7402 0,0.3085 6.150391,3.1114 0,-0.4004 -6.150391,-3.9903 z m -26.015623,0.8614 -6.1503911,3.5508 0,0.3203 6.1503911,-3.5508 0,-0.3203 z m 0,0.7812 -6.1503911,3.5508 0,0.3203 6.1503911,-3.5508 0,-0.3203 z m 26.015623,0.029 0,0.3203 6.150391,3.5508 0,-0.3203 -6.150391,-3.5508 z m -26.015623,0.752 -6.1503911,3.5508 0,0.3203 6.1503911,-3.5508 0,-0.3203 z m 4.271483,4.164 -3.109375,6.1504 0.398438,0 3.992187,-6.1504 -0.310547,0 -3.402343,5.3203 2.740234,-5.3203 -0.308594,0 z m 1.613281,0 -3.550781,6.1504 0.320313,0 3.548827,-6.1504 -0.318359,0 z m 0.78125,0 -3.550781,6.1504 0.320313,0 3.548827,-6.1504 -0.318359,0 z m 5.421875,0 0.4375,6.1504 0.400391,0 0.441406,-6.1504 -0.310547,0 -0.332031,5.3203 -0.330078,-5.3203 -0.306641,0 z m 1.611328,0 0,6.1504 0.31836,0 0,-6.1504 -0.31836,0 z m 6.134766,0 3.990234,6.1504 0.400391,0 -3.109375,-6.1504 -0.310547,0 2.740234,5.3203 -3.402343,-5.3203 -0.308594,0 z"
                                   id="path4417"
                                   inkscape:connector-curvature="0" />
                                <path
                                   style="opacity:1;fill:#4d4d4d;fill-opacity:1;stroke:none;stroke-width:0.07062136;stroke-miterlimit:4;stroke-dasharray:none;stroke-opacity:1"
                                   d="m 18.640979,1018.8862 2.190215,3.0146 0.259566,0 -2.190258,-3.0146 -0.259523,0 z m 1.469996,0 1.740494,3.0146 0.242464,0 -1.740496,-3.0146 -0.242462,0 z m 1.300544,0 1.342198,3.0146 0.229848,0 -1.342198,-3.0146 -0.229848,0 z m 1.183078,0 0.979505,3.0146 0.220796,0 -0.979504,-3.0146 -0.220797,0 z m 1.103781,0 0.640759,3.0146 0.21467,0 -0.640761,-3.0146 -0.214668,0 z m 1.054357,0 0.316836,3.0146 0.211144,0 -0.316836,-3.0146 -0.211144,0 z m 1.030166,0 0,3.0146 0.209983,0 0,-3.0146 -0.209983,0 z m 1.029007,0 -0.316836,3.0146 0.211144,0 0.316835,-3.0146 -0.211143,0 z m 1.050792,0 -0.640759,3.0146 0.214709,0 0.640759,-3.0146 -0.214709,0 z m 1.097691,0 -0.979502,3.0146 0.220756,0 0.979504,-3.0146 -0.220758,0 z m 1.173988,0 -1.342197,3.0146 0.229847,0 1.342198,-3.0146 -0.229848,0 z m 1.287968,0 -1.740494,3.0146 0.242424,0 1.740494,-3.0146 -0.242424,0 z m 1.452897,0 -2.190256,3.0146 0.259603,0 2.190218,-3.0146 -0.259565,0 z m 1.458902,0.2584 -2.629485,2.9204 c 0.06514,0.032 0.127728,0.067 0.187916,0.1053 l 2.629685,-2.9205 c -0.06096,-0.038 -0.123718,-0.073 -0.188116,-0.1053 z m -16.892506,10e-5 c -0.06439,0.033 -0.127189,0.067 -0.188156,0.1053 l 2.629685,2.9206 c 0.06018,-0.039 0.122789,-0.074 0.187917,-0.1053 l -2.629446,-2.9203 z m -0.986312,0.9029 c -0.03761,0.061 -0.0726,0.1239 -0.104852,0.1883 l 2.920329,2.6294 c 0.03101,-0.065 0.06634,-0.1278 0.105094,-0.1879 l -2.920568,-2.6298 z m 18.865132,0 -2.920609,2.6298 c 0.03876,0.061 0.07407,0.1228 0.105094,0.1879 l 2.920368,-2.6294 c -0.03224,-0.064 -0.06725,-0.1273 -0.104852,-0.1883 z m -19.228506,1.3876 0,0.2595 3.014606,2.1902 0,-0.2595 -3.014606,-2.1902 z m 19.591838,0 -3.014645,2.1902 0,0.2595 3.014645,-2.1902 0,-0.2595 z m -19.591838,1.4699 0,0.2426 3.014606,1.7405 0,-0.2426 -3.014606,-1.7405 z m 19.591838,0 -3.014645,1.7405 0,0.2426 3.014645,-1.7405 0,-0.2426 z m -19.591838,1.3007 0,0.2298 3.014606,1.3422 0,-0.2299 -3.014606,-1.3421 z m 19.591838,0 -3.014645,1.3421 0,0.2299 3.014645,-1.3422 0,-0.2298 z m -19.591838,1.183 0,0.2207 3.014606,0.9796 0,-0.2208 -3.014606,-0.9795 z m 19.591838,0 -3.014645,0.9795 0,0.2208 3.014645,-0.9796 0,-0.2207 z m -19.591838,1.1038 0,0.2146 3.014606,0.6409 0,-0.2147 -3.014606,-0.6408 z m 19.591838,0 -3.014645,0.6408 0,0.2147 3.014645,-0.6409 0,-0.2146 z m -19.591838,1.0543 0,0.2111 3.014606,0.3169 0,-0.2112 -3.014606,-0.3168 z m 19.591838,0 -3.014645,0.3169 0,0.2111 3.014645,-0.3169 0,-0.2111 z m -19.591838,1.0302 0,0.2099 3.014606,0 0,-0.2099 -3.014606,0 z m 16.577193,0 0,0.2099 3.014645,0 0,-0.2099 -3.014645,0 z m -13.562587,0.7121 -3.014606,0.3169 0,0.2111 3.014606,-0.3168 0,-0.2112 z m 13.562587,0 0,0.2112 3.014645,0.3168 0,-0.2111 -3.014645,-0.3169 z m -13.562587,0.727 -3.014606,0.6407 0,0.2147 3.014606,-0.6407 0,-0.2147 z m 13.562587,0 0,0.2147 3.014645,0.6407 0,-0.2147 -3.014645,-0.6407 z m 0,0.7588 0,0.2208 3.014645,0.9795 0,-0.2207 -3.014645,-0.9796 z m -13.562587,0 -3.014606,0.9796 0,0.2207 3.014606,-0.9795 0,-0.2208 z m 13.562587,0.8113 0,0.2299 3.014645,1.3422 0,-0.2298 -3.014645,-1.3423 z m -13.562587,0 -3.014606,1.3423 0,0.2298 3.014606,-1.3421 0,-0.23 z m 0,0.8898 -3.014606,1.7404 0,0.2425 3.014606,-1.7405 0,-0.2424 z m 13.562587,0 0,0.2424 3.014645,1.7405 0,-0.2425 -3.014645,-1.7404 z m 0,1.0031 0,0.2595 3.014645,2.1903 0,-0.2596 -3.014645,-2.1902 z m -13.562587,0 -3.014606,2.1903 0,0.2595 3.014606,-2.1902 0,-0.2596 z m 0.164245,1.0197 -2.920329,2.6295 c 0.03226,0.064 0.06725,0.1271 0.104852,0.1881 l 2.920567,-2.6298 c -0.03876,-0.061 -0.07407,-0.1227 -0.105094,-0.1878 z m 13.234136,0 c -0.03101,0.065 -0.06634,0.1277 -0.105094,0.1878 l 2.920609,2.6298 c 0.0376,-0.061 0.0726,-0.1237 0.104852,-0.1881 l -2.920368,-2.6295 z m -0.612364,0.6951 c -0.06019,0.039 -0.122774,0.074 -0.187916,0.1053 l 2.629485,2.9203 c 0.0644,-0.033 0.127147,-0.067 0.188116,-0.1053 l -2.629685,-2.9207 z m -12.009408,10e-5 -2.629685,2.9206 c 0.06097,0.038 0.123762,0.073 0.188156,0.1053 l 2.629446,-2.9203 c -0.06513,-0.032 -0.127738,-0.067 -0.187917,-0.1053 z m 0.948025,0.2693 -2.190215,3.0146 0.259484,0 2.190256,-3.0146 -0.259525,0 z m 1.020237,0 -1.740456,3.0146 0.242462,0 1.740496,-3.0146 -0.242502,0 z m 0.902286,0 -1.342198,3.0146 0.229848,0 1.342198,-3.0146 -0.229848,0 z m 0.820385,0 -0.979505,3.0146 0.220797,0 0.979463,-3.0146 -0.220755,0 z m 0.765035,0 -0.640759,3.0146 0.214668,0 0.640761,-3.0146 -0.21467,0 z m 0.730434,0 -0.316836,3.0146 0.211144,0 0.316836,-3.0146 -0.211144,0 z m 0.71333,0 0,3.0146 0.209983,0 0,-3.0146 -0.209983,0 z m 0.712171,0 0.316836,3.0146 0.211143,0 -0.316835,-3.0146 -0.211144,0 z m 0.726869,0 0.640759,3.0146 0.214709,0 -0.640759,-3.0146 -0.214709,0 z m 0.758948,0 0.979502,3.0146 0.220758,0 -0.979504,-3.0146 -0.220756,0 z m 0.811333,0 1.342157,3.0146 0.229848,0 -1.342198,-3.0146 -0.229807,0 z m 0.889631,0 1.740494,3.0146 0.242424,0 -1.740453,-3.0146 -0.242465,0 z m 1.003174,0 2.190256,3.0146 0.259526,0 -2.190218,-3.0146 -0.259564,0 z"
                                   id="use5508"
                                   inkscape:connector-curvature="0" />
                                <path
                                   style="opacity:1;fill:#ffffff;fill-opacity:1;stroke:#000000;stroke-width:0.08986484;stroke-miterlimit:4;stroke-dasharray:none;stroke-opacity:1"
                                   d="m 19.896147,1018.8861 1.740494,3.0146 0.567389,0 -1.740495,-3.0146 -0.567388,0 z m 5.700682,0 0,3.0146 0.491374,0 0,-3.0146 -0.491374,0 z m 5.610651,0 -1.740454,3.0146 0.567348,0 1.740495,-3.0146 -0.567389,0 z m 4.476312,3.8042 -3.014646,1.7405 0,0.5674 3.014646,-1.7405 0,-0.5674 z m -19.591838,0.1053 0,0.5674 3.014606,1.7405 0,-0.5674 -3.014606,-1.7405 z m 16.577192,5.596 0,0.4914 3.014646,0 0,-0.4914 -3.014646,0 z m -16.577192,0.091 0,0.4914 3.014606,0 0,-0.4914 -3.014606,0 z m 16.577192,3.7795 0,0.5675 3.014646,1.7404 0,-0.5674 -3.014646,-1.7405 z m -13.562586,0.1041 -3.014606,1.7405 0,0.5674 3.014606,-1.7405 0,-0.5674 z m 2.634772,3.0974 -1.740494,3.0146 0.567388,0 1.740455,-3.0146 -0.567349,0 z m 3.946171,0 0,3.0146 0.491414,0 0,-3.0146 -0.491414,0 z m 3.884213,0 1.740495,3.0146 0.567348,0 -1.740454,-3.0146 -0.567389,0 z"
                                   id="use5439"
                                   inkscape:connector-curvature="0" />
                                <path
                                   inkscape:connector-curvature="0"
                                   style="opacity:1;fill:#000000;fill-opacity:1;stroke:none;stroke-width:0.1;stroke-miterlimit:4;stroke-dasharray:none;stroke-opacity:1"
                                   d="m 4.6153731,1001.7665 c -3.1270233,0 -5.6425781,2.5175 -5.6425781,5.6445 l 0,42.543 c 0,3.127 2.5155548,5.6445 5.6425781,5.6445 l 42.5449219,0 c 3.127023,0 5.644531,-2.5175 5.644531,-5.6445 l 0,-42.543 c 0,-3.127 -2.517508,-5.6445 -5.644531,-5.6445 l -42.5449219,0 z m 2.7128906,3.2363 37.1191403,0 c 2.836482,0 5.121094,2.2827 5.121094,5.1192 l 0,37.1211 c 0,2.8364 -2.284612,5.1191 -5.121094,5.1191 l -37.1191403,0 c -2.836482,0 -5.1210937,-2.2827 -5.1210937,-5.1191 l 0,-37.1211 c 0,-2.8365 2.2846117,-5.1192 5.1210937,-5.1192 z"
                                   id="rect6621" />
                                <path
                                   inkscape:connector-curvature="0"
                                   style="opacity:1;fill:url(#linearGradient6653);fill-opacity:1;stroke:none;stroke-width:0.1;stroke-miterlimit:4;stroke-dasharray:none;stroke-opacity:1"
                                   d="m 6.6876387,1005.0028 c -2.4819221,0 -4.4804687,1.9966 -4.4804687,4.4785 l 0,38.4004 c 0,2.482 1.9985466,4.4805 4.4804687,4.4805 l 38.4003903,0 c 2.481922,0 4.480469,-1.9985 4.480469,-4.4805 l 0,-38.4004 c 0,-2.4819 -1.998547,-4.4785 -4.480469,-4.4785 l -38.4003903,0 z m 1.2421875,1.5313 35.9160158,0 c 2.32129,0 4.189453,1.8701 4.189453,4.1914 l 0,35.914 c 0,2.3213 -1.868163,4.1895 -4.189453,4.1895 l -35.9160158,0 c -2.3212907,0 -4.1894531,-1.8682 -4.1894531,-4.1895 l 0,-35.914 c 0,-2.3213 1.8681624,-4.1914 4.1894531,-4.1914 z"
                                   id="rect6628" />
                                <path
                                   inkscape:connector-curvature="0"
                                   style="opacity:1;fill:url(#linearGradient6645);fill-opacity:1;stroke:none;stroke-width:0.1;stroke-miterlimit:4;stroke-dasharray:none;stroke-opacity:1"
                                   d="m 4.6153731,1001.7665 c -3.1270233,0 -5.6425781,2.5175 -5.6425781,5.6445 l 0,33.0176 3.234375,-1.4219 0,-28.8847 c 0,-2.8365 2.2846117,-5.1192 5.1210937,-5.1192 l 37.1191403,0 c 2.836482,0 5.121094,2.2827 5.121094,5.1192 l 0,8.0371 3.236328,-1.4239 0,-9.3242 c 0,-3.127 -2.517508,-5.6445 -5.644531,-5.6445 l -42.5449219,0 z"
                                   id="path6633" />
                                </g>
                                </g>
                                </g>
                                </g>
                                </g>
                                </g>
                                </g>
                                </g>
                                </g>
                                </g>
                                </g>
                                </g>
                              </g>
                            </g>
                          </g>
                        </g>
                      </g>
                    </g>
                  </g>
                </g>
              </g>
            </g>
          </g>
        </g>
      </g>
    </g>
    <rect
       style="opacity:1;fill:#800000;fill-opacity:1;stroke:none;stroke-width:0.244;stroke-miterlimit:4;stroke-dasharray:none;stroke-opacity:1"
       id="hint-square-clock"
       width="6.4000001"
       height="5.1199999"
       x="-23.039999"
       y="943.56219"
       ry="7.4424479e-06"
       inkscape:label="#rect5856" />
    <g
       id="SecondHand"
       inkscape:label="#g6215">
      <g
         id="g6189">
        <g
           id="g6164">
          <g
             id="g6140">
            <g
               id="g6117">
              <g
                 id="g6095">
                <g
                   id="g6074">
                  <g
                     id="g6054">
                    <g
                       id="g6035">
                      <g
                         id="g6017">
                        <g
                           id="g6000">
                          <g
                             id="g5984">
                            <g
                               id="g5969">
                              <g
                                 id="g5955">
                                <g
                                   id="g5942">
                                <g
                                   id="g5930">
                                <g
                                   id="g5919">
                                <g
                                   id="g5909">
                                <g
                                   id="g5900">
                                <g
                                   id="g5892">
                                <g
                                   id="g5885">
                                <g
                                   id="g5879">
                                <g
                                   id="g5874">
                                <g
                                   id="g5870">
                                <rect
                                   style="opacity:1;fill:none;fill-opacity:1;stroke:none;stroke-width:0.1;stroke-miterlimit:4;stroke-dasharray:none;stroke-opacity:1"
                                   id="rect5868"
                                   width="8"
                                   height="23"
                                   x="-17.24"
                                   y="1025.2501"
                                   ry="7.1181271e-06" />
                                <path
                                   style="fill:#ff8332;fill-rule:evenodd;stroke:none;stroke-width:0.05769818;stroke-linecap:butt;stroke-linejoin:miter;stroke-miterlimit:4;stroke-dasharray:none;stroke-opacity:1;fill-opacity:1"
                                   d="m -13.461151,1026.6662 c 0,8.6322 0,19.7308 0.221151,21.5806 0.221151,-1.8498 0.221151,-12.9484 0.221151,-21.5806 0,-1.8497 -0.442302,-1.8497 -0.442302,0 z"
                                   id="path5862"
                                   inkscape:connector-curvature="0"
                                   sodipodi:nodetypes="cccc" />
                                </g>
                                </g>
                                </g>
                                </g>
                                </g>
                                </g>
                                </g>
                                </g>
                                </g>
                                </g>
                              </g>
                            </g>
                          </g>
                        </g>
                      </g>
                    </g>
                  </g>
                </g>
              </g>
            </g>
          </g>
        </g>
      </g>
    </g>
    <g
       id="MinuteHand"
       inkscape:label="#g6618"
       transform="matrix(1,0,0,0.89096129,0,112.02661)">
      <g
         id="g6591">
        <g
           id="g6565">
          <g
             id="g6540">
            <g
               id="g6516">
              <g
                 id="g6493">
                <g
                   id="g6471">
                  <g
                     id="g6450">
                    <g
                       id="g6430">
                      <g
                         id="g6411">
                        <g
                           id="g6393">
                          <g
                             id="g6376">
                            <g
                               id="g6360">
                              <g
                                 id="g6345">
                                <g
                                   id="g6331">
                                <g
                                   id="g6318">
                                <g
                                   id="g6306">
                                <g
                                   id="g6295">
                                <g
                                   id="g6285">
                                <g
                                   id="g6276">
                                <g
                                   id="g6268">
                                <g
                                   id="g6261">
                                <g
                                   id="g6255">
                                <g
                                   id="g6250">
                                <g
                                   id="g6246">
                                <path
                                   style="fill:#ffffff;fill-rule:evenodd;stroke:#000000;stroke-width:0.0776575;stroke-linecap:butt;stroke-linejoin:miter;stroke-miterlimit:4;stroke-dasharray:none;stroke-opacity:1"
                                   d="m -29.581172,1028.8203 c 0,7.4989 0,17.1402 0.461172,18.7471 0.461172,-1.6069 0.461172,-11.2482 0.461172,-18.7471 0,-1.6068 -0.922344,-1.6068 -0.922344,0 z"
                                   id="path5864"
                                   inkscape:connector-curvature="0"
                                   sodipodi:nodetypes="cccc" />
                                <rect
                                   ry="0.95999998"
                                   y="1027.4022"
                                   x="-30.08"
                                   height="20.48"
                                   width="1.92"
                                   id="rect6242"
                                   style="opacity:1;fill:none;fill-opacity:1;stroke:none;stroke-width:0.1;stroke-miterlimit:4;stroke-dasharray:none;stroke-opacity:1" />
                                </g>
                                </g>
                                </g>
                                </g>
                                </g>
                                </g>
                                </g>
                                </g>
                                </g>
                                </g>
                                </g>
                              </g>
                            </g>
                          </g>
                        </g>
                      </g>
                    </g>
                  </g>
                </g>
              </g>
            </g>
          </g>
        </g>
      </g>
    </g>
    <g
       id="HourHand"
       inkscape:label="#g7382"
       transform="matrix(1,0,0,0.76252912,0,243.97811)">
      <g
         id="g7344">
        <g
           id="g7307">
          <g
             id="g7271">
            <g
               id="g7236">
              <g
                 id="g7202">
                <g
                   id="g7169">
                  <g
                     id="g7137">
                    <g
                       id="g7106">
                      <g
                         id="g7076">
                        <g
                           id="g7047">
                          <g
                             id="g7019">
                            <g
                               id="g6992">
                              <g
                                 id="g6966">
                                <g
                                   id="g6941">
                                <g
                                   id="g6917">
                                <g
                                   id="g6894">
                                <g
                                   id="g6872">
                                <g
                                   id="g6851">
                                <g
                                   id="g6831">
                                <g
                                   id="g6812">
                                <g
                                   id="g6794">
                                <g
                                   id="g6777">
                                <g
                                   id="g6761">
                                <g
                                   id="g6746">
                                <g
                                   id="g6732">
                                <g
                                   id="g6719">
                                <g
                                   id="g6707">
                                <g
                                   id="g6696">
                                <g
                                   id="g6686">
                                <g
                                   id="g6677">
                                <g
                                   id="g6669">
                                <g
                                   id="g6662">
                                <g
                                   id="g6656">
                                <g
                                   id="g6650">
                                <g
                                   id="g6646">
                                <path
                                   style="fill:#ffffff;fill-opacity:1;fill-rule:evenodd;stroke:#000000;stroke-width:0.08425208;stroke-linecap:butt;stroke-linejoin:miter;stroke-miterlimit:4;stroke-dasharray:none;stroke-opacity:1"
                                   d="m -37.407872,1028.817 c 0,6.6963 0,15.3058 0.607874,16.7408 0.607874,-1.435 0.607874,-10.0445 0.607874,-16.7408 0,-1.4349 -1.215748,-1.4349 -1.215748,0 z"
                                   id="path5866"
                                   inkscape:connector-curvature="0"
                                   sodipodi:nodetypes="cccc" />
                                <rect
                                   style="opacity:1;fill:none;fill-opacity:1;stroke:none;stroke-width:0.1;stroke-miterlimit:4;stroke-dasharray:none;stroke-opacity:1"
                                   id="rect6244"
                                   width="1.92"
                                   height="18.559999"
                                   x="-37.759998"
                                   y="1027.4022"
                                   ry="0.95999998" />
                                </g>
                                </g>
                                </g>
                                </g>
                                </g>
                                </g>
                                </g>
                                </g>
                                </g>
                                </g>
                                </g>
                                </g>
                                </g>
                                </g>
                                </g>
                                </g>
                                </g>
                                </g>
                                </g>
                                </g>
                                </g>
                                </g>
                              </g>
                            </g>
                          </g>
                        </g>
                      </g>
                    </g>
                  </g>
                </g>
              </g>
            </g>
          </g>
        </g>
      </g>
    </g>
    <circle
       style="opacity:1;fill:url(#radialGradient7429);fill-opacity:1;stroke:none;stroke-width:0.1;stroke-miterlimit:4;stroke-dasharray:none;stroke-opacity:1"
       id="HandCenterScrew"
       cx="-23.039999"
       cy="1022.9222"
       r="0.95194733"
       inkscape:label="#path7421" />
    <g
       id="Glass"
       transform="translate(-19.071192,0)"
       inkscape:label="#g11647">
      <g
         id="g11619">
        <g
           id="g11592">
          <g
             id="g11566">
            <g
               id="g11541">
              <g
                 id="g11517">
                <g
                   id="g11494">
                  <g
                     id="g11472">
                    <g
                       id="g11451">
                      <g
                         id="g11431">
                        <g
                           id="g11412">
                          <g
                             id="g11394">
                            <g
                               id="g11377">
                              <g
                                 id="g11361">
                                <g
                                   id="g11346">
                                <g
                                   id="g11332">
                                <g
                                   id="g11319">
                                <g
                                   id="g11307">
                                <g
                                   id="g11296">
                                <g
                                   id="g11286">
                                <g
                                   id="g11277">
                                <rect
                                   ry="5.1943855"
                                   y="1002.0609"
                                   x="78.338631"
                                   height="53.242744"
                                   width="53.242744"
                                   id="rect4234"
                                   style="opacity:1;fill:none;fill-opacity:1;stroke:none;stroke-width:0.2475463;stroke-miterlimit:4;stroke-dasharray:none;stroke-opacity:1" />
                                <rect
                                   ry="5.1943898"
                                   y="1006.2822"
                                   x="82.559998"
                                   height="44.799953"
                                   width="44.799999"
                                   id="rect4236"
                                   style="opacity:1;fill:url(#radialGradient4244);fill-opacity:1;stroke:none;stroke-width:0.244;stroke-miterlimit:4;stroke-dasharray:none;stroke-opacity:1" />
                                <path
                                   sodipodi:nodetypes="ssccsss"
                                   inkscape:connector-curvature="0"
                                   id="rect4252"
                                   d="m 87.753906,1006.2821 c -2.877692,0 -5.193359,2.3176 -5.193359,5.1953 l 0,32.6661 C 90.24,1034.4422 94.08,1025.4822 127.35938,1027.6395 l 0,-16.1621 c 0,-2.8777 -2.31567,-5.1953 -5.19336,-5.1953 z"
                                   style="opacity:1;fill:url(#linearGradient4259);fill-opacity:1;stroke:none;stroke-width:0.244;stroke-miterlimit:4;stroke-dasharray:none;stroke-opacity:1" />
                                <path
                                   id="rect11218"
                                   transform="translate(-1.9550781,1001.7665)"
                                   d="m 89.708984,4.515625 c -2.877692,0 -5.193359,2.3176205 -5.193359,5.1953125 l 0,2.4843745 44.798825,0 0,-2.4843745 c 0,-2.877692 -2.31566,-5.1953125 -5.19336,-5.1953125 l -34.412106,0 z"
                                   style="opacity:1;fill:url(#linearGradient11239);fill-opacity:1;stroke:none;stroke-width:0.244;stroke-miterlimit:4;stroke-dasharray:none;stroke-opacity:1"
                                   inkscape:connector-curvature="0" />
                                <path
                                   inkscape:connector-curvature="0"
                                   style="opacity:1;fill:url(#linearGradient11255);fill-opacity:1;stroke:none;stroke-width:0.244;stroke-miterlimit:4;stroke-dasharray:none;stroke-opacity:1"
                                   d="m 82.559998,1011.4762 c 0,-2.8777 2.3176,-5.1934 5.1953,-5.1934 l 2.4844,0 0,44.7989 -2.4844,0 c -2.8777,0 -5.1953,-2.3157 -5.1953,-5.1934 l 0,-34.4121 z"
                                   id="path11225" />
                                <path
                                   id="path11229"
                                   d="m 127.36,1011.4762 c 0,-2.8777 -2.3176,-5.1934 -5.1953,-5.1934 l -2.4844,0 0,44.7989 2.4844,0 c 2.8777,0 5.1953,-2.3157 5.1953,-5.1934 l 0,-34.4121 z"
                                   style="opacity:1;fill:url(#linearGradient11247);fill-opacity:1;stroke:none;stroke-width:0.244;stroke-miterlimit:4;stroke-dasharray:none;stroke-opacity:1"
                                   inkscape:connector-curvature="0" />
                                <path
                                   inkscape:connector-curvature="0"
                                   style="opacity:1;fill:url(#linearGradient11275);fill-opacity:1;stroke:none;stroke-width:0.244;stroke-miterlimit:4;stroke-dasharray:none;stroke-opacity:1"
                                   d="m 122.16605,1051.0822 c 2.8777,0 5.1934,-2.3176 5.1934,-5.1953 l 0,-2.4844 -44.798903,0 0,2.4844 c 0,2.8777 2.3157,5.1953 5.1934,5.1953 l 34.412103,0 z"
                                   id="path11231" />
                                </g>
                                </g>
                                </g>
                                </g>
                                </g>
                                </g>
                                </g>
                              </g>
                            </g>
                          </g>
                        </g>
                      </g>
                    </g>
                  </g>
                </g>
              </g>
            </g>
          </g>
        </g>
      </g>
    </g>
  </g>
</svg>
